<?xml version="1.0" encoding="UTF-8"?>
<svg xmlns="http://www.w3.org/2000/svg" width="117" height="173" viewBox="0 0 117 173" fill="none">
  <path d="M24.0677 29.5062C22.9719 28.0844 22.0939 26.4631 21.529 24.8187L17.4928 12.9906C15.832 8.12813 12.3267 3.58014 8.55602 1.40346C7.29684 0.674503 6.09214 0.564909 5.26177 1.10261C4.35652 1.69136 1.8314 3.97084 1.80417 3.99398L1.34811 3.48895C1.45021 3.39366 3.94131 1.14958 4.8942 0.531565C5.94918 -0.149751 7.40575 -0.0462838 8.89634 0.81472C12.8032 3.06831 16.431 7.7613 18.1394 12.7715L22.1755 24.5988C22.7132 26.1731 23.5505 27.727 24.6055 29.0903L24.0677 29.5062Z" fill="#141414"></path>
  <path d="M13.7943 46.5856C7.32827 28.4705 5.89207 12.6362 5.57217 6.66912L6.25281 6.63306C6.5659 12.5702 8.00205 28.3262 14.4341 46.3569L13.7943 46.5856Z" fill="#141414"></path>
  <path d="M13.6608 56.8619C4.54714 35.8078 2.61408 15.7147 2.19889 8.05352C2.15125 7.07817 2.4508 6.32877 3.04295 5.94149C3.64872 5.55285 4.43818 5.60322 5.26856 6.08307C8.24293 7.80167 11.0132 11.3798 12.3132 15.1968L16.3493 27.0249C17.0572 29.0926 18.1462 31.1434 19.5075 32.9566L18.9697 33.3656C17.5608 31.4959 16.431 29.3792 15.7027 27.2447L11.6665 15.4166C10.4142 11.746 7.76649 8.31353 4.92824 6.67251C4.32928 6.32607 3.7916 6.27025 3.41725 6.51324C3.02929 6.76099 2.84549 7.29528 2.87953 8.01675C3.28791 15.6419 5.21411 35.639 14.287 56.5917L13.6608 56.8619Z" fill="#141414"></path>
  <path d="M15.0033 63.376C3.39173 39.7464 1.00267 15.9338 0.512617 6.79216C0.424135 5.03613 0.968616 3.63878 2.01679 2.96019C3.06497 2.27955 4.52834 2.38232 6.01892 3.24401C9.91896 5.49827 13.5468 10.1912 15.262 15.2L19.2913 27.0274C19.829 28.5847 20.6526 30.1243 21.6939 31.4781L21.1562 31.8926C20.074 30.481 19.2028 28.874 18.6515 27.248L14.6153 15.4199C12.9546 10.5581 9.44932 6.00944 5.67861 3.83345C4.41263 3.10381 3.21473 2.99424 2.38436 3.53194C1.54718 4.0744 1.11158 5.24918 1.19325 6.75611C1.68331 15.8555 4.05876 39.5586 15.6159 63.0752L15.0033 63.376Z" fill="#141414"></path>
  <path d="M54.7378 172.386C49.3335 172.386 43.9361 171.199 39.825 168.825C39.4507 168.609 37.2794 167.096 36.6328 166.478C34.3391 164.293 33.25 161.757 33.4815 159.145C33.7537 156.194 38.7292 147.454 38.9402 147.083L40.1245 147.758C38.7224 150.213 35.0401 157.062 34.8359 159.267C34.6453 161.45 35.5914 163.603 37.5721 165.493C38.1302 166.022 40.2062 167.473 40.5057 167.646C48.3534 172.177 61.1153 172.177 68.963 167.646C72.8834 165.386 74.9458 162.305 74.6259 159.193C74.3945 157.007 70.7327 150.198 69.3374 147.758L70.5217 147.083C70.7327 147.451 75.6741 156.135 75.9736 159.053C76.3547 162.723 74.0473 166.285 69.6436 168.825C65.5326 171.199 60.1352 172.386 54.7378 172.386Z" fill="#141414"></path>
  <path d="M54.6305 158.457C50.5535 158.457 46.4765 157.561 43.3796 155.771C40.2419 153.961 38.5198 151.516 38.5198 148.882C38.5198 146.25 40.2419 143.804 43.3796 141.995C44.1487 141.55 44.9995 141.15 45.8979 140.807L46.3812 142.08C45.5508 142.397 44.7681 142.765 44.0602 143.175C41.3649 144.73 39.8811 146.757 39.8811 148.882C39.8811 151.009 41.3649 153.036 44.0602 154.592C49.8865 157.956 59.3677 157.956 65.1939 154.592C67.8892 153.036 69.373 151.009 69.373 148.883C69.373 146.758 67.8892 144.731 65.1939 143.175C64.4452 142.742 63.6148 142.354 62.7232 142.023L63.1929 140.747C64.1594 141.105 65.0578 141.525 65.8745 141.996C69.0123 143.804 70.7343 146.25 70.7343 148.883C70.7343 151.517 69.0123 153.962 65.8745 155.771C62.7777 157.561 58.7007 158.457 54.6305 158.457Z" fill="#141414"></path>
  <path d="M53.9995 153.94C51.9372 153.94 49.6502 153.511 47.4177 152.224C45.4439 151.084 44.3821 149.547 44.4366 147.895C44.4502 147.514 45.8455 140.643 46.1246 139.268L46.7916 139.405C46.1382 142.642 45.1444 147.584 45.1172 147.922C45.0764 149.306 46.0088 150.626 47.7581 151.634C53.9791 155.227 60.9148 151.673 60.9828 151.634C62.5959 150.703 63.5284 149.485 63.6169 148.204C63.6101 147.795 62.5892 142.588 61.9494 139.405L62.6164 139.269C63.018 141.258 64.3248 147.785 64.2975 148.249C64.1954 149.764 63.1404 151.175 61.3232 152.224C61.2755 152.251 58.0833 153.94 53.9995 153.94Z" fill="#141414"></path>
  <path d="M54.1148 144.261C52.4065 144.261 50.4938 143.898 48.6153 142.812C47.009 141.885 46.1242 140.634 46.1242 139.287C46.1242 137.94 47.009 136.689 48.6153 135.763C49.187 135.434 49.8268 135.157 50.5279 134.939L50.732 135.589C50.0786 135.791 49.4797 136.048 48.9556 136.352C47.5671 137.151 46.8048 138.194 46.8048 139.287C46.8048 140.38 47.5671 141.423 48.9556 142.222C54.1692 145.234 59.7437 142.252 59.7981 142.222C61.1866 141.423 61.949 140.38 61.949 139.288C61.949 138.194 61.1866 137.152 59.7981 136.352C59.274 136.05 58.6819 135.794 58.0353 135.592L58.2394 134.942C58.9337 135.159 59.5735 135.436 60.1384 135.763C61.7447 136.69 62.6296 137.941 62.6296 139.288C62.6296 140.634 61.7447 141.885 60.1384 142.812C60.1044 142.833 57.5044 144.26 54.1148 144.261Z" fill="#141414"></path>
  <path d="M54.44 141.044C53.4259 141.044 52.4049 140.816 51.6154 140.358C50.785 139.878 50.3222 139.194 50.3494 138.478V128.301H51.03V138.502C51.0096 138.964 51.3431 139.414 51.9557 139.769C53.3238 140.559 55.5562 140.559 56.9243 139.769C57.4892 139.44 57.8227 139.023 57.8499 138.593C57.8703 138.243 57.8908 138.068 57.8976 137.958C57.9112 137.781 57.9112 137.781 57.9044 137.421C57.8908 136.703 57.8567 134.795 57.8499 128.287L58.5306 128.286C58.5374 134.788 58.5715 136.691 58.5851 137.408C58.5919 137.817 58.5919 137.818 58.5783 138.019C58.5646 138.127 58.551 138.297 58.5306 138.638C58.4829 139.301 58.0337 139.913 57.2646 140.358C56.4683 140.816 55.4542 141.044 54.44 141.044Z" fill="#141414"></path>
  <path d="M93.9218 72.8643L92.5878 72.6131C95.4872 57.1491 94.7249 44.5451 94.7181 44.4199L96.0726 44.3328C96.0794 44.46 96.8553 57.2342 93.9218 72.8643Z" fill="#141414"></path>
  <path d="M54.5499 127.566C52.6306 127.566 50.718 127.135 49.2206 126.272C48.8871 126.079 48.5739 125.863 48.2949 125.627C28.2433 113.953 19.7899 92.4666 16.2233 76.49C12.3709 59.2162 13.2626 44.4798 13.2694 44.3328L14.6307 44.4199C14.6239 44.5649 13.7459 59.1373 17.5642 76.2287C21.0695 91.9412 29.3733 113.067 49.03 124.48C49.064 124.502 49.0981 124.526 49.1321 124.553C49.3635 124.749 49.6222 124.93 49.9012 125.094C52.4672 126.573 56.6327 126.573 59.1987 125.094C59.4437 124.951 59.6751 124.79 59.8997 124.603C59.9338 124.577 59.9678 124.554 60.0018 124.533C75.3842 115.916 85.866 100.397 91.1545 78.4067L92.4749 78.7253C87.1047 101.075 76.4187 116.875 60.7233 125.692C60.451 125.911 60.172 126.102 59.8793 126.273C58.3819 127.135 56.4693 127.566 54.5499 127.566Z" fill="#141414"></path>
  <path d="M55.1987 22.1245C44.9552 22.1245 34.7048 24.387 26.9048 28.9098C19.479 33.2175 15.3816 38.9056 15.3816 44.9238C15.3816 50.944 19.479 56.6321 26.9048 60.9405C42.5117 69.9875 67.8926 69.9875 83.4995 60.9412C90.9253 56.6334 95.0159 50.9454 95.0159 44.9258C95.0159 38.907 90.9253 33.2182 83.4928 28.9098C75.6927 24.387 65.4491 22.1245 55.1987 22.1245ZM55.1987 69.0666C44.7101 69.0666 34.2148 66.7511 26.2241 62.118C18.356 57.5557 14.0203 51.4497 14.0203 44.9238C14.0203 38.3992 18.356 32.2939 26.2241 27.7323C42.1986 18.4668 68.1988 18.4682 84.1802 27.7323C92.0483 32.2946 96.3772 38.4006 96.3772 44.9258C96.3772 51.4511 92.0483 57.5571 84.1802 62.1187L83.8398 61.5299L84.1802 62.1187C76.1895 66.7504 65.6941 69.0666 55.1987 69.0666Z" fill="#141414"></path>
  <path d="M54.8105 25.4673C46.2413 25.4673 37.679 27.3493 31.1585 31.1146C24.9034 34.7253 21.4594 39.5047 21.4594 44.5734C21.4594 49.6435 24.9034 54.4229 31.1585 58.0343C44.1994 65.5642 65.4216 65.5642 78.4626 58.0343C84.7177 54.4236 88.1617 49.6442 88.1617 44.5748C88.1617 39.5054 84.7177 34.726 78.4626 31.1152C71.9421 27.3499 63.3729 25.4673 54.8105 25.4673ZM54.8105 64.3527C46.1188 64.3527 37.4339 62.4428 30.8181 58.6238C24.3453 54.8864 20.7788 49.8967 20.7788 44.5734C20.7788 39.2515 24.3453 34.2618 30.8181 30.5251C44.0497 22.8863 65.5714 22.887 78.8029 30.5258C85.2758 34.2632 88.8423 39.2522 88.8423 44.5748C88.8423 49.8974 85.2758 54.8871 78.8029 58.6238C72.1872 62.4422 63.5023 64.3527 54.8105 64.3527Z" fill="#141414"></path>
  <path d="M102.812 109.117L102.383 108.591C114.804 98.4097 115.941 78.5141 116.309 71.9766C116.39 70.6092 116.036 68.3454 115.07 66.6037C113.974 64.6339 112.055 63.3795 111.279 62.9316C108.481 61.3192 105.555 61.2858 103.628 62.8445C103.451 62.9847 100.627 65.3159 100.627 65.3159L100.191 64.7904C100.191 64.7904 103.023 62.4558 103.2 62.3156C105.35 60.5752 108.577 60.5861 111.619 62.3422C112.443 62.8179 114.484 64.1547 115.662 66.2735C116.697 68.133 117.071 70.5534 116.989 72.0154C116.615 78.6264 115.471 98.7466 102.812 109.117Z" fill="#141414"></path>
  <path d="M94.7508 73.4947C93.757 73.4947 92.6681 73.1687 91.5722 72.5385L87.3727 70.1133L84.5753 72.4207L84.1396 71.8945L87.1277 69.4381C87.2366 69.3476 87.3863 69.3347 87.5088 69.4061L91.9126 71.9483C93.0628 72.6126 94.1926 72.9039 95.1727 72.791L95.2476 73.4668C95.0843 73.4852 94.9209 73.4947 94.7508 73.4947Z" fill="#141414"></path>
  <path d="M96.4095 77.922L95.967 77.404C96.1985 77.2087 98.2131 75.4853 98.5875 75.2294C99.1252 74.8612 99.5744 74.3595 99.9283 73.7374L103.522 67.3538L104.114 67.6873L100.52 74.0716C100.119 74.7849 99.5948 75.3628 98.9754 75.7909C98.6827 75.9903 97.022 77.3972 96.4095 77.922Z" fill="#141414"></path>
  <path d="M82.6152 112.451C80.9 112.451 79.144 112.342 77.3812 112.123L77.4628 111.448C83.6294 112.214 89.6871 111.601 94.084 109.766C95.5814 109.139 96.9903 108.156 98.3448 107.205L98.3992 107.166L98.7939 107.723L98.7327 107.762C97.3442 108.734 95.9149 109.74 94.3426 110.394C91.1028 111.745 86.9985 112.451 82.6152 112.451Z" fill="#141414"></path>
  <path d="M80.7053 118.245C78.3095 118.245 75.7912 118.05 73.1571 117.658L73.2592 116.985C84.3604 118.638 93.3379 116.752 99.9469 111.377C112.232 101.382 113.342 81.8631 113.757 74.5149C113.839 73.1482 113.478 70.8837 112.518 69.1426C111.422 67.1729 109.503 65.9178 108.72 65.4699C106.74 64.3258 104.684 63.9582 102.935 64.4374C101.594 64.8043 100.519 65.6435 99.8312 66.8646L95.795 74.031C95.2846 74.9417 94.5086 75.561 93.5557 75.8224C92.3102 76.1634 90.7923 75.8741 89.2881 75.007L85.3949 72.7595V74.781L89.6284 77.2259C91.4934 78.2999 93.3379 78.6668 94.8285 78.2577C95.9175 77.9596 96.8092 77.247 97.4013 76.1968L101.438 69.0304C102.016 68.0026 102.894 67.3036 103.969 67.0089C105.378 66.6216 107.094 66.951 108.795 67.9338C112.341 69.9805 111.695 74.406 111.177 77.9616C111.096 78.5082 111.021 79.0329 110.966 79.5216C110.436 84.1098 109.639 88.1528 108.53 91.8834C107.073 96.7724 105.181 100.791 102.744 104.167C99.8924 108.125 96.183 111.138 92.0107 112.878C87.4572 114.778 82.0939 115.363 76.0566 114.618L76.1383 113.943C82.053 114.672 87.3075 114.103 91.752 112.25C95.8018 110.558 99.416 107.626 102.193 103.769C104.582 100.456 106.44 96.5042 107.876 91.6894C108.972 87.9976 109.762 83.9914 110.293 79.4434C110.347 78.9492 110.422 78.4177 110.504 77.863C110.994 74.5108 111.599 70.3392 108.455 68.524C106.91 67.6323 105.385 67.3274 104.146 67.665C103.248 67.9107 102.52 68.4981 102.03 69.3645L97.9935 76.5309C97.3128 77.7425 96.2783 78.5667 95.0055 78.9145C93.3379 79.3699 91.3096 78.9806 89.2881 77.8153L84.8844 75.2724C84.7823 75.2119 84.7143 75.0996 84.7143 74.9777V72.1701C84.7143 72.0483 84.7823 71.936 84.8844 71.8747C84.9933 71.8141 85.1227 71.8141 85.2248 71.8747L89.6284 74.4176C90.9761 75.1935 92.3033 75.4596 93.3719 75.1656C94.1479 74.9539 94.7809 74.4462 95.2029 73.6975L99.239 66.5304C100.022 65.148 101.233 64.1972 102.758 63.7806C104.684 63.2538 106.923 63.6451 109.061 64.8805C109.891 65.3569 111.933 66.6937 113.11 68.8118C114.145 70.672 114.526 73.0917 114.438 74.5537C114.016 81.9842 112.893 101.72 100.376 111.906C95.1893 116.124 88.5939 118.245 80.7053 118.245Z" fill="#141414"></path>
  <path d="M48.3325 97.954C48.3325 106.182 42.5471 109.502 35.4005 105.369C28.2606 101.237 22.4684 91.2157 22.4684 82.9875C22.4684 74.7599 28.2606 71.4398 35.4005 75.5733C42.5471 79.7061 48.3325 89.7264 48.3325 97.954Z" fill="#117BDF"></path>
</svg>
