<?xml version="1.0" encoding="UTF-8"?>
<svg xmlns="http://www.w3.org/2000/svg" width="175" height="185" viewBox="0 0 175 185" fill="none">
  <path d="M134.025 124.665C133.467 124.665 132.932 124.548 132.524 124.313L88.4259 98.8528C87.9706 98.5899 87.7193 98.2079 87.7193 97.7773C87.7193 97.2871 88.0563 96.8115 88.6438 96.4724L91.1628 94.9634L91.5361 95.5857L89.0119 97.0976C88.6561 97.3038 88.4455 97.5566 88.4455 97.778C88.4455 97.9828 88.6321 98.1339 88.789 98.2239L132.887 123.684C133.552 124.068 134.775 124.01 135.558 123.559L138.077 122.05L138.45 122.672L135.926 124.184C135.374 124.503 134.684 124.665 134.025 124.665Z" fill="#141414"></path>
  <path d="M170.473 141.14L169.753 139.88L172.881 138.09C172.969 138.035 173.037 137.91 173.037 137.775V63.7501C173.037 61.1403 171.127 57.8318 168.867 56.5269L75.9689 2.89261C74.9552 2.30731 74.0859 2.23541 73.7512 2.46778C72.9851 2.98118 69.9962 5.00211 69.9962 5.00211L69.1821 3.79886C69.1821 3.79886 72.1754 1.77503 72.932 1.26816C73.8158 0.652368 75.2275 0.788121 76.6951 1.63484L169.592 55.2691C172.293 56.8275 174.489 60.6327 174.489 63.7501V137.775C174.489 138.412 174.167 138.995 173.628 139.335L170.473 141.14Z" fill="#141414"></path>
  <path d="M166.557 131.886L70.1089 76.1282L70.4727 75.4993L166.92 131.257L166.557 131.886Z" fill="#141414"></path>
  <path d="M167.054 66.1199L70.1089 10.3217L70.4713 9.69208L167.417 65.4911L167.054 66.1199Z" fill="#141414"></path>
  <path d="M169.719 141.183C169.593 141.183 169.467 141.151 169.355 141.086L67.6915 82.3899C67.4663 82.2599 67.3284 82.0202 67.3284 81.761V65.6414H68.7807V81.3413L168.992 139.199V65.8186C168.992 63.2451 167.109 59.9839 164.881 58.6985L72.1647 5.16808C71.209 4.61619 70.3441 4.50726 69.7312 4.86164C69.1184 5.21601 68.7807 6.01841 68.7807 7.12219V20.6188H67.3284V7.12219C67.3284 5.47741 67.9238 4.22842 69.0051 3.60391C70.0871 2.98013 71.4668 3.08905 72.8908 3.91035L165.607 57.4401C168.274 58.9803 170.445 62.7382 170.445 65.8186V140.457C170.445 140.716 170.306 140.956 170.082 141.086C169.969 141.151 169.843 141.183 169.719 141.183Z" fill="#141414"></path>
  <path d="M100.402 184.975C98.796 184.975 97.2565 184.642 96.0816 183.963L2.53256 129.953C1.27629 129.227 0.587871 128.182 0.594406 127.007V121.842H2.04675V127.01C2.04239 127.823 2.70321 128.374 3.25873 128.695L96.8078 182.705C98.8977 183.912 102.727 183.739 105.17 182.328L167.519 146.192C168.47 145.64 169.063 144.614 169.066 143.515L169.072 140.72L170.524 140.724L170.519 143.518C170.514 145.133 169.644 146.639 168.247 147.448L105.898 183.586C104.305 184.506 102.306 184.975 100.402 184.975Z" fill="#141414"></path>
  <path d="M100.561 180.013C98.9523 180.013 97.4114 179.679 96.2342 178.999L2.53198 124.9C1.28223 124.178 0.593842 123.144 0.593842 121.989C0.593842 120.651 1.53786 119.338 3.18555 118.386L67.7959 81.0604L68.5221 82.3182L3.91172 119.644C2.72588 120.329 2.04618 121.183 2.04618 121.989C2.04618 122.778 2.7048 123.324 3.25815 123.642L96.9604 177.741C99.054 178.951 102.89 178.778 105.338 177.365L169.731 140.038L170.46 141.295L106.065 178.622C104.47 179.543 102.468 180.013 100.561 180.013Z" fill="#141414"></path>
  <path d="M57.948 129.983C57.4128 129.983 56.8435 130.113 56.4092 130.364L41.7369 138.835C41.3854 139.038 41.1756 139.291 41.1756 139.512C41.1756 139.717 41.3622 139.867 41.5191 139.958L67.7585 155.108C68.4237 155.491 69.6473 155.434 70.4301 154.981L85.1024 146.51C85.4539 146.308 85.6638 146.055 85.6638 145.834C85.6638 145.629 85.4771 145.478 85.3203 145.388L59.0801 130.238C58.7845 130.068 58.3772 129.983 57.948 129.983ZM68.8986 156.089C68.3402 156.089 67.805 155.973 67.3954 155.736L41.156 140.587C40.6999 140.324 40.4494 139.942 40.4494 139.512C40.4494 139.021 40.7856 138.545 41.3738 138.206L56.0461 129.735C57.0591 129.15 58.5507 129.095 59.4431 129.609L85.6834 144.759C86.1387 145.022 86.3899 145.404 86.3899 145.835C86.3899 146.325 86.053 146.801 85.4655 147.139L70.7932 155.61C70.2449 155.927 69.5565 156.089 68.8986 156.089Z" fill="#141414"></path>
  <path d="M118.059 158.111C118.724 158.495 119.947 158.439 120.729 157.986L149.762 141.225C150.113 141.021 150.323 140.769 150.323 140.548C150.323 140.332 150.107 140.175 149.98 140.101L67.8794 92.7004C67.215 92.317 65.9913 92.3744 65.2078 92.8268L36.1762 109.588C35.8247 109.791 35.6149 110.044 35.6149 110.264C35.6149 110.481 35.8298 110.637 35.9584 110.711L118.059 158.111ZM119.198 159.093C118.64 159.093 118.104 158.977 117.696 158.741L35.5953 111.34C35.1392 111.077 34.8887 110.695 34.8887 110.264C34.8887 109.774 35.2256 109.299 35.8131 108.959L64.8447 92.1979C65.8592 91.6119 67.3508 91.5574 68.2425 92.0715L150.343 139.472C150.799 139.736 151.049 140.117 151.049 140.548C151.049 141.039 150.712 141.514 150.125 141.854L121.093 158.615C120.544 158.931 119.856 159.093 119.198 159.093Z" fill="#117BDF"></path>
  <path d="M64.7102 97.0736L101.482 118.305L103.783 116.975L67.0107 95.7455L64.7102 97.0736ZM101.482 119.087C101.419 119.087 101.356 119.07 101.301 119.037L63.8025 97.3881C63.6899 97.3234 63.6209 97.2036 63.6209 97.0736C63.6209 96.9443 63.6899 96.8238 63.8025 96.7592L66.8292 95.0113C66.941 94.9474 67.0804 94.9474 67.1923 95.0113L104.69 116.661C104.802 116.726 104.872 116.846 104.872 116.975C104.872 117.105 104.802 117.225 104.69 117.29L101.664 119.037C101.607 119.07 101.545 119.087 101.482 119.087Z" fill="#141414"></path>
  <path d="M53.5873 104.025L58.9145 107.101L61.215 105.772L55.8879 102.697L53.5873 104.025ZM58.9145 107.883C58.8521 107.883 58.7896 107.867 58.733 107.835L52.6796 104.339C52.5678 104.274 52.4981 104.155 52.4981 104.025C52.4981 103.895 52.5678 103.776 52.6796 103.71L55.7063 101.963C55.8189 101.898 55.9576 101.898 56.0694 101.963L62.1228 105.457C62.2353 105.523 62.3043 105.642 62.3043 105.772C62.3043 105.902 62.2353 106.022 62.1228 106.086L59.0961 107.835C59.0401 107.867 58.9777 107.883 58.9145 107.883Z" fill="#141414"></path>
  <path d="M131.481 149.974L62.8756 110.364C62.763 110.299 62.6941 110.179 62.6941 110.049C62.6941 109.92 62.763 109.8 62.8756 109.735L65.9023 107.988C66.0141 107.923 66.1528 107.923 66.2654 107.988L134.871 147.598L134.508 148.227L66.0839 108.721L63.7833 110.049L131.844 149.345L131.481 149.974Z" fill="#141414"></path>
  <path d="M47.0998 107.269L115.106 146.533L117.406 145.205L49.4003 105.941L47.0998 107.269ZM115.106 147.315C115.043 147.315 114.98 147.299 114.924 147.266L46.1921 107.584C46.0795 107.519 46.0106 107.399 46.0106 107.269C46.0106 107.14 46.0795 107.02 46.1921 106.955L49.2188 105.207C49.3306 105.143 49.4701 105.143 49.5819 105.207L118.314 144.89C118.427 144.955 118.496 145.075 118.496 145.205C118.496 145.334 118.427 145.454 118.314 145.519L115.287 147.266C115.231 147.299 115.168 147.315 115.106 147.315Z" fill="#141414"></path>
  <path d="M120.322 149.442L125.396 152.372L127.697 151.043L122.622 148.113L120.322 149.442ZM125.396 153.154C125.334 153.154 125.271 153.138 125.215 153.105L119.414 149.756C119.302 149.692 119.233 149.571 119.233 149.442C119.233 149.312 119.302 149.192 119.414 149.127L122.441 147.38C122.553 147.315 122.691 147.315 122.804 147.38L128.605 150.729C128.717 150.793 128.786 150.913 128.786 151.043C128.786 151.173 128.717 151.293 128.605 151.357L125.578 153.105C125.522 153.138 125.46 153.154 125.396 153.154Z" fill="#141414"></path>
  <path d="M46.1796 114.031L40.6309 110.828C40.5184 110.763 40.4494 110.643 40.4494 110.513C40.4494 110.383 40.5184 110.263 40.6309 110.199L43.6569 108.452C43.7694 108.387 43.9081 108.387 44.02 108.452L49.5694 111.655L49.2063 112.284L43.8384 109.185L41.5387 110.513L46.5427 113.403L46.1796 114.031Z" fill="#141414"></path>
  <path d="M49.8799 115.147L54.7024 117.932L57.0029 116.604L52.1804 113.819L49.8799 115.147ZM54.7024 118.714C54.6399 118.714 54.5767 118.698 54.5208 118.665L48.9722 115.462C48.8596 115.396 48.7906 115.277 48.7906 115.147C48.7906 115.017 48.8596 114.898 48.9722 114.833L51.9989 113.086C52.1107 113.021 52.2494 113.021 52.3619 113.086L57.9106 116.289C58.0232 116.354 58.0922 116.474 58.0922 116.604C58.0922 116.733 58.0232 116.853 57.9106 116.918L54.8839 118.665C54.828 118.698 54.7655 118.714 54.7024 118.714Z" fill="#141414"></path>
  <path d="M101.49 146.423C101.426 146.423 101.364 146.406 101.308 146.373L57.3144 120.975C57.2026 120.91 57.1329 120.79 57.1329 120.66C57.1329 120.53 57.2026 120.411 57.3144 120.346L60.3412 118.598L60.7042 119.228L58.2222 120.66L101.49 145.641L104.334 143.997L104.697 144.626L101.671 146.373C101.615 146.406 101.552 146.423 101.49 146.423Z" fill="#141414"></path>
  <path d="M122.34 131.098L121.976 130.469L124.459 129.036L108.538 119.844L105.693 121.487L105.33 120.858L108.356 119.11C108.468 119.046 108.607 119.046 108.719 119.11L125.366 128.721C125.479 128.786 125.548 128.906 125.548 129.036C125.548 129.166 125.479 129.285 125.366 129.35L122.34 131.098Z" fill="#141414"></path>
  <path d="M127.737 133.222L143.657 142.414L145.958 141.085L130.037 131.893L127.737 133.222ZM143.657 143.196C143.595 143.196 143.532 143.18 143.476 143.147L126.829 133.535C126.717 133.471 126.648 133.351 126.648 133.222C126.648 133.092 126.717 132.972 126.829 132.907L129.856 131.159C129.968 131.095 130.107 131.095 130.219 131.159L146.866 140.77C146.978 140.835 147.047 140.955 147.047 141.085C147.047 141.214 146.978 141.334 146.866 141.399L143.839 143.147C143.783 143.18 143.721 143.196 143.657 143.196Z" fill="#141414"></path>
  <path d="M106.419 148.051L119.985 155.884L122.286 154.556L108.719 146.722L106.419 148.051ZM119.985 156.666C119.923 156.666 119.86 156.649 119.804 156.617L105.511 148.365C105.399 148.301 105.33 148.181 105.33 148.051C105.33 147.921 105.399 147.802 105.511 147.736L108.538 145.989C108.65 145.925 108.788 145.925 108.901 145.989L123.193 154.241C123.306 154.306 123.375 154.426 123.375 154.556C123.375 154.685 123.306 154.805 123.193 154.869L120.167 156.617C120.111 156.649 120.048 156.666 119.985 156.666Z" fill="#141414"></path>
  <path d="M111.053 130.441L137.389 145.647L139.69 144.318L113.354 129.112L111.053 130.441ZM137.389 146.429C137.327 146.429 137.264 146.412 137.208 146.379L110.146 130.756C110.033 130.691 109.964 130.571 109.964 130.441C109.964 130.311 110.033 130.192 110.146 130.126L113.172 128.379C113.285 128.314 113.423 128.314 113.535 128.379L140.598 144.003C140.71 144.069 140.779 144.189 140.779 144.318C140.779 144.448 140.71 144.568 140.598 144.632L137.571 146.379C137.515 146.412 137.452 146.429 137.389 146.429Z" fill="#141414"></path>
  <path d="M106.069 128.71C106.007 128.71 105.944 128.693 105.888 128.661L58.0598 101.047L58.4228 100.418L106.069 127.928L108.37 126.599L61.0857 99.3001L61.4488 98.6705L109.277 126.285C109.39 126.35 109.459 126.47 109.459 126.599C109.459 126.729 109.39 126.849 109.277 126.914L106.251 128.661C106.195 128.693 106.132 128.71 106.069 128.71Z" fill="#141414"></path>
  <path d="M135.352 101.258L134.989 100.629C134.99 100.629 136.728 99.6287 136.981 99.4704C137.968 98.8553 138.606 97.249 138.606 95.3784V88.9387H139.332V95.3784C139.332 97.5264 138.578 99.3303 137.366 100.087C137.11 100.247 135.352 101.258 135.352 101.258Z" fill="#117BDF"></path>
  <path d="M60.2758 42.7375L59.9135 42.1079L86.4492 26.8387L86.8116 27.4683L60.2758 42.7375Z" fill="#117BDF"></path>
  <path d="M47.2997 34.8597L46.9374 34.2301L73.4732 18.9609L73.8355 19.5912L47.2997 34.8597Z" fill="#117BDF"></path>
  <path d="M73.2519 50.1527L72.8896 49.5231L99.4246 34.2539L99.7869 34.8835L73.2519 50.1527Z" fill="#117BDF"></path>
  <path d="M86.2279 57.5683L85.8656 56.9387L112.401 41.6688L112.764 42.2991L86.2279 57.5683Z" fill="#117BDF"></path>
  <path d="M99.2041 64.9825L98.8417 64.3522L125.377 49.0837L125.74 49.7133L99.2041 64.9825Z" fill="#117BDF"></path>
  <path d="M137.728 87.2304L47.6631 35.2459V44.0057C47.6631 47.9917 50.485 52.8643 53.9532 54.8671C55.6415 55.8416 57.2624 56.0253 58.3966 55.3703C59.4503 54.7618 60.0305 53.4685 60.0305 51.7264H60.7567C60.7567 53.7386 60.0472 55.2563 58.7597 55.9992C57.3952 56.7878 55.5108 56.6041 53.5901 55.4959C49.9215 53.3777 46.9369 48.2226 46.9369 44.0057V34.6171C46.9369 34.4871 47.0059 34.3673 47.1185 34.3026C47.2303 34.238 47.3683 34.238 47.4815 34.3026L138.091 86.6015L137.728 87.2304Z" fill="#117BDF"></path>
  <path d="M69.7422 64.0552C68.7807 64.0552 67.722 63.7372 66.6306 63.1076C62.9264 60.9683 59.9135 55.7653 59.9135 51.507V41.6688H60.6397V51.507C60.6397 55.5344 63.4899 60.4556 66.9936 62.4787C68.6283 63.4213 70.1445 63.5868 71.2621 62.9398C72.3724 62.2993 72.9845 60.9189 72.9845 59.0541V49.6567H73.7107V59.0541C73.7107 61.1891 72.97 62.7924 71.6251 63.5694C71.0631 63.894 70.427 64.0552 69.7422 64.0552Z" fill="#117BDF"></path>
  <path d="M82.7183 71.5625C81.7568 71.5625 80.6981 71.2444 79.6066 70.6141C75.9024 68.4762 72.8896 63.2725 72.8896 59.0149H73.6157C73.6157 63.0408 76.4659 67.9628 79.9697 69.9852C81.6043 70.9292 83.1198 71.0934 84.2381 70.4478C85.3485 69.8066 85.9606 68.4261 85.9606 66.5613V56.962H86.6868V66.5613C86.6868 68.697 85.9461 70.3004 84.6012 71.0766C84.0392 71.4012 83.403 71.5625 82.7183 71.5625Z" fill="#117BDF"></path>
  <path d="M95.6943 79.201C94.7328 79.201 93.6741 78.8837 92.5827 78.2541C88.8785 76.1148 85.8656 70.9118 85.8656 66.6535H86.5918C86.5918 70.6809 89.442 75.6021 92.9458 77.6252C94.5796 78.5685 96.0959 78.7326 97.2142 78.0864C98.3245 77.4451 98.9367 76.0654 98.9367 74.2006V64.377H99.6628V74.2006C99.6628 76.3355 98.9221 77.9389 97.5773 78.7152C97.0152 79.0405 96.3791 79.201 95.6943 79.201Z" fill="#117BDF"></path>
  <path d="M112.18 72.3966L111.818 71.767L138.353 56.4985L138.715 57.1281L112.18 72.3966Z" fill="#117BDF"></path>
  <path d="M125.156 79.813L124.794 79.1834L151.33 63.9135L151.692 64.543L125.156 79.813Z" fill="#117BDF"></path>
  <path d="M138.253 87.1593L137.891 86.529L164.222 71.4588L73.8164 19.5912L74.178 18.9609L165.133 71.1443C165.246 71.2089 165.315 71.3295 165.315 71.4595C165.315 71.5902 165.245 71.71 165.132 71.7739L138.253 87.1593Z" fill="#117BDF"></path>
  <path d="M107.925 86.5623C106.964 86.5623 105.905 86.2442 104.814 85.6146C102.286 84.155 99.9977 81.2365 98.8417 77.9964L99.5257 77.7524C100.626 80.8371 102.791 83.6082 105.177 84.9858C106.811 85.9283 108.327 86.0939 109.445 85.4469C110.556 84.8064 111.168 83.4259 111.168 81.5611V72.2552H111.894V81.5611C111.894 83.6961 111.153 85.2995 109.808 86.0765C109.246 86.4011 108.61 86.5623 107.925 86.5623Z" fill="#117BDF"></path>
  <path d="M120.72 94.1893C119.758 94.1893 118.699 93.8712 117.608 93.2409C113.904 91.103 110.891 85.8986 110.891 81.641H111.617C111.617 85.6677 114.467 90.5889 117.971 92.612C119.606 93.5553 121.122 93.7201 122.239 93.0738C123.35 92.4334 123.962 91.0529 123.962 89.1881V79.6702H124.688V89.1881C124.688 91.323 123.947 92.9264 122.603 93.7034C122.04 94.028 121.404 94.1893 120.72 94.1893Z" fill="#117BDF"></path>
  <path d="M133.696 101.343C132.734 101.343 131.675 101.025 130.584 100.394C126.88 98.2558 123.867 93.0528 123.867 88.7953H124.593C124.593 92.8212 127.443 97.7432 130.947 99.7656C132.581 100.71 134.098 100.873 135.215 100.227C136.326 99.5862 136.938 98.2058 136.938 96.341V86.6218H137.664V96.341C137.664 98.4766 136.923 100.08 135.579 100.856C135.017 101.181 134.38 101.343 133.696 101.343Z" fill="#117BDF"></path>
  <path d="M137.569 87.364V89.5207L163.711 74.4766V72.3199L137.569 87.364ZM137.206 90.5112C137.143 90.5112 137.08 90.4945 137.024 90.4618C136.912 90.3979 136.843 90.2781 136.843 90.1481V87.1541C136.843 87.0241 136.912 86.9043 137.025 86.8389L163.893 71.3773C164.005 71.3119 164.143 71.312 164.256 71.378C164.368 71.4427 164.438 71.5625 164.438 71.6925V74.6865C164.438 74.8164 164.368 74.937 164.255 75.0009L137.387 90.4626C137.331 90.4952 137.269 90.5112 137.206 90.5112Z" fill="#117BDF"></path>
</svg>
