<?xml version="1.0" encoding="UTF-8"?>
<svg xmlns="http://www.w3.org/2000/svg" width="121" height="168" viewBox="0 0 121 168" fill="none">
  <path d="M31.0811 4.81951C31.0534 4.81951 31.033 4.82355 31.0215 4.831C30.9795 4.85471 30.9132 4.98408 30.9132 5.22723V64.6824C30.9132 66.377 32.1526 68.524 33.6196 69.3706L91.8353 102.982C93.28 103.816 94.6536 105.125 95.8063 106.766L113.765 132.342C113.945 132.6 114.115 132.718 114.218 132.767C114.219 132.753 114.22 132.736 114.22 132.718V54.1065C114.22 53.3785 113.666 52.4201 113.036 52.0564L31.4198 4.9353C31.2681 4.84793 31.1509 4.81951 31.0811 4.81951ZM114.312 134.152C113.735 134.152 113.118 133.777 112.657 133.12L94.6976 107.545C93.6721 106.084 92.4144 104.881 91.158 104.156L32.9423 70.5443C31.0445 69.4485 29.5586 66.8741 29.5586 64.6824V5.22723C29.5586 4.51811 29.8451 3.9458 30.3442 3.65728C30.8434 3.36943 31.4814 3.40735 32.0971 3.76157L113.713 50.8826C114.757 51.4854 115.574 52.9016 115.574 54.1065V132.718C115.574 133.406 115.244 133.92 114.694 134.094C114.57 134.132 114.442 134.152 114.312 134.152Z" fill="#141414"></path>
  <path d="M113.645 51.0323C114.57 51.6269 115.274 52.8264 115.355 53.95C115.361 53.9643 115.367 53.9981 115.367 131.947L119.52 129.521C119.537 129.498 119.545 129.46 119.545 129.395C119.545 128.619 119.545 52.3239 119.536 50.7783C119.469 50.0732 118.949 49.2286 118.366 48.8852C118.107 48.7349 37.711 2.31415 36.8989 1.84547C36.6876 1.72559 36.5488 1.72221 36.5068 1.74795L32.4322 4.12322C105.111 46.0887 112.767 50.5128 113.637 51.0431L113.645 51.0323ZM114.386 133.981C114.155 133.981 113.929 133.863 113.802 133.649C113.618 133.338 113.712 132.937 114.012 132.739C114.004 132.734 114.012 132.694 114.012 132.623C114.012 131.844 114.012 55.0716 114.003 54.0198C113.916 53.2951 113.456 52.5257 112.92 52.1769C111.869 51.5545 32.1742 5.53808 31.3668 5.0721C31.146 4.94748 31.0119 4.95222 30.972 4.97322C30.6455 5.14728 30.2418 5.02673 30.0617 4.70502C29.8829 4.38263 29.9946 3.97624 30.3136 3.78999L35.7902 0.59928C36.2582 0.285695 36.9206 0.302621 37.5695 0.668357C38.3883 1.1411 118.785 47.5625 119.049 47.7149C120.023 48.2886 120.795 49.5395 120.888 50.6909C120.893 51.121 120.899 56.372 120.899 129.395C120.899 130.142 120.516 130.496 120.288 130.64C120.277 130.651 120.224 130.692 120.138 130.728L114.727 133.889C114.619 133.951 114.501 133.981 114.386 133.981Z" fill="#141414"></path>
  <path d="M58.4634 67.9044L38.3506 56.2929L39.0279 55.1199L59.1406 66.7313L58.4634 67.9044Z" fill="#141414"></path>
  <path d="M94.3558 88.569L63.4707 70.7373L64.148 69.5642L95.0331 87.3959L94.3558 88.569Z" fill="#141414"></path>
  <path d="M104.207 82.0877L39.1875 44.5483V46.9446L104.207 84.484V82.0877Z" fill="#117BDF"></path>
  <path d="M82.2742 59.2536L38.3506 33.8945L39.0279 32.7207L82.9514 58.0805L82.2742 59.2536Z" fill="#141414"></path>
  <path d="M93.4558 65.6487L86.498 61.6311L87.1753 60.458L94.1331 64.475L93.4558 65.6487Z" fill="#141414"></path>
  <path d="M70.4846 41.2472L38.3506 22.6949L39.0279 21.5211L71.1619 40.0741L70.4846 41.2472Z" fill="#141414"></path>
  <path d="M72.2319 167.292L71.8919 166.706L76.4677 164.053C76.8714 163.837 77.0895 163.345 77.0895 162.664V112.436C77.0895 111.735 76.5768 110.848 75.9692 110.497L7.01303 70.6849C6.77936 70.5502 6.56938 70.5197 6.43392 70.6009L1.8446 73.2397L1.50732 72.6525L6.08854 70.0185C6.42989 69.8078 6.8945 69.8343 7.35167 70.0984L76.3079 109.91C77.1254 110.382 77.7668 111.492 77.7668 112.436V162.664C77.7668 163.606 77.4227 164.309 76.7975 164.645L72.2319 167.292Z" fill="#141414"></path>
  <path d="M18.0314 137.327C18.8326 137.327 19.7056 137.59 20.6017 138.108L69.9733 166.612C70.5497 166.945 71.0767 167.008 71.4546 166.79C71.8339 166.57 72.0432 166.083 72.0432 165.418V114.991C72.0432 114.29 71.5304 113.402 70.9229 113.052L1.70866 73.0908C1.47838 72.9574 1.2698 72.9262 1.13637 73.0021C1.00362 73.0793 0.927778 73.2757 0.927778 73.5419V140.207C0.927778 140.615 1.19597 141.129 1.5529 141.402C1.69919 141.514 1.84075 141.565 1.93015 141.542L17.1597 137.439C17.4387 137.364 17.7293 137.327 18.0314 137.327ZM70.9493 167.596C70.5382 167.596 70.0912 167.463 69.6347 167.199L20.263 138.694C19.2044 138.083 18.1668 137.869 17.3358 138.093L2.10625 142.196C1.80554 142.277 1.46284 142.185 1.14113 141.939C0.616903 141.537 0.250488 140.825 0.250488 140.207V73.5419C0.250488 73.0271 0.450262 72.6174 0.798388 72.4162C1.14516 72.2157 1.60165 72.2469 2.04731 72.5043L71.2616 112.465C72.0791 112.938 72.7204 114.046 72.7204 114.991V165.418C72.7204 166.335 72.3906 167.031 71.7932 167.376C71.5392 167.523 71.2548 167.596 70.9493 167.596Z" fill="#141414"></path>
  <path d="M30.0187 126.994L9.88086 115.368L10.2195 114.781L30.3573 126.408L30.0187 126.994Z" fill="#141414"></path>
  <path d="M52.5543 140.07L35.001 129.864L35.341 129.278L52.8943 139.485L52.5543 140.07Z" fill="#141414"></path>
  <path d="M62.0321 133.972L9.88086 103.791V106.208L62.0321 136.389V133.972Z" fill="#117BDF"></path>
  <path d="M40.4889 110.711L9.88086 92.9678L10.2202 92.382L40.8289 110.126L40.4889 110.711Z" fill="#141414"></path>
</svg>
