<svg version="1.2" xmlns="http://www.w3.org/2000/svg" viewBox="0 0 197 206" width="197" height="206"><defs><linearGradient id="P" gradientUnits="userSpaceOnUse"/><linearGradient id="g1" x1="422.4" y1="1134.1" x2="-53.4" y2="-105.3" href="#P"><stop stop-color="#00eaff"/><stop offset="1" stop-color="#0083ff"/></linearGradient><linearGradient id="g2" x1="429.3" y1="1188.5" x2="-94.8" y2="-176.7" href="#P"><stop stop-color="#00eaff"/><stop offset="1" stop-color="#0083ff"/></linearGradient><linearGradient id="g3" x1="240.5" y1="4.8" x2="240.5" y2="133.8" href="#P"><stop stop-color="#dde8ff"/><stop offset="1" stop-color="#e4f1ff"/></linearGradient><linearGradient id="g4" x1="98" y1="205" x2="4.2" y2="81.4" href="#P"><stop stop-color="#ff7cff"/><stop offset="1" stop-color="#0083ff"/></linearGradient><linearGradient id="g5" x1="135" y1="99.4" x2="135" y2="167.2" href="#P"><stop stop-color="#dde8ff"/><stop offset="1" stop-color="#e4f1ff"/></linearGradient><linearGradient id="g6" x1="157.5" y1="934.5" x2="-139.5" y2="160.9" href="#P"><stop stop-color="#00eaff"/><stop offset="1" stop-color="#0083ff"/></linearGradient><linearGradient id="g7" x1="-57.4" y1="254.2" x2="-5.9" y2="182.1" href="#P"><stop stop-color="#ff7cff"/><stop offset="1" stop-color="#0083ff"/></linearGradient><linearGradient id="g8" x1="292.5" y1="315.9" x2="259.7" y2="230.6" href="#P"><stop stop-color="#00eaff"/><stop offset="1" stop-color="#0083ff"/></linearGradient><linearGradient id="g9" x1="281.4" y1="322.3" x2="248.7" y2="237" href="#P"><stop stop-color="#00eaff"/><stop offset="1" stop-color="#0083ff"/></linearGradient><linearGradient id="g10" x1="270.5" y1="300.4" x2="237.7" y2="215.1" href="#P"><stop stop-color="#00eaff"/><stop offset="1" stop-color="#0083ff"/></linearGradient><linearGradient id="g11" x1="292.5" y1="287.7" x2="259.7" y2="202.4" href="#P"><stop stop-color="#00eaff"/><stop offset="1" stop-color="#0083ff"/></linearGradient><linearGradient id="g12" x1="74.1" y1="165" x2="58.5" y2="124.3" href="#P"><stop stop-color="#00eaff"/><stop offset="1" stop-color="#0083ff"/></linearGradient><linearGradient id="g13" x1="65.3" y1="37.9" x2="65.3" y2="86.5" href="#P"><stop stop-color="#00c9bc"/><stop offset="1" stop-color="#522f6b"/></linearGradient><linearGradient id="g14" x1="63.5" y1="153.7" x2="50.7" y2="120.5" href="#P"><stop stop-color="#00eaff"/><stop offset="1" stop-color="#0083ff"/></linearGradient><linearGradient id="g15" x1="235.6" y1="320" x2="220.5" y2="280.6" href="#P"><stop stop-color="#00eaff"/><stop offset="1" stop-color="#0083ff"/></linearGradient><linearGradient id="g16" x1="243.4" y1="310.1" x2="231" y2="277.9" href="#P"><stop stop-color="#00eaff"/><stop offset="1" stop-color="#0083ff"/></linearGradient><linearGradient id="g17" x1="317.3" y1="226.2" x2="299.6" y2="180.1" href="#P"><stop stop-color="#00eaff"/><stop offset="1" stop-color="#0083ff"/></linearGradient><linearGradient id="g18" x1="314.5" y1="227.3" x2="298.9" y2="186.5" href="#P"><stop stop-color="#00eaff"/><stop offset="1" stop-color="#0083ff"/></linearGradient><linearGradient id="g19" x1="342" y1="267.1" x2="293.4" y2="140.7" href="#P"><stop stop-color="#00eaff"/><stop offset="1" stop-color="#0083ff"/></linearGradient></defs><style>.a{fill:url(#g1)}.b{fill:url(#g2)}.c{fill:url(#g3)}.d{fill:url(#g4)}.e{fill:#fff}.f{fill:url(#g5)}.g{fill:#63d3ff}.h{fill:url(#g6)}.i{fill:url(#g7)}.j{fill:url(#g8)}.k{fill:url(#g9)}.l{fill:url(#g10)}.m{fill:url(#g11)}.n{fill:#00a8ff}.o{fill:#487eb0}.p{fill:#e68cb0}.q{fill:#f4acc8}.r{fill:url(#g12)}.s{fill:url(#g13)}.t{fill:url(#g14)}.u{fill:#b0bbd9}.v{fill:url(#g15)}.w{fill:url(#g16)}.x{fill:#fdffff}.y{fill:url(#g17)}.z{fill:url(#g18)}.A{fill:#758798}.B{fill:url(#g19)}</style><path class="a" d="m5.9 135.7l0.4 1.6 71.7-41.6c0.9-0.6 2.4-0.7 3.3-0.2l107.9 63.4 0.9-1.1 1.9-0.2v3.5c0 0.3-0.3 0.7-0.8 1.1l-73.2 42.5c-1 0.5-2.5 0.6-3.3 0.1l-110.2-64.7q-0.5-0.4-0.6-0.8 0-0.1 0-0.2v-3.5z"/><path class="b" d="m82.4 1.6c0.3-0.2 0.7-0.2 1.1 0l111.1 64.1c0.8 0.5 1.5 1.8 1.5 3v85.9c0 0.6-0.2 1-0.6 1.2l-2.9 1.6-2.6-3.2 1.7-0.2-108.2-63.5c-0.8-0.5-1.5-1.8-1.5-2.9v-78.8l-2.4-5.5z"/><path class="c" d="m80.7 92l111.1 65.2c0.8 0.5 1.5 0 1.5-1.1v-85.7c0-1.1-0.7-2.4-1.5-2.9l-111.1-64.1c-0.8-0.5-1.5 0-1.5 1.1v84.6c0 1.1 0.7 2.4 1.5 2.9z"/><path class="d" d="m185.5 144.6v-71.7l-98.5-56.9v70.6z"/><path class="e" d="m4.7 134.5l73.3-42.3c0.9-0.6 2.4-0.6 3.3-0.1l110.1 64.7c0.9 0.5 0.8 1.3-0.2 1.9l-73.2 42.3c-1 0.6-2.5 0.6-3.3 0.1l-48.8-28.6 0.4-0.2c0.1-0.1 0.1-0.2 0-0.3l-12.2-7c-0.1-0.1-0.3 0-0.4 0l-0.2 0.1-49-28.7c-0.8-0.5-0.7-1.4 0.2-1.9z"/><path fill-rule="evenodd" class="f" d="m104.5 162.6c0 0.1-0.1 0.3-0.5 0.5l-16.8 9.7c-0.4 0.2-1 0.3-1.5 0.3-0.5 0-0.9 0-1.1-0.2l-33.3-19.2c-0.2-0.1-0.2-0.2-0.2-0.2 0 0 0.1-0.2 0.5-0.4l16.7-9.7c0.5-0.3 1-0.4 1.6-0.4 0.4 0 0.8 0.1 1.1 0.2l33.3 19.2c0.1 0.1 0.2 0.2 0.2 0.2zm8.7-40.5l6.2 3.5-6.2 3.6-6.1-3.6zm7.2 4.2l6.2 3.6-6.2 3.5-6.1-3.5zm-29.5 15.7l-6.1-3.5 6.1-3.6 6.2 3.6zm58.3 8l-6.2-3.6 6.2-3.5 6.1 3.5zm-7.4 4.3l-6.1-3.5 6.1-3.6 6.1 3.6zm-43-40.6l6.1 3.6-6.1 3.5-6.2-3.5zm43.3 25l6.1 3.5-6.1 3.6-6.1-3.6zm-7.2-4.2l6.1 3.6-6.1 3.5-6.2-3.5zm-7.2-4.2l6.1 3.6-6.1 3.5-6.1-3.5zm-51.3 11.7l-6.2-3.6 6.2-3.5 6.1 3.5zm-7.2-4.1l-6.2-3.6 6.2-3.5 6.1 3.5zm-13.3-7.7l6.1-3.5 6.1 3.5-6.1 3.6zm28 7.6l-6.2-3.6 6.2-3.5 6.1 3.5zm-21.6-19.6l6.1 3.6-6.1 3.5-6.2-3.5zm22.1-4.4l6.1 3.5-6.1 3.6-6.2-3.6zm7.5-4.3l6.1 3.6-6.1 3.5-6.2-3.5zm-14.8 8.5l6.1 3.6-6.1 3.5-6.1-3.5zm-7.3-4.2l6.2 3.6-6.2 3.5-6.1-3.5zm36.5 3.9l6.1 3.5-6.1 3.6-6.1-3.6zm28.4 40.7l-6.1-3.6 6.1-3.5 6.1 3.5zm-7-19.7l6.2 3.6-6.2 3.5-6.1-3.5zm7.2 11.2l-6.1-3.5 6.1-3.6 6.1 3.6zm-21.6-19.6l6.1 3.5-6.1 3.6-6.1-3.6zm7.2 4.2l6.1 3.6-6.1 3.5-6.2-3.5zm-43.7-1.1l-6.1-3.5 6.1-3.5 6.2 3.5zm7.4-4.3l-6.1-3.5 6.1-3.6 6.1 3.6zm80.6 21.4l3.9-2.3 6.1 3.5-3.9 2.3zm-95.2-28.3l6.2 3.5-6.2 3.5-6.1-3.5zm36.5 3.9l6.1 3.6-6.1 3.5-6.2-3.5zm7.1 19.7l-6.2-3.6 6.2-3.5 6.1 3.5zm-7.2-4.1l-6.2-3.6 6.2-3.5 6.1 3.5zm14.4 8.3l-6.1-3.5 6.1-3.5 6.2 3.5zm-21.5-28l6.2 3.5-6.2 3.6-6.1-3.6zm28.7 32.2l-6.2-3.5 6.2-3.6 6.1 3.6zm-35.9-36.4l6.2 3.6-6.2 3.5-6.1-3.5zm7 19.7l-6.1-3.6 6.1-3.5 6.1 3.5zm-7.2-4.2l-6.1-3.5 6.1-3.5 6.2 3.5zm-7.1-29.2l-6.2-3.6 3.9-2.2 6.2 3.5zm-29.2 16.9l-6.1-3.6 6.1-3.5 6.1 3.5zm-1.2 0.8l-6.2 3.5-6.1-3.5 6.1-3.6zm1.1 7.7l-6.1-3.5 6.1-3.6 6.1 3.6zm63.9 29.8l-6.1 3.5-35-20.2 6.1-3.5zm-34.2-47l-13.3-7.7 6.1-3.5 13.3 7.7zm-22 4.4l-6.1-3.5 13.5-7.9 6.1 3.6 7.3 4.1-6.2 3.6-7.2-4.2zm37.3-3.6l3.9-2.2 6.1 3.5-3.9 2.3zm-7.2-4.2l3.9-2.3 6.1 3.6-3.9 2.2zm33.4 54.5l-6.1 3.5-6.1-3.5 6.1-3.6zm-40.6-58.6l3.9-2.2 6.1 3.5-3.9 2.3zm71.2 50.5l13.3 7.7-6.1 3.6-13.4-7.7zm14.7-0.1l6.1 3.5-6.1 3.5-6.2-3.5zm10.9 0.8l-3.9 2.3-6.2-3.6 3.9-2.2zm-83.6-10.1l-6.1-3.5 6.1-3.6 6.2 3.6zm42 25.7l-6.1 3.6-6.2-3.6 6.2-3.5zm1.2-7.9l13.4 7.8-6.1 3.5-13.4-7.7zm-8.5 3.6l-6.1 3.6-6.2-3.6 6.2-3.5zm8.3 4.8l6.1 3.5-6.1 3.6-6.2-3.6zm7.6-12.7l13.4 7.7-6.1 3.6-13.4-7.8zm-7.2 3l-6.1-3.6 6.1-3.5 6.1 3.5zm-7.4 4.3l-6.1-3.5 6.1-3.6 6.1 3.6zm22.3-12.9l-6.1-3.5 6.1-3.6 6.1 3.6zm-7.4 4.3l-6.1-3.6 6.1-3.5 6.2 3.5zm-22.1 4.4l-6.1-3.5 6.1-3.6 6.1 3.6zm-21.6-12.5l-6.1-3.6 6.1-3.5 6.1 3.5zm7.2 4.2l-6.1-3.5 6.1-3.6 6.2 3.6zm7.2 4.1l-6.1-3.5 6.1-3.6 6.1 3.6zm37.5-12.1l3.9-2.2 6.2 3.5-4 2.3zm-21.6-12.5l3.9-2.3 6.1 3.6-3.9 2.2zm-14.4-8.3l3.9-2.3 6.1 3.6-3.9 2.2zm7.2 4.2l4-2.3 6.1 3.6-3.9 2.2zm-14.4-8.3l3.9-2.3 6.1 3.6-3.9 2.2zm-7.2-4.1l3.9-2.3 6.1 3.6-3.9 2.2zm36.1 20.9l3.9-2.3 6.1 3.5-3.9 2.3zm20.9 20l-6.2-3.5 6.2-3.6 6.1 3.6zm-13.6-15.9l3.9-2.2 6.1 3.5-3.9 2.3z"/><path class="g" d="m172.6 72.5c-0.6-0.4-1.1-1.2-1.1-1.8 0-0.7 0.5-1 1.1-0.6 0.5 0.3 1 1.1 1 1.8 0 0.6-0.5 0.9-1 0.6z"/><path class="g" d="m176 74.5c-0.5-0.3-1-1.2-1-1.8 0-0.7 0.5-1 1-0.6 0.6 0.3 1.1 1.1 1.1 1.8 0 0.7-0.5 0.9-1.1 0.6z"/><path class="g" d="m179.5 76.5c-0.6-0.3-1-1.1-1-1.8 0-0.7 0.4-1 1-0.6 0.6 0.3 1.1 1.1 1.1 1.8 0 0.7-0.5 0.9-1.1 0.6z"/><path class="g" d="m150.9 67.9l-37-21.3c-0.9-0.6-1.6-1.8-1.6-2.9 0-1 0.7-1.5 1.6-0.9l37 21.3c0.9 0.6 1.7 1.8 1.7 2.9 0 1-0.8 1.5-1.7 0.9z"/><path class="e" d="m96.2 79c0 1.6-1.1 2.2-2.4 1.5-1.4-0.8-2.5-2.7-2.5-4.3 0-1.5 1.1-2.2 2.5-1.4 1.3 0.8 2.4 2.7 2.4 4.2z"/><path class="e" d="m152.9 106.7l-61.6-35.6v-35.3l61.6 35.5z"/><path class="e" d="m168.8 90.1l-13-7.6v-9.5l13 7.6z"/><path class="e" d="m180.3 88.4l-9.6-5.6c-0.2-0.1-0.3-0.4-0.3-0.6 0-0.2 0.1-0.3 0.3-0.2l9.6 5.5c0.3 0.1 0.4 0.4 0.4 0.7 0 0.2-0.1 0.3-0.4 0.2z"/><path class="e" d="m180.3 89.9l-9.6-5.5c-0.2-0.1-0.3-0.4-0.3-0.7 0-0.2 0.1-0.3 0.3-0.2l9.6 5.6c0.3 0.1 0.4 0.4 0.4 0.6 0 0.3-0.1 0.4-0.4 0.2z"/><path class="e" d="m180.3 91.5l-9.6-5.6c-0.2-0.1-0.3-0.4-0.3-0.6 0-0.3 0.1-0.4 0.3-0.2l9.6 5.5c0.3 0.1 0.4 0.4 0.4 0.7 0 0.2-0.1 0.3-0.4 0.2z"/><path class="e" d="m180.3 93l-9.6-5.5c-0.2-0.1-0.3-0.4-0.3-0.7 0-0.2 0.1-0.3 0.3-0.2l9.6 5.6c0.3 0.1 0.4 0.4 0.4 0.6 0 0.2-0.1 0.3-0.4 0.2z"/><path class="e" d="m175.2 91.6l-4.5-2.6c-0.2-0.1-0.3-0.4-0.3-0.6 0-0.3 0.1-0.4 0.3-0.2l4.5 2.5c0.2 0.1 0.4 0.4 0.4 0.7 0 0.2-0.2 0.3-0.4 0.2z"/><path class="g" d="m168.8 102.9l-13-7.6v-9.5l13 7.6z"/><path class="e" d="m180.3 101.2l-9.6-5.5c-0.2-0.2-0.3-0.4-0.3-0.7 0-0.2 0.1-0.3 0.3-0.2l9.6 5.5c0.3 0.2 0.4 0.5 0.4 0.7 0 0.2-0.1 0.3-0.4 0.2z"/><path class="e" d="m180.3 102.8l-9.6-5.6c-0.2-0.1-0.3-0.4-0.3-0.6 0-0.3 0.1-0.4 0.3-0.3l9.6 5.6c0.3 0.1 0.4 0.4 0.4 0.6 0 0.3-0.1 0.4-0.4 0.3z"/><path class="e" d="m180.3 104.3l-9.6-5.5c-0.2-0.2-0.3-0.5-0.3-0.7 0-0.2 0.1-0.3 0.3-0.2l9.6 5.5c0.3 0.2 0.4 0.5 0.4 0.7 0 0.2-0.1 0.3-0.4 0.2z"/><path class="e" d="m180.3 105.9l-9.6-5.6c-0.2-0.1-0.3-0.4-0.3-0.6 0-0.3 0.1-0.4 0.3-0.3l9.6 5.6c0.3 0.1 0.4 0.4 0.4 0.6 0 0.3-0.1 0.4-0.4 0.3z"/><path class="e" d="m175.2 104.4l-4.5-2.6c-0.2-0.1-0.3-0.4-0.3-0.6 0-0.2 0.1-0.3 0.3-0.2l4.5 2.6c0.2 0.1 0.4 0.4 0.4 0.6 0 0.2-0.2 0.3-0.4 0.2z"/><path class="e" d="m168.8 115.7l-13-7.5v-9.5l13 7.5z"/><path class="e" d="m180.3 114l-9.6-5.5c-0.2-0.1-0.3-0.4-0.3-0.7 0-0.2 0.1-0.3 0.3-0.2l9.6 5.6c0.3 0.1 0.4 0.4 0.4 0.6 0 0.3-0.1 0.4-0.4 0.2z"/><path class="e" d="m180.3 115.6l-9.6-5.6c-0.2-0.1-0.3-0.4-0.3-0.6 0-0.3 0.1-0.3 0.3-0.2l9.6 5.5c0.3 0.1 0.4 0.4 0.4 0.7 0 0.2-0.1 0.3-0.4 0.2z"/><path class="e" d="m180.3 117.1l-9.6-5.5c-0.2-0.1-0.3-0.4-0.3-0.7 0-0.2 0.1-0.3 0.3-0.2l9.6 5.6c0.3 0.1 0.4 0.4 0.4 0.6 0 0.3-0.1 0.4-0.4 0.2z"/><path class="e" d="m180.3 118.7l-9.6-5.6c-0.2-0.1-0.3-0.4-0.3-0.6 0-0.3 0.1-0.4 0.3-0.2l9.6 5.5c0.3 0.1 0.4 0.4 0.4 0.7 0 0.2-0.1 0.3-0.4 0.2z"/><path class="e" d="m175.2 117.2l-4.5-2.5c-0.2-0.1-0.3-0.4-0.3-0.7 0-0.2 0.1-0.3 0.3-0.2l4.5 2.6c0.2 0.1 0.4 0.4 0.4 0.6 0 0.3-0.2 0.4-0.4 0.2z"/><path class="e" d="m168.8 128l-13-7.6v-8.9l13 7.5z"/><path class="e" d="m180.3 126.9l-9.6-5.6c-0.2-0.1-0.3-0.4-0.3-0.6 0-0.3 0.1-0.4 0.3-0.2l9.6 5.5c0.3 0.1 0.4 0.4 0.4 0.6 0 0.3-0.1 0.4-0.4 0.3z"/><path class="e" d="m180.3 128.4l-9.6-5.5c-0.2-0.2-0.3-0.4-0.3-0.7 0-0.2 0.1-0.3 0.3-0.2l9.6 5.5c0.3 0.2 0.4 0.5 0.4 0.7 0 0.2-0.1 0.3-0.4 0.2z"/><path class="e" d="m180.3 130l-9.6-5.6c-0.2-0.1-0.3-0.4-0.3-0.6 0-0.3 0.1-0.4 0.3-0.3l9.6 5.6c0.3 0.1 0.4 0.4 0.4 0.6 0 0.3-0.1 0.4-0.4 0.3z"/><path class="e" d="m175.2 128.5l-4.5-2.5c-0.2-0.2-0.3-0.5-0.3-0.7 0-0.2 0.1-0.3 0.3-0.2l4.5 2.6c0.2 0.1 0.4 0.4 0.4 0.6 0 0.2-0.2 0.3-0.4 0.2z"/><path class="e" d="m118.8 92.1l-20.4-11.7c-0.4-0.2-0.7-0.8-0.7-1.3 0-0.5 0.3-0.7 0.7-0.4l20.4 11.7c0.4 0.3 0.7 0.8 0.7 1.3 0 0.5-0.3 0.7-0.7 0.4z"/><path class="g" d="m112.7 90.5l-14.3-8.2c-0.2-0.1-0.3-0.4-0.3-0.7 0-0.2 0.1-0.3 0.3-0.2l14.3 8.2c0.2 0.2 0.3 0.4 0.3 0.7 0 0.2-0.1 0.3-0.3 0.2z"/><path class="e" d="m134.3 102.4l-1.7-0.9c-0.4-0.2-0.6-0.8-0.4-1.1l0.8-1c0.2-0.3 0.7 0 0.9 0.5l0.8 1.9c0.2 0.5-0.1 0.9-0.4 0.6z"/><path class="e" d="m140.7 105.2l-4.8-2.8c-0.2-0.1-0.4-0.4-0.4-0.7 0-0.2 0.2-0.3 0.4-0.2l4.8 2.8c0.2 0.1 0.4 0.4 0.4 0.6 0 0.3-0.2 0.4-0.4 0.3z"/><path class="e" d="m145.2 108.3l-0.8-2c-0.2-0.5 0-0.9 0.4-0.6l1.7 0.9c0.3 0.2 0.6 0.9 0.4 1.1l-0.8 1c-0.2 0.3-0.7 0-0.9-0.4z"/><path class="e" d="m152.9 112.2l-4.8-2.8c-0.2-0.1-0.4-0.4-0.4-0.6 0-0.3 0.2-0.4 0.4-0.2l4.8 2.7c0.2 0.2 0.4 0.5 0.4 0.7 0 0.2-0.2 0.3-0.4 0.2z"/><path class="g" d="m96.6 36.6l-4.6-2.7c-0.4-0.2-0.7-0.8-0.7-1.2v-2.5c0-0.5 0.3-0.7 0.7-0.5l4.6 2.7c0.4 0.2 0.7 0.8 0.7 1.2v2.5c0 0.5-0.3 0.7-0.7 0.5z"/><path class="e" d="m106 40.7l-7.1-4c-0.4-0.3-0.7-0.9-0.7-1.3 0-0.5 0.3-0.7 0.7-0.5l7.1 4.1c0.4 0.2 0.7 0.8 0.7 1.3 0 0.5-0.3 0.7-0.7 0.4z"/><path class="g" d="m143.3 72.7l-14.2 8.2c-0.5-0.6-0.9-1-1.5-1.3q-0.8-0.5-1.4-0.4l-9.6-16.6q0.3-0.6 0.4-1.5c0-1.9-1.4-4.3-3.1-5.3-1.7-0.9-3-0.1-3 1.8 0 0.6 0.1 1.3 0.4 1.9l-9.6 5.6c-0.4-0.6-0.9-1-1.5-1.3-1.7-1-3-0.2-3 1.7 0 1.9 1.3 4.3 3 5.3 1.7 0.9 3.1 0.2 3.1-1.8 0-0.6-0.2-1.3-0.4-1.9l9.6-5.5c0.4 0.5 0.9 1 1.4 1.3q0.8 0.4 1.5 0.4l9.6 16.6q-0.4 0.5-0.4 1.4c0 2 1.3 4.3 3 5.3 1.7 1 3.1 0.2 3.1-1.8 0-0.6-0.2-1.2-0.4-1.9l14.1-8.2zm-2.5-4.4l6.3 10.9v-7.3z"/><path class="h" d="m71.5 330.7l-1.1-1.9 1.1-0.7-25.9-14.9c-2.5-1.5-4.5-5-4.5-7.9v-70.4l-1.1 0.6-1.1-1.9 3.6-2c0.8-0.4 1.9-0.4 3.1 0.3l26.2 15.2c2.5 1.4 4.5 4.9 4.5 7.8v70.8c0 1.4-0.5 2.5-1.3 2.9z"/><path class="e" d="m68.4 330.3c2.5 1.4 4.5 0.3 4.5-2.6v-70.8c0-2.9-2-6.4-4.5-7.8l-26.3-15.2c-2.4-1.4-4.5-0.2-4.5 2.6v70.8c0 2.9 2.1 6.4 4.5 7.8z"/><path class="g" d="m51.3 315.1c0 0.7 0.5 1.5 1.1 1.8l5.7 3.3c0.6 0.4 1.1 0.1 1.1-0.6v-0.5c0-0.7-0.5-1.6-1.1-1.9l-5.7-3.3c-0.6-0.3-1.1 0-1.1 0.6z"/><path class="i" d="m39 304.4l33 19v-63.5l-33-19.1z"/><path class="e" d="m49 257.5c0 2.3-1.6 3.2-3.5 2.1-2-1.2-3.6-3.9-3.6-6.2 0-2.3 1.6-3.2 3.6-2.1 1.9 1.2 3.5 3.9 3.5 6.2z"/><path fill-rule="evenodd" class="e" d="m45.5 255.5c-0.5-0.3-0.9-0.9-0.9-1.5 0-0.5 0.4-0.8 0.9-0.5 0.4 0.3 0.8 1 0.8 1.5 0 0.6-0.4 0.8-0.8 0.5zm0-1.7c-0.4-0.2-0.6 0-0.6 0.4 0 0.3 0.2 0.8 0.6 1 0.3 0.2 0.5 0 0.5-0.4 0-0.3-0.2-0.8-0.5-1z"/><path fill-rule="evenodd" class="e" d="m45.5 257.4c-0.7-0.4-1.5-0.8-1.5-1.5 0-0.4 0.4-0.7 0.8-0.6q0.1 0 0.2 0 0.2 0.3 0.5 0.5 0.2 0.1 0.5 0.1 0 0 0.1 0.1c0.5 0.5 0.8 1.1 0.8 1.5 0 0.7-0.8 0.3-1.4-0.1zm-0.6-1.8c-0.3 0-0.6 0.2-0.6 0.4 0 0.4 0.4 0.6 1.2 1.1 0.7 0.4 1.1 0.6 1.1 0.3 0-0.3-0.2-0.7-0.6-1.1-0.3 0-0.8-0.3-1.1-0.7z"/><path class="e" d="m56.6 262.9c0.1 0 0.3 0 0.3-0.2 0-0.1-0.2-0.3-0.3-0.3l-5-3c-0.2 0-0.3 0-0.3 0.2 0 0.1 0.1 0.3 0.3 0.4zm0.9 0c-0.1-0.1-0.2 0-0.2 0.1 0 0.2 0.1 0.3 0.2 0.4l1.7 1c0.1 0 0.2 0 0.2-0.2 0-0.1-0.1-0.3-0.2-0.4zm11.1 7c0.2 0.1 0.3 0 0.3-0.1 0-0.2-0.1-0.3-0.3-0.4l-1.6-0.9c-0.1-0.1-0.2-0.1-0.2 0.1 0 0.1 0.1 0.3 0.2 0.4zm-4.5-3.2c-0.1 0-0.2 0-0.2 0.2 0 0.1 0.1 0.3 0.2 0.4l2 1.1c0.1 0.1 0.2 0 0.2-0.1 0-0.2-0.1-0.3-0.2-0.4zm-0.8 0c0.1 0.1 0.2 0 0.2-0.1 0-0.1-0.1-0.3-0.2-0.4l-3.4-1.9c-0.1-0.1-0.2 0-0.2 0.1 0 0.2 0.1 0.3 0.2 0.4zm3.4 2.6c-0.1 0-0.2 0-0.2 0.2 0 0.1 0.1 0.3 0.2 0.4l2 1.1c0.1 0.1 0.2 0 0.2-0.1 0-0.2-0.1-0.3-0.2-0.4zm-1-0.6c-0.1 0-0.2 0-0.2 0.2 0 0.1 0.1 0.3 0.2 0.4h0.1c0.2 0.1 0.3 0 0.3-0.1 0-0.2-0.1-0.3-0.3-0.4zm-12.6-6.8c0.1 0.1 0.2 0 0.2-0.1 0-0.2-0.1-0.3-0.2-0.4l-1.6-0.9c-0.1-0.1-0.2 0-0.2 0.1 0 0.1 0.1 0.3 0.2 0.4zm0.9 0c-0.1-0.1-0.2 0-0.2 0.1 0 0.2 0.1 0.4 0.2 0.4l5.1 2.9c0.1 0.1 0.2 0.1 0.2-0.1 0-0.1-0.1-0.3-0.2-0.4zm5.9 3.4c-0.1 0-0.2 0-0.2 0.2 0 0.1 0.1 0.3 0.2 0.4l5 2.9c0.2 0 0.3 0 0.3-0.2 0-0.1-0.1-0.3-0.3-0.4zm-8.4-3.7c-0.2 0-0.3 0-0.3 0.2 0 0.1 0.1 0.3 0.3 0.4l4.7 2.7c0.1 0.1 0.2 0 0.2-0.1 0-0.2-0.1-0.3-0.2-0.4zm5.6 3.2c-0.1 0-0.2 0-0.2 0.2 0 0.1 0.1 0.3 0.2 0.4l1.9 1c0.1 0.1 0.2 0 0.2-0.1 0-0.1-0.1-0.3-0.2-0.4zm2.6 1.5c-0.2-0.1-0.3 0-0.3 0.1 0 0.2 0.1 0.3 0.3 0.4l3.6 2.1c0.1 0.1 0.2 0 0.2-0.1 0-0.2-0.1-0.3-0.2-0.4z"/><path class="g" d="m63.9 263.5l-12.3-7.2c-0.3-0.1-0.4-0.4-0.4-0.7 0-0.2 0.1-0.3 0.4-0.2l12.3 7.1c0.2 0.1 0.4 0.5 0.4 0.7 0 0.3-0.2 0.4-0.4 0.3z"/><path class="e" d="m49 268.1c0 2.2-1.6 3.2-3.5 2-2-1.1-3.6-3.9-3.6-6.1 0-2.3 1.6-3.2 3.6-2.1 1.9 1.1 3.5 3.9 3.5 6.2z"/><path fill-rule="evenodd" class="e" d="m44.6 264.6c0-0.6 0.4-0.8 0.9-0.5 0.4 0.2 0.8 0.9 0.8 1.5 0 0.5-0.4 0.7-0.8 0.5-0.5-0.3-0.9-1-0.9-1.5zm0.3 0.1c0 0.4 0.2 0.9 0.6 1 0.3 0.2 0.5 0.1 0.5-0.3 0-0.4-0.2-0.8-0.5-1-0.4-0.2-0.6 0-0.6 0.3zm2 3.4c0 0.7-0.8 0.2-1.4-0.1-0.7-0.4-1.5-0.9-1.5-1.6 0-0.4 0.4-0.6 0.8-0.6q0.1 0 0.2 0.1 0.2 0.3 0.5 0.4 0.2 0.2 0.5 0.2 0 0 0.1 0c0.5 0.5 0.8 1.2 0.8 1.6zm-0.3-0.2c0-0.2-0.2-0.7-0.6-1.1-0.3 0-0.8-0.2-1.1-0.6-0.3 0-0.6 0.1-0.6 0.4 0 0.3 0.4 0.6 1.2 1 0.7 0.5 1.1 0.6 1.1 0.3z"/><path fill-rule="evenodd" class="e" d="m51.6 270.5c-0.2-0.1-0.3-0.2-0.3-0.4 0-0.1 0.1-0.2 0.3-0.1l5 2.9c0.1 0.1 0.3 0.3 0.3 0.4 0 0.1-0.2 0.2-0.3 0.1zm7.7 3.9c0.1 0.1 0.2 0.3 0.2 0.4 0 0.2-0.1 0.2-0.2 0.1l-1.6-0.9c-0.2-0.1-0.3-0.2-0.3-0.4 0-0.1 0.1-0.2 0.3-0.1zm7.9 5.1c-0.1-0.1-0.2-0.2-0.2-0.4 0-0.1 0.1-0.2 0.2-0.1l1.6 0.9c0.2 0.1 0.3 0.3 0.3 0.4 0 0.2-0.1 0.2-0.3 0.1zm-0.9-1c0.1 0.1 0.2 0.2 0.2 0.4 0 0.1-0.1 0.2-0.2 0.1l-2-1.1c-0.1-0.1-0.2-0.3-0.2-0.4 0-0.2 0.1-0.2 0.2-0.2zm-6.2-3c-0.1-0.1-0.2-0.3-0.2-0.4 0-0.2 0.1-0.2 0.2-0.1l3.4 1.9c0.1 0.1 0.2 0.2 0.2 0.4 0 0.1-0.1 0.2-0.2 0.1zm8.7 5.7c0.1 0.1 0.2 0.3 0.2 0.4 0 0.2-0.1 0.2-0.2 0.1l-2-1.1c-0.2-0.1-0.3-0.3-0.3-0.4 0-0.2 0.1-0.2 0.3-0.1zm-2.9-1.7c0.1 0.1 0.2 0.3 0.2 0.4 0 0.1-0.1 0.2-0.2 0.1h-0.1c-0.1-0.1-0.2-0.3-0.2-0.4 0-0.2 0.1-0.2 0.2-0.2zm-14.4-7.7c-0.1-0.1-0.2-0.3-0.2-0.4 0-0.2 0.1-0.2 0.2-0.1l1.6 0.9c0.2 0.1 0.3 0.2 0.3 0.4 0 0.1-0.1 0.2-0.3 0.1zm7.6 3.9c0.2 0 0.3 0.2 0.3 0.4 0 0.1-0.1 0.2-0.3 0.1l-5-2.9c-0.1-0.1-0.2-0.3-0.2-0.4 0-0.2 0.1-0.2 0.2-0.2zm5.9 3.5c0.1 0 0.2 0.2 0.2 0.3 0 0.2-0.1 0.3-0.2 0.2l-5.1-2.9c-0.1-0.1-0.2-0.3-0.2-0.4 0-0.2 0.1-0.2 0.2-0.2zm-8.7-3.8c0.1 0 0.2 0.2 0.2 0.4 0 0.1-0.1 0.2-0.2 0.1l-4.8-2.8c-0.1 0-0.2-0.2-0.2-0.3 0-0.2 0.1-0.3 0.2-0.2zm2.7 1.6c0.1 0 0.2 0.2 0.2 0.4 0 0.1-0.1 0.2-0.2 0.1l-1.8-1.1c-0.2 0-0.3-0.2-0.3-0.3 0-0.2 0.1-0.3 0.3-0.2zm4.3 2.5c0.2 0.1 0.3 0.3 0.3 0.4 0 0.2-0.1 0.2-0.3 0.2l-3.6-2.1c-0.1-0.1-0.2-0.3-0.2-0.4 0-0.2 0.1-0.2 0.2-0.1z"/><path class="g" d="m63.9 274l-12.3-7.1c-0.3-0.1-0.4-0.5-0.4-0.7 0-0.3 0.1-0.4 0.4-0.3l12.3 7.2c0.2 0.1 0.4 0.4 0.4 0.7 0 0.3-0.2 0.4-0.4 0.2z"/><path class="e" d="m49 278.6c0 2.3-1.6 3.2-3.5 2.1-2-1.2-3.6-3.9-3.6-6.2 0-2.3 1.6-3.2 3.6-2 1.9 1.1 3.5 3.9 3.5 6.1z"/><path fill-rule="evenodd" class="e" d="m45.5 276.6c-0.5-0.2-0.9-0.9-0.9-1.5 0-0.5 0.4-0.7 0.9-0.5 0.4 0.3 0.8 1 0.8 1.5 0 0.6-0.4 0.8-0.8 0.5zm0-1.6c-0.4-0.2-0.6-0.1-0.6 0.3 0 0.4 0.2 0.8 0.6 1 0.3 0.2 0.5 0 0.5-0.3 0-0.4-0.2-0.9-0.5-1z"/><path fill-rule="evenodd" class="e" d="m45.5 278.5c-0.7-0.4-1.5-0.8-1.5-1.5 0-0.4 0.4-0.7 0.8-0.6q0.1 0 0.2 0.1 0.2 0.2 0.5 0.4 0.2 0.2 0.5 0.1 0 0 0.1 0.1c0.5 0.5 0.8 1.1 0.8 1.6 0 0.6-0.8 0.2-1.4-0.2zm-0.6-1.8c-0.3 0-0.6 0.2-0.6 0.5 0 0.3 0.4 0.5 1.2 1 0.7 0.4 1.1 0.6 1.1 0.3 0-0.3-0.2-0.7-0.6-1.1-0.3 0-0.8-0.3-1.1-0.7z"/><path fill-rule="evenodd" class="e" d="m51.6 281.1c-0.2-0.1-0.3-0.3-0.3-0.4 0-0.2 0.1-0.2 0.3-0.2l5 3c0.1 0 0.3 0.2 0.3 0.4 0 0.1-0.2 0.2-0.3 0.1zm7.7 3.9c0.1 0.1 0.2 0.2 0.2 0.4 0 0.1-0.1 0.2-0.2 0.1l-1.6-0.9c-0.2-0.1-0.3-0.3-0.3-0.4 0-0.2 0.1-0.2 0.3-0.2zm7.9 5.2c-0.1-0.1-0.2-0.3-0.2-0.4 0-0.2 0.1-0.2 0.2-0.1l1.6 0.9c0.2 0.1 0.3 0.2 0.3 0.4 0 0.1-0.1 0.2-0.3 0.1zm-0.9-1.1c0.1 0.1 0.2 0.3 0.2 0.4 0 0.2-0.1 0.2-0.2 0.2l-2-1.2c-0.1-0.1-0.2-0.2-0.2-0.4 0-0.1 0.1-0.2 0.2-0.1zm-6.2-3.1c-0.1 0-0.2-0.2-0.2-0.3 0-0.2 0.1-0.3 0.2-0.2l3.4 1.9c0.1 0.1 0.2 0.3 0.2 0.4 0 0.2-0.1 0.2-0.2 0.2zm8.7 5.7c0.1 0 0.2 0.2 0.2 0.4 0 0.1-0.1 0.2-0.2 0.1l-2-1.2c-0.2 0-0.3-0.2-0.3-0.3 0-0.2 0.1-0.3 0.3-0.2zm-2.9-1.6c0.1 0 0.2 0.2 0.2 0.4 0 0.1-0.1 0.2-0.2 0.1l-0.1-0.1c-0.1 0-0.2-0.2-0.2-0.4 0-0.1 0.1-0.2 0.2-0.1zm-14.4-7.8c-0.1 0-0.2-0.2-0.2-0.4 0-0.1 0.1-0.2 0.2-0.1l1.6 0.9c0.2 0.1 0.3 0.3 0.3 0.4 0 0.2-0.1 0.2-0.3 0.2zm7.6 3.8c0.2 0.1 0.3 0.3 0.3 0.4 0 0.2-0.1 0.2-0.3 0.1l-5-2.9c-0.1 0-0.2-0.2-0.2-0.4 0-0.1 0.1-0.2 0.2-0.1zm5.9 3.4c0.1 0.1 0.2 0.3 0.2 0.4 0 0.2-0.1 0.2-0.2 0.1l-5.1-2.9c-0.1-0.1-0.2-0.2-0.2-0.4 0-0.1 0.1-0.2 0.2-0.1zm-8.7-3.9c0.1 0.1 0.2 0.3 0.2 0.4 0 0.2-0.1 0.2-0.2 0.2l-4.8-2.8c-0.1-0.1-0.2-0.2-0.2-0.4 0-0.1 0.1-0.2 0.2-0.1zm2.7 1.5c0.1 0.1 0.2 0.3 0.2 0.4 0 0.2-0.1 0.2-0.2 0.2l-1.8-1.1c-0.2-0.1-0.3-0.2-0.3-0.4 0-0.1 0.1-0.2 0.3-0.1zm4.3 2.5c0.2 0.1 0.3 0.3 0.3 0.4 0 0.1-0.1 0.2-0.3 0.1l-3.6-2.1c-0.1 0-0.2-0.2-0.2-0.4 0-0.1 0.1-0.2 0.2-0.1z"/><path class="g" d="m63.9 284.6l-12.3-7.1c-0.3-0.2-0.4-0.5-0.4-0.8 0-0.2 0.1-0.3 0.4-0.2l12.3 7.1c0.2 0.2 0.4 0.5 0.4 0.7 0 0.3-0.2 0.4-0.4 0.3z"/><path class="e" d="m49 289.2c0 2.3-1.6 3.2-3.5 2-2-1.1-3.6-3.9-3.6-6.1 0-2.3 1.6-3.2 3.6-2.1 1.9 1.2 3.5 3.9 3.5 6.2z"/><path fill-rule="evenodd" class="e" d="m45.5 287.2c-0.5-0.3-0.9-1-0.9-1.5 0-0.6 0.4-0.8 0.9-0.5 0.4 0.3 0.8 0.9 0.8 1.5 0 0.5-0.4 0.8-0.8 0.5zm0-1.7c-0.4-0.2-0.6 0-0.6 0.3 0 0.4 0.2 0.9 0.6 1.1 0.3 0.1 0.5 0 0.5-0.4 0-0.4-0.2-0.8-0.5-1z"/><path fill-rule="evenodd" class="e" d="m45.5 289.1c-0.7-0.4-1.5-0.9-1.5-1.5 0-0.5 0.4-0.7 0.8-0.7q0.1 0 0.2 0.1 0.2 0.3 0.5 0.5 0.2 0.1 0.5 0.1 0 0 0.1 0.1c0.5 0.5 0.8 1.1 0.8 1.5 0 0.7-0.8 0.3-1.4-0.1zm-0.6-1.8c-0.3 0-0.6 0.2-0.6 0.4 0 0.3 0.4 0.6 1.2 1 0.7 0.5 1.1 0.7 1.1 0.4 0-0.3-0.2-0.8-0.6-1.1-0.3-0.1-0.8-0.3-1.1-0.7z"/><path fill-rule="evenodd" class="e" d="m51.6 291.6c-0.2 0-0.3-0.2-0.3-0.4 0-0.1 0.1-0.2 0.3-0.1l5 2.9c0.1 0.1 0.3 0.3 0.3 0.4 0 0.2-0.2 0.2-0.3 0.2zm7.7 3.8c0.1 0.1 0.2 0.3 0.2 0.4 0 0.2-0.1 0.2-0.2 0.2l-1.6-1c-0.2 0-0.3-0.2-0.3-0.4 0-0.1 0.1-0.2 0.3-0.1zm7.9 5.1c-0.1 0-0.2-0.2-0.2-0.4 0-0.1 0.1-0.2 0.2-0.1l1.6 0.9c0.2 0.1 0.3 0.3 0.3 0.4 0 0.2-0.1 0.2-0.3 0.2zm-0.9-1.1c0.1 0.1 0.2 0.3 0.2 0.4 0 0.1-0.1 0.2-0.2 0.1l-2-1.1c-0.1-0.1-0.2-0.3-0.2-0.4 0-0.2 0.1-0.2 0.2-0.2zm-6.2-3c-0.1-0.1-0.2-0.2-0.2-0.4 0-0.1 0.1-0.2 0.2-0.1l3.4 1.9c0.1 0.1 0.2 0.3 0.2 0.4 0 0.1-0.1 0.2-0.2 0.1zm8.7 5.7c0.1 0.1 0.2 0.3 0.2 0.4 0 0.2-0.1 0.2-0.2 0.2l-2-1.2c-0.2-0.1-0.3-0.2-0.3-0.4 0-0.1 0.1-0.2 0.3-0.1zm-2.9-1.7c0.1 0.1 0.2 0.3 0.2 0.4 0 0.2-0.1 0.2-0.2 0.1h-0.1c-0.1-0.1-0.2-0.3-0.2-0.4 0-0.2 0.1-0.2 0.2-0.1zm-14.4-7.8c-0.1-0.1-0.2-0.3-0.2-0.4 0-0.1 0.1-0.2 0.2-0.1l1.6 0.9c0.2 0.1 0.3 0.3 0.3 0.4 0 0.1-0.1 0.2-0.3 0.1zm7.6 3.9c0.2 0.1 0.3 0.2 0.3 0.4 0 0.1-0.1 0.2-0.3 0.1l-5-2.9c-0.1-0.1-0.2-0.3-0.2-0.4 0-0.2 0.1-0.2 0.2-0.1zm5.9 3.4c0.1 0 0.2 0.2 0.2 0.4 0 0.1-0.1 0.2-0.2 0.1l-5.1-2.9c-0.1-0.1-0.2-0.3-0.2-0.4 0-0.2 0.1-0.2 0.2-0.1zm-8.7-3.9c0.1 0.1 0.2 0.2 0.2 0.4 0 0.1-0.1 0.2-0.2 0.1l-4.8-2.7c-0.1-0.1-0.2-0.3-0.2-0.4 0-0.2 0.1-0.2 0.2-0.2zm2.7 1.6c0.1 0.1 0.2 0.2 0.2 0.4 0 0.1-0.1 0.2-0.2 0.1l-1.8-1c-0.2-0.1-0.3-0.3-0.3-0.4 0-0.2 0.1-0.2 0.3-0.2zm4.3 2.6c0.2 0 0.3 0.2 0.3 0.4 0 0.1-0.1 0.2-0.3 0.1l-3.6-2.1c-0.1-0.1-0.2-0.3-0.2-0.4 0-0.1 0.1-0.2 0.2-0.1z"/><path class="g" d="m63.9 295.1l-12.3-7.1c-0.3-0.1-0.4-0.4-0.4-0.7 0-0.3 0.1-0.4 0.4-0.2l12.3 7.1c0.2 0.1 0.4 0.4 0.4 0.7 0 0.3-0.2 0.4-0.4 0.2z"/><path class="e" d="m49 299.7c0 2.3-1.6 3.2-3.5 2.1-2-1.1-3.6-3.9-3.6-6.2 0-2.2 1.6-3.2 3.6-2 1.9 1.1 3.5 3.9 3.5 6.1z"/><path fill-rule="evenodd" class="e" d="m45.5 297.7c-0.5-0.2-0.9-0.9-0.9-1.5 0-0.5 0.4-0.7 0.9-0.5 0.4 0.3 0.8 1 0.8 1.5 0 0.6-0.4 0.8-0.8 0.5zm0-1.6c-0.4-0.2-0.6-0.1-0.6 0.3 0 0.4 0.2 0.8 0.6 1 0.3 0.2 0.5 0.1 0.5-0.3 0-0.4-0.2-0.8-0.5-1z"/><path fill-rule="evenodd" class="e" d="m45.5 299.6c-0.7-0.4-1.5-0.8-1.5-1.5 0-0.4 0.4-0.7 0.8-0.6q0.1 0 0.2 0.1 0.2 0.3 0.5 0.4 0.2 0.2 0.5 0.2 0 0 0.1 0c0.5 0.5 0.8 1.2 0.8 1.6 0 0.7-0.8 0.2-1.4-0.2zm-0.6-1.7c-0.3-0.1-0.6 0.1-0.6 0.4 0 0.3 0.4 0.6 1.2 1 0.7 0.5 1.1 0.6 1.1 0.3 0-0.3-0.2-0.7-0.6-1.1-0.3 0-0.8-0.2-1.1-0.6z"/><path fill-rule="evenodd" class="e" d="m51.6 302.2c-0.2-0.1-0.3-0.3-0.3-0.4 0-0.1 0.1-0.2 0.3-0.1l5 2.9c0.1 0.1 0.3 0.2 0.3 0.4 0 0.1-0.2 0.2-0.3 0.1zm7.7 3.9c0.1 0.1 0.2 0.2 0.2 0.4 0 0.1-0.1 0.2-0.2 0.1l-1.6-0.9c-0.2-0.1-0.3-0.3-0.3-0.4 0-0.1 0.1-0.2 0.3-0.1zm7.9 5.1c-0.1-0.1-0.2-0.3-0.2-0.4 0-0.1 0.1-0.2 0.2-0.1l1.6 0.9c0.2 0.1 0.3 0.2 0.3 0.4 0 0.1-0.1 0.2-0.3 0.1zm-0.9-1c0.1 0 0.2 0.2 0.2 0.4 0 0.1-0.1 0.2-0.2 0.1l-2-1.2c-0.1 0-0.2-0.2-0.2-0.4 0-0.1 0.1-0.2 0.2-0.1zm-6.2-3c-0.1-0.1-0.2-0.3-0.2-0.4 0-0.2 0.1-0.2 0.2-0.2l3.4 2c0.1 0 0.2 0.2 0.2 0.4 0 0.1-0.1 0.2-0.2 0.1zm8.7 5.7c0.1 0.1 0.2 0.2 0.2 0.4 0 0.1-0.1 0.2-0.2 0.1l-2-1.1c-0.2-0.1-0.3-0.3-0.3-0.4 0-0.2 0.1-0.2 0.3-0.2zm-2.9-1.6c0.1 0.1 0.2 0.2 0.2 0.4 0 0.1-0.1 0.2-0.2 0.1l-0.1-0.1c-0.1 0-0.2-0.2-0.2-0.4 0-0.1 0.1-0.2 0.2-0.1zm-14.4-7.7c-0.1-0.1-0.2-0.3-0.2-0.4 0-0.2 0.1-0.2 0.2-0.2l1.6 1c0.2 0 0.3 0.2 0.3 0.4 0 0.1-0.1 0.2-0.3 0.1zm7.6 3.8c0.2 0.1 0.3 0.3 0.3 0.4 0 0.2-0.1 0.2-0.3 0.2l-5-3c-0.1 0-0.2-0.2-0.2-0.3 0-0.2 0.1-0.3 0.2-0.2zm5.9 3.4c0.1 0.1 0.2 0.3 0.2 0.4 0 0.2-0.1 0.2-0.2 0.2l-5.1-3c-0.1 0-0.2-0.2-0.2-0.4 0-0.1 0.1-0.2 0.2-0.1zm-8.7-3.9c0.1 0.1 0.2 0.3 0.2 0.4 0 0.2-0.1 0.2-0.2 0.2l-4.8-2.8c-0.1-0.1-0.2-0.2-0.2-0.4 0-0.1 0.1-0.2 0.2-0.1zm2.7 1.6c0.1 0 0.2 0.2 0.2 0.3 0 0.2-0.1 0.3-0.2 0.2l-1.8-1.1c-0.2-0.1-0.3-0.2-0.3-0.4 0-0.1 0.1-0.2 0.3-0.1zm4.3 2.5c0.2 0.1 0.3 0.3 0.3 0.4 0 0.2-0.1 0.2-0.3 0.1l-3.6-2c-0.1-0.1-0.2-0.3-0.2-0.4 0-0.2 0.1-0.2 0.2-0.2z"/><path class="g" d="m63.9 305.7l-12.3-7.1c-0.3-0.2-0.4-0.5-0.4-0.7 0-0.3 0.1-0.4 0.4-0.3l12.3 7.1c0.2 0.2 0.4 0.5 0.4 0.8 0 0.2-0.2 0.3-0.4 0.2z"/><path class="g" d="m253.1 255.7l-0.9-0.6q-0.3-0.1-0.6 0.1l-3.7 2.1c-0.5 0.3-1 1.1-1 1.8v4.6c0 0.6 0.5 0.9 1 0.6l6.3-3.6c0.6-0.4 1-1.2 1-1.9v-3.1c0-0.6-0.3-0.8-0.8-0.5l-0.7 0.4q-0.3 0.2-0.6 0.1z"/><path class="g" d="m255.2 262.5l-8.3 4.8v-1l8.3-4.8z"/><path class="g" d="m251.2 266.7l-4.3 2.5v-1l4.3-2.5z"/><path class="j" d="m275.1 242.9l-0.9-0.5q-0.3-0.1-0.6 0.1l-3.6 2.1c-0.6 0.3-1.1 1.1-1.1 1.8v4.6c0 0.6 0.5 0.9 1.1 0.6l6.2-3.7c0.6-0.3 1.1-1.1 1.1-1.8v-3.1c0-0.6-0.4-0.8-0.9-0.5l-0.7 0.4q-0.3 0.2-0.6 0z"/><path class="g" d="m277.3 249.8l-8.4 4.8v-1l8.4-4.8z"/><path class="g" d="m273.2 254l-4.3 2.5v-1.1l4.3-2.4z"/><path class="k" d="m264 249.3l-0.9-0.5q-0.2-0.1-0.6 0.1l-3.6 2.1c-0.6 0.3-1.1 1.1-1.1 1.8v4.6c0 0.6 0.5 0.9 1.1 0.6l6.2-3.7c0.6-0.3 1.1-1.1 1.1-1.8v-3.1c0-0.6-0.4-0.8-0.9-0.5l-0.7 0.4q-0.3 0.2-0.6 0z"/><path class="g" d="m266.2 256.2l-8.4 4.8v-1l8.4-4.8z"/><path class="g" d="m262.1 260.4l-4.3 2.5v-1.1l4.3-2.4z"/><path class="g" d="m253.1 241.6l-0.9-0.6q-0.3-0.1-0.6 0.1l-3.7 2.1c-0.5 0.3-1 1.1-1 1.8v4.6c0 0.6 0.5 0.9 1 0.6l6.3-3.6c0.6-0.4 1-1.2 1-1.8v-3.2c0-0.5-0.3-0.8-0.8-0.5l-0.7 0.4q-0.3 0.2-0.6 0.1z"/><path class="g" d="m255.2 248.4l-8.3 4.8v-1l8.3-4.8z"/><path class="g" d="m251.2 252.7l-4.3 2.4v-1l4.3-2.5z"/><path class="g" d="m275.1 228.9l-0.9-0.6q-0.3-0.1-0.6 0.1l-3.6 2.1c-0.6 0.3-1.1 1.1-1.1 1.8v4.6c0 0.6 0.5 0.9 1.1 0.6l6.2-3.6c0.6-0.4 1.1-1.2 1.1-1.9v-3.1c0-0.6-0.4-0.8-0.9-0.5l-0.7 0.4q-0.3 0.2-0.6 0.1z"/><path class="g" d="m277.3 235.7l-8.4 4.8v-1l8.4-4.8z"/><path class="g" d="m273.2 239.9l-4.3 2.5v-1l4.3-2.5z"/><path class="g" d="m264 235.3l-0.9-0.6q-0.2-0.1-0.6 0.1l-3.6 2.1c-0.6 0.3-1.1 1.1-1.1 1.8v4.6c0 0.6 0.5 0.9 1.1 0.6l6.2-3.6c0.6-0.4 1.1-1.2 1.1-1.9v-3.1c0-0.6-0.4-0.8-0.9-0.5l-0.7 0.4q-0.3 0.2-0.6 0.1z"/><path class="g" d="m266.2 242.1l-8.4 4.8v-1l8.4-4.8z"/><path class="g" d="m262.1 246.3l-4.3 2.5v-1l4.3-2.5z"/><path class="l" d="m253.1 227.5l-0.9-0.6q-0.3-0.1-0.6 0.1l-3.7 2.1c-0.5 0.3-1 1.1-1 1.8v4.6c0 0.6 0.5 0.9 1 0.6l6.3-3.6c0.6-0.4 1-1.2 1-1.8v-3.2c0-0.5-0.3-0.8-0.8-0.5l-0.7 0.4q-0.3 0.2-0.6 0.1z"/><path class="g" d="m255.2 234.3l-8.3 4.9v-1.1l8.3-4.8z"/><path class="g" d="m251.2 238.6l-4.3 2.4v-1l4.3-2.5z"/><path class="m" d="m275.1 214.8l-0.9-0.6q-0.3-0.1-0.6 0.1l-3.6 2.1c-0.6 0.3-1.1 1.1-1.1 1.8v4.6c0 0.6 0.5 0.9 1.1 0.6l6.2-3.6c0.6-0.4 1.1-1.2 1.1-1.8v-3.2c0-0.5-0.4-0.8-0.9-0.5l-0.7 0.4q-0.3 0.2-0.6 0.1z"/><path class="g" d="m277.3 221.6l-8.4 4.8v-1l8.4-4.8z"/><path class="g" d="m273.2 225.9l-4.3 2.4v-1l4.3-2.5z"/><path class="g" d="m264 221.2l-0.9-0.6q-0.2-0.1-0.6 0.1l-3.6 2.1c-0.6 0.3-1.1 1.1-1.1 1.8v4.6c0 0.6 0.5 0.9 1.1 0.6l6.2-3.6c0.6-0.4 1.1-1.2 1.1-1.8v-3.2c0-0.5-0.4-0.8-0.9-0.5l-0.7 0.4q-0.3 0.2-0.6 0.1z"/><path class="g" d="m266.2 228l-8.4 4.8v-1l8.4-4.8z"/><path class="g" d="m262.1 232.3l-4.3 2.4v-1l4.3-2.5z"/><path class="n" d="m55.9 94.1l-2.4 17.3-0.1 0.3v0.2l1.6 14.4 2.3-0.1v-14.5 0.5l4.6-16.9z"/><path class="o" d="m57.6 76.7c-0.4 0-0.7 0.1-0.9 0.2q-0.2 0.1-0.3 0.2-0.2 0.4-0.3 0.7-0.2 0.7-0.4 1.4c-0.2 0.9-0.3 1.9-0.5 2.9q-0.3 1.4-0.6 2.8l-0.3 1.4q-0.1 0.7-0.2 1.5c-0.1 0.4 0.2 0.8 0.7 0.9 0.4 0.1 0.7-0.1 0.9-0.5q0.3-0.6 0.5-1.3l0.6-1.3q0.6-1.4 1.1-2.7c0.4-0.9 0.8-1.8 1.1-2.7q0.3-0.7 0.4-1.4 0.1-0.4 0.2-0.7 0-0.2-0.2-0.4c-0.1-0.2-0.3-0.4-0.6-0.6q-0.6-0.4-1.2-0.4z"/><path class="n" d="m65.3 113.5l0.5-14.2c0.1-0.4 0.1-0.7 0.1-1q0-0.4 0-0.7v-1.3h-0.3c-0.2-0.4-0.6-0.8-1.1-1-1.3-0.7-3-0.9-4.5-1.1-1.3-0.2-3.1-0.3-4 0.7-0.5 1-0.6 2.1-0.5 4.1 0.9 0.4 2.8 1.3 4.7 2l0.9 12.6v0.3l3.7 17 2.4-0.4z"/><path class="o" d="m67.5 78.9c-2.1-3-8.3-3.8-9.8-2.8-0.7 0.5-1.8 1.1-1.9 3.7-0.3 4.2 0.2 8.5 0.1 12.7 0 1-0.3 2.1 0.2 2.9 0.5 0.7 5 2.4 6.3 2.5 2.8 0.4 4.1-0.8 4.2-2.1 0.1-1.2 1.9-13.7 0.9-16.9z"/><path class="p" d="m62.9 75.6c0 0.2 0 0.4 0 0.6-0.1 0.4-0.4 0.7-0.7 0.8-0.3 0.3-0.7 0.5-1 0.3-0.4-0.3-0.4-0.8-0.5-1.3q0-0.7 0-1.4c0-0.4 0-0.7 0.1-1 0.2-0.5 1.1-0.9 1.5-0.5 0.2 0.2 0.2 0.7 0.3 1q0.1 0.8 0.3 1.5z"/><path class="o" d="m65.5 79.2c-0.4 0.5-0.5 0.9-0.6 1.3q-0.1 0.5 0.1 0.8 0.4 0.8 0.7 1.6 0.7 1.5 1.5 2.9 0.8 1.5 1.7 2.9c0.6 1 1.3 1.9 2 2.8l0.8-2c-1.6 0.7-3.2 1.1-4.9 1.3-1.7 0.1-3.4 0.1-5.1-0.3-0.4-0.1-0.8 0.2-0.9 0.7-0.1 0.4 0.1 0.8 0.5 0.9 1.8 0.6 3.7 0.9 5.6 0.9 1.9 0 3.8-0.3 5.7-0.9 0.6-0.2 1-0.8 0.8-1.5l-0.1-0.4c-0.2-1.1-0.6-2.1-1-3.2q-0.7-1.5-1.4-3-0.7-1.5-1.5-3-0.4-0.7-0.8-1.5-0.2-0.3-0.7-0.6c-0.3-0.1-0.7-0.2-1.3-0.2-0.5 0-0.9 0.2-1.1 0.5z"/><path class="q" d="m62.7 73.4c1.5-1.2 1.6-4.1 0.2-5.4-1.2-1.1-3.9-0.8-5 1.3-0.7 1.4-0.4 5.6 1.4 6.2 1 0.3 3.2-1.1 3.4-2.1z"/><path class="r" d="m67.1 130.3c0 0.2 0 0.4-0.1 0.7-0.3 0.9-0.9 1.8-1.6 2.5-0.3 0.3-0.7 0.7-1.2 0.7-0.2 0.1-0.5 0-0.6-0.2-0.1-0.1-0.1-0.3 0-0.5q0.3-1.2 0.7-2.4c0.2-0.4 0.4-0.9 0.8-1.2 0.3-0.3 0.7-0.3 1.1-0.2 0.3 0.1 0.8 0.2 0.9 0.6z"/><path class="o" d="m56 88.1q0-0.7-0.1-1.3-0.2-0.6-0.4-1.2c-0.2-0.4-0.4-0.8-0.6-1.1-0.3-0.3-0.6-0.6-0.9-1q-0.4-0.4-0.7-0.9l-0.8-1-1.5-2c-0.3-0.4-0.8-0.4-1.2-0.2-0.3 0.3-0.4 0.7-0.2 1l1 2.3 0.5 1.2q0.2 0.5 0.5 1.1c0.1 0.4 0.2 0.8 0.4 1.2 0.2 0.4 0.4 0.7 0.7 1q0.4 0.5 0.9 1 0.4 0.4 1.1 0.8c0.4 0.2 1 0 1.2-0.4q0.1-0.2 0.1-0.5z"/><path class="q" d="m58.3 89.8c-0.2 0.4 0.4 0.9 0.9 1-0.5-0.1-0.8-0.1-1.3-0.2-0.7-0.2-1.1 0.7-0.4 1.3 1.1 1.1 2.7 0.8 3.7-0.1 0.8-0.7 0.4-1.9-0.7-2.1-0.8-0.3-1.3 0.1-2.2 0.1z"/><path class="q" d="m48 76.9c0.3-0.2 0.7-0.2 1-0.1 0.8 0.3 1.5 0.9 1.9 1.7 0.2 0.4 0.3 0.9 0.1 1.4-0.2 0.3-0.5 0.5-0.9 0.5-0.3 0-0.7-0.2-0.8-0.5-0.3-0.5-0.2-1.1-0.7-1.4-0.4-0.2-0.9-0.1-1-0.7 0-0.3 0-0.8 0.4-0.9z"/><path class="s" d="m64.9 69.9c-0.1-0.7-0.6-1.5-1.4-1.6q0 0-0.1 0 0-0.2 0-0.4c-0.3-0.9-1.3-1.5-2.2-1.5-0.5 0-1 0.2-1.6 0.4-0.5 0.2-1.1 0.4-1.7 0.7-0.1 0-0.3 0.1-0.5 0.1-0.2 0-0.4-0.1-0.4-0.3-0.2 0.6-0.2 1.3 0.1 1.8 0.3 0.6 1 1 1.6 0.9 0.3 0 0.6-0.2 0.9-0.2 0.3 0 0.6 0.2 0.9 0.4q0.5 0.2 1 0.2 0 0.2 0 0.4c0.1 0.6 0.3 1.2 0.5 1.8 0.5-0.5 0.9-0.6 1.1-0.1 0 0.6-0.5 0.9-0.7 1.4 0 0.3 0.4 0.7 0.6 0.8 0.5 0.3 0.8-0.2 0.9-0.6q0.3-1 0.6-2c0.2-0.7 0.5-1.4 0.4-2.2z"/><path class="e" d="m62.4 79.3c-0.6-0.5-1.2-1.6-1.2-2.4 0.9 0 1.6-1 1.6-1.6 0.1 0.3 0.4 0.4 0.5 0.9 0.1 0.7-0.7 2.8-0.9 3.1z"/><path class="e" d="m61.2 76.9l0.1 0.5c-0.2 0.6-0.9 1.1-1.5 1.3 0.2-0.5 0.1-2.3 0.9-3.2 0 0.5 0.1 1.1 0.5 1.4z"/><path class="t" d="m57.2 127.9c-0.2 0.2-1 0.4-1.4 0.4q-1.8 0.4-3.6 0.5c-0.2 0-0.4 0-0.4-0.2-0.1-0.2 0.1-0.3 0.2-0.4 0.6-0.4 0.9-0.6 1.4-0.9 0.7-0.4 1-0.9 1.8-1 0.2-0.1 1.8-0.3 1.9-0.3 0.3 0.1 0.4 1.6 0.1 1.9z"/><path class="o" d="m232.5 253.3c0.5 0.2 0.8 0.5 1.1 0.8q0.5 0.5 0.8 1 0.3 0.5 0.4 1c0.1 0.3 0.2 0.7 0.3 1q0.4 2.1 0.5 4.2c0.1 1.4 0.1 2.9 0.2 4.3q0 2.2 0.2 4.3l0.1 0.4v0.1q-0.5 3.4-0.9 6.8-0.2 1.7-0.4 3.4-0.2 1.7-0.4 3.4l-2.2-0.1q0-1.7 0-3.5 0-1.7 0-3.4 0-3.4-0.1-6.9l0.1 0.5q-0.6-2-1.4-4c-0.4-1.4-1-2.7-1.4-4.1q-0.7-2-1.1-4.1c0-0.4-0.1-0.7-0.1-1.1q-0.1-0.5 0-1.1 0.1-0.5 0.4-1.1c0.1-0.4 0.4-0.8 0.7-1.2z"/><path class="q" d="m231.3 235.9c0.4 0.2 0.8 0.5 1.2 0.9q0.5 0.5 0.9 1.1 0.9 1.2 1.6 2.4 0.8 1.2 1.6 2.5 0.7 1.3 1.4 2.6c0.1 0.4 0 0.9-0.4 1-0.4 0.2-0.7 0.1-1-0.1q-1-1.1-1.9-2.3-0.9-1.1-1.7-2.3-0.8-1.2-1.6-2.4-0.4-0.6-0.7-1.3c-0.2-0.4-0.4-0.9-0.5-1.4 0-0.4 0.3-0.8 0.6-0.8q0.3 0 0.5 0.1z"/><path class="u" d="m235.2 240.1q-0.8-1.1-1.6-2.2-0.5-0.6-1-1.1c-0.4-0.4-0.8-0.7-1.3-0.9q-0.2-0.1-0.5-0.1c-0.4 0-0.6 0.4-0.6 0.8 0.1 0.5 0.3 1 0.4 1.4q0.4 0.7 0.8 1.3 0.8 1.2 1.7 2.4c1-0.1 1.8-0.8 2.1-1.6z"/><path class="o" d="m234.1 254.4c-0.3-2.4-2.9-2.3-4.2-2.1-1.4 0.1-4.7 0.9-6 1.5-1.7 0.8-2.1 3.2-1.6 5 0.5 1.4 0.9 2.8 1.1 4.2q0 0.1 0 0.2c0.5 2.6 1.1 5.2 1.4 7.8l0.2 1q0 0.4 0 0.9l0.1 2q0.1 1.9 0.2 3.9c0.1 2.5 0.2 5.1 0.1 7.7l2.3 0.1c0.1-2.6 0.3-5.2 0.6-7.8q0.2-2 0.4-3.9l0.3-2q0-0.5 0.1-1v-0.9c0.2-2.7 0.6-5.3 0.8-7.9q0.2-1.6 0.3-3.3c2.2-1.2 4.1-3.2 3.9-5.4z"/><path class="u" d="m233.9 251.4c-0.8-2.7-0.9-5.1-1-7.8 0.7-0.7 1.4-2.3 0.6-3.1-1-1-2.3-3.3-2.5-4.7-1.5-1-5.2-1.3-7.1 1.7-0.4 1-0.2 2.2 0.2 7.1 0.2 4.4-1.4 7.2-1.4 10.2 0.6 1.5 2.9 2.7 5 2 1.2-0.4 6.2-1.5 6.4-2.4 0.1-1 0.1-2.1-0.2-3z"/><path class="q" d="m226.8 238.9c1.5 0.4 3.6-0.3 4-0.9 0.4-0.5-0.7-2.2-0.8-2.3-1.3-0.7-3.8-0.4-4.3 1.2-0.1 0.5 0.6 1.9 1.1 2z"/><path class="q" d="m227.1 235.2c-0.1 0.1-0.1 0.3-0.1 0.5 0.1 0.4 0.4 0.6 0.7 0.8 0.3 0.2 0.7 0.4 1 0.2 0.4-0.2 0.4-0.8 0.4-1.2q0-0.7 0.1-1.4c0-0.3 0-0.6-0.1-0.9-0.3-0.5-1.1-0.9-1.5-0.5-0.2 0.2-0.2 0.7-0.2 1q-0.2 0.7-0.3 1.5z"/><path class="q" d="m224.5 237.6c1.1 2.6 0.6 6.4-0.2 9.7 0.3-0.2 0.4-0.4 0.7-0.7 0.5-0.5 1.5-2.8 2.3-3 2.2-0.5 0 3.3-0.3 3.7-1 1.5-2.3 3.1-3.8 4-3.4 2.2-2.3-3.3-2.1-5.1 0.3-1.9 0.5-3.8 1.1-5.6 0.1-0.6 1.6-4.4 2.3-3z"/><path class="u" d="m224.8 245.7c0.6-3 0.7-6-0.3-8.2-0.7-1.5-2.3 2.6-2.5 3.1-0.4 1.6-0.7 3.2-0.9 4.7 0.1 0.2 0.3 0.4 0.4 0.5 1.1 0.8 2.4 0.6 3.3-0.1z"/><path class="q" d="m226.8 232.8c-1.4-1.1-1.5-4-0.2-5.2 1.2-1.1 3.8-0.8 4.8 1.2 0.8 1.4 0.4 5.4-1.3 6-1 0.3-3.1-1.1-3.3-2z"/><path class="v" d="m225.5 286.4c-0.1 0.2 0 0.5 0 0.7 0.3 0.9 0.9 1.8 1.5 2.4 0.4 0.4 0.8 0.7 1.2 0.7 0.2 0.1 0.5 0 0.6-0.2 0.1-0.1 0.1-0.3 0-0.4q-0.3-1.2-0.7-2.4c-0.1-0.4-0.3-0.9-0.7-1.2-0.3-0.2-0.8-0.3-1.1-0.2-0.3 0.1-0.7 0.2-0.8 0.6z"/><path class="w" d="m232.2 285.1c0.2 0.2 1 0.4 1.4 0.4q1.7 0.3 3.5 0.4c0.1 0 0.3 0 0.4-0.1 0-0.2-0.1-0.3-0.3-0.4-0.5-0.3-0.8-0.6-1.3-0.9-0.7-0.4-1-0.8-1.8-1-0.2 0-1.7-0.2-1.8-0.2-0.3 0.1-0.4 1.5-0.1 1.8z"/><path class="q" d="m226.9 242.1c0.3-0.6 1-1 1.6-0.7 0.4 0.2 0.6 0.5 0.7 0.8 0.1 0.4 0.1 0.8 0.2 1.2 0 0.2 0 0.4-0.1 0.5-0.1 0.2-0.4 0.3-0.5 0.1-0.1-0.1-0.1-0.2-0.3-0.3-0.1-0.1-0.3 0.2-0.3 0.3 0 0.2 0.1 0.4 0 0.6-0.2 0.8-1.2-0.1-1.4-0.5-0.2-0.6-0.2-1.4 0.1-2z"/><path class="q" d="m236.1 245.3c1.8-1.6 3.6-3.2 4.6-4.8 0.4-0.5 1.1-0.5 1 0.4-0.1 0.8-2.1 4.5-3.2 5.1-0.7 0.5-2.3 1.1-2.4-0.7z"/><path class="q" d="m241.3 238.5c-0.1 0.1-0.2 0.4-0.3 0.6q-0.2 0.6-0.4 1.3c0 0.1-0.1 0.3 0 0.4 0 0.3 0.3 0.4 0.6 0.4 0.5 0.1 1-0.3 1.3-0.8 0.3-0.4 0.3-1 0.4-1.5 0-0.3 0-0.5 0-0.7-0.3-0.7-1.3-0.1-1.6 0.3z"/><path class="x" d="m232.5 229.8c0.6 0.1 1.1-0.6 1.5-1 0.3-0.5 0.6-1 0.8-1.6-0.3 0.4-0.8 0.6-1.4 0.6-0.5 0-1-0.2-1.4-0.5-0.4-0.4-0.6-0.9-1-1.3-0.5-0.5-1.2-0.7-2-0.6-0.7 0.2-1.3 0.5-1.9 1q0 0 0 0c-0.4 0.3-1 0.5-1.6 0.5q0 0 0 0c-1 0-2 0.6-2.4 1.4-0.4 1-0.2 2.1 0.1 3.1 0.4 1 0.8 2 0.8 3.1 0 1.1-0.5 2.1-1.4 2.8 2.6 1.4 6-1.2 5.3-7.1z"/><path class="o" d="m27.9 336.3c0.4-1.2 4.5-1.9 5.3-1.2 0.9 0.6-2.5 2.9-4 2.9-1.2 0.1-1.7-0.8-1.3-1.7z"/><path class="o" d="m17.3 331.4c-0.1-1.2 3.3-3.6 4.3-3.4 1 0.3-1 3.7-2.4 4.4-1 0.6-1.9-0.1-1.9-1z"/><path class="u" d="m24.8 297.9c-1.5 10.4-3.3 22.4-4.9 32.8-0.1 0.6-2.7 1-2.7-0.2-0.1-4 0.5-9.8 0.7-14 0.3-5.6 0.3-13.5 0.4-19.1q3.2 0.3 6.5 0.5z"/><path class="q" d="m27.2 268.8c-1.8-1.8-4.6-1.3-5.5 0.3-0.7 1.2-0.4 3 0.5 4.2 0.6 0.9 0.9 2 0.8 3q0 0.3-0.1 0.5c0 0.2 0 0.4 0 0.6 0.1 0.4 0.5 0.7 0.8 0.9 0.4 0.2 0.8 0.4 1.2 0.1 0.3-0.3 0.4-0.9 0.3-1.4 0-0.7 0.6-1.2 1.3-1.2 0.5 0.1 1 0 1.3-0.2 1.6-1.2 0.7-5.6-0.6-6.8z"/><path class="o" d="m21.7 278.2c0 0.6-0.1 1.1-0.2 1.7q-0.2 0.7-0.6 1.4-0.7 1.4-1.6 2.7c-0.6 0.8-1.2 1.6-1.9 2.5l-0.9 1.2q-0.4 0.5-0.6 1c-0.3 0.8-0.5 1.6-0.5 2.4v3.1l0.1 6.2c0 0.5-0.3 0.8-0.7 0.8-0.4 0-0.7-0.3-0.8-0.6l-1-6.1-0.5-3.1c-0.1-1.2-0.1-2.5 0.3-3.7q0.2-0.9 0.6-1.8 0.4-0.7 0.7-1.4c0.4-1 0.8-1.9 1.3-2.9q0.7-1.3 1.5-2.6 0.4-0.7 1-1.3c0.4-0.3 0.8-0.7 1.4-0.9 0.8-0.4 1.8-0.1 2.2 0.8q0.2 0.3 0.2 0.6z"/><path class="u" d="m30.5 320.7c-0.1-7.1-0.4-14.3-0.7-21.5-0.2-3.8-9.4-4-11.2-1.9-0.8 0.9-1 3.7-0.6 4.7 0.5 1 1.7 1.7 3.2 2.2 1.8 0.7 3.1 2.3 3.4 4.2q0.8 4.7 1.5 9.4c0.6 4.4 1.3 17.1 1.8 18.2 0.2 0.7 1.7 1 2.5-0.3 0.2-0.5 0.2-12.4 0.1-15z"/><path class="o" d="m29.6 281.9c0.1-1.5-0.7-2.9-2-3.7-2.7-1.5-6.3-2.7-7.5-1.8-0.8 0.5-2.7 2.8-2.7 5.5 0 4.5 0 8.3 0.5 13.5 0.1 1 0 2.3 0.6 3.1 0.6 0.7 5.5 2.2 6.9 2.3 3 0.2 4.3-1.2 4.3-2.5 0.1-1.2-0.5-10.8-0.1-16.4z"/><path class="u" d="m28.4 266.6c-0.6 0.4-1.4 0.4-2.2 0.3-0.7-0.1-1.4-0.4-2.1-0.4-1.8 0.1-2.8 0.8-2.7 2.6-0.9 0.6-0.7 2.3-0.4 3.3 0.6 1.8 2.7 4.4 4.2 2.1l0.1-0.1c0.3-0.4 0.3-0.9 0.2-1.4q-0.1-0.2-0.1-0.4c0-0.3 0.1-0.6 0.4-0.6 0.1-0.1 0.3 0 0.4 0.1q0 0.1 0.1 0.2c0.1-0.5 0.3-0.9 0.7-1.2 0.6-0.4 1.1-1 1.3-1.6 0.4-0.9 0.4-2 0.1-2.9z"/><path class="q" d="m25.8 278.9c0.6-0.2 1.1-0.3 1.7-0.3q0.8 0 1.5 0.2 1.5 0.4 3 0.9c1 0.4 1.9 0.8 2.9 1.2l1.4 0.6q0.6 0.2 1.2 0.3c0.8 0.1 1.6 0.1 2.4-0.1l3-0.9 6-1.6c0.4-0.1 0.8 0.1 0.9 0.5 0.1 0.4-0.1 0.7-0.4 0.9l-5.7 2.5-2.8 1.3c-1.2 0.4-2.4 0.7-3.7 0.7q-0.9 0-1.9-0.2-0.7-0.1-1.5-0.3c-1-0.1-2.1-0.3-3.1-0.5q-1.5-0.3-3-0.8-0.7-0.2-1.4-0.7c-0.4-0.2-0.9-0.6-1.3-1-0.6-0.8-0.5-1.8 0.2-2.4q0.3-0.2 0.6-0.3z"/><path class="o" d="m41 284.7c-2.9 1.2-6 0.5-9 0-2.2-0.4-10.2-2.7-8.4-4.6 2.3-2.4 5.7-1.6 7.4-1.1 1.8 0.6 3.6 1.5 5.4 2.2 1.9 0.6 3.6 0.1 5.4-0.4 0.8-0.2 3.3-1.1 4.1-1 0.8 0.1 1.3 1.2 1 2.3-0.1 0.3-4.5 1.9-5.9 2.6z"/><path class="q" d="m50.2 280.8c0.2-0.2 0.5-0.3 0.7-0.1 0.2 0.1 0.1 0.4 0.3 0.5 0.1 0.2 0.4 0.1 0.5-0.1 0.2-0.2 0.2-0.4 0.2-0.7q-0.1-0.5-0.1-1c-0.1-0.3-0.2-0.7-0.5-0.9-0.2-0.2-0.5-0.3-0.8-0.3q-0.8-0.1-1.6 0.1-0.3 0-0.7 0.2c-0.5 0.4-0.9 1.5-0.5 2.1 0.6 0.9 1.8 0.6 2.5 0.2z"/><path class="q" d="m16.3 303.2c-0.1 0.3-0.1 0.6 0.1 0.7 0.2 0.1 0.4 0 0.6 0.1 0.2 0.1 0.2 0.4 0.1 0.6-0.2 0.2-0.4 0.2-0.6 0.3q-0.5 0.1-1 0.2c-0.4 0-0.8 0-1.1-0.2-0.2-0.1-0.4-0.4-0.5-0.7q-0.3-0.7-0.3-1.5-0.1-0.4 0-0.7c0.2-0.7 1.1-1.3 1.8-1.1 1 0.3 1.1 1.5 0.9 2.3z"/><path class="q" d="m301.9 147.6c1.8 2 0.3 8 0.6 10.6 0.1 0.7-1.6 0.4-1.7-0.2-0.1-1-1.3-9.6-1-10.3 0.6-1.3 1.7-0.6 2.1-0.1z"/><path class="o" d="m302.9 154.3c0.3-2.6 0.4-5.6-0.8-6.9-0.4-0.5-2-1.2-2.5 0.1-0.2 0.4 0.3 5.1 0.7 8 1 0.6 2.5-0.1 2.6-1.2z"/><path class="y" d="m305 187.8c0.1 0.4 0.6 0.9 0.9 1.2q1.3 1.2 2.8 2.3c0.1 0.1 0.3 0.2 0.4 0.1 0.2-0.1 0.1-0.3 0-0.5-0.2-0.6-0.4-0.9-0.6-1.5-0.4-0.7-0.6-1.2-0.7-2-0.1-0.2-1.6-1-1.7-1.1-0.3-0.1-1.2 1.1-1.1 1.5z"/><path class="z" d="m304 192.5c-0.1 0.2 0 0.5 0.1 0.7 0.3 1 0.8 1.8 1.5 2.5 0.4 0.4 0.8 0.7 1.2 0.8 0.3 0 0.5 0 0.7-0.2 0-0.2 0-0.4 0-0.5q-0.3-1.3-0.8-2.5c-0.1-0.4-0.3-0.9-0.8-1.2-0.3-0.2-0.7-0.3-1.1-0.2-0.3 0.1-0.7 0.2-0.8 0.6z"/><path class="A" d="m299.9 164.3l11.8 7.7c0.8 0.5 1.2 1.6 0.8 2.6l-4.7 12.9c-0.3 0.7-1.9 0.2-2.2-0.7l2.6-10.9c0.1-0.4-0.1-0.9-0.5-1.1l-10.7-5.1z"/><path class="A" d="m297.2 167.4l7.2 10.2c0.6 0.8 0.9 1.6 0.9 2.5l1 12.4c0 0.8-1.5 1.2-2.4 0.3l-2.1-10.4c-0.3-1.4-1-2.8-2.1-3.8l-7.2-7.2z"/><path class="A" d="m291.6 168.3c0 1 0.4 3.1 1.3 3.3 2.1 0.5 5.6-0.9 7.8-2 0.9-0.4 1.5-1.3 1.4-2.4 0-0.9-0.2-1.7-0.5-2.3-0.9-1-2.7-0.9-4-0.8-1.5 0.2-3.2 0.5-4.6 1.1-1.1 0.6-1.4 1.9-1.4 3.1z"/><path class="o" d="m291.8 149.1c3.2-2.7 8.5-3.4 9.5-2 0.6 0.6 1.2 1.5 0.6 3.6-0.9 3.6-0.8 8.1-0.5 11.9 0.1 0.9 0.5 1.8 0 2.6-0.4 0.6-4.6 2.6-5.7 3-2.7 0.8-4.3-0.4-4.6-1.8-1.8-7.1-1.6-14.2 0.7-17.3z"/><path class="e" d="m312.7 166.1l-10.9 6.3-6.9-4 10.8-6.3z"/><path class="B" d="m312.7 166.1l-10.9 6.3 5.8-5.9 10.8-6.3z"/><path class="q" d="m298.6 146.6c-0.8-0.2-1.7-0.1-2.4 0.4-0.4 0.2-0.6 0.6-0.5 1 0.3 0.9 1 1.8 1.9 2.2 0.4 0.2 1 0 1.2-0.3 0.5-0.8 0.7-1.8 0.4-2.7-0.1-0.2-0.3-0.5-0.6-0.6z"/><path class="q" d="m296.9 146.7q0 0 0.1-0.2c0.3-0.8 0.4-1.7 0.2-2.6-0.3-1.8 0.9-4.3 2.3-5 1.6-0.7 4 0.5 4.4 2.8 0.2 1.6-1.5 5.5-3.4 5.5q-0.3-0.1-0.7-0.3c-0.3-0.2-0.6 0-0.8 0.3-0.1 0.4-0.4 1-0.8 1.1-0.4 0.1-0.7-0.3-0.9-0.6-0.2-0.2-0.5-0.6-0.4-1z"/><path class="A" d="m296.7 142.3c0-0.7 0-1.5 0.3-2.2 0.4-0.7 1.1-1.2 1.8-1.1q0.1 0 0.2 0 0-0.2 0.1-0.4c0.5-0.7 1.7-1 2.5-0.7 0.5 0.2 1 0.5 1.4 0.9 0.5 0.4 1 0.7 1.4 1.2 0.2 0.1 0.3 0.3 0.5 0.3 0.2 0.1 0.4 0 0.4-0.2 0 0.6-0.2 1.3-0.7 1.7-0.4 0.5-1.1 0.6-1.7 0.4-1.9-0.9-2.7-0.7-3-0.2-0.3 0.5-0.6 1.1-1 1.6-0.3-0.6-0.8-1-1-0.5-0.3 0.5 0.2 1 0.2 1.6-0.1 0.3-0.6 0.5-0.8 0.6-0.6 0.1-0.7-0.5-0.7-0.9q0-1 0.1-2.1z"/><path class="q" d="m292.9 149.9c1 2.5-0.4 6.9-1.2 10.2-0.2 0.7 0.2 1.3 0.8 1.7 1.6 1.3 3.9 2.7 6.7 4.1 0.7 0.4 0.2 1.1-0.5 0.9-2.3-0.5-8.9-2.9-9.7-5.1-0.8-2.2 0.1-6.5 0.8-8.8 0.2-0.8 1.7-5.1 3.1-3z"/><path class="o" d="m292.9 157.8c0.7-3 0.9-6.3 0.1-8.3-1.3-2-3.3 2.5-3.5 3.3-0.3 0.9-0.7 2.3-0.8 3.7 0.9 0.7 3 1.3 4.2 1.3z"/><path class="q" d="m304.5 163.2c-0.5-1-1.6-3.5-2-5-0.4 0.4-0.9 0.2-1.3 0.1 0 0.7 0 2 0.1 3 0.3 0.9 2.1 2.7 2.1 2.7 0.9 0.6 1.4-0.2 1.1-0.8z"/><path class="q" d="m305.2 163.9c0.4 0.5 0.7 1 0.8 1.6q-0.3-0.2-0.5-0.5 0.1 0.3 0.1 0.7 0 0.1 0 0.2c-0.1 0.1-0.2 0.2-0.3 0.2q-0.3 0.1-0.6 0.2-0.1 0-0.2 0c-0.1 0-0.2-0.1-0.2-0.2-0.3-0.4-0.4-1-0.8-1.4-0.2 0.3-0.5 0.8-0.9 0.7 0.2-0.5 0.2-1.1 0.2-1.6 0.1-0.5 0.3-1.3 1-1.2 0.6 0.1 1.1 0.9 1.4 1.3z"/><path class="q" d="m300.4 165.8c0.7 0.2 1.3 0.7 1.9 1.3 0.1 0.1 0.3 0.3 0.3 0.5q-0.3 0-0.7-0.2c0 0.1 0.2 0.2 0.2 0.3 0.1 0.1 0.1 0.3 0 0.4q-0.1 0.1-0.3 0.2c-0.2 0.1-0.5 0.2-0.7 0.1q-0.2 0-0.3-0.1-0.4-0.3-0.7-0.6c-0.2-0.2-0.4-0.4-0.6-0.5-0.4-0.2-0.8-0.1-1.1-0.4-0.4-0.2-0.5-1.1 0.1-1.2 0.2-0.1 0.5 0 0.8 0.1 0.4 0 0.7 0 1.1 0.1z"/></svg>