<svg version="1.2" xmlns="http://www.w3.org/2000/svg" viewBox="0 0 904 773" width="904" height="773"><defs><linearGradient id="P" gradientUnits="userSpaceOnUse"/><linearGradient id="g1" x1="-43" y1="709.7" x2="621.5" y2="45.1" href="#P"><stop stop-color="#e0eaff"/><stop offset="1" stop-color="#fff"/></linearGradient><linearGradient id="g2" x1="562.6" y1="575.6" x2="64.4" y2="575.6" href="#P"><stop stop-color="#c4d7ff"/><stop offset="1" stop-color="#6194ff"/></linearGradient><linearGradient id="g3" x1="67.9" y1="11.7" x2="569.5" y2="11.7" href="#P"><stop stop-color="#a6c0f5"/><stop offset="1" stop-color="#dde8ff"/></linearGradient><linearGradient id="g4" x1="143.4" y1="33.1" x2="585.9" y2="33.1" href="#P"><stop stop-color="#2044b4"/><stop offset="1" stop-color="#3e61cc"/></linearGradient><linearGradient id="g5" x1="-7.8" y1="411.5" x2="-7.8" y2="293.8" href="#P"><stop stop-color="#f59e5b"/><stop offset="1" stop-color="#f5c25b"/></linearGradient><linearGradient id="g6" x1="341.4" y1="436.9" x2="341.4" y2="368" href="#P"><stop stop-color="#f59e5b"/><stop offset="1" stop-color="#f5c25b"/></linearGradient><linearGradient id="g7" x1="-563.1" y1="318.6" x2="-563.1" y2="394.8" href="#P"><stop stop-color="#f5b05b"/><stop offset="1" stop-color="#f59e5b"/></linearGradient><linearGradient id="g8" x1="-167.5" y1="396.3" x2="-167.5" y2="301.7" href="#P"><stop stop-color="#2252d4"/><stop offset="1" stop-color="#527ae9"/></linearGradient><linearGradient id="g9" x1="-29.6" y1="386.2" x2="-29.6" y2="428" href="#P"><stop stop-color="#f5b05b"/><stop offset="1" stop-color="#f59e5b"/></linearGradient><linearGradient id="g10" x1="36.6" y1="463.6" x2="36.6" y2="412.6" href="#P"><stop stop-color="#6d97ef"/><stop offset="1" stop-color="#8db9f7"/></linearGradient><linearGradient id="g11" x1="97.6" y1="486.1" x2="97.6" y2="461.2" href="#P"><stop stop-color="#6d97ef"/><stop offset="1" stop-color="#8db9f7"/></linearGradient><linearGradient id="g12" x1="-920.1" y1="373.8" x2="-920.1" y2="219.2" href="#P"><stop stop-color="#2252d4"/><stop offset="1" stop-color="#527ae9"/></linearGradient><linearGradient id="g13" x1="256.2" y1="289.4" x2="296.2" y2="308.5" href="#P"><stop stop-color="#f5e48c"/><stop offset="1" stop-color="#f5c25b"/></linearGradient><linearGradient id="g14" x1="211.3" y1="368" x2="251.3" y2="387.1" href="#P"><stop stop-color="#f5e48c"/><stop offset="1" stop-color="#f5c25b"/></linearGradient><linearGradient id="g15" x1="854.7" y1="736.3" x2="73.5" y2="736.3" href="#P"><stop stop-color="#c4d7ff"/><stop offset="1" stop-color="#6194ff"/></linearGradient><linearGradient id="g16" x1="26.6" y1="668.7" x2="606.1" y2="89.2" href="#P"><stop stop-color="#c4d7ff"/><stop offset="1" stop-color="#fff"/></linearGradient><linearGradient id="g17" x1="722" y1="421.8" x2="653.6" y2="421.8" href="#P"><stop stop-color="#c0cfff"/><stop offset="1" stop-color="#fff"/></linearGradient><linearGradient id="g18" x1="682.1" y1="170.4" x2="564.3" y2="288.1" href="#P"><stop stop-color="#c4d7ff"/><stop offset="1" stop-color="#6194ff"/></linearGradient><linearGradient id="g19" x1="375.9" y1="106.3" x2="471.6" y2="10.6" href="#P"><stop stop-color="#c4d7ff"/><stop offset="1" stop-color="#fff"/></linearGradient><linearGradient id="g20" x1="498.1" y1="111.2" x2="557.9" y2="111.2" href="#P"><stop stop-color="#0084ff"/><stop offset="1" stop-color="#00afff"/></linearGradient><linearGradient id="g21" x1="589.2" y1="307" x2="509.7" y2="386.5" href="#P"><stop stop-color="#c4d7ff"/><stop offset="1" stop-color="#6194ff"/></linearGradient><linearGradient id="g22" x1="389" y1="268.2" x2="452.3" y2="204.8" href="#P"><stop stop-color="#c4d7ff"/><stop offset="1" stop-color="#fff"/></linearGradient><linearGradient id="g23" x1="536.2" y1="298.3" x2="498.5" y2="336" href="#P"><stop stop-color="#c4d7ff"/><stop offset="1" stop-color="#6194ff"/></linearGradient></defs><style>.a{fill:url(#g1)}.b{fill:url(#g2)}.c{fill:url(#g3)}.d{fill:url(#g4)}.e{fill:url(#g5)}.f{fill:#6b92ff}.g{fill:url(#g6)}.h{fill:#9fccfa}.i{fill:url(#g7)}.j{fill:url(#g8)}.k{fill:url(#g9)}.l{fill:url(#g10)}.m{fill:url(#g11)}.n{fill:url(#g12)}.o{fill:url(#g13)}.p{fill:#9bb5ff}.q{fill:url(#g14)}.r{fill:#d1e8ff}.s{fill:url(#g15)}.t{fill:url(#g16)}.u{fill:#bcd1fc}.v{mix-blend-mode:multiply;fill:url(#g17)}.w{fill:#f3abc7}.x{fill:#7291d6}.y{fill:#130f40}.z{fill:#cdddff}.A{fill:#e094b2}.B{fill:url(#g18)}.C{fill:url(#g19)}.D{fill:url(#g20)}.E{fill:url(#g21)}.F{fill:url(#g22)}.G{fill:url(#g23)}</style><path class="a" d="m879.5 517.5l-475.8 238.7c-25.3 12.6-66.3 12.6-91.6 0l-280.1-140.1c-25.4-12.7-25.4-33.2 0-45.8l475.7-238.8c25.3-12.6 66.3-12.6 91.6 0l280.2 140.1c25.3 12.7 25.3 33.2 0 45.9z"/><path class="b" d="m85 235.5l450.3-225.2c5-2.5 9.6-2.9 13.1-1.6 0 0 9.6 3.8 9.6 3.8l-3 314.4-480.1 248.7c-5.8-2.3-9.6-7.9-9.6-14.1v-296.5c0-10.8 8.8-24.1 19.7-29.5z"/><path class="c" d="m74.9 575.6l489.8-244.9v-306.8c0-10.9-8.9-15.3-19.7-9.9l-450.3 225.2c-10.9 5.5-19.8 18.7-19.8 29.6z"/><path class="d" d="m545.4 321v-287.9l-451.2 225.6v288z"/><path class="e" d="m301.3 403.1l-31.4 15.6v-119.9l31.4-15.7z"/><path class="f" d="m346.2 380.6l-31.4 15.7v-90l31.4-15.6z"/><path class="g" d="m256.4 425.5l-31.3 15.7v-63.8l31.3-15.7z"/><path class="h" d="m211.5 448l-31.3 15.6v-46.3l31.3-15.7z"/><path class="h" d="m166.6 470.4l-31.3 15.7v-20.2l31.3-15.7z"/><path class="f" d="m391.1 358.2l-31.4 15.6v-149.9l31.4-15.7z"/><path class="i" d="m269.9 418.7l-9.3-4.7v-119.9l9.3 4.7z"/><path class="j" d="m314.8 396.3l-9.3-4.7v-89.9l9.3 4.6z"/><path class="k" d="m225.1 441.2l-9.4-4.7v-63.8l9.4 4.7z"/><path class="l" d="m180.2 463.6l-9.4-4.7v-46.3l9.4 4.7z"/><path class="m" d="m135.3 486.1l-9.4-4.7v-20.2l9.4 4.7z"/><path class="n" d="m359.7 373.8l-9.4-4.6v-150l9.4 4.7z"/><path class="o" d="m301.3 283.1l-9.4-4.7-31.3 15.7 9.3 4.7z"/><path class="p" d="m346.2 290.7l-9.4-4.7-31.3 15.7 9.3 4.6z"/><path class="q" d="m256.4 361.7l-9.4-4.7-31.3 15.7 9.4 4.7z"/><path class="r" d="m211.5 401.6l-9.4-4.7-31.3 15.7 9.4 4.7z"/><path class="r" d="m166.6 450.2l-9.3-4.7-31.4 15.7 9.4 4.7z"/><path class="p" d="m391.1 208.2l-9.4-4.7-31.4 15.7 9.4 4.7z"/><path class="s" d="m839.4 507l-450.3 225.2c-10.9 5.5-28.6 5.5-39.5 0l-257.4-128.7c-10.6-5.3-17.3-16.1-17.3-27.9l489.8-225.7 282.8 128.2v19.1c0 3.6-2.7 7.1-8.1 9.8z"/><path class="t" d="m839.4 487.8l-450.3 225.2c-10.9 5.4-28.6 5.4-39.5 0l-274.7-137.4 489.8-244.9 274.7 137.3c10.9 5.5 10.9 14.3 0 19.8z"/><path fill-rule="evenodd" class="u" d="m171.7 549.5l11.7 5.8-23.3 11.7-11.7-5.8zm23.5-0.1l-11.7-5.9 23.3-11.6 11.7 5.8zm35.1-17.5l-11.6-5.9 23.2-11.6 11.7 5.8zm35.1-17.6l-11.6-5.8 23.3-11.6 11.6 5.8zm35.1-17.6l-11.6-5.8 23.3-11.6 11.6 5.8zm35.1-17.6l-11.6-5.8 23.3-11.7 11.6 5.9zm35.1-17.6l-11.6-5.8 23.3-11.7 11.6 5.9zm35.2-17.6l-11.7-5.8 23.3-11.7 11.7 5.8zm-132 156.6l-23.3 11.7-23.3-11.7 23.3-11.6zm11.8-5.9l-23.3-11.7 23.3-11.6 23.3 11.6zm35.1-17.5l-23.3-11.7 23.3-11.6 23.3 11.6zm35.1-40.8l23.3 11.6-23.3 11.6-23.3-11.6zm35.2 5.7l-23.3-11.6 23.3-11.7 23.2 11.7zm35.2-17.6l-23.3-11.6 23.3-11.7 23.3 11.7zm35.1-17.6l-23.3-11.6 23.3-11.7 23.3 11.7zm-119.7 92.4l-58.4 29.2-23.3-11.6 58.4-29.2zm11.8-5.9l-23.3-11.7 23.3-11.6 23.3 11.6zm161.2-48l-128.6 64.3-23.3-11.6 128.7-64.4zm-91.1 12.9l-23.3-11.6 23.3-11.7 23.3 11.7zm132.1-121.9l23.3 11.6-23.3 11.7-23.3-11.7zm35.1 5.7l-23.3-11.6 23.3-11.7 23.3 11.7zm11.8-29.2l23.3-11.7 23.3 11.7-23.3 11.6zm-363.9 170.2l-23.3 11.6-23.3-11.6 23.3-11.7zm11.9-29.2l23.2 11.7-23.2 11.6-23.3-11.6zm35.1-17.6l23.3 11.7-23.3 11.6-23.3-11.6zm35.1-17.6l23.3 11.6-23.3 11.7-23.3-11.7zm35.1-17.5l23.3 11.6-23.3 11.7-23.3-11.7zm35.2-17.5l23.3 11.6-23.3 11.7-23.3-11.7zm35.1-17.6l23.3 11.7-23.3 11.6-23.3-11.6zm35.1 5.7l-23.3-11.6 23.3-11.7 23.3 11.7zm59.3-53l23.3 11.7-23.3 11.6-23.3-11.6zm35.1-17.6l23.3 11.7-23.3 11.6-23.3-11.6zm35.2 5.7l-23.3-11.6 23.3-11.7 23.2 11.7zm-125.6 7.4l-11.7-5.9 23.3-11.6 11.7 5.8zm35.1-17.6l-11.7-5.8 23.3-11.6 11.7 5.8zm35.1-17.6l-11.7-5.8 23.3-11.6 11.7 5.8zm52.9 96.7l-23.3-11.6 23.3-11.7 23.3 11.7zm58.4-29.3l-23.3 11.7-23.3-11.7 23.3-11.6zm-11.4-17.6l23.2-11.6 23.3 11.6-23.3 11.7zm-14.3 63.1l-23.3-11.7 23.3-11.6 23.3 11.6zm35.1-40.9l23.3 11.7-23.3 11.6-23.3-11.6zm58.4-5.9l-23.3 11.6-23.3-11.6 23.3-11.7zm-255.6 95.3l-23.3-11.7 23.3-11.6 23.3 11.6zm35.1-17.5l-23.3-11.7 35.1-17.5-32.6-16.3 23.3-11.7 55.9 28zm-178.1 98.3l23.3 11.7-23.3 11.6-23.3-11.6zm35.1-17.6l23.3 11.7-23.3 11.6-23.3-11.6zm37.7-28.2l-23.3-11.6 23.3-11.7 23.3 11.7zm137.9-36.4l-23.3-11.6 23.3-11.7 23.3 11.7zm35.1-17.6l-23.3-11.7 23.3-11.6 23.3 11.6zm39.2-3.7l64.9 32.5-139.6 69.8-64.9-32.5z"/><path class="v" d="m724.6 409.7c-0.2-2.7-2.5-4.8-5.2-4.8h-78.6v16.9h51.1c9.3 0 18.5-2 26.9-5.8l2.7-1.3c2-0.8 3.2-2.8 3.1-5z"/><path class="w" d="m623.5 231.3c-3.6 4.8-7.4 10.8-10.7 16.6l-16.5-18.5-4 2.5c2.1 7.3 9.8 19.9 17.2 25.2 3.1 1.5 6.1 1.2 8.2-0.7 0 0 7.9-8.3 14.6-16.3z"/><path class="x" d="m631 222.8c-2.2 1.2-4.7 4-8 8.4l9.3 8.9c2.2-2.6 4.3-5.2 5.9-7.5 4.3-7-2.7-10.5-7.2-9.8z"/><path class="w" d="m597.7 231l-1-8.8c-0.1-0.4-0.4-0.7-0.8-0.7-0.4 0-0.7 0.3-0.8 0.7l-0.2 2.5-0.7-2-1.8-2.7c-0.2-0.4-0.7-0.5-1-0.2-0.4 0.2-0.5 0.6-0.3 0.9l1.4 2.5 0.1 0.6-2.5-2.5c-0.3-0.3-0.8-0.3-1.1 0l-1.5 1.7c-0.2 0.2-0.2 0.6 0 0.8l0.8 1.4 1 2.9c0 0 1.3 3 3.8 4.3z"/><path class="w" d="m634.8 266.6c-1.1 23-4.8 48.5 1.7 74.1l18.5-5.2c3.7-24.2 7.3-41.2 4.9-68.9z"/><path class="y" d="m673.6 404.2c-1.8 3.3-8.6 9.2-8.6 9.2-1.3 1.2-4 0.2-3-1.7l6-12.5c1.1-1.5 3.8-0.9 4.5-0.6 1.8 0.8 2.3 3.3 1.1 5.6z"/><path class="y" d="m711.9 393.4c2.5 2.8 6.6 5.4 10.4 7 1.6 0.8 3.4-0.4 2.5-2.2-2.4-4.7-5.1-8-8.5-10.9-1.5-1.2-4-0.1-4.6 0.4-1.6 1.2-1.5 3.7 0.2 5.7z"/><path class="w" d="m636.5 340.8l29.7 59.3c1 1.8 2.9 2.8 4.5 2.4 1.6-0.5 2.4-2.2 2.1-4.1-3.7-20.2-8-49.3-17.8-62.9z"/><path class="w" d="m639.7 273.5c5.7 22.3 11.3 47.2 25.1 69.9l16.1-10.5c-3.5-24.2-5.1-41.5-15.6-67.3z"/><path class="w" d="m664.8 343.4l45.8 48c1.5 1.4 3.6 1.8 5 0.9 1.4-0.9 1.7-2.8 0.8-4.5-9.5-18.3-22.1-44.8-35.5-54.9z"/><path class="z" d="m635 254.9c-2.7 20.3-5.5 56.1-4.3 70.9 4.4 9.9 40 7.4 50.2-4-0.7-17.4-5.8-46.6-18.7-69.1z"/><path class="x" d="m662.2 252.7c-1.5-8.7-1.2-28.9-1.2-28.9-9.9-7.5-23.1-5.9-30-1-1.1 2.7 1.6 19.1 4 32.1 11.1 4 20.1 3 27.2-2.2z"/><path class="w" d="m686.1 243.8c-2.3-3.5-6.1-8.3-10.8-12.9l-8.7 10.8 5.5 4.3c4.3 3.5 7.6 8 9.6 13.2l8.6 22.9 4.3-1.4c0.2-9.2-3.7-29.3-8.5-36.9z"/><path class="x" d="m663.1 221.6c-6.8-0.9-10.4 7.5-5.1 13.2l8.9 7.9 8.4-11.8c-3.7-3.5-7.9-6.8-12.2-9.3z"/><path class="w" d="m640 213.9l2.3 12.6 7.4-5.5-5.4-14.8z"/><path class="w" d="m635.2 214c0.1 1.7 2 3 5 1.5 0 0 4-2.4 4.9-3.9 1.2-1.8 4.4-11-0.1-13.5-2.1-1.2-8.4-0.3-9.9 1.6-2.1 2.9 0.1 14.3 0.1 14.3z"/><path class="y" d="m657.9 214.2c-0.4-5.5-2-17.4-10.6-17.4-2.4-8.2-12.7 0.1-17-0.9-1.9 5.8 6.7 10.5 13.2 8.8-4 20.9 13.2 28.5 24.5 16.5-6.7-0.3-9.8-4-10.1-7z"/><path class="w" d="m690.3 290.4c0.4-0.1 0.7-0.5 0.7-0.9l-0.5-3.1-1.6 0.2 0.5 3.1c0.1 0.4 0.5 0.7 0.9 0.7z"/><path class="A" d="m695.3 289.4q0-0.2 0-0.4l-0.8-2.3-1.5 0.4 0.7 2.2v2.5c0 0.4 0.4 0.8 0.8 0.8 0.5 0 0.8-0.4 0.8-0.8z"/><path class="A" d="m696.6 288.4q0.1-0.2 0-0.3l-0.5-1.9-1.6 0.5 0.6 1.7c0 0 0 2 0 2 0 0.4 0.3 0.8 0.8 0.8 0.4 0 0.8-0.4 0.8-0.8z"/><path class="w" d="m693.8 289.6l-0.8-2.5-1.5 0.5 0.7 2.2v3.1c0 0.4 0.4 0.7 0.8 0.7 0.4 0 0.8-0.3 0.8-0.8z"/><path class="A" d="m698.1 287.6c0 0-0.1-0.3-0.1-0.5l-0.4-1.3-1.5 0.4 0.4 1.4v1.4c0 0.4 0.3 0.8 0.8 0.8 0.4 0 0.8-0.4 0.8-0.8z"/><path class="w" d="m690.1 281.6l4.5-1.6c1.4 1.4 2.3 3.4 3 5.8l-6.1 1.8z"/><path class="w" d="m688.9 286.6l1.2-5 1.6 5.5z"/><path class="B" d="m481.2 104.7l78.6-39.3c3.2-1.6 6.2-1.7 8.3-0.7 0.1 0.1 6.2 3.2 6.3 3.2 2.3 1 3.7 3.3 3.7 6.7v85.7c0 6.5-5.3 14.4-11.8 17.7l-78.5 39.2c-3.5 1.8-6.6 1.8-8.8 0.5 0 0-4-2-5.6-2.8q-0.4-0.2-0.7-0.3c-2-1.2-3.2-3.4-3.2-6.5v-85.7c0-6.5 5.2-14.4 11.7-17.7z"/><path class="C" d="m487.8 217.2l78.5-39.2c6.5-3.3 11.8-11.2 11.8-17.7v-85.7c0-6.5-5.3-9.1-11.8-5.9l-78.5 39.3c-6.5 3.2-11.8 11.1-11.8 17.6v85.8c0 6.5 5.3 9.1 11.8 5.8z"/><path class="D" d="m540.2 113.2c-5.2 2.6-9.9 7.3-13.1 12.8-3.3-2.3-8-2.2-13.2 0.4-9.5 4.8-17.2 16.3-17.2 25.8 0 4.3 1.6 7.7 4.6 9.4l25.8 13.1 25.7-38.8c3-4.8 4.6-9.7 4.6-14.1 0-9.4-7.7-13.3-17.2-8.6z"/><path class="E" d="m459 262.2l44.8-22.5c3.2-1.6 6.2-1.7 8.3-0.7 0.1 0.1 6.2 3.2 6.3 3.2 2.3 1 3.7 3.4 3.7 6.7v50.7c0 6.5-5.3 14.4-11.8 17.7l-44.8 22.4c-3.5 1.8-6.6 1.8-8.8 0.5 0 0-4-2-5.6-2.8q-0.4-0.2-0.7-0.4c-2-1.1-3.2-3.3-3.2-6.4v-50.8c0-6.5 5.3-14.4 11.8-17.6z"/><path class="F" d="m465.5 339.7l44.8-22.4c6.5-3.3 11.8-11.2 11.8-17.7v-50.7c0-6.5-5.3-9.1-11.8-5.9l-44.8 22.4c-6.5 3.3-11.8 11.2-11.8 17.7v50.7c0 6.5 5.3 9.2 11.8 5.9z"/><path class="G" d="m506.1 270.9l-6.8-3.4-11.4 17-11.3-5.7-6.9 10.3 11.3 5.7-11.3 17 6.9 3.5 11.3-17.1 11.4 5.7 6.8-10.3-11.3-5.7z"/></svg>