<?xml version="1.0" encoding="UTF-8"?>
<svg xmlns="http://www.w3.org/2000/svg" width="104" height="163" viewBox="0 0 104 163" fill="none">
  <path d="M51.9543 162.625C47.0231 162.625 42.0912 161.542 38.3368 159.374C36.2112 158.147 34.6403 156.691 33.667 155.048L34.253 154.702C35.1651 156.242 36.6536 157.616 38.6771 158.784C45.998 163.011 57.9105 163.011 65.2314 158.784C67.3223 157.578 68.8395 156.154 69.7406 154.555L70.3334 154.889C69.3717 156.596 67.7695 158.105 65.5717 159.374C61.8174 161.542 56.8861 162.625 51.9543 162.625Z" fill="#117BDF"></path>
  <path d="M52.4543 159.199C45.505 159.199 38.5577 157.673 33.2672 154.618C27.9269 151.535 25.0709 147.415 25.2248 143.016C25.3568 139.244 25.2472 138.171 25.2459 138.161L25.9224 138.086C25.9272 138.129 26.0395 139.191 25.9047 143.04C25.7604 147.175 28.4959 151.078 33.6075 154.029C43.9994 160.028 60.9091 160.028 71.3011 154.029C76.2711 151.16 79.0079 147.365 79.0079 143.344V136.919H79.6885V143.344C79.6885 147.618 76.8305 151.622 71.6414 154.618C66.3522 157.672 59.4022 159.199 52.4543 159.199Z" fill="#141414"></path>
  <path d="M51.9154 153.74C44.9661 153.74 38.0181 152.213 32.7276 149.158C25.9131 145.224 22.7985 139.378 25.1528 134.942L25.7538 135.261C23.5805 139.355 26.5882 144.828 33.0679 148.569C43.4605 154.569 60.3702 154.569 70.7615 148.57C77.3936 144.74 78.7752 138.861 77.8571 134.634L78.5221 134.491C79.4913 138.95 78.0511 145.147 71.1018 149.159C65.8126 152.212 58.8633 153.739 51.9154 153.74Z" fill="#141414"></path>
  <path d="M52.4543 147.069C45.505 147.069 38.557 145.543 33.2665 142.488C27.9269 139.405 25.0709 135.285 25.2248 130.886C25.3486 127.353 25.237 126.821 25.2329 126.8L25.8714 126.571C26.0204 126.914 25.9565 129.437 25.9047 130.91C25.7604 135.044 28.4959 138.947 33.6068 141.898C43.9994 147.898 60.9085 147.899 71.3011 141.898C76.2711 139.029 79.0079 135.234 79.0072 131.213C79.0072 127.261 79.0011 126.706 79.0011 126.701L79.6817 126.692C79.6817 126.692 79.6878 127.236 79.6878 131.213C79.6885 135.488 76.8306 139.492 71.6414 142.489C66.3522 145.542 59.4022 147.069 52.4543 147.069Z" fill="#141414"></path>
  <path d="M52.6179 141.514C45.668 141.514 38.7357 139.977 33.4778 136.904C28.6113 134.059 25.7819 130.613 25.2945 126.939C24.88 123.81 26.1739 120.622 29.036 117.717L29.5206 118.195C26.8117 120.944 25.5831 123.937 25.9697 126.849C26.4278 130.308 29.1428 133.581 33.8208 136.316C44.1467 142.354 61.0558 142.353 71.513 136.316C75.6731 133.914 78.237 130.561 78.7319 126.874C79.1613 123.673 77.9736 120.388 75.4723 117.862L75.9562 117.383C78.6066 120.06 79.8638 123.552 79.4064 126.964C78.883 130.865 76.2006 134.396 71.8533 136.905C66.5315 139.978 59.5659 141.514 52.6179 141.514Z" fill="#141414"></path>
  <path d="M30.6372 123.874L31.3573 125.831C32.2802 127.835 34.1778 129.728 36.8248 131.256C45.3117 136.156 59.1211 136.157 67.6079 131.257C70.2549 129.729 72.1525 127.836 73.0945 125.782L73.7044 124.068C76.075 109.182 81.9754 95.898 92.2707 82.2676C98.8783 73.5194 102.37 63.086 102.37 52.0951C102.37 38.4756 97.0039 25.7348 87.2585 16.2174C77.5173 6.70353 64.6505 1.643 51.0092 1.96426C24.3385 2.59521 2.39013 24.82 2.08384 51.5057C1.95248 62.9199 5.56257 73.7128 12.5221 82.7155C22.5492 95.6857 28.306 108.765 30.6372 123.874ZM52.2167 136.273C46.3959 136.273 40.5758 134.994 36.1442 132.435C33.2515 130.765 31.1619 128.661 30.1001 126.35L29.3358 124.281C29.3201 124.238 29.3093 124.193 29.3018 124.148C27.0142 109.248 21.3397 96.3466 11.4453 83.5479C4.29588 74.2995 0.587806 63.2139 0.722571 51.49C0.875714 38.1536 6.17037 25.5326 15.6312 15.952C25.0927 6.37001 37.6456 0.918802 50.9772 0.602987C64.9711 0.269476 78.204 5.47158 88.21 15.2435C98.2188 25.0187 103.731 38.1067 103.731 52.0951C103.731 63.3848 100.144 74.1021 93.357 83.0878C83.1869 96.5521 77.3669 109.661 75.0391 124.344C75.0323 124.385 75.0214 124.426 75.0078 124.466L74.3543 126.295C73.2708 128.661 71.1812 130.766 68.2885 132.436C63.8576 134.994 58.0368 136.273 52.2167 136.273Z" fill="#141414"></path>
  <path d="M52.5584 108.022C47.4373 108.022 42.3155 109.148 38.4161 111.398C34.7033 113.542 32.658 116.372 32.658 119.367C32.658 122.361 34.7033 125.192 38.4168 127.336C46.2149 131.838 58.9039 131.838 66.7019 127.336C70.4148 125.192 72.4601 122.362 72.4601 119.367C72.4601 116.373 70.4148 113.542 66.7013 111.398C62.8019 109.148 57.6801 108.022 52.5584 108.022ZM52.559 131.383C47.3141 131.383 42.0698 130.231 38.0765 127.925C34.1431 125.655 31.9773 122.615 31.9773 119.367C31.9773 116.119 34.1431 113.079 38.0758 110.809C46.0617 106.198 59.0557 106.198 67.0416 110.809C70.975 113.08 73.1408 116.119 73.1408 119.367C73.1408 122.615 70.975 125.655 67.0423 127.925C63.0497 130.23 57.804 131.383 52.559 131.383Z" fill="#141414"></path>
  <path d="M49.7317 16.5629L49.6827 15.8843C50.3647 15.8353 51.0569 15.8053 51.7409 15.7944L51.7512 16.4751C51.0801 16.4853 50.4008 16.5152 49.7317 16.5629ZM55.7907 16.6364C55.1258 16.5724 54.4471 16.5261 53.774 16.4989L53.8012 15.8189C54.4873 15.8462 55.1788 15.8931 55.8561 15.9585L55.7907 16.6364ZM45.7234 17.0788L45.5982 16.4097C46.2679 16.2852 46.9527 16.177 47.6333 16.0892L47.7204 16.7644C47.0527 16.8508 46.3809 16.957 45.7234 17.0788ZM59.7854 17.2496C59.1313 17.1108 58.4622 16.989 57.7972 16.8862L57.9007 16.2137C58.5786 16.3178 59.2599 16.4424 59.9269 16.5847L59.7854 17.2496ZM41.7996 18.046L41.5995 17.396C42.2536 17.1945 42.922 17.0094 43.5849 16.846L43.7476 17.5069C43.0969 17.6669 42.4414 17.8486 41.7996 18.046ZM63.6848 18.3135C63.0504 18.1004 62.3997 17.903 61.7504 17.7261L61.9294 17.0693C62.5909 17.2496 63.2546 17.4511 63.9012 17.6682L63.6848 18.3135ZM38.0146 19.4522L37.741 18.8287C38.3651 18.5551 39.0069 18.2958 39.6474 18.0576L39.885 18.696C39.256 18.9294 38.6265 19.184 38.0146 19.4522ZM67.4446 19.8163C66.8347 19.5311 66.2092 19.2602 65.5864 19.0111L65.839 18.3795C66.474 18.6327 67.111 18.909 67.7325 19.1996L67.4446 19.8163ZM34.4147 21.2776L34.073 20.6889C34.6638 20.3458 35.2723 20.0151 35.8814 19.7067L36.1891 20.3139C35.5915 20.6161 34.9946 20.9407 34.4147 21.2776ZM71.0063 21.7357C70.4332 21.3838 69.8431 21.0435 69.253 20.7256L69.5756 20.1267C70.1773 20.4507 70.7783 20.7971 71.363 21.1558L71.0063 21.7357ZM31.0415 23.4992L30.6358 22.9527C31.1824 22.5463 31.75 22.1495 32.3224 21.7718L32.6968 22.3401C32.1353 22.7104 31.5778 23.1004 31.0415 23.4992ZM74.3278 24.0444C73.799 23.6306 73.2511 23.227 72.7004 22.8438L73.0884 22.2843C73.6506 22.675 74.2087 23.0874 74.7478 23.5088L74.3278 24.0444ZM27.9384 26.087L27.4736 25.5894C27.9738 25.1225 28.4932 24.6638 29.0179 24.2261L29.4535 24.7489C28.939 25.1784 28.4292 25.6283 27.9384 26.087ZM77.3669 26.7118C76.8884 26.2408 76.3895 25.778 75.8851 25.3356L76.3343 24.8237C76.8482 25.2743 77.356 25.746 77.844 26.2258L77.3669 26.7118ZM25.1438 29.009L24.6258 28.5666C25.0689 28.0479 25.5338 27.534 26.0082 27.0385L26.4996 27.5088C26.0347 27.9948 25.5787 28.4999 25.1438 29.009ZM80.086 29.7019C79.6654 29.1825 79.2223 28.6666 78.769 28.1684L79.2726 27.711C79.7341 28.2187 80.1861 28.7442 80.6149 29.2731L80.086 29.7019ZM22.6948 32.227L22.1306 31.8465C22.5138 31.2796 22.9181 30.716 23.3326 30.1715L23.8744 30.584C23.4673 31.1176 23.0706 31.6709 22.6948 32.227ZM82.4512 32.9764C82.0911 32.4128 81.7086 31.8506 81.3152 31.3061L81.8672 30.9073C82.2681 31.4627 82.6574 32.0351 83.025 32.6102L82.4512 32.9764ZM20.623 35.7023L20.0192 35.3879C20.3344 34.7842 20.672 34.1784 21.0246 33.5869L21.6092 33.9354C21.2634 34.516 20.932 35.1102 20.623 35.7023ZM84.4319 36.4953C84.1358 35.8929 83.82 35.2912 83.4919 34.7086L84.0847 34.3751C84.4189 34.9686 84.7415 35.5812 85.0424 36.1958L84.4319 36.4953ZM18.9588 39.3927L18.3231 39.1484C18.5688 38.5072 18.837 37.8667 19.1181 37.2433L19.7382 37.5237C19.4625 38.1349 19.1998 38.7638 18.9588 39.3927ZM85.9987 40.2129C85.7734 39.5799 85.5277 38.9476 85.2684 38.3323L85.8952 38.0675C86.16 38.6951 86.4105 39.3396 86.6398 39.9842L85.9987 40.2129ZM17.7255 43.2458L17.0667 43.0756C17.2368 42.4154 17.4294 41.7491 17.6384 41.0964L18.2864 41.304C18.0815 41.9444 17.8929 42.5978 17.7255 43.2458ZM87.1353 44.0912C86.9842 43.4384 86.8113 42.7802 86.6221 42.1357L87.2756 41.9444C87.4682 42.6013 87.6438 43.2717 87.7983 43.9373L87.1353 44.0912ZM16.9394 47.2098L16.2656 47.1159C16.3602 46.4366 16.4759 45.7533 16.6086 45.0842L17.2756 45.2169C17.1456 45.8731 17.0326 46.5435 16.9394 47.2098ZM87.8241 48.0729C87.7472 47.4065 87.6506 46.7341 87.5362 46.0725L88.2066 45.9568C88.3237 46.6299 88.4218 47.3167 88.5 47.996L87.8241 48.0729ZM16.6066 51.2378L15.9259 51.2201C15.9443 50.5368 15.9817 49.8446 16.0375 49.1632L16.7161 49.2191C16.661 49.8881 16.6243 50.5667 16.6066 51.2378ZM88.0596 52.109C88.0583 51.4393 88.0379 50.7593 87.9984 50.0876L88.6777 50.0474C88.7178 50.7321 88.7389 51.425 88.7403 52.1077L88.0596 52.109ZM88.6838 54.2626L88.0045 54.2251C88.0413 53.5574 88.0603 52.8775 88.0603 52.2037H88.741C88.741 52.8897 88.7212 53.5826 88.6838 54.2626ZM16.0457 55.3366C15.9879 54.658 15.9484 53.9658 15.928 53.2804L16.6086 53.2607C16.6283 53.9331 16.6671 54.6124 16.7236 55.2788L16.0457 55.3366ZM88.2237 58.3545L87.5526 58.2409C87.6649 57.5759 87.7602 56.9021 87.8343 56.2391L88.5109 56.3154C88.4347 56.9906 88.338 57.6766 88.2237 58.3545ZM16.6263 59.4143C16.4908 58.7398 16.3738 58.0564 16.2785 57.384L16.9523 57.288C17.0462 57.9482 17.1606 58.6186 17.2933 59.2802L16.6263 59.4143ZM87.3028 62.3689L86.6494 62.1797C86.8366 61.5331 87.0074 60.8749 87.1571 60.2229L87.8201 60.3753C87.6676 61.0396 87.494 61.7108 87.3028 62.3689ZM17.6663 63.4001C17.4546 62.7453 17.2613 62.0797 17.0898 61.4215L17.7486 61.25C17.9168 61.8959 18.1067 62.5486 18.3136 63.1905L17.6663 63.4001ZM85.9292 66.2574L85.3017 65.9947C85.5603 65.3773 85.8054 64.7423 86.03 64.1052L86.6725 64.3319C86.4431 64.9812 86.1926 65.6285 85.9292 66.2574ZM19.1515 67.2375C18.8683 66.614 18.6008 65.9763 18.3551 65.3413L18.9901 65.0956C19.2311 65.7183 19.4938 66.3445 19.7715 66.9564L19.1515 67.2375ZM84.1228 69.9655L83.5287 69.6327C83.8581 69.0446 84.1732 68.4409 84.4666 67.8399L85.0784 68.138C84.7796 68.7499 84.4584 69.3659 84.1228 69.9655ZM21.0613 70.8809C20.7101 70.2949 20.3718 69.6912 20.0546 69.0868L20.6577 68.7703C20.9688 69.3631 21.3009 69.956 21.646 70.5318L21.0613 70.8809ZM81.9087 73.4429L81.3561 73.0454C81.7474 72.5016 82.1292 71.938 82.4907 71.3703L83.0645 71.7358C82.6962 72.3144 82.3076 72.8881 81.9087 73.4429ZM23.3714 74.2882C22.9569 73.7451 22.5526 73.1835 22.1687 72.6179L22.7316 72.2354C23.1087 72.7908 23.5055 73.3421 23.9125 73.8751L23.3714 74.2882ZM79.3169 76.6473L78.8132 76.1899C79.2624 75.6951 79.7048 75.1778 80.1289 74.6537L80.6577 75.0818C80.2262 75.6161 79.775 76.1423 79.3169 76.6473ZM26.051 77.4144C25.578 76.9216 25.1124 76.4084 24.6666 75.8884L25.1832 75.4453C25.6209 75.9558 26.0783 76.4594 26.5418 76.9434L26.051 77.4144ZM76.3847 79.5386L75.9348 79.0282C76.4392 78.5837 76.9367 78.1202 77.4138 77.6499L77.8916 78.1345C77.4057 78.6137 76.8986 79.086 76.3847 79.5386ZM29.0662 80.2213C28.5387 79.783 28.0188 79.3256 27.5192 78.8601L27.9834 78.3618C28.4734 78.8185 28.9839 79.2684 29.5012 79.6979L29.0662 80.2213ZM73.1469 82.0822L72.7569 81.5234C73.3062 81.1409 73.8527 80.7359 74.3809 80.3207L74.8015 80.8563C74.2632 81.279 73.7064 81.6915 73.1469 82.0822ZM32.3796 82.6723C31.8072 82.2979 31.2382 81.9004 30.6882 81.4934L31.0925 80.9469C31.6323 81.3457 32.191 81.7357 32.7526 82.104L32.3796 82.6723ZM69.6444 84.2439L69.3204 83.6449C69.9078 83.3271 70.4958 82.9867 71.0683 82.6342L71.4263 83.2127C70.843 83.5734 70.2433 83.9199 69.6444 84.2439ZM35.9495 84.736C35.3376 84.4276 34.7278 84.0975 34.1349 83.7552L34.4753 83.1657C35.0565 83.5013 35.6555 83.8253 36.2558 84.1282L35.9495 84.736ZM65.9233 85.9938L65.6695 85.3628C66.2895 85.113 66.9116 84.8415 67.5188 84.5556L67.8087 85.1722C67.19 85.4629 66.5556 85.7399 65.9233 85.9938ZM39.7332 86.3811C39.0873 86.1435 38.4427 85.8842 37.8172 85.6119L38.0888 84.9878C38.702 85.2553 39.3343 85.5085 39.968 85.7426L39.7332 86.3811ZM62.0213 87.3122L61.8409 86.6567C62.4895 86.4777 63.1395 86.2783 63.7732 86.0639L63.991 86.7091C63.3458 86.9269 62.6828 87.1304 62.0213 87.3122ZM43.6775 87.5837C43.0145 87.4224 42.3462 87.2393 41.69 87.0392L41.8888 86.3886C42.532 86.5853 43.1881 86.7643 43.8381 86.9228L43.6775 87.5837ZM57.9946 88.1793L57.8898 87.5068C58.5527 87.4034 59.2211 87.2795 59.8772 87.1386L60.0202 87.8036C59.3511 87.9472 58.6698 88.0745 57.9946 88.1793ZM47.7273 88.3297C47.0493 88.2446 46.3646 88.1385 45.6921 88.0146L45.8147 87.3455C46.4749 87.4667 47.1474 87.5708 47.8123 87.6545L47.7273 88.3297ZM53.8958 88.585L53.8673 87.9043C54.5356 87.8764 55.2142 87.8281 55.884 87.7627L55.9507 88.44C55.2687 88.5067 54.5772 88.5557 53.8958 88.585ZM51.8362 88.6142C51.1542 88.6054 50.4614 88.5768 49.7787 88.5298L49.8256 87.8505C50.496 87.8968 51.1753 87.9247 51.8451 87.9336L51.8362 88.6142Z" fill="#117BDF"></path>
  <path d="M54.4413 74.5557L52.831 75.4684V70.5665C52.8596 70.0907 52.475 69.7068 51.9992 69.7068C51.5241 69.7068 51.1396 70.0907 50.7891 70.5665V76.4615L50.0383 77.0972L39.8567 64.0092C40.4278 63.8255 40.9131 63.8486 41.4821 63.884C42.4247 63.9384 43.4906 64.0024 44.9417 63.1197C46.3942 62.2369 46.8284 61.2608 47.2116 60.4005C47.5458 59.6491 47.8099 59.0549 48.8037 58.4512C49.7981 57.8468 50.4474 57.8822 51.2676 57.9346C52.2096 57.9883 53.2754 58.0516 54.7286 57.1695C56.1824 56.2847 56.6173 55.3093 57.0012 54.4483C57.3374 53.6962 57.6015 53.1014 58.5973 52.4963C59.5917 51.8919 60.2377 51.9293 61.0639 51.9783C61.5431 52.0049 62.0556 52.0335 62.6335 51.9402L54.4413 74.5557ZM64.137 51.2201C64.1424 51.2058 64.139 51.1902 64.1438 51.1752C64.1608 51.12 64.1642 51.0636 64.169 51.0057C64.1731 50.9553 64.1805 50.9057 64.1758 50.856C64.171 50.8049 64.1533 50.7573 64.1384 50.7069C64.122 50.6518 64.1084 50.5987 64.0805 50.5483C64.0737 50.5347 64.0737 50.519 64.0655 50.5054C64.0458 50.4728 64.0145 50.4537 63.9913 50.4251C63.9559 50.3802 63.9219 50.3373 63.877 50.3006C63.8321 50.2645 63.7824 50.2386 63.732 50.2121C63.6994 50.1951 63.6742 50.1685 63.6388 50.1556C63.6238 50.1501 63.6088 50.1535 63.5932 50.1488C63.5408 50.1331 63.487 50.1297 63.4312 50.1243C63.3774 50.1195 63.325 50.1114 63.2712 50.1168C63.2236 50.1216 63.1794 50.1386 63.1324 50.1522C63.0745 50.1685 63.0187 50.1835 62.9656 50.2114C62.952 50.2196 62.9371 50.2189 62.9234 50.2271C61.9631 50.8104 61.3362 50.7743 60.5405 50.728C59.6285 50.6749 58.6 50.613 57.1959 51.4678C55.791 52.322 55.3711 53.2647 55.0002 54.0965C54.6755 54.8234 54.4196 55.3985 53.4585 55.9825C52.4968 56.5665 51.8699 56.5297 51.0763 56.4821C50.1711 56.431 49.1378 56.3671 47.7337 57.2206C46.3295 58.0741 45.9103 59.0168 45.54 59.8485C45.2167 60.5748 44.9622 61.1478 44.0025 61.7311C43.0428 62.3158 42.4179 62.2791 41.6216 62.2307C40.7143 62.1783 39.6831 62.1143 38.279 62.9692C38.036 63.1169 37.9108 63.3708 37.8965 63.6349C37.8903 63.6696 37.8924 63.7036 37.891 63.7383C37.8931 63.7676 37.8917 63.7955 37.8971 63.8248C37.908 63.984 37.9495 64.1426 38.055 64.2788L48.7472 78.0228V87.2141L44.7403 96.0399C44.6899 96.1522 44.6634 96.2741 44.6634 96.3973V123.316C44.6634 123.316 45.1745 124.176 45.6502 124.176C46.1253 124.176 46.7053 123.316 46.7053 123.316V96.5776L50.7115 87.7525C50.7625 87.6402 50.7891 87.5184 50.7891 87.3952V78.6558L54.1922 76.6915V84.2717C54.1922 84.4936 54.2773 84.7067 54.4305 84.8666L58.2761 88.8953V115.428C58.2761 115.428 58.8369 116.288 59.312 116.288C59.7877 116.288 60.318 115.428 60.318 115.428V88.5985C60.318 88.5985 60.0872 88.165 59.9348 88.005L55.5535 83.8865V74.915L64.137 51.2201Z" fill="#117BDF"></path>
  <path d="M39.9498 64.248L49.5836 76.6321L49.9436 76.3272V70.5901C49.9436 70.5173 49.9667 70.4465 50.0096 70.388C50.3527 69.9231 50.8304 69.3902 51.4941 69.3902C51.8214 69.3902 52.1359 69.5243 52.3571 69.7591C52.5749 69.9912 52.6845 70.2927 52.6654 70.6099L52.6661 74.9081L53.6585 74.3452L61.6233 52.3593C61.2333 52.3797 60.8753 52.36 60.5458 52.3423C59.7461 52.2953 59.1723 52.2613 58.2691 52.8112C57.3652 53.3598 57.1318 53.8832 56.8085 54.6081C56.4233 55.4719 55.9454 56.5439 54.4004 57.4838C52.8608 58.419 51.6908 58.3523 50.7522 58.2985C49.9552 58.2475 49.3868 58.2114 48.4748 58.7661C47.5729 59.3134 47.3401 59.8368 47.0182 60.5603C46.633 61.4254 46.1559 62.4967 44.6136 63.4339C43.076 64.3698 41.9053 64.3024 40.9646 64.248C40.5733 64.2235 40.2581 64.2098 39.9498 64.248ZM49.5332 77.4611C49.5216 77.4611 49.5093 77.4604 49.4978 77.4591C49.4059 77.4496 49.3215 77.4033 49.2643 77.3305L39.0827 64.2425C39.0146 64.1547 38.9928 64.039 39.0255 63.9328C39.0582 63.8266 39.1412 63.7436 39.2467 63.7089C39.8974 63.4999 40.4562 63.534 40.998 63.5673C41.9373 63.6225 42.9031 63.6776 44.2603 62.8527C45.6202 62.025 46.0143 61.1422 46.3948 60.2873C46.7405 59.5101 47.0373 58.8424 48.1208 58.1842C49.216 57.5185 49.9769 57.5675 50.7842 57.6186C51.7235 57.6723 52.6879 57.7268 54.0464 56.9019C55.4098 56.0728 55.8038 55.1887 56.1857 54.3338C56.5321 53.5565 56.8303 52.8882 57.9152 52.2293C59.0008 51.5691 59.7338 51.612 60.5792 51.6623C61.0509 51.6882 61.5341 51.7147 62.0746 51.6276C62.193 51.6092 62.3141 51.6542 62.391 51.7467C62.468 51.84 62.4897 51.9659 62.4489 52.0796L54.2561 74.695C54.2282 74.7713 54.1738 74.8352 54.1036 74.8754L52.4932 75.7881C52.3877 75.848 52.2591 75.8473 52.1543 75.7861C52.0495 75.7255 51.9855 75.6132 51.9855 75.492V70.5901C51.9937 70.4417 51.9494 70.3192 51.8616 70.226C51.7684 70.1273 51.6343 70.0708 51.4941 70.0708C51.2313 70.0708 50.9605 70.2668 50.6242 70.7038V76.4851C50.6242 76.5852 50.58 76.6804 50.5038 76.7444L49.753 77.3808C49.6911 77.4325 49.6128 77.4611 49.5332 77.4611ZM44.4985 123.243C44.6979 123.548 44.9974 123.86 45.1444 123.86C45.2982 123.86 45.6304 123.543 45.8598 123.231V96.6013C45.8598 96.5529 45.87 96.5053 45.8904 96.4611L49.8966 87.6359C49.9279 87.5672 49.9436 87.4944 49.9436 87.4188V78.6795C49.9436 78.5576 50.0083 78.4453 50.1138 78.3847L53.5169 76.4204C53.6218 76.3599 53.7518 76.3599 53.8573 76.4204C53.9621 76.481 54.0274 76.5933 54.0274 76.7151V84.2961C54.0274 84.4301 54.0784 84.5574 54.1717 84.6554L58.0166 88.6841C58.0772 88.7474 58.1112 88.8311 58.1112 88.9189V115.347C58.3318 115.656 58.6544 115.971 58.8068 115.971C58.9545 115.971 59.2676 115.654 59.4725 115.351V88.7086C59.3827 88.548 59.2547 88.3384 59.1839 88.2642L54.8149 84.1579C54.7468 84.0946 54.7081 84.0041 54.7081 83.9101V74.9387C54.7081 74.8992 54.7149 74.8604 54.7278 74.823L63.3011 51.1587C63.3045 51.1369 63.3086 51.1131 63.3133 51.0981C63.3174 51.0845 63.3201 51.0505 63.3235 51.0151L63.3324 50.9123C63.3317 50.9102 63.3072 50.8279 63.3065 50.8258C63.2922 50.7782 63.2833 50.7462 63.2759 50.7319C63.2704 50.7231 63.2643 50.7094 63.2595 50.6958C63.2446 50.6829 63.218 50.6584 63.218 50.6584C63.1928 50.6278 63.1724 50.6012 63.1561 50.5876C63.1384 50.5733 63.1071 50.5577 63.0703 50.5386C63.0608 50.5332 63.0356 50.5175 63.0145 50.5046C62.9764 50.4944 62.9458 50.4916 62.9165 50.4889L62.8021 50.4794C62.7994 50.4794 62.7218 50.5025 62.7191 50.5025C62.6721 50.5168 62.6388 50.5263 62.6218 50.5352C62.6082 50.5427 62.5864 50.5515 62.5666 50.559C61.5307 51.1791 60.8283 51.1383 60.0163 51.0913C59.1084 51.0389 58.1779 50.9844 56.8677 51.7821C55.5534 52.5819 55.1729 53.4347 54.8054 54.259C54.4698 55.0111 54.1805 55.6583 53.1296 56.2968C52.0781 56.9366 51.3716 56.8951 50.5507 56.846C49.6373 56.7936 48.7109 56.7412 47.4048 57.5355C46.0912 58.3332 45.7121 59.1861 45.3459 60.0103C45.0124 60.7597 44.7245 61.407 43.6743 62.0454C42.6206 62.6879 41.9128 62.6437 41.096 62.594C40.186 62.5416 39.257 62.4878 37.9508 63.2835C37.7725 63.3917 37.7364 63.5768 37.731 63.6776L37.3865 63.73L37.7262 63.7749C37.7398 63.9423 37.767 64.0274 37.8187 64.0935L48.5102 77.8382C48.5571 77.8981 48.5823 77.9709 48.5823 78.0471V87.2378C48.5823 87.2861 48.5721 87.3337 48.5517 87.3787L44.5455 96.2044C44.5148 96.2725 44.4985 96.346 44.4985 96.4202V123.243ZM45.1444 124.541C44.508 124.541 43.9669 123.685 43.8655 123.514C43.8342 123.46 43.8179 123.401 43.8179 123.339V96.4202C43.8179 96.2494 43.8553 96.0772 43.9261 95.922L47.9017 87.1636V78.1635L37.2817 64.512C37.147 64.3385 37.0701 64.1234 37.0524 63.8716C37.0524 63.8675 37.0476 63.8055 37.0469 63.8015C37.0469 63.7974 37.0462 63.732 37.0462 63.7279C37.0462 63.6851 37.0483 63.6436 37.0558 63.6007C37.0735 63.2413 37.2722 62.8996 37.5969 62.7022C39.0841 61.797 40.2139 61.861 41.1212 61.9134C41.9005 61.9617 42.4491 61.9951 43.321 61.4642C44.1895 60.936 44.4134 60.4316 44.7238 59.734C45.0948 58.8995 45.5562 57.8616 47.0516 56.9543C48.5381 56.0497 49.6672 56.1137 50.5738 56.1654C51.3525 56.211 51.9052 56.2444 52.7757 55.7155C53.6456 55.1867 53.8708 54.6823 54.1826 53.9847C54.5556 53.1482 55.0184 52.1109 56.5137 51.2009C58.0057 50.2929 59.1369 50.3589 60.049 50.4113C60.8215 50.4562 61.3721 50.4882 62.242 49.9601C62.2699 49.943 62.3223 49.9213 62.3543 49.9131C62.3802 49.8927 62.4571 49.8702 62.519 49.8525C62.6197 49.8219 62.6749 49.8076 62.7334 49.8022C62.8096 49.7933 62.8784 49.8008 62.9328 49.8069C63.0343 49.8158 63.1064 49.8226 63.1867 49.8471C63.314 49.8832 63.3596 49.9151 63.3862 49.9349C63.4413 49.9642 63.5148 50.0016 63.5876 50.0615C63.6591 50.12 63.7095 50.1826 63.7496 50.2337C63.7741 50.2548 63.815 50.2922 63.8503 50.3514C63.868 50.38 63.8891 50.4324 63.898 50.4644C63.9163 50.4876 63.9374 50.559 63.9545 50.6176C63.9837 50.7122 64.0021 50.7721 64.0096 50.8462C64.015 50.9061 64.0116 50.9654 64.0055 51.0266C63.9967 51.1342 63.9899 51.2118 63.9647 51.2962C63.9647 51.2962 63.9518 51.3595 63.9518 51.3601L55.3887 74.9986V83.7631L59.6624 87.7809C59.8516 87.9776 60.0714 88.3833 60.1136 88.4629C60.1395 88.5126 60.1531 88.5671 60.1531 88.6229V115.452C60.1531 115.515 60.1354 115.577 60.1021 115.63C59.9973 115.801 59.4398 116.652 58.8068 116.652C58.1786 116.652 57.596 115.807 57.4857 115.637C57.4496 115.582 57.4306 115.517 57.4306 115.452V89.0551L53.6789 85.1251C53.4645 84.9005 53.3468 84.6057 53.3468 84.2961V77.3046L50.6242 78.8762V87.4188C50.6242 87.5917 50.5875 87.7591 50.5167 87.9164L46.5404 96.6755V123.339C46.5404 123.407 46.52 123.473 46.4819 123.529C46.3682 123.699 45.7699 124.541 45.1444 124.541Z" fill="#117BDF"></path>
</svg>
