<svg version="1.2" xmlns="http://www.w3.org/2000/svg" viewBox="0 0 69 115" width="69" height="115"><defs><linearGradient id="P" gradientUnits="userSpaceOnUse"/><linearGradient id="g1" x1="147.5" y1="706.5" x2="-149.5" y2="-67.1" href="#P"><stop stop-color="#00eaff"/><stop offset="1" stop-color="#0083ff"/></linearGradient><linearGradient id="g2" x1="-67.4" y1="26.2" x2="-15.9" y2="-45.9" href="#P"><stop stop-color="#ff7cff"/><stop offset="1" stop-color="#0083ff"/></linearGradient><linearGradient id="g3" x1="435.1" y1="955.3" x2="-20.8" y2="-232.4" href="#P"><stop stop-color="#00eaff"/><stop offset="1" stop-color="#0083ff"/></linearGradient><linearGradient id="g4" x1="57.8" y1="-8.1" x2="143.2" y2="-128.4" href="#P"><stop stop-color="#ff7cff"/><stop offset="1" stop-color="#0083ff"/></linearGradient><linearGradient id="g5" x1="282.5" y1="87.9" x2="249.7" y2="2.6" href="#P"><stop stop-color="#00eaff"/><stop offset="1" stop-color="#0083ff"/></linearGradient><linearGradient id="g6" x1="271.4" y1="94.3" x2="238.7" y2="9" href="#P"><stop stop-color="#00eaff"/><stop offset="1" stop-color="#0083ff"/></linearGradient><linearGradient id="g7" x1="260.5" y1="72.4" x2="227.7" y2="-12.9" href="#P"><stop stop-color="#00eaff"/><stop offset="1" stop-color="#0083ff"/></linearGradient><linearGradient id="g8" x1="282.5" y1="59.7" x2="249.7" y2="-25.6" href="#P"><stop stop-color="#00eaff"/><stop offset="1" stop-color="#0083ff"/></linearGradient><linearGradient id="g9" x1="21.8" y1="35.2" x2="-72.7" y2="-210.9" href="#P"><stop stop-color="#00eaff"/><stop offset="1" stop-color="#0083ff"/></linearGradient><linearGradient id="g10" x1="57.9" y1="49.1" x2="-25.3" y2="-167.6" href="#P"><stop stop-color="#00eaff"/><stop offset="1" stop-color="#0083ff"/></linearGradient><linearGradient id="g11" x1="30.5" y1="-19.2" x2="-31.7" y2="-181.3" href="#P"><stop stop-color="#00eaff"/><stop offset="1" stop-color="#0083ff"/></linearGradient><linearGradient id="g12" x1="-22.2" y1="-121.2" x2="-40.6" y2="-169.1" href="#P"><stop stop-color="#00eaff"/><stop offset="1" stop-color="#0083ff"/></linearGradient><linearGradient id="g13" x1="4.8" y1="-105.6" x2="-13.6" y2="-153.5" href="#P"><stop stop-color="#00eaff"/><stop offset="1" stop-color="#0083ff"/></linearGradient><linearGradient id="g14" x1="31.8" y1="-90" x2="13.4" y2="-137.9" href="#P"><stop stop-color="#00eaff"/><stop offset="1" stop-color="#0083ff"/></linearGradient><linearGradient id="g15" x1="225.6" y1="92" x2="210.5" y2="52.6" href="#P"><stop stop-color="#00eaff"/><stop offset="1" stop-color="#0083ff"/></linearGradient><linearGradient id="g16" x1="233.4" y1="82.1" x2="221" y2="49.9" href="#P"><stop stop-color="#00eaff"/><stop offset="1" stop-color="#0083ff"/></linearGradient></defs><style>.a{fill:url(#g1)}.b{fill:#fff}.c{fill:#63d3ff}.d{fill:url(#g2)}.e{fill:url(#g3)}.f{fill:url(#g4)}.g{fill:url(#g5)}.h{fill:url(#g6)}.i{fill:url(#g7)}.j{fill:url(#g8)}.k{fill:url(#g9)}.l{fill:url(#g10)}.m{fill:url(#g11)}.n{fill:url(#g12)}.o{fill:url(#g13)}.p{fill:url(#g14)}.q{fill:#487eb0}.r{fill:#f4acc8}.s{fill:#b0bbd9}.t{fill:url(#g15)}.u{fill:url(#g16)}.v{fill:#fdffff}</style><path class="a" d="m61.5 102.7l-1.1-1.9 1.1-0.7-25.9-14.9c-2.5-1.5-4.5-5-4.5-7.9v-70.4l-1.1 0.6-1.1-1.9 3.6-2c0.8-0.4 1.9-0.4 3.1 0.3l26.2 15.2c2.5 1.4 4.5 4.9 4.5 7.8v70.8c0 1.4-0.5 2.5-1.3 2.9z"/><path class="b" d="m58.4 102.3c2.5 1.4 4.5 0.3 4.5-2.6v-70.8c0-2.9-2-6.4-4.5-7.8l-26.3-15.2c-2.4-1.4-4.5-0.2-4.5 2.6v70.8c0 2.9 2.1 6.4 4.5 7.8z"/><path class="c" d="m41.3 87.1c0 0.7 0.5 1.5 1.1 1.8l5.7 3.3c0.6 0.4 1.1 0.1 1.1-0.6v-0.5c0-0.7-0.5-1.6-1.1-1.9l-5.7-3.3c-0.6-0.3-1.1 0-1.1 0.6z"/><path class="d" d="m29 76.4l33 19v-63.5l-33-19.1z"/><path class="b" d="m39 29.5c0 2.3-1.6 3.2-3.5 2.1-2-1.2-3.6-3.9-3.6-6.2 0-2.3 1.6-3.2 3.6-2.1 1.9 1.2 3.5 3.9 3.5 6.2z"/><path fill-rule="evenodd" class="b" d="m35.5 27.5c-0.5-0.3-0.9-0.9-0.9-1.5 0-0.5 0.4-0.8 0.9-0.5 0.4 0.3 0.8 1 0.8 1.5 0 0.6-0.4 0.8-0.8 0.5zm0-1.7c-0.4-0.2-0.6 0-0.6 0.4 0 0.3 0.2 0.8 0.6 1 0.3 0.2 0.5 0 0.5-0.4 0-0.3-0.2-0.8-0.5-1z"/><path fill-rule="evenodd" class="b" d="m35.5 29.4c-0.7-0.4-1.5-0.8-1.5-1.5 0-0.4 0.4-0.7 0.8-0.6q0.1 0 0.2 0 0.2 0.3 0.5 0.5 0.2 0.1 0.5 0.1 0 0 0.1 0.1c0.5 0.5 0.8 1.1 0.8 1.5 0 0.7-0.8 0.3-1.4-0.1zm-0.6-1.8c-0.3 0-0.6 0.2-0.6 0.4 0 0.4 0.4 0.6 1.2 1.1 0.7 0.4 1.1 0.6 1.1 0.3 0-0.3-0.2-0.7-0.6-1.1-0.3 0-0.8-0.3-1.1-0.7z"/><path class="b" d="m46.6 34.9c0.1 0 0.3 0 0.3-0.2 0-0.1-0.2-0.3-0.3-0.3l-5-3c-0.2 0-0.3 0-0.3 0.2 0 0.1 0.1 0.3 0.3 0.4zm0.9 0c-0.1-0.1-0.2 0-0.2 0.1 0 0.2 0.1 0.3 0.2 0.4l1.7 1c0.1 0 0.2 0 0.2-0.2 0-0.1-0.1-0.3-0.2-0.4zm11.1 7c0.2 0.1 0.3 0 0.3-0.1 0-0.2-0.1-0.3-0.3-0.4l-1.6-0.9c-0.1-0.1-0.2-0.1-0.2 0.1 0 0.1 0.1 0.3 0.2 0.4zm-4.5-3.2c-0.1 0-0.2 0-0.2 0.2 0 0.1 0.1 0.3 0.2 0.4l2 1.1c0.1 0.1 0.2 0 0.2-0.1 0-0.2-0.1-0.3-0.2-0.4zm-0.8 0c0.1 0.1 0.2 0 0.2-0.1 0-0.1-0.1-0.3-0.2-0.4l-3.4-1.9c-0.1-0.1-0.2 0-0.2 0.1 0 0.2 0.1 0.3 0.2 0.4zm3.4 2.6c-0.1 0-0.2 0-0.2 0.2 0 0.1 0.1 0.3 0.2 0.4l2 1.1c0.1 0.1 0.2 0 0.2-0.1 0-0.2-0.1-0.3-0.2-0.4zm-1-0.6c-0.1 0-0.2 0-0.2 0.2 0 0.1 0.1 0.3 0.2 0.4h0.1c0.2 0.1 0.3 0 0.3-0.1 0-0.2-0.1-0.3-0.3-0.4zm-12.6-6.8c0.1 0.1 0.2 0 0.2-0.1 0-0.2-0.1-0.3-0.2-0.4l-1.6-0.9c-0.1-0.1-0.2 0-0.2 0.1 0 0.1 0.1 0.3 0.2 0.4zm0.9 0c-0.1-0.1-0.2 0-0.2 0.1 0 0.2 0.1 0.4 0.2 0.4l5.1 2.9c0.1 0.1 0.2 0.1 0.2-0.1 0-0.1-0.1-0.3-0.2-0.4zm5.9 3.4c-0.1 0-0.2 0-0.2 0.2 0 0.1 0.1 0.3 0.2 0.4l5 2.9c0.2 0 0.3 0 0.3-0.2 0-0.1-0.1-0.3-0.3-0.4zm-8.4-3.7c-0.2 0-0.3 0-0.3 0.2 0 0.1 0.1 0.3 0.3 0.4l4.7 2.7c0.1 0.1 0.2 0 0.2-0.1 0-0.2-0.1-0.3-0.2-0.4zm5.6 3.2c-0.1 0-0.2 0-0.2 0.2 0 0.1 0.1 0.3 0.2 0.4l1.9 1c0.1 0.1 0.2 0 0.2-0.1 0-0.1-0.1-0.3-0.2-0.4zm2.6 1.5c-0.2-0.1-0.3 0-0.3 0.1 0 0.2 0.1 0.3 0.3 0.4l3.6 2.1c0.1 0.1 0.2 0 0.2-0.1 0-0.2-0.1-0.3-0.2-0.4z"/><path class="c" d="m53.9 35.5l-12.3-7.2c-0.3-0.1-0.4-0.4-0.4-0.7 0-0.2 0.1-0.3 0.4-0.2l12.3 7.1c0.2 0.1 0.4 0.5 0.4 0.7 0 0.3-0.2 0.4-0.4 0.3z"/><path class="b" d="m39 40.1c0 2.2-1.6 3.2-3.5 2-2-1.1-3.6-3.9-3.6-6.1 0-2.3 1.6-3.2 3.6-2.1 1.9 1.1 3.5 3.9 3.5 6.2z"/><path fill-rule="evenodd" class="b" d="m34.6 36.6c0-0.6 0.4-0.8 0.9-0.5 0.4 0.2 0.8 0.9 0.8 1.5 0 0.5-0.4 0.7-0.8 0.5-0.5-0.3-0.9-1-0.9-1.5zm0.3 0.1c0 0.4 0.2 0.9 0.6 1 0.3 0.2 0.5 0.1 0.5-0.3 0-0.4-0.2-0.8-0.5-1-0.4-0.2-0.6 0-0.6 0.3zm2 3.4c0 0.7-0.8 0.2-1.4-0.1-0.7-0.4-1.5-0.9-1.5-1.6 0-0.4 0.4-0.6 0.8-0.6q0.1 0 0.2 0.1 0.2 0.3 0.5 0.4 0.2 0.2 0.5 0.2 0 0 0.1 0c0.5 0.5 0.8 1.2 0.8 1.6zm-0.3-0.2c0-0.2-0.2-0.7-0.6-1.1-0.3 0-0.8-0.2-1.1-0.6-0.3 0-0.6 0.1-0.6 0.4 0 0.3 0.4 0.6 1.2 1 0.7 0.5 1.1 0.6 1.1 0.3z"/><path fill-rule="evenodd" class="b" d="m41.6 42.5c-0.2-0.1-0.3-0.2-0.3-0.4 0-0.1 0.1-0.2 0.3-0.1l5 2.9c0.1 0.1 0.3 0.3 0.3 0.4 0 0.1-0.2 0.2-0.3 0.1zm7.7 3.9c0.1 0.1 0.2 0.3 0.2 0.4 0 0.2-0.1 0.2-0.2 0.1l-1.6-0.9c-0.2-0.1-0.3-0.2-0.3-0.4 0-0.1 0.1-0.2 0.3-0.1zm7.9 5.1c-0.1-0.1-0.2-0.2-0.2-0.4 0-0.1 0.1-0.2 0.2-0.1l1.6 0.9c0.2 0.1 0.3 0.3 0.3 0.4 0 0.2-0.1 0.2-0.3 0.1zm-0.9-1c0.1 0.1 0.2 0.2 0.2 0.4 0 0.1-0.1 0.2-0.2 0.1l-2-1.1c-0.1-0.1-0.2-0.3-0.2-0.4 0-0.2 0.1-0.2 0.2-0.2zm-6.2-3c-0.1-0.1-0.2-0.3-0.2-0.4 0-0.2 0.1-0.2 0.2-0.1l3.4 1.9c0.1 0.1 0.2 0.2 0.2 0.4 0 0.1-0.1 0.2-0.2 0.1zm8.7 5.7c0.1 0.1 0.2 0.3 0.2 0.4 0 0.2-0.1 0.2-0.2 0.1l-2-1.1c-0.2-0.1-0.3-0.3-0.3-0.4 0-0.2 0.1-0.2 0.3-0.1zm-2.9-1.7c0.1 0.1 0.2 0.3 0.2 0.4 0 0.1-0.1 0.2-0.2 0.1h-0.1c-0.1-0.1-0.2-0.3-0.2-0.4 0-0.2 0.1-0.2 0.2-0.2zm-14.4-7.7c-0.1-0.1-0.2-0.3-0.2-0.4 0-0.2 0.1-0.2 0.2-0.1l1.6 0.9c0.2 0.1 0.3 0.2 0.3 0.4 0 0.1-0.1 0.2-0.3 0.1zm7.6 3.9c0.2 0 0.3 0.2 0.3 0.4 0 0.1-0.1 0.2-0.3 0.1l-5-2.9c-0.1-0.1-0.2-0.3-0.2-0.4 0-0.2 0.1-0.2 0.2-0.2zm5.9 3.5c0.1 0 0.2 0.2 0.2 0.3 0 0.2-0.1 0.3-0.2 0.2l-5.1-2.9c-0.1-0.1-0.2-0.3-0.2-0.4 0-0.2 0.1-0.2 0.2-0.2zm-8.7-3.8c0.1 0 0.2 0.2 0.2 0.4 0 0.1-0.1 0.2-0.2 0.1l-4.8-2.8c-0.1 0-0.2-0.2-0.2-0.3 0-0.2 0.1-0.3 0.2-0.2zm2.7 1.6c0.1 0 0.2 0.2 0.2 0.4 0 0.1-0.1 0.2-0.2 0.1l-1.8-1.1c-0.2 0-0.3-0.2-0.3-0.3 0-0.2 0.1-0.3 0.3-0.2zm4.3 2.5c0.2 0.1 0.3 0.3 0.3 0.4 0 0.2-0.1 0.2-0.3 0.2l-3.6-2.1c-0.1-0.1-0.2-0.3-0.2-0.4 0-0.2 0.1-0.2 0.2-0.1z"/><path class="c" d="m53.9 46l-12.3-7.1c-0.3-0.1-0.4-0.5-0.4-0.7 0-0.3 0.1-0.4 0.4-0.3l12.3 7.2c0.2 0.1 0.4 0.4 0.4 0.7 0 0.3-0.2 0.4-0.4 0.2z"/><path class="b" d="m39 50.6c0 2.3-1.6 3.2-3.5 2.1-2-1.2-3.6-3.9-3.6-6.2 0-2.3 1.6-3.2 3.6-2 1.9 1.1 3.5 3.9 3.5 6.1z"/><path fill-rule="evenodd" class="b" d="m35.5 48.6c-0.5-0.2-0.9-0.9-0.9-1.5 0-0.5 0.4-0.7 0.9-0.5 0.4 0.3 0.8 1 0.8 1.5 0 0.6-0.4 0.8-0.8 0.5zm0-1.6c-0.4-0.2-0.6-0.1-0.6 0.3 0 0.4 0.2 0.8 0.6 1 0.3 0.2 0.5 0 0.5-0.3 0-0.4-0.2-0.9-0.5-1z"/><path fill-rule="evenodd" class="b" d="m35.5 50.5c-0.7-0.4-1.5-0.8-1.5-1.5 0-0.4 0.4-0.7 0.8-0.6q0.1 0 0.2 0.1 0.2 0.2 0.5 0.4 0.2 0.2 0.5 0.1 0 0 0.1 0.1c0.5 0.5 0.8 1.1 0.8 1.6 0 0.6-0.8 0.2-1.4-0.2zm-0.6-1.8c-0.3 0-0.6 0.2-0.6 0.5 0 0.3 0.4 0.5 1.2 1 0.7 0.4 1.1 0.6 1.1 0.3 0-0.3-0.2-0.7-0.6-1.1-0.3 0-0.8-0.3-1.1-0.7z"/><path fill-rule="evenodd" class="b" d="m41.6 53.1c-0.2-0.1-0.3-0.3-0.3-0.4 0-0.2 0.1-0.2 0.3-0.2l5 3c0.1 0 0.3 0.2 0.3 0.4 0 0.1-0.2 0.2-0.3 0.1zm7.7 3.9c0.1 0.1 0.2 0.2 0.2 0.4 0 0.1-0.1 0.2-0.2 0.1l-1.6-0.9c-0.2-0.1-0.3-0.3-0.3-0.4 0-0.2 0.1-0.2 0.3-0.2zm7.9 5.2c-0.1-0.1-0.2-0.3-0.2-0.4 0-0.2 0.1-0.2 0.2-0.1l1.6 0.9c0.2 0.1 0.3 0.2 0.3 0.4 0 0.1-0.1 0.2-0.3 0.1zm-0.9-1.1c0.1 0.1 0.2 0.3 0.2 0.4 0 0.2-0.1 0.2-0.2 0.2l-2-1.2c-0.1-0.1-0.2-0.2-0.2-0.4 0-0.1 0.1-0.2 0.2-0.1zm-6.2-3.1c-0.1 0-0.2-0.2-0.2-0.3 0-0.2 0.1-0.3 0.2-0.2l3.4 1.9c0.1 0.1 0.2 0.3 0.2 0.4 0 0.2-0.1 0.2-0.2 0.2zm8.7 5.7c0.1 0 0.2 0.2 0.2 0.4 0 0.1-0.1 0.2-0.2 0.1l-2-1.2c-0.2 0-0.3-0.2-0.3-0.3 0-0.2 0.1-0.3 0.3-0.2zm-2.9-1.6c0.1 0 0.2 0.2 0.2 0.4 0 0.1-0.1 0.2-0.2 0.1l-0.1-0.1c-0.1 0-0.2-0.2-0.2-0.4 0-0.1 0.1-0.2 0.2-0.1zm-14.4-7.8c-0.1 0-0.2-0.2-0.2-0.4 0-0.1 0.1-0.2 0.2-0.1l1.6 0.9c0.2 0.1 0.3 0.3 0.3 0.4 0 0.2-0.1 0.2-0.3 0.2zm7.6 3.8c0.2 0.1 0.3 0.3 0.3 0.4 0 0.2-0.1 0.2-0.3 0.2l-5-3c-0.1 0-0.2-0.2-0.2-0.4 0-0.1 0.1-0.2 0.2-0.1zm5.9 3.4c0.1 0.1 0.2 0.3 0.2 0.4 0 0.2-0.1 0.2-0.2 0.1l-5.1-2.9c-0.1-0.1-0.2-0.2-0.2-0.4 0-0.1 0.1-0.2 0.2-0.1zm-8.7-3.9c0.1 0.1 0.2 0.3 0.2 0.4 0 0.2-0.1 0.2-0.2 0.2l-4.8-2.8c-0.1-0.1-0.2-0.2-0.2-0.4 0-0.1 0.1-0.2 0.2-0.1zm2.7 1.5c0.1 0.1 0.2 0.3 0.2 0.4 0 0.2-0.1 0.2-0.2 0.2l-1.8-1.1c-0.2-0.1-0.3-0.2-0.3-0.4 0-0.1 0.1-0.2 0.3-0.1zm4.3 2.5c0.2 0.1 0.3 0.3 0.3 0.4 0 0.1-0.1 0.2-0.3 0.1l-3.6-2.1c-0.1 0-0.2-0.2-0.2-0.4 0-0.1 0.1-0.2 0.2-0.1z"/><path class="c" d="m53.9 56.6l-12.3-7.1c-0.3-0.2-0.4-0.5-0.4-0.8 0-0.2 0.1-0.3 0.4-0.2l12.3 7.1c0.2 0.2 0.4 0.5 0.4 0.7 0 0.3-0.2 0.4-0.4 0.3z"/><path class="b" d="m39 61.2c0 2.3-1.6 3.2-3.5 2-2-1.1-3.6-3.9-3.6-6.1 0-2.3 1.6-3.2 3.6-2.1 1.9 1.2 3.5 3.9 3.5 6.2z"/><path fill-rule="evenodd" class="b" d="m35.5 59.2c-0.5-0.3-0.9-1-0.9-1.5 0-0.6 0.4-0.8 0.9-0.5 0.4 0.3 0.8 0.9 0.8 1.5 0 0.5-0.4 0.8-0.8 0.5zm0-1.7c-0.4-0.2-0.6 0-0.6 0.3 0 0.4 0.2 0.9 0.6 1.1 0.3 0.1 0.5 0 0.5-0.4 0-0.4-0.2-0.8-0.5-1z"/><path fill-rule="evenodd" class="b" d="m35.5 61.1c-0.7-0.4-1.5-0.9-1.5-1.5 0-0.5 0.4-0.7 0.8-0.7q0.1 0 0.2 0.1 0.2 0.3 0.5 0.5 0.2 0.1 0.5 0.1 0 0 0.1 0.1c0.5 0.5 0.8 1.1 0.8 1.5 0 0.7-0.8 0.3-1.4-0.1zm-0.6-1.8c-0.3 0-0.6 0.2-0.6 0.4 0 0.3 0.4 0.6 1.2 1 0.7 0.5 1.1 0.7 1.1 0.4 0-0.3-0.2-0.8-0.6-1.1-0.3-0.1-0.8-0.3-1.1-0.7z"/><path fill-rule="evenodd" class="b" d="m41.6 63.6c-0.2 0-0.3-0.2-0.3-0.4 0-0.1 0.1-0.2 0.3-0.1l5 2.9c0.1 0.1 0.3 0.3 0.3 0.4 0 0.2-0.2 0.2-0.3 0.2zm7.7 3.8c0.1 0.1 0.2 0.3 0.2 0.4 0 0.2-0.1 0.2-0.2 0.2l-1.6-1c-0.2 0-0.3-0.2-0.3-0.4 0-0.1 0.1-0.2 0.3-0.1zm7.9 5.1c-0.1 0-0.2-0.2-0.2-0.4 0-0.1 0.1-0.2 0.2-0.1l1.6 0.9c0.2 0.1 0.3 0.3 0.3 0.4 0 0.2-0.1 0.2-0.3 0.2zm-0.9-1.1c0.1 0.1 0.2 0.3 0.2 0.4 0 0.1-0.1 0.2-0.2 0.1l-2-1.1c-0.1-0.1-0.2-0.3-0.2-0.4 0-0.2 0.1-0.2 0.2-0.2zm-6.2-3c-0.1-0.1-0.2-0.2-0.2-0.4 0-0.1 0.1-0.2 0.2-0.1l3.4 1.9c0.1 0.1 0.2 0.3 0.2 0.4 0 0.1-0.1 0.2-0.2 0.1zm8.7 5.7c0.1 0.1 0.2 0.3 0.2 0.4 0 0.2-0.1 0.2-0.2 0.2l-2-1.2c-0.2-0.1-0.3-0.2-0.3-0.4 0-0.1 0.1-0.2 0.3-0.1zm-2.9-1.7c0.1 0.1 0.2 0.3 0.2 0.4 0 0.2-0.1 0.2-0.2 0.1h-0.1c-0.1-0.1-0.2-0.3-0.2-0.4 0-0.2 0.1-0.2 0.2-0.1zm-14.4-7.8c-0.1-0.1-0.2-0.3-0.2-0.4 0-0.1 0.1-0.2 0.2-0.1l1.6 0.9c0.2 0.1 0.3 0.3 0.3 0.4 0 0.1-0.1 0.2-0.3 0.1zm7.6 3.9c0.2 0.1 0.3 0.2 0.3 0.4 0 0.1-0.1 0.2-0.3 0.1l-5-2.9c-0.1-0.1-0.2-0.3-0.2-0.4 0-0.2 0.1-0.2 0.2-0.1zm5.9 3.4c0.1 0 0.2 0.2 0.2 0.4 0 0.1-0.1 0.2-0.2 0.1l-5.1-2.9c-0.1-0.1-0.2-0.3-0.2-0.4 0-0.2 0.1-0.2 0.2-0.1zm-8.7-3.9c0.1 0.1 0.2 0.2 0.2 0.4 0 0.1-0.1 0.2-0.2 0.1l-4.8-2.7c-0.1-0.1-0.2-0.3-0.2-0.4 0-0.2 0.1-0.2 0.2-0.2zm2.7 1.6c0.1 0.1 0.2 0.2 0.2 0.4 0 0.1-0.1 0.2-0.2 0.1l-1.8-1c-0.2-0.1-0.3-0.3-0.3-0.4 0-0.2 0.1-0.2 0.3-0.2zm4.3 2.6c0.2 0 0.3 0.2 0.3 0.4 0 0.1-0.1 0.2-0.3 0.1l-3.6-2.1c-0.1-0.1-0.2-0.3-0.2-0.4 0-0.1 0.1-0.2 0.2-0.1z"/><path class="c" d="m53.9 67.1l-12.3-7.1c-0.3-0.1-0.4-0.4-0.4-0.7 0-0.3 0.1-0.4 0.4-0.2l12.3 7.1c0.2 0.1 0.4 0.4 0.4 0.7 0 0.3-0.2 0.4-0.4 0.2z"/><path class="b" d="m39 71.7c0 2.3-1.6 3.2-3.5 2.1-2-1.1-3.6-3.9-3.6-6.2 0-2.2 1.6-3.2 3.6-2 1.9 1.1 3.5 3.9 3.5 6.1z"/><path fill-rule="evenodd" class="b" d="m35.5 69.7c-0.5-0.2-0.9-0.9-0.9-1.5 0-0.5 0.4-0.7 0.9-0.5 0.4 0.3 0.8 1 0.8 1.5 0 0.6-0.4 0.8-0.8 0.5zm0-1.6c-0.4-0.2-0.6-0.1-0.6 0.3 0 0.4 0.2 0.8 0.6 1 0.3 0.2 0.5 0.1 0.5-0.3 0-0.4-0.2-0.8-0.5-1z"/><path fill-rule="evenodd" class="b" d="m35.5 71.6c-0.7-0.4-1.5-0.8-1.5-1.5 0-0.4 0.4-0.7 0.8-0.6q0.1 0 0.2 0.1 0.2 0.3 0.5 0.4 0.2 0.2 0.5 0.2 0 0 0.1 0c0.5 0.5 0.8 1.2 0.8 1.6 0 0.7-0.8 0.2-1.4-0.2zm-0.6-1.7c-0.3-0.1-0.6 0.1-0.6 0.4 0 0.3 0.4 0.6 1.2 1 0.7 0.5 1.1 0.6 1.1 0.3 0-0.3-0.2-0.7-0.6-1.1-0.3 0-0.8-0.2-1.1-0.6z"/><path fill-rule="evenodd" class="b" d="m41.6 74.2c-0.2-0.1-0.3-0.3-0.3-0.4 0-0.1 0.1-0.2 0.3-0.1l5 2.9c0.1 0.1 0.3 0.2 0.3 0.4 0 0.1-0.2 0.2-0.3 0.1zm7.7 3.9c0.1 0.1 0.2 0.2 0.2 0.4 0 0.1-0.1 0.2-0.2 0.1l-1.6-0.9c-0.2-0.1-0.3-0.3-0.3-0.4 0-0.1 0.1-0.2 0.3-0.1zm7.9 5.1c-0.1-0.1-0.2-0.3-0.2-0.4 0-0.1 0.1-0.2 0.2-0.1l1.6 0.9c0.2 0.1 0.3 0.2 0.3 0.4 0 0.1-0.1 0.2-0.3 0.1zm-0.9-1c0.1 0 0.2 0.2 0.2 0.4 0 0.1-0.1 0.2-0.2 0.1l-2-1.2c-0.1 0-0.2-0.2-0.2-0.4 0-0.1 0.1-0.2 0.2-0.1zm-6.2-3c-0.1-0.1-0.2-0.3-0.2-0.4 0-0.2 0.1-0.2 0.2-0.2l3.4 2c0.1 0 0.2 0.2 0.2 0.4 0 0.1-0.1 0.2-0.2 0.1zm8.7 5.7c0.1 0.1 0.2 0.2 0.2 0.4 0 0.1-0.1 0.2-0.2 0.1l-2-1.1c-0.2-0.1-0.3-0.3-0.3-0.4 0-0.2 0.1-0.2 0.3-0.2zm-2.9-1.6c0.1 0.1 0.2 0.2 0.2 0.4 0 0.1-0.1 0.2-0.2 0.1l-0.1-0.1c-0.1 0-0.2-0.2-0.2-0.4 0-0.1 0.1-0.2 0.2-0.1zm-14.4-7.7c-0.1-0.1-0.2-0.3-0.2-0.4 0-0.2 0.1-0.2 0.2-0.2l1.6 1c0.2 0 0.3 0.2 0.3 0.4 0 0.1-0.1 0.2-0.3 0.1zm7.6 3.8c0.2 0.1 0.3 0.3 0.3 0.4 0 0.2-0.1 0.2-0.3 0.2l-5-3c-0.1 0-0.2-0.2-0.2-0.3 0-0.2 0.1-0.3 0.2-0.2zm5.9 3.4c0.1 0.1 0.2 0.3 0.2 0.4 0 0.2-0.1 0.2-0.2 0.2l-5.1-3c-0.1 0-0.2-0.2-0.2-0.4 0-0.1 0.1-0.2 0.2-0.1zm-8.7-3.9c0.1 0.1 0.2 0.3 0.2 0.4 0 0.2-0.1 0.2-0.2 0.2l-4.8-2.8c-0.1-0.1-0.2-0.2-0.2-0.4 0-0.1 0.1-0.2 0.2-0.1zm2.7 1.6c0.1 0 0.2 0.2 0.2 0.3 0 0.2-0.1 0.3-0.2 0.2l-1.8-1.1c-0.2-0.1-0.3-0.2-0.3-0.4 0-0.1 0.1-0.2 0.3-0.1zm4.3 2.5c0.2 0.1 0.3 0.3 0.3 0.4 0 0.2-0.1 0.2-0.3 0.1l-3.6-2c-0.1-0.1-0.2-0.3-0.2-0.4 0-0.2 0.1-0.2 0.2-0.2z"/><path class="c" d="m53.9 77.7l-12.3-7.1c-0.3-0.2-0.4-0.5-0.4-0.7 0-0.3 0.1-0.4 0.4-0.3l12.3 7.1c0.2 0.2 0.4 0.5 0.4 0.8 0 0.2-0.2 0.3-0.4 0.2z"/><path class="e" d="m136.9 58.1l1.1-1.9-1.2-0.7 89.3-51.5c2.5-1.4 4.5-5 4.5-7.8v-70.5l1.1 0.6 1-1.8-3.5-2.1c-0.8-0.4-1.9-0.3-3.1 0.4l-89.5 51.7c-2.5 1.4-4.6 4.9-4.6 7.8v70.8c0 1.4 0.6 2.4 1.4 2.9z"/><path class="b" d="m140 57.7c-2.5 1.4-4.5 0.2-4.5-2.6v-70.8c0-2.9 2-6.4 4.5-7.8l89.5-51.7c2.5-1.5 4.6-0.3 4.6 2.6v70.8c0 2.8-2.1 6.3-4.6 7.8z"/><path class="f" d="m144 51.7c-2.3 1.4-4.1 0.3-4.1-2.3v-64.5c0-2.6 1.8-5.8 4.1-7.1l81.5-47.1c2.3-1.3 4.2-0.2 4.2 2.4v64.4c0 2.7-1.9 5.9-4.2 7.2z"/><path class="c" d="m181.2-18.1l-33.4 19.2c-0.9 0.5-1.6 0.1-1.6-0.9v-7.3c0-1.1 0.7-2.4 1.6-2.9l33.4-19.3c0.9-0.5 1.6-0.1 1.6 1v7.3c0 1.1-0.7 2.3-1.6 2.9z"/><path class="c" d="m181.2-2.5l-33.4 19.2c-0.9 0.5-1.6 0.1-1.6-1v-7.3c0-1 0.7-2.3 1.6-2.8l33.4-19.3c0.9-0.5 1.6-0.1 1.6 1v7.3c0 1-0.7 2.3-1.6 2.9z"/><path class="c" d="m221.7-25.9l-33.3 19.2c-1 0.6-1.7 0.1-1.7-0.9v-7.3c0-1.1 0.7-2.4 1.7-2.9l33.3-19.3c0.9-0.5 1.6-0.1 1.6 1v7.3c0 1.1-0.7 2.3-1.6 2.9z"/><path class="b" d="m180.5-7.7c0 1.7-1.2 3.8-2.7 4.6-1.4 0.9-2.6 0.2-2.6-1.5 0-1.7 1.2-3.8 2.6-4.7 1.5-0.8 2.7-0.1 2.7 1.6z"/><path class="c" d="m177.3-7.6l1.5 0.9-1.5 2.7z"/><path class="b" d="m155.9-6.5l-4.7 2.8v-5.5l4.7-2.7z"/><path class="b" d="m163.4-10.7l-4.7 2.7v-5.4l4.7-2.7z"/><path class="b" d="m170.8-15l-4.7 2.7v-5.4l4.7-2.7z"/><path class="b" d="m171.5 0.1l-19.6 11.3v-5.4l19.6-11.3z"/><path class="b" d="m190.2-7.8l2-1.1v-9.6l-2 1.2zm3.9-2.3l2-1.1v-7.3l-2 1.1zm3.9-2.3l2-1.1v-5.1l-2 1.1zm4-2.2l2-1.2v-2.9l-2 1.2zm15.8-18.7v9.6l2-1.2v-9.6zm-3.9 11.8l2.1-1.1v-7.4l-2.1 1.2zm-3.9 2.3l2-1.2v-5.1l-2 1.2zm-3.9 2.2l2-1.1v-2.9l-2 1.2z"/><path class="b" d="m221.7-41.6l-33.3 19.3c-1 0.5-1.7 0.1-1.7-1v-7.3c0-1.1 0.7-2.3 1.7-2.9l33.3-19.2c0.9-0.5 1.6-0.1 1.6 0.9v7.4c0 1-0.7 2.3-1.6 2.8z"/><path fill-rule="evenodd" class="c" d="m221.3-46.9c0 1.8-1.2 3.8-2.7 4.7-1.5 0.8-2.7 0.1-2.7-1.6 0-1.7 1.2-3.7 2.7-4.6 1.5-0.9 2.7-0.2 2.7 1.5zm-1.7 1l-1.6-0.9v3.6z"/><path class="c" d="m211.3-40.4l-19.6 11.3v-1.5l19.6-11.3z"/><path class="c" d="m243.1 27.7l-0.9-0.6q-0.3-0.1-0.6 0.1l-3.7 2.1c-0.5 0.3-1 1.1-1 1.8v4.6c0 0.6 0.5 0.9 1 0.6l6.3-3.6c0.6-0.4 1-1.2 1-1.9v-3.1c0-0.6-0.3-0.8-0.8-0.5l-0.7 0.4q-0.3 0.2-0.6 0.1z"/><path class="c" d="m245.2 34.5l-8.3 4.8v-1l8.3-4.8z"/><path class="c" d="m241.2 38.7l-4.3 2.5v-1l4.3-2.5z"/><path class="g" d="m265.1 14.9l-0.9-0.5q-0.3-0.1-0.6 0.1l-3.6 2.1c-0.6 0.3-1.1 1.1-1.1 1.8v4.6c0 0.6 0.5 0.9 1.1 0.6l6.2-3.7c0.6-0.3 1.1-1.1 1.1-1.8v-3.1c0-0.6-0.4-0.8-0.9-0.5l-0.7 0.4q-0.3 0.2-0.6 0z"/><path class="c" d="m267.3 21.8l-8.4 4.8v-1l8.4-4.8z"/><path class="c" d="m263.2 26l-4.3 2.5v-1.1l4.3-2.4z"/><path class="h" d="m254 21.3l-0.9-0.5q-0.2-0.1-0.6 0.1l-3.6 2.1c-0.6 0.3-1.1 1.1-1.1 1.8v4.6c0 0.6 0.5 0.9 1.1 0.6l6.2-3.7c0.6-0.3 1.1-1.1 1.1-1.8v-3.1c0-0.6-0.4-0.8-0.9-0.5l-0.7 0.4q-0.3 0.2-0.6 0z"/><path class="c" d="m256.2 28.2l-8.4 4.8v-1l8.4-4.8z"/><path class="c" d="m252.1 32.4l-4.3 2.5v-1.1l4.3-2.4z"/><path class="c" d="m243.1 13.6l-0.9-0.6q-0.3-0.1-0.6 0.1l-3.7 2.1c-0.5 0.3-1 1.1-1 1.8v4.6c0 0.6 0.5 0.9 1 0.6l6.3-3.6c0.6-0.4 1-1.2 1-1.8v-3.2c0-0.5-0.3-0.8-0.8-0.5l-0.7 0.4q-0.3 0.2-0.6 0.1z"/><path class="c" d="m245.2 20.4l-8.3 4.8v-1l8.3-4.8z"/><path class="c" d="m241.2 24.7l-4.3 2.4v-1l4.3-2.5z"/><path class="c" d="m265.1 0.9l-0.9-0.6q-0.3-0.1-0.6 0.1l-3.6 2.1c-0.6 0.3-1.1 1.1-1.1 1.8v4.6c0 0.6 0.5 0.9 1.1 0.6l6.2-3.6c0.6-0.4 1.1-1.2 1.1-1.9v-3.1c0-0.6-0.4-0.8-0.9-0.5l-0.7 0.4q-0.3 0.2-0.6 0.1z"/><path class="c" d="m267.3 7.7l-8.4 4.8v-1l8.4-4.8z"/><path class="c" d="m263.2 11.9l-4.3 2.5v-1l4.3-2.5z"/><path class="c" d="m254 7.3l-0.9-0.6q-0.2-0.1-0.6 0.1l-3.6 2.1c-0.6 0.3-1.1 1.1-1.1 1.8v4.6c0 0.6 0.5 0.9 1.1 0.6l6.2-3.6c0.6-0.4 1.1-1.2 1.1-1.9v-3.1c0-0.6-0.4-0.8-0.9-0.5l-0.7 0.4q-0.3 0.2-0.6 0.1z"/><path class="c" d="m256.2 14.1l-8.4 4.8v-1l8.4-4.8z"/><path class="c" d="m252.1 18.3l-4.3 2.5v-1l4.3-2.5z"/><path class="i" d="m243.1-0.5l-0.9-0.6q-0.3-0.1-0.6 0.1l-3.7 2.1c-0.5 0.3-1 1.1-1 1.8v4.6c0 0.6 0.5 0.9 1 0.6l6.3-3.6c0.6-0.4 1-1.2 1-1.8v-3.2c0-0.5-0.3-0.8-0.8-0.5l-0.7 0.4q-0.3 0.2-0.6 0.1z"/><path class="c" d="m245.2 6.3l-8.3 4.9v-1.1l8.3-4.8z"/><path class="c" d="m241.2 10.6l-4.3 2.4v-1l4.3-2.5z"/><path class="j" d="m265.1-13.2l-0.9-0.6q-0.3-0.1-0.6 0.1l-3.6 2.1c-0.6 0.3-1.1 1.1-1.1 1.8v4.6c0 0.6 0.5 0.9 1.1 0.6l6.2-3.6c0.6-0.4 1.1-1.2 1.1-1.8v-3.2c0-0.5-0.4-0.8-0.9-0.5l-0.7 0.4q-0.3 0.2-0.6 0.1z"/><path class="c" d="m267.3-6.4l-8.4 4.8v-1l8.4-4.8z"/><path class="c" d="m263.2-2.1l-4.3 2.4v-1l4.3-2.5z"/><path class="c" d="m254-6.8l-0.9-0.6q-0.2-0.1-0.6 0.1l-3.6 2.1c-0.6 0.3-1.1 1.1-1.1 1.8v4.6c0 0.6 0.5 0.9 1.1 0.6l6.2-3.6c0.6-0.4 1.1-1.2 1.1-1.8v-3.2c0-0.5-0.4-0.8-0.9-0.5l-0.7 0.4q-0.3 0.2-0.6 0.1z"/><path class="c" d="m256.2 0l-8.4 4.8v-1l8.4-4.8z"/><path class="c" d="m252.1 4.3l-4.3 2.4v-1l4.3-2.5z"/><path fill-rule="evenodd" class="b" d="m-21.4-158.3c0 7.2-5 10.1-11.2 6.5-6.2-3.6-11.3-12.3-11.3-19.5 0-7.2 5.1-10.1 11.3-6.5 6.2 3.6 11.2 12.3 11.2 19.5zm-2.2-1.3c0-5.7-4-12.7-9-15.6-5-2.9-9-0.5-9 5.2 0 5.7 4 12.7 9 15.6 5 2.9 9 0.5 9-5.2z"/><path fill-rule="evenodd" class="b" d="m5.7-142.7c0 7.2-5.1 10.1-11.3 6.5-6.2-3.6-11.3-12.3-11.3-19.5 0-7.2 5.1-10.1 11.3-6.5 6.2 3.6 11.3 12.3 11.3 19.5zm-2.3-1.3c0-5.7-4-12.7-9-15.6-5-2.9-9-0.5-9 5.2 0 5.7 4 12.7 9 15.6 5 2.9 9 0.5 9-5.2z"/><path fill-rule="evenodd" class="b" d="m32.7-127.1c0 7.2-5.1 10.1-11.3 6.5-6.2-3.6-11.2-12.3-11.2-19.5 0-7.2 5-10.1 11.2-6.5 6.2 3.6 11.3 12.3 11.3 19.5zm-2.3-1.3c0-5.7-4-12.7-9-15.6-4.9-2.9-9-0.5-9 5.2 0 5.7 4.1 12.7 9 15.6 5 2.8 9 0.5 9-5.2z"/><path class="k" d="m-32.6-151.8c6.2 3.6 11.2 0.7 11.2-6.5 0-7.2-5-15.9-11.2-19.5v2.6c5 2.9 9 9.9 9 15.6 0 5.7-4 8.1-9 5.2-5-2.9-9-9.9-9-15.6l-2.3-1.3c0 7.2 5.1 15.9 11.3 19.5z"/><path class="l" d="m30.4-128.4c0 5.7-4 8-9 5.2v2.6c6.2 3.6 11.3 0.7 11.3-6.5 0-7.2-5.1-15.9-11.3-19.5v2.6c5 2.9 9 9.9 9 15.6z"/><path class="m" d="m-5.6-162.2v2.6c5 2.9 9 9.9 9 15.6l2.3 1.3c0-7.2-5.1-15.9-11.3-19.5z"/><path class="b" d="m-30-164.5l-5.2-3c-0.6-0.4-1.1-1.3-1.1-2 0-0.7 0.5-1 1.1-0.6l5.2 3c0.6 0.3 1.1 1.2 1.1 1.9 0 0.8-0.5 1-1.1 0.7z"/><path class="n" d="m-30.5-158.8c0 1.3-1 1.9-2.1 1.2-1.2-0.7-2.1-2.3-2.1-3.6 0-1.4 0.9-1.9 2.1-1.3 1.1 0.7 2.1 2.3 2.1 3.7z"/><path class="b" d="m-3-148.9l-5.2-3c-0.6-0.4-1.1-1.3-1.1-2 0-0.7 0.5-1 1.1-0.6l5.2 3c0.6 0.3 1.1 1.2 1.1 1.9 0 0.8-0.5 1-1.1 0.7z"/><path class="o" d="m-3.5-143.2c0 1.3-0.9 1.9-2.1 1.2-1.2-0.7-2.1-2.3-2.1-3.6 0-1.4 0.9-1.9 2.1-1.3 1.2 0.7 2.1 2.3 2.1 3.7z"/><path class="b" d="m24-133.3l-5.2-3c-0.6-0.4-1.1-1.3-1.1-2 0-0.7 0.5-1 1.1-0.6l5.2 3c0.6 0.3 1.2 1.2 1.2 1.9 0 0.8-0.6 1-1.2 0.7z"/><path class="p" d="m23.5-127.6c0 1.3-0.9 1.9-2.1 1.2-1.1-0.7-2.1-2.3-2.1-3.6 0-1.4 1-1.9 2.1-1.3 1.2 0.7 2.1 2.3 2.1 3.7z"/><path class="q" d="m222.5 25.3c0.5 0.2 0.8 0.5 1.1 0.8q0.5 0.5 0.8 1 0.3 0.5 0.4 1c0.1 0.3 0.2 0.7 0.3 1q0.4 2.1 0.5 4.2c0.1 1.4 0.1 2.9 0.2 4.3q0 2.2 0.2 4.3l0.1 0.4v0.1q-0.5 3.4-0.9 6.8-0.2 1.7-0.4 3.4-0.2 1.7-0.4 3.4l-2.2-0.1q0-1.7 0-3.5 0-1.7 0-3.4 0-3.4-0.1-6.9l0.1 0.5q-0.6-2-1.4-4c-0.4-1.4-1-2.7-1.4-4.1q-0.7-2-1.1-4.1c0-0.4-0.1-0.7-0.1-1.1q-0.1-0.5 0-1.1 0.1-0.5 0.4-1.1c0.1-0.4 0.4-0.8 0.7-1.2z"/><path class="r" d="m221.3 7.9c0.4 0.2 0.8 0.5 1.2 0.9q0.5 0.5 0.9 1.1 0.9 1.2 1.6 2.4 0.8 1.2 1.6 2.5 0.7 1.3 1.4 2.6c0.1 0.4 0 0.9-0.4 1-0.4 0.2-0.7 0.1-1-0.1q-1-1.1-1.9-2.3-0.9-1.1-1.7-2.3-0.8-1.2-1.6-2.4-0.4-0.6-0.7-1.3c-0.2-0.4-0.4-0.9-0.5-1.4 0-0.4 0.3-0.8 0.6-0.8q0.3 0 0.5 0.1z"/><path class="s" d="m225.2 12.1q-0.8-1.1-1.6-2.2-0.5-0.6-1-1.1c-0.4-0.4-0.8-0.7-1.3-0.9q-0.2-0.1-0.5-0.1c-0.4 0-0.6 0.4-0.6 0.8 0.1 0.5 0.3 1 0.4 1.4q0.4 0.7 0.8 1.3 0.8 1.2 1.7 2.4c1-0.1 1.8-0.8 2.1-1.6z"/><path class="q" d="m224.1 26.4c-0.3-2.4-2.9-2.3-4.2-2.1-1.4 0.1-4.7 0.9-6 1.5-1.7 0.8-2.1 3.2-1.6 5 0.5 1.4 0.9 2.8 1.1 4.2q0 0.1 0 0.2c0.5 2.6 1.1 5.2 1.4 7.8l0.2 1q0 0.4 0 0.9l0.1 2q0.1 1.9 0.2 3.9c0.1 2.5 0.2 5.1 0.1 7.7l2.3 0.1c0.1-2.6 0.3-5.2 0.6-7.8q0.2-2 0.4-3.9l0.3-2q0-0.5 0.1-1v-0.9c0.2-2.7 0.6-5.3 0.8-7.9q0.2-1.6 0.3-3.3c2.2-1.2 4.1-3.2 3.9-5.4z"/><path class="s" d="m223.9 23.4c-0.8-2.7-0.9-5.1-1-7.8 0.7-0.7 1.4-2.3 0.6-3.1-1-1-2.3-3.3-2.5-4.7-1.5-1-5.2-1.3-7.1 1.7-0.4 1-0.2 2.2 0.2 7.1 0.2 4.4-1.4 7.2-1.4 10.2 0.6 1.5 2.9 2.7 5 2 1.2-0.4 6.2-1.5 6.4-2.4 0.1-1 0.1-2.1-0.2-3z"/><path class="r" d="m216.8 10.9c1.5 0.4 3.6-0.3 4-0.9 0.4-0.5-0.7-2.2-0.8-2.3-1.3-0.7-3.8-0.4-4.3 1.2-0.1 0.5 0.6 1.9 1.1 2z"/><path class="r" d="m217.1 7.2c-0.1 0.1-0.1 0.3-0.1 0.5 0.1 0.4 0.4 0.6 0.7 0.8 0.3 0.2 0.7 0.4 1 0.2 0.4-0.2 0.4-0.8 0.4-1.2q0-0.7 0.1-1.4c0-0.3 0-0.6-0.1-0.9-0.3-0.5-1.1-0.9-1.5-0.5-0.2 0.2-0.2 0.7-0.2 1q-0.2 0.7-0.3 1.5z"/><path class="r" d="m214.5 9.6c1.1 2.6 0.6 6.4-0.2 9.7 0.3-0.2 0.4-0.4 0.7-0.7 0.5-0.5 1.5-2.8 2.3-3 2.2-0.5 0 3.3-0.3 3.7-1 1.5-2.3 3.1-3.8 4-3.4 2.2-2.3-3.3-2.1-5.1 0.3-1.9 0.5-3.8 1.1-5.6 0.1-0.6 1.6-4.4 2.3-3z"/><path class="s" d="m214.8 17.7c0.6-3 0.7-6-0.3-8.2-0.7-1.5-2.3 2.6-2.5 3.1-0.4 1.6-0.7 3.2-0.9 4.7 0.1 0.2 0.3 0.4 0.4 0.5 1.1 0.8 2.4 0.6 3.3-0.1z"/><path class="r" d="m216.8 4.8c-1.4-1.1-1.5-4-0.2-5.2 1.2-1.1 3.8-0.8 4.8 1.2 0.8 1.4 0.4 5.4-1.3 6-1 0.3-3.1-1.1-3.3-2z"/><path class="t" d="m215.5 58.4c-0.1 0.2 0 0.5 0 0.7 0.3 0.9 0.9 1.8 1.5 2.4 0.4 0.4 0.8 0.7 1.2 0.7 0.2 0.1 0.5 0 0.6-0.2 0.1-0.1 0.1-0.3 0-0.4q-0.3-1.2-0.7-2.4c-0.1-0.4-0.3-0.9-0.7-1.2-0.3-0.2-0.8-0.3-1.1-0.2-0.3 0.1-0.7 0.2-0.8 0.6z"/><path class="u" d="m222.2 57.1c0.2 0.2 1 0.4 1.4 0.4q1.7 0.3 3.5 0.4c0.1 0 0.3 0 0.4-0.1 0-0.2-0.1-0.3-0.3-0.4-0.5-0.3-0.8-0.6-1.3-0.9-0.7-0.4-1-0.8-1.8-1-0.2 0-1.7-0.2-1.8-0.2-0.3 0.1-0.4 1.5-0.1 1.8z"/><path class="r" d="m216.9 14.1c0.3-0.6 1-1 1.6-0.7 0.4 0.2 0.6 0.5 0.7 0.8 0.1 0.4 0.1 0.8 0.2 1.2 0 0.2 0 0.4-0.1 0.5-0.1 0.2-0.4 0.3-0.5 0.1-0.1-0.1-0.1-0.2-0.3-0.3-0.1-0.1-0.3 0.2-0.3 0.3 0 0.2 0.1 0.4 0 0.6-0.2 0.8-1.2-0.1-1.4-0.5-0.2-0.6-0.2-1.4 0.1-2z"/><path class="r" d="m226.1 17.3c1.8-1.6 3.6-3.2 4.6-4.8 0.4-0.5 1.1-0.5 1 0.4-0.1 0.8-2.1 4.5-3.2 5.1-0.7 0.5-2.3 1.1-2.4-0.7z"/><path class="r" d="m231.3 10.5c-0.1 0.1-0.2 0.4-0.3 0.6q-0.2 0.6-0.4 1.3c0 0.1-0.1 0.3 0 0.4 0 0.3 0.3 0.4 0.6 0.4 0.5 0.1 1-0.3 1.3-0.8 0.3-0.4 0.3-1 0.4-1.5 0-0.3 0-0.5 0-0.7-0.3-0.7-1.3-0.1-1.6 0.3z"/><path class="v" d="m222.5 1.8c0.6 0.1 1.1-0.6 1.5-1 0.3-0.5 0.6-1 0.8-1.6-0.3 0.4-0.8 0.6-1.4 0.6-0.5 0-1-0.2-1.4-0.5-0.4-0.4-0.6-0.9-1-1.3-0.5-0.5-1.2-0.7-2-0.6-0.7 0.2-1.3 0.5-1.9 1q0 0 0 0c-0.4 0.3-1 0.5-1.6 0.5q0 0 0 0c-1 0-2 0.6-2.4 1.4-0.4 1-0.2 2.1 0.1 3.1 0.4 1 0.8 2 0.8 3.1 0 1.1-0.5 2.1-1.4 2.8 2.6 1.4 6-1.2 5.3-7.1z"/><path class="q" d="m17.9 108.3c0.4-1.2 4.5-1.9 5.3-1.2 0.9 0.6-2.5 2.9-4 2.9-1.2 0.1-1.7-0.8-1.3-1.7z"/><path class="q" d="m7.3 103.4c-0.1-1.2 3.3-3.6 4.3-3.4 1 0.3-1 3.7-2.4 4.4-1 0.6-1.9-0.1-1.9-1z"/><path class="s" d="m14.8 69.9c-1.5 10.4-3.3 22.4-4.9 32.8-0.1 0.6-2.7 1-2.7-0.2-0.1-4 0.5-9.8 0.7-14 0.3-5.6 0.3-13.5 0.4-19.1q3.2 0.3 6.5 0.5z"/><path class="r" d="m17.2 40.8c-1.8-1.8-4.6-1.3-5.5 0.3-0.7 1.2-0.4 3 0.5 4.2 0.6 0.9 0.9 2 0.8 3q0 0.3-0.1 0.5c0 0.2 0 0.4 0 0.6 0.1 0.4 0.5 0.7 0.8 0.9 0.4 0.2 0.8 0.4 1.2 0.1 0.3-0.3 0.4-0.9 0.3-1.4 0-0.7 0.6-1.2 1.3-1.2 0.5 0.1 1 0 1.3-0.2 1.6-1.2 0.7-5.6-0.6-6.8z"/><path class="q" d="m11.7 50.2c0 0.6-0.1 1.1-0.2 1.7q-0.2 0.7-0.6 1.4-0.7 1.4-1.6 2.7c-0.6 0.8-1.2 1.6-1.9 2.5l-0.9 1.2q-0.4 0.5-0.6 1c-0.3 0.8-0.5 1.6-0.5 2.4v3.1l0.1 6.2c0 0.5-0.3 0.8-0.7 0.8-0.4 0-0.7-0.3-0.8-0.6l-1-6.1-0.5-3.1c-0.1-1.2-0.1-2.5 0.3-3.7q0.2-0.9 0.6-1.8 0.4-0.7 0.7-1.4c0.4-1 0.8-1.9 1.3-2.9q0.7-1.3 1.5-2.6 0.4-0.7 1-1.3c0.4-0.3 0.8-0.7 1.4-0.9 0.8-0.4 1.8-0.1 2.2 0.8q0.2 0.3 0.2 0.6z"/><path class="s" d="m20.5 92.7c-0.1-7.1-0.4-14.3-0.7-21.5-0.2-3.8-9.4-4-11.2-1.9-0.8 0.9-1 3.7-0.6 4.7 0.5 1 1.7 1.7 3.2 2.2 1.8 0.7 3.1 2.3 3.4 4.2q0.8 4.7 1.5 9.4c0.6 4.4 1.3 17.1 1.8 18.2 0.2 0.7 1.7 1 2.5-0.3 0.2-0.5 0.2-12.4 0.1-15z"/><path class="q" d="m19.6 53.9c0.1-1.5-0.7-2.9-2-3.7-2.7-1.5-6.3-2.7-7.5-1.8-0.8 0.5-2.7 2.8-2.7 5.5 0 4.5 0 8.3 0.5 13.5 0.1 1 0 2.3 0.6 3.1 0.6 0.7 5.5 2.2 6.9 2.3 3 0.2 4.3-1.2 4.3-2.5 0.1-1.2-0.5-10.8-0.1-16.4z"/><path class="s" d="m18.4 38.6c-0.6 0.4-1.4 0.4-2.2 0.3-0.7-0.1-1.4-0.4-2.1-0.4-1.8 0.1-2.8 0.8-2.7 2.6-0.9 0.6-0.7 2.3-0.4 3.3 0.6 1.8 2.7 4.4 4.2 2.1l0.1-0.1c0.3-0.4 0.3-0.9 0.2-1.4q-0.1-0.2-0.1-0.4c0-0.3 0.1-0.6 0.4-0.6 0.1-0.1 0.3 0 0.4 0.1q0 0.1 0.1 0.2c0.1-0.5 0.3-0.9 0.7-1.2 0.6-0.4 1.1-1 1.3-1.6 0.4-0.9 0.4-2 0.1-2.9z"/><path class="r" d="m15.8 50.9c0.6-0.2 1.1-0.3 1.7-0.3q0.8 0 1.5 0.2 1.5 0.4 3 0.9c1 0.4 1.9 0.8 2.9 1.2l1.4 0.6q0.6 0.2 1.2 0.3c0.8 0.1 1.6 0.1 2.4-0.1l3-0.9 6-1.6c0.4-0.1 0.8 0.1 0.9 0.5 0.1 0.4-0.1 0.7-0.4 0.9l-5.7 2.5-2.8 1.3c-1.2 0.4-2.4 0.7-3.7 0.7q-0.9 0-1.9-0.2-0.7-0.1-1.5-0.3c-1-0.1-2.1-0.3-3.1-0.5q-1.5-0.3-3-0.8-0.7-0.2-1.4-0.7c-0.4-0.2-0.9-0.6-1.3-1-0.6-0.8-0.5-1.8 0.2-2.4q0.3-0.2 0.6-0.3z"/><path class="q" d="m31 56.7c-2.9 1.2-6 0.5-9 0-2.2-0.4-10.2-2.7-8.4-4.6 2.3-2.4 5.7-1.6 7.4-1.1 1.8 0.6 3.6 1.5 5.4 2.2 1.9 0.6 3.6 0.1 5.4-0.4 0.8-0.2 3.3-1.1 4.1-1 0.8 0.1 1.3 1.2 1 2.3-0.1 0.3-4.5 1.9-5.9 2.6z"/><path class="r" d="m40.2 52.8c0.2-0.2 0.5-0.3 0.7-0.1 0.2 0.1 0.1 0.4 0.3 0.5 0.1 0.2 0.4 0.1 0.5-0.1 0.2-0.2 0.2-0.4 0.2-0.7q-0.1-0.5-0.1-1c-0.1-0.3-0.2-0.7-0.5-0.9-0.2-0.2-0.5-0.3-0.8-0.3q-0.8-0.1-1.6 0.1-0.3 0-0.7 0.2c-0.5 0.4-0.9 1.5-0.5 2.1 0.6 0.9 1.8 0.6 2.5 0.2z"/><path class="r" d="m6.3 75.2c-0.1 0.3-0.1 0.6 0.1 0.7 0.2 0.1 0.4 0 0.6 0.1 0.2 0.1 0.2 0.4 0.1 0.6-0.2 0.2-0.4 0.2-0.6 0.3q-0.5 0.1-1 0.2c-0.4 0-0.8 0-1.1-0.2-0.2-0.1-0.4-0.4-0.5-0.7q-0.3-0.7-0.3-1.5-0.1-0.4 0-0.7c0.2-0.7 1.1-1.3 1.8-1.1 1 0.3 1.1 1.5 0.9 2.3z"/></svg>