<?xml version="1.0" encoding="UTF-8"?>
<svg xmlns="http://www.w3.org/2000/svg" width="151" height="168" viewBox="0 0 151 168" fill="none">
  <path d="M75.5377 167.505C67.0733 167.505 59.1044 165.596 53.0998 162.129C48.025 159.199 44.841 155.457 43.8929 151.305C43.7125 150.513 41.1377 132.312 40.8443 130.24L42.1927 130.049C43.3375 138.147 45.0881 150.41 45.2201 151.002C46.0818 154.774 49.0419 158.214 53.7805 160.951C59.5815 164.299 67.3088 166.144 75.5377 166.144C83.7679 166.144 91.4952 164.299 97.2962 160.951C102.154 158.146 105.224 154.465 105.942 150.586C106.034 150.09 107.905 136.936 108.882 130.05L110.23 130.242C110.115 131.056 107.401 150.186 107.281 150.834C106.478 155.173 103.261 159.079 97.9768 162.129C91.9723 165.596 84.0034 167.505 75.5377 167.505Z" fill="#141414"></path>
  <path d="M75.5142 141.817C65.1733 141.817 54.8311 139.544 46.9588 134.998C39.2023 130.52 34.9307 124.525 34.9307 118.119V107.407H36.2919V118.119C36.2919 124.018 40.322 129.594 47.6395 133.819C63.0103 142.694 88.0202 142.694 103.391 133.819C110.709 129.595 114.739 124.018 114.739 118.119V106.817H116.1V118.119C116.1 124.525 111.828 130.52 104.072 134.998C96.1987 139.544 85.8565 141.817 75.5142 141.817Z" fill="#141414"></path>
  <path d="M75.5142 85.0306C65.4197 85.0306 55.3245 87.2495 47.6395 91.6872C40.322 95.9113 36.2919 101.488 36.2919 107.388C36.2919 113.289 40.322 118.865 47.6395 123.089C63.0103 131.964 88.0202 131.964 103.391 123.089C110.709 118.865 114.739 113.289 114.739 107.388C114.739 101.488 110.709 95.9113 103.391 91.6872C95.7059 87.2495 85.6101 85.0306 75.5142 85.0306ZM75.5142 131.086C65.1733 131.086 54.8311 128.814 46.9588 124.269C39.2023 119.79 34.9307 113.795 34.9307 107.388C34.9307 100.981 39.2023 94.9863 46.9588 90.5084C62.704 81.4171 88.3251 81.4171 104.072 90.5084C111.828 94.9863 116.1 100.981 116.1 107.388C116.1 113.795 111.828 119.79 104.072 124.269C96.1987 128.814 85.8565 131.086 75.5142 131.086Z" fill="#141414"></path>
  <path d="M75.628 88.2679C66.6518 88.2679 57.6749 90.1547 50.8407 93.9274C44.2889 97.5443 40.6801 102.331 40.6801 107.405C40.6801 112.478 44.2889 117.265 50.8407 120.882C64.5092 128.428 86.7489 128.428 100.417 120.882C106.969 117.265 110.577 112.478 110.577 107.405C110.577 102.331 106.969 97.5443 100.417 93.9274C93.5832 90.1547 84.6063 88.2679 75.628 88.2679ZM75.6294 127.212C66.5327 127.212 57.4367 125.301 50.5112 121.477C43.7328 117.736 39.9995 112.737 39.9995 107.405C39.9995 102.071 43.7328 97.0733 50.5112 93.3319C64.3615 85.6849 86.8973 85.6863 100.746 93.3319C107.525 97.0733 111.258 102.071 111.258 107.405C111.258 112.737 107.525 117.736 100.746 121.477C93.8214 125.301 84.7254 127.212 75.6294 127.212Z" fill="#141414"></path>
  <path d="M109.539 112.047C108.071 108.594 104.874 105.433 100.293 102.904C86.6252 95.3582 64.3848 95.3575 50.7163 102.904C46.1349 105.432 42.9373 108.594 41.4705 112.047L40.8443 111.781C42.371 108.187 45.6714 104.911 50.3868 102.308C64.2371 94.6613 86.7722 94.6619 100.622 102.308C105.338 104.911 108.638 108.187 110.165 111.781L109.539 112.047Z" fill="#141414"></path>
  <path d="M73.9687 111.981C73.6073 106.629 73.2942 102.009 73.7066 97.4626C74.245 91.5043 73.7515 85.9272 72.1201 80.2357C71.8322 80.1935 71.5449 80.1466 71.257 80.0996C72.9436 85.821 73.4636 91.4125 72.9219 97.3918C72.5046 101.999 72.8191 106.649 73.1825 112.034C73.3731 114.846 73.5787 119.335 73.6862 123.72C73.9482 123.73 74.211 123.737 74.4737 123.742C74.3682 119.329 74.1599 114.811 73.9687 111.981Z" fill="#141414"></path>
  <path d="M78.8051 118.417C78.7989 109.636 78.7942 101.343 80.2528 94.7377L79.4837 94.5669C78.006 101.258 78.0115 109.593 78.0169 118.418C78.0176 119.522 78.0176 121.5 78.0155 123.704C78.2789 123.692 78.5417 123.682 78.8037 123.667C78.8057 121.477 78.8058 119.516 78.8051 118.417Z" fill="#141414"></path>
  <path d="M65.346 108.11C63.9956 103.49 60.5462 98.4387 57.322 96.3621L56.8952 97.0243C59.9785 99.0104 63.2864 103.871 64.5891 108.331C65.9654 113.037 66.2499 118.102 66.465 123.042C66.7284 123.088 66.9945 123.124 67.2593 123.166C67.0421 118.129 66.7624 112.956 65.346 108.11Z" fill="#141414"></path>
  <path d="M59.7495 113.909C57.6497 109.834 54.5317 106.29 51.5172 102.863C50.8617 102.119 50.2097 101.377 49.5699 100.633C48.5864 99.4879 47.187 97.2425 45.5671 94.6432C42.4702 89.6725 38.6151 83.4862 35.3596 81.3667L34.9301 82.0276C38.0386 84.0511 41.8426 90.1557 44.898 95.0604C46.5356 97.687 47.9493 99.9562 48.9723 101.146C49.6141 101.892 50.2689 102.637 50.925 103.383C53.9089 106.775 56.9943 110.281 59.0484 114.27C60.1592 116.426 60.7044 118.859 61.0155 121.698C61.2857 121.781 61.5627 121.851 61.8356 121.928C61.5218 118.865 60.9556 116.251 59.7495 113.909Z" fill="#141414"></path>
  <path d="M127.255 56.3018L126.895 55.6001C101.235 68.8031 92.6764 101.276 89.8429 121.668C90.1267 121.58 90.399 121.476 90.6787 121.383C93.5428 101.127 102.065 69.2632 127.255 56.3018Z" fill="#141414"></path>
  <path d="M108.03 96.9869L107.735 96.2566C101.317 98.8382 97.0219 106.825 94.9113 119.999C95.206 119.865 95.4966 119.726 95.7852 119.585C97.889 107.15 102.06 99.3882 108.03 96.9869Z" fill="#141414"></path>
  <path fill-rule="evenodd" clip-rule="evenodd" d="M59.8902 97.998C59.4328 96.7307 58.388 95.7431 57.0765 95.4341C51.0896 94.0225 44.1076 94.4118 38.0282 96.0405C34.3888 97.0145 31.5479 100.51 29.9069 103.898C28.6518 106.492 28.8757 109.924 29.6387 112.348C29.2793 109.578 37.0481 106.798 38.2896 107.435C40.7187 108.682 43.5679 105.27 46.2795 105.601C48.2377 105.841 49.1675 108.758 51.1257 109.007C53.3343 109.288 55.705 108.993 57.819 108.177C59.7405 107.436 61.2916 105.13 61.2099 103.072C61.1398 101.324 60.4912 99.6649 59.8902 97.998Z" fill="#117BDF"></path>
  <path d="M48.6494 94.9299C45.025 94.9299 41.2406 95.4199 37.6183 96.3905C34.6072 97.1964 31.6525 100.067 29.7161 104.068C28.6714 106.226 28.719 108.937 29.1471 111.027C29.4663 110.503 29.9959 109.976 30.7262 109.463C32.9907 107.87 36.905 106.618 37.9477 107.153C39.1266 107.76 40.4831 107.093 41.9199 106.388C43.1873 105.766 44.4988 105.123 45.8234 105.285C46.9287 105.421 47.7067 106.272 48.4595 107.096C49.1578 107.86 49.8173 108.583 50.6708 108.691C52.8189 108.965 55.1372 108.677 57.1988 107.881C58.9943 107.187 60.4475 105.001 60.3719 103.106C60.3093 101.544 59.7498 100.003 59.2094 98.5128L59.0726 98.135C58.6424 96.9419 57.6807 96.0645 56.5005 95.7868C54.0713 95.2137 51.4066 94.9299 48.6494 94.9299ZM29.1403 112.709C28.9953 112.709 28.8619 112.615 28.8163 112.471C28.0683 110.097 27.7511 106.565 29.1029 103.772C30.0741 101.766 32.83 96.9677 37.442 95.7331C43.9271 93.9961 50.9308 93.7742 56.6563 95.1239C58.0619 95.4547 59.204 96.494 59.7124 97.9043L59.8492 98.28C60.4073 99.8196 60.9852 101.41 61.0519 103.079C61.1397 105.275 59.5211 107.714 57.4438 108.515C55.2781 109.352 52.8421 109.653 50.5851 109.366C49.4831 109.226 48.7072 108.376 47.9565 107.554C47.2568 106.789 46.5959 106.065 45.741 105.96C44.6145 105.826 43.3976 106.421 42.2201 106.998C40.6954 107.747 39.1191 108.52 37.6367 107.76C37.0398 107.452 33.4977 108.345 31.1176 110.02C30.3069 110.59 29.3649 111.452 29.4786 112.325C29.501 112.5 29.3867 112.663 29.2145 112.701C29.19 112.707 29.1648 112.709 29.1403 112.709Z" fill="#117BDF"></path>
  <path fill-rule="evenodd" clip-rule="evenodd" d="M57.341 81.9434C50.894 81.0157 45.0589 83.4538 39.413 85.4766C34.3722 84.0228 28.5372 82.3947 23.5903 80.6482C12.1904 76.6249 8.57209 67.8182 0.292847 63.4485C7.83701 62.4848 12.1543 66.7932 18.1398 67.6399C22.2433 68.2205 25.7622 64.7758 29.8283 65.0861C33.9373 65.4006 37.4773 67.6235 40.9554 69.8329C45.1467 72.4955 47.0586 76.1009 51.6978 77.8739C53.0135 78.3769 55.9191 79.5775 57.341 81.9434Z" fill="#117BDF"></path>
  <path d="M1.74937 63.7062C4.80814 65.5153 7.22304 67.8982 9.76589 70.4063C13.5713 74.1607 17.5068 78.0437 24.0436 80.3504C28.3561 81.8723 33.4289 83.3296 37.904 84.6139L39.7404 85.1421C40.2025 84.9767 40.6661 84.8079 41.1302 84.6391C46.1363 82.8184 51.3057 80.9385 56.9714 81.5354C55.4331 79.5588 52.8263 78.5624 51.9156 78.2139C49.127 77.148 47.3342 75.4655 45.436 73.6843C44.1468 72.4741 42.8141 71.2238 41.1126 70.1423C37.7196 67.9874 34.2109 65.7603 30.1421 65.4493C28.2581 65.305 26.5095 65.9951 24.6596 66.7261C22.685 67.5061 20.6431 68.312 18.4317 68.0003C16.0795 67.6668 13.947 66.7956 11.884 65.953C8.87086 64.721 5.76376 63.4489 1.74937 63.7062ZM39.7526 85.8397C39.7207 85.8397 39.6887 85.8357 39.658 85.8261L37.7162 85.2687C33.2315 83.9802 28.1492 82.5216 23.8169 80.9922C17.1372 78.6345 13.1466 74.6978 9.28741 70.891C6.52199 68.163 3.90971 65.5854 0.473864 63.7729C0.342502 63.7034 0.271714 63.5571 0.297578 63.4108C0.324123 63.2651 0.442554 63.1528 0.589571 63.1344C5.30978 62.5321 8.78306 63.9498 12.142 65.322C14.2588 66.1878 16.2585 67.0052 18.527 67.3265C20.5581 67.6144 22.4298 66.8752 24.4098 66.0932C26.2495 65.3662 28.1539 64.6155 30.1945 64.77C34.4321 65.0947 38.0136 67.3687 41.4774 69.5685C43.2327 70.6833 44.5892 71.9568 45.9015 73.1881C47.7501 74.9217 49.4953 76.5606 52.1593 77.5789C53.2129 77.9818 56.42 79.2083 57.9726 81.7913C58.0399 81.9036 58.0365 82.0452 57.9637 82.1548C57.8916 82.2644 57.7629 82.3222 57.6322 82.3032C51.838 81.4673 46.512 83.4058 41.363 85.2782C40.8628 85.4599 40.3639 85.6417 39.867 85.82C39.8302 85.8336 39.7914 85.8397 39.7526 85.8397Z" fill="#117BDF"></path>
  <path fill-rule="evenodd" clip-rule="evenodd" d="M79.7001 94.1531C78.0107 94.9828 74.76 94.827 72.9461 95.8908C73.2191 93.5344 74.6716 88.4678 76.9959 85.8215C79.4687 84.1151 84.2406 82.3312 90.3616 82.5197C92.3041 82.5789 94.5168 82.9002 96.1633 81.2612C96.2082 84.3289 95.7413 88.331 94.8313 92.1214C94.1561 94.9338 91.8569 99.4131 89.8211 101.386C85.2132 103.538 78.072 104.452 75.5816 103.191C77.6616 100.839 78.7969 96.308 79.7001 94.1531Z" fill="#117BDF"></path>
  <path d="M75.6325 103.079C78.3238 104.022 84.8368 103.109 89.1207 101.124C91.1469 99.1307 93.3604 94.7147 93.9968 92.0657C94.8033 88.7033 95.2866 85.0095 95.3199 82.0161C93.8538 83.0609 92.0937 82.9819 90.5174 82.9098C90.2914 82.8996 90.0675 82.8893 89.8469 82.8825C83.9009 82.6933 79.1759 84.4201 76.7202 86.1006C74.6912 88.4352 73.3007 92.7232 72.8692 95.3252C73.8221 94.9325 74.9839 94.7508 76.1138 94.5738C77.2463 94.3968 78.3156 94.2294 79.0466 93.8707C79.1739 93.8081 79.327 93.8312 79.4298 93.9286C79.5333 94.0252 79.5653 94.177 79.5101 94.3077C79.2807 94.8563 79.0378 95.5539 78.7567 96.3612C77.9909 98.5637 77.049 101.271 75.6325 103.079ZM78.5566 104.127C77.0312 104.127 75.7455 103.934 74.924 103.518C74.8301 103.47 74.7634 103.381 74.7436 103.278C74.7232 103.174 74.7525 103.067 74.8226 102.989C76.3193 101.296 77.3151 98.4357 78.1141 96.1372C78.2877 95.6383 78.447 95.1803 78.5988 94.7705C77.8984 94.9842 77.0755 95.1122 76.2193 95.2463C74.9015 95.4525 73.5382 95.6655 72.6146 96.2073C72.503 96.2727 72.3648 96.2693 72.2566 96.1992C72.1484 96.1291 72.0892 96.0031 72.1041 95.8745C72.4036 93.2963 73.9228 88.2534 76.2363 85.6194C76.2546 85.599 76.2751 85.5799 76.2982 85.5642C78.8336 83.8157 83.7321 82.0181 89.8674 82.2019C90.0913 82.2094 90.3186 82.2196 90.548 82.2298C92.2768 82.3081 94.0669 82.3898 95.4193 81.0435C95.5159 80.9468 95.6609 80.9182 95.7875 80.9693C95.9141 81.021 95.9978 81.1435 95.9999 81.2796C96.0461 84.4405 95.5445 88.5325 94.659 92.2243C93.9961 94.9822 91.6724 99.6003 89.5542 101.653C89.5263 101.68 89.495 101.701 89.461 101.717C86.2191 103.231 81.8359 104.127 78.5566 104.127Z" fill="#117BDF"></path>
  <path fill-rule="evenodd" clip-rule="evenodd" d="M150.568 38.9171C146.401 39.1444 142.079 38.4563 138.066 39.5991C132.589 41.1571 128.005 45.0612 122.608 46.8737C117.55 48.5719 111.469 47.2664 106.922 50.0557C100.983 53.7005 96.0685 59.2422 92.6007 65.2869C90.5098 68.9304 90.403 74.0767 91.0094 77.7902C96.1244 73.5648 103.74 74.3414 110.105 70.7422C108.931 74.5701 106.625 77.5527 106.013 81.3132C105.782 82.7364 105.255 84.3059 105.785 85.5188C111.014 79.6089 119.369 79.6708 124.994 74.1522C129.075 70.1494 131.022 65.0004 136.588 60.854C139.933 58.3628 141.027 55.2503 143.189 51.1958C145.289 47.2569 147.454 42.276 150.568 38.9171Z" fill="#117BDF"></path>
  <path d="M109.601 70.3204C109.676 70.3204 109.752 70.3455 109.814 70.3952C109.922 70.4823 109.967 70.6266 109.926 70.7601C109.418 72.416 108.701 73.9168 108.008 75.3679C107.072 77.3261 106.188 79.1768 105.845 81.2854C105.795 81.593 105.732 81.9061 105.668 82.2219C105.491 83.0993 105.308 84.0004 105.437 84.7648C108.154 81.9333 111.641 80.5054 115.019 79.1237C118.254 77.7992 121.599 76.4297 124.252 73.827C125.885 72.2255 127.159 70.4558 128.507 68.5827C130.484 65.8363 132.528 62.9954 135.881 60.4995C138.534 58.5229 139.735 56.1495 141.255 53.1445C141.608 52.4455 141.978 51.7166 142.384 50.9536C142.82 50.1361 143.259 49.2745 143.708 48.391C145.276 45.3084 147.038 41.844 149.278 39.2079C148.135 39.2412 146.98 39.2194 145.854 39.199C143.116 39.1486 140.282 39.0962 137.654 39.8436C134.803 40.6556 132.134 42.1462 129.553 43.5877C127.212 44.8959 124.792 46.2483 122.211 47.1141C120.035 47.8451 117.661 48.0302 115.365 48.2099C112.17 48.4597 109.152 48.6952 106.596 50.2634C101.086 53.6435 96.0423 59.0103 92.3921 65.3742C90.457 68.7461 90.2678 73.52 90.7551 77.0784C93.5178 75.0052 96.8693 74.2286 100.406 73.4091C103.44 72.706 106.578 71.9791 109.433 70.3639C109.485 70.3347 109.543 70.3204 109.601 70.3204ZM105.281 85.7769C105.264 85.7769 105.247 85.7749 105.229 85.7721C105.114 85.7544 105.016 85.6789 104.97 85.5727C104.509 84.5198 104.759 83.2831 105.001 82.0872C105.063 81.7802 105.125 81.4746 105.173 81.1765C105.532 78.9706 106.436 77.0784 107.393 75.0739C107.961 73.8862 108.544 72.6658 109.008 71.3631C106.283 72.7455 103.378 73.4186 100.559 74.072C96.9013 74.9194 93.4464 75.7199 90.7218 77.97C90.6279 78.0476 90.4999 78.0687 90.3855 78.0265C90.2719 77.9836 90.1895 77.8836 90.1691 77.7624C89.8744 75.9581 89.1209 69.7057 91.802 65.0352C95.508 58.574 100.635 53.1228 106.24 49.6835C108.936 48.0296 112.177 47.7764 115.312 47.5313C117.567 47.3551 119.899 47.1726 121.995 46.4689C124.515 45.6228 126.907 44.2868 129.221 42.9936C131.836 41.5329 134.54 40.0226 137.468 39.1895C140.192 38.4142 143.078 38.4673 145.867 38.5184C147.244 38.5436 148.668 38.5701 150.045 38.4945C150.191 38.4871 150.313 38.5646 150.372 38.6906C150.431 38.8158 150.407 38.9642 150.313 39.0656C147.879 41.6915 145.985 45.4146 144.314 48.7C143.863 49.5868 143.423 50.4526 142.985 51.2735C142.58 52.0317 142.213 52.7573 141.862 53.4522C140.302 56.5361 139.069 58.9728 136.288 61.0447C133.019 63.4786 131.006 66.276 129.06 68.9795C127.693 70.8778 126.403 72.6699 124.728 74.313C121.98 77.009 118.572 78.4043 115.277 79.7533C111.638 81.2425 108.202 82.6487 105.536 85.6612C105.471 85.7354 105.379 85.7769 105.281 85.7769Z" fill="#117BDF"></path>
  <path fill-rule="evenodd" clip-rule="evenodd" d="M123.576 108.639C122.088 107.557 121.788 106.877 119.663 107.142C118.16 107.328 116.743 108.031 115.236 108.172C111.879 108.486 108.48 108.177 106.586 107.905C104.66 107.628 104.25 107.367 102.493 104.965C101.596 103.739 100.446 102.562 100.09 101.084C99.7765 99.7852 100.196 98.3796 100.592 97.1035C100.808 96.4078 101.115 95.8559 101.764 95.5257C101.767 95.5244 103.707 95.7715 107.27 96.9959C106.397 94.1447 103.485 91.0703 104.264 89.7941C104.751 88.9964 106.27 88.7759 107.2 88.6609C109.399 88.39 111.689 88.1177 113.851 88.6064C114.908 88.846 115.56 89.952 116.317 90.7279C117.39 91.8272 118.576 92.8801 119.327 94.2203C120.03 95.4727 120.318 96.9299 120.585 98.3395C120.827 99.6184 120.665 100.95 120.846 102.237C120.963 103.07 121.269 103.866 121.478 104.68C121.732 105.658 123.001 107.818 123.576 108.639Z" fill="#117BDF"></path>
  <path d="M102.167 95.9013C101.737 96.1497 101.469 96.5431 101.256 97.2272C100.902 98.3693 100.462 99.7898 100.76 101.027C101.02 102.107 101.763 103.055 102.48 103.97C102.694 104.242 102.907 104.514 103.107 104.787C104.842 107.159 105.173 107.332 106.973 107.591C108.326 107.785 111.868 108.202 115.544 107.856C116.295 107.786 117.017 107.571 117.782 107.345C118.485 107.136 119.212 106.92 119.961 106.828C121.316 106.657 122.019 106.872 122.663 107.288C122.15 106.39 121.644 105.389 121.489 104.788C121.418 104.516 121.337 104.247 121.257 103.977C121.096 103.44 120.93 102.885 120.849 102.309C120.762 101.696 120.751 101.075 120.74 100.474C120.727 99.7619 120.715 99.0894 120.59 98.4258C120.343 97.1237 120.063 95.6467 119.37 94.41C118.778 93.3537 117.877 92.4559 117.007 91.5867C116.807 91.3873 116.608 91.1886 116.412 90.9878C116.216 90.787 116.026 90.5645 115.835 90.3392C115.3 89.7103 114.794 89.1154 114.116 88.9615C111.981 88.479 109.643 88.7676 107.58 89.0221C106.903 89.1052 105.317 89.3012 104.894 89.9948C104.548 90.561 105.362 91.9468 106.149 93.287C106.809 94.41 107.557 95.6835 107.935 96.9195C107.973 97.0421 107.938 97.1748 107.847 97.2632C107.755 97.3531 107.62 97.3824 107.499 97.3402C104.458 96.2954 102.599 95.968 102.167 95.9013ZM123.916 109.002C123.846 109.002 123.775 108.982 123.716 108.938C123.436 108.735 123.198 108.545 122.982 108.374C122.057 107.64 121.634 107.305 120.045 107.503C119.351 107.589 118.683 107.787 117.976 107.997C117.213 108.224 116.425 108.457 115.607 108.534C111.86 108.884 108.254 108.462 106.877 108.264C104.822 107.969 104.338 107.624 102.557 105.189C102.362 104.921 102.154 104.657 101.945 104.39C101.182 103.417 100.394 102.411 100.099 101.186C99.7558 99.7673 100.228 98.2474 100.606 97.0257C100.807 96.3811 101.123 95.6658 101.95 95.2452C102.18 95.1315 104.405 95.6066 107.054 96.4737C106.666 95.5106 106.085 94.5223 105.562 93.6314C104.552 91.9121 103.755 90.5542 104.313 89.6401C104.837 88.7819 106.216 88.5042 107.497 88.3469C109.615 88.0856 112.016 87.7881 114.266 88.2973C115.167 88.5021 115.77 89.212 116.354 89.8981C116.535 90.1111 116.714 90.3228 116.9 90.5134C117.093 90.7115 117.29 90.9082 117.488 91.1055C118.391 92.006 119.325 92.9385 119.963 94.0765C120.711 95.4113 121.003 96.9454 121.258 98.2992C121.395 99.0193 121.408 99.7523 121.42 100.462C121.431 101.041 121.442 101.642 121.523 102.214C121.596 102.738 121.748 103.245 121.909 103.782C121.992 104.061 122.075 104.338 122.147 104.618C122.383 105.528 123.606 107.627 124.194 108.467C124.289 108.603 124.272 108.788 124.154 108.905C124.088 108.969 124.002 109.002 123.916 109.002Z" fill="#117BDF"></path>
  <path d="M71.8002 80.3403L62.8111 80.2668C56.1926 79.6549 50.0573 74.2629 45.9497 65.4711C37.9679 48.3885 39.5156 23.2098 49.3998 9.34457C54.0343 2.84314 59.8925 -0.300715 65.8875 0.490184L71.9363 0.496997L71.935 1.17763L65.8426 1.1681C60.0613 0.406467 54.4358 3.45299 49.9539 9.74002C40.197 23.4269 38.6771 48.2987 46.5663 65.1839C50.5692 73.7497 56.5023 79.0001 62.8444 79.5875L71.8057 79.6597L71.8002 80.3403Z" fill="#117BDF"></path>
  <path d="M70.8474 6.0733C66.3804 6.0733 62.0434 8.73118 58.5354 13.6522C50.022 25.5939 48.6962 47.296 55.5794 62.029C59.0724 69.5044 64.2459 74.0817 69.7747 74.5867C74.6011 75.0264 79.339 72.3522 83.1152 67.0541C91.6286 55.1124 92.9545 33.411 86.0719 18.6793C82.5789 11.2026 77.4047 6.62461 71.8759 6.11957C71.5328 6.08826 71.1891 6.0733 70.8474 6.0733ZM70.8073 75.3143C70.4431 75.3143 70.0783 75.298 69.7128 75.264C63.9369 74.7365 58.5606 70.0169 54.9628 62.3169C47.9869 47.3858 49.3407 25.3775 57.9807 13.2574L58.2577 13.4548L57.9807 13.2574C61.9046 7.7531 66.8623 4.97679 71.9378 5.44166C77.7137 5.96983 83.09 10.6894 86.6885 18.3907C93.6637 33.3212 92.3099 55.3288 83.6699 67.4496C80.0292 72.5564 75.4982 75.3143 70.8073 75.3143ZM56.4343 9.5527L56.7113 9.75009C46.9551 23.4363 45.4352 48.3081 53.3238 65.1933C57.3314 73.7699 63.2699 79.021 69.6189 79.6016C75.1613 80.1053 80.6037 77.0377 84.9386 70.9562C94.6955 57.2693 96.2161 32.3982 88.3275 15.5144C84.3199 6.93702 78.38 1.68523 72.0317 1.10533C66.4873 0.59962 61.047 3.66862 56.7113 9.75009L56.4343 9.5527ZM70.8052 80.3367C70.39 80.3367 69.9742 80.317 69.5569 80.2795C62.9609 79.6765 56.8195 74.2831 52.7071 65.4812C44.726 48.3979 46.2738 23.2198 56.1573 9.35463C60.6386 3.06828 66.2987 -0.102117 72.0937 0.427417C78.6897 1.02978 84.8311 6.42382 88.9442 15.2265C96.9253 32.3091 95.3768 57.4864 85.4933 71.3516C81.334 77.1854 76.1591 80.3367 70.8052 80.3367Z" fill="#117BDF"></path>
  <path d="M69.5816 62.7118L69.4462 58.2822L69.2801 58.3462C67.1946 59.1391 63.3933 59.8102 61.3643 55.3956L61.1193 54.864L64.37 51.0273L64.5769 51.4098C65.8599 53.7818 68.6954 53.7001 70.787 52.6206C74.2045 50.8571 76.2641 47.6956 76.1634 44.37C76.0797 41.6372 74.2487 40.9655 70.3991 42.2566C65.67 43.8861 61.7353 44.6368 61.5113 37.2723C61.2847 29.8173 66.6127 25.4762 68.251 24.3226L68.4109 24.2109L68.2877 20.1652L71.857 18.3228L71.9795 22.361L72.1347 22.3174C75.0553 21.4904 77.0067 22.2105 78.2768 24.586L78.5504 25.0971L75.5862 28.7821L75.365 28.516C74.2841 27.2187 72.1469 27.026 70.1663 28.0484C66.9224 29.7227 65.1146 32.3895 65.2051 35.3666C65.3025 38.5771 67.5799 38.0748 70.5468 37.0838C75.4167 35.487 79.8075 34.69 80.0409 42.3682C80.2349 48.7506 76.7331 53.8621 73.1774 56.0967L73.0086 56.2028L73.1509 60.8693L69.5816 62.7118Z" fill="#117BDF"></path>
  <path d="M68.9418 57.9639C69.0078 57.9639 69.0739 57.9836 69.1304 58.021C69.2223 58.0823 69.2787 58.1844 69.2821 58.2947L69.4006 62.1838L72.2994 60.6878L72.164 56.2357C72.1599 56.1153 72.2204 56.0016 72.3232 55.9376L72.4913 55.8314C75.9653 53.6486 79.3862 48.6494 79.1963 42.4018C79.1119 39.6241 78.483 37.862 77.2748 37.0146C75.5535 35.8065 72.6935 36.5953 70.1486 37.4298C68.2421 38.0669 66.4385 38.576 65.346 37.8137C64.7192 37.376 64.3965 36.5865 64.3598 35.3994C64.2659 32.2862 66.141 29.5051 69.5054 27.7688C71.6018 26.6873 73.8798 26.8942 75.0764 28.2677L77.6397 25.0817L77.4722 24.7686C76.275 22.5286 74.5013 21.88 71.7229 22.6668L71.5684 22.711C71.4684 22.7396 71.3601 22.7206 71.2744 22.6586C71.19 22.596 71.1382 22.4987 71.1348 22.3945L71.0287 18.8954L68.1298 20.3921L68.2462 24.2234C68.2496 24.3378 68.1952 24.446 68.1012 24.512L67.942 24.6236C66.3398 25.7521 61.1254 30 61.3473 37.2855C61.4297 40.0019 62.0198 41.7028 63.1517 42.4842C64.7192 43.5664 67.2872 42.8177 69.7831 41.9574C72.1994 41.1474 73.8621 41.0957 74.8709 41.7988C75.5814 42.2943 75.9619 43.1635 75.998 44.3825C76.1035 47.8401 73.9731 51.1214 70.4392 52.9455C68.2204 54.0904 65.2099 54.1666 63.803 51.6503L61.0152 54.9412L61.1683 55.276C62.9863 59.2305 66.2431 58.9678 68.6546 58.0503L68.8207 57.987C68.8595 57.972 68.901 57.9639 68.9418 57.9639ZM69.0766 63.0741C69.0167 63.0741 68.9575 63.0591 68.9044 63.0271C68.803 62.9679 68.7397 62.861 68.7363 62.7446L68.6165 58.7888C66.3718 59.5715 62.6065 60.0337 60.5503 55.5605L60.3059 55.0283C60.2508 54.9085 60.2705 54.7676 60.3556 54.6662L63.6056 50.8301C63.6778 50.7444 63.7874 50.7022 63.9004 50.7117C64.012 50.7233 64.1114 50.7893 64.1645 50.888L64.3714 51.2705C65.5455 53.4404 68.1788 53.3464 70.1268 52.3405C73.4259 50.6382 75.4154 47.5964 75.3174 44.4029C75.2874 43.3976 75.0145 42.7279 74.4822 42.3569C73.6729 41.7947 72.166 41.8771 70.0023 42.6019C67.3451 43.5181 64.5953 44.3076 62.7651 43.0437C61.4426 42.1309 60.7565 40.2544 60.6667 37.3059C60.4353 29.6807 65.8769 25.2451 67.5506 24.0676C67.5608 24.0601 67.4431 20.1988 67.4431 20.1988C67.439 20.0674 67.5105 19.9456 67.6268 19.8857L71.1961 18.0439C71.3009 17.9902 71.4241 17.9936 71.5248 18.0528C71.6256 18.112 71.6889 18.2188 71.693 18.3359L71.8025 21.9412C74.7184 21.1939 76.7725 22.0161 78.0725 24.448L78.3462 24.9592C78.4101 25.079 78.3965 25.2267 78.3108 25.3328L75.3466 29.0185C75.282 29.0974 75.1867 29.1444 75.0846 29.1451C74.9797 29.1451 74.8845 29.1002 74.8205 29.0219L74.5986 28.7564C73.6212 27.583 71.6555 27.4258 69.8178 28.3739C66.6957 29.985 64.954 32.538 65.0404 35.3783C65.0697 36.336 65.297 36.9492 65.7354 37.2555C66.5678 37.8361 68.2666 37.3413 69.9349 36.7839C72.6384 35.8977 75.6869 35.0687 77.6655 36.4572C79.0615 37.4366 79.785 39.3744 79.8769 42.3814C80.075 48.8978 76.4921 54.121 72.8528 56.4072C72.85 56.41 72.9862 60.8817 72.9862 60.8817C72.9902 61.0124 72.9188 61.1343 72.8024 61.1942L69.2331 63.0366C69.1835 63.0618 69.1304 63.0741 69.0766 63.0741Z" fill="#117BDF"></path>
</svg>
