<svg version="1.2" xmlns="http://www.w3.org/2000/svg" viewBox="0 0 952 732" width="952" height="732"><defs><linearGradient id="P" gradientUnits="userSpaceOnUse"/><linearGradient id="g1" x1="46.6" y1="441.6" x2="921.6" y2="441.6" href="#P"><stop stop-color="#bbc9f8"/><stop offset=".26" stop-color="#a1b2f3"/><stop offset=".55" stop-color="#d3d7f2"/><stop offset=".8" stop-color="#f2f3ff"/><stop offset="1" stop-color="#d3d7f2"/></linearGradient><linearGradient id="g2" x1="180.8" y1="330.4" x2="307.6" y2="88.8" href="#P"><stop stop-color="#fff"/><stop offset="1" stop-color="#a7b1f2"/></linearGradient><linearGradient id="g3" x1="181.9" y1="43.8" x2="485.3" y2="43.8" href="#P"><stop stop-color="#bbc9f8"/><stop offset="1" stop-color="#d3d7f2"/></linearGradient><linearGradient id="g4" x1="183.4" y1="195.6" x2="782.9" y2="195.6" href="#P"><stop stop-color="#d3d7f2"/><stop offset=".55" stop-color="#fff"/><stop offset="1" stop-color="#d3d7f2"/></linearGradient><linearGradient id="g5" x1="205.8" y1="319.8" x2="453.5" y2="319.8" href="#P"><stop stop-color="#d3d7f2"/><stop offset="1" stop-color="#bfcfff"/></linearGradient></defs><style>.a{opacity:0;fill:#bcc9f8}.b{opacity:.1;fill:#bcc9f8}.c{opacity:.2;fill:#bcc9f8}.d{opacity:.3;fill:#bcc9f8}.e{opacity:.4;fill:#bcc9f8}.f{opacity:.5;fill:#bcc9f8}.g{opacity:.6;fill:#bcc9f8}.h{opacity:.7;fill:#bcc9f8}.i{opacity:.8;fill:#bcc9f8}.j{opacity:.9;fill:#bcc9f8}.k{fill:#bcc9f8}.l{fill:url(#g1)}.m{fill:#edeffc}.n{opacity:0;fill:#a7b1f2}.o{opacity:.1;fill:#a7b1f2}.p{opacity:.2;fill:#a7b1f2}.q{opacity:.3;fill:#a7b1f2}.r{opacity:.4;fill:#a7b1f2}.s{opacity:.5;fill:#a7b1f2}.t{opacity:.6;fill:#a7b1f2}.u{opacity:.7;fill:#a7b1f2}.v{opacity:.8;fill:#a7b1f2}.w{opacity:.9;fill:#a7b1f2}.x{fill:#a7b1f2}.y{fill:#1e4abf}.z{fill:#3176ff}.A{fill:#42c8ff}.B{fill:#f3abc7}.C{fill:#8a96e6}.D{mix-blend-mode:multiply;fill:url(#g2)}.E{opacity:1;fill:#a7b1f2}.F{fill:url(#g3)}.G{fill:url(#g4)}.H{fill:#42dbff}.I{fill:#396fff}.J{fill:#bfcfff}.K{fill:url(#g5)}.L{fill:#fff}</style><g style="mix-blend-mode:multiply"><path class="a" d="m751.8 334.4c172.6 86.3 172.6 226.3 0 312.6-172.6 86.4-452.5 86.4-625.1 0-172.7-86.3-172.7-226.3 0-312.6 172.6-86.4 452.5-86.4 625.1 0z"/><path class="b" d="m755.9 332.3c172.6 86.4 172.6 226.4 0 312.7-172.6 86.3-452.5 86.3-625.2 0-172.6-86.3-172.6-226.3 0-312.7 172.7-86.3 452.6-86.3 625.2 0z"/><path class="c" d="m760 330.3c172.6 86.3 172.6 226.3 0 312.6-172.7 86.4-452.5 86.4-625.2 0-172.6-86.3-172.6-226.3 0-312.6 172.7-86.3 452.5-86.3 625.2 0z"/><path class="d" d="m764 328.3c172.7 86.3 172.7 226.3 0 312.6-172.6 86.3-452.5 86.3-625.1 0-172.6-86.3-172.6-226.3 0-312.6 172.6-86.4 452.5-86.4 625.1 0z"/><path class="e" d="m768.1 326.2c172.6 86.4 172.6 226.3 0 312.7-172.6 86.3-452.5 86.3-625.1 0-172.7-86.4-172.7-226.3 0-312.7 172.6-86.3 452.5-86.3 625.1 0z"/><path class="f" d="m772.2 324.2c172.6 86.3 172.6 226.3 0 312.6-172.6 86.4-452.5 86.4-625.1 0-172.7-86.3-172.7-226.3 0-312.6 172.6-86.3 452.5-86.3 625.1 0z"/><path class="f" d="m776.3 322.2c172.6 86.3 172.6 226.3 0 312.6-172.7 86.3-452.5 86.3-625.2 0-172.6-86.3-172.6-226.3 0-312.6 172.7-86.4 452.5-86.4 625.2 0z"/><path class="g" d="m780.3 320.1c172.7 86.3 172.7 226.3 0 312.7-172.6 86.3-452.5 86.3-625.1 0-172.6-86.4-172.6-226.4 0-312.7 172.6-86.3 452.5-86.3 625.1 0z"/><path class="h" d="m784.4 318.1c172.7 86.3 172.7 226.3 0 312.6-172.6 86.3-452.5 86.3-625.1 0-172.7-86.3-172.7-226.3 0-312.6 172.6-86.4 452.5-86.4 625.1 0z"/><path class="i" d="m788.5 316c172.6 86.4 172.6 226.3 0 312.7-172.6 86.3-452.5 86.3-625.1 0-172.7-86.4-172.7-226.3 0-312.7 172.6-86.3 452.5-86.3 625.1 0z"/><path class="j" d="m792.6 314c172.6 86.3 172.6 226.3 0 312.6-172.7 86.4-452.5 86.4-625.2 0-172.6-86.3-172.6-226.3 0-312.6 172.7-86.3 452.5-86.3 625.2 0z"/><path class="k" d="m796.7 312c172.6 86.3 172.6 226.3 0 312.6-172.7 86.3-452.6 86.3-625.2 0-172.6-86.3-172.6-226.3 0-312.6 172.6-86.4 452.5-86.4 625.2 0z"/></g><path class="l" d="m926.1 468.4q0-0.1 0-0.2v-26.6h-884.1v26.8c0.1 56.6 43.3 113.1 129.5 156.2 172.6 86.4 452.5 86.4 625.2 0 86.2-43.1 129.4-99.6 129.4-156.2 0 0 0 0 0 0z"/><path class="m" d="m796.7 285.3c172.6 86.3 172.6 226.3 0 312.7-172.7 86.3-452.6 86.3-625.2 0-172.6-86.4-172.6-226.4 0-312.7 172.6-86.3 452.5-86.3 625.2 0z"/><g style="opacity:.3;mix-blend-mode:multiply"><path class="n" d="m583.1 388.1c-23.4-11.7-51.1-11.7-74.5 0q-0.2 0.1-0.4 0.1-9.3 4.7-17 9.8c-6.4 4.3-6.4 13.8 0 18.1q7.7 5.1 17 9.8 0.2 0.1 0.4 0.2c23.4 11.6 51.1 11.6 74.5 0q0.2-0.1 0.4-0.2 9.3-4.7 17-9.8c6.4-4.3 6.4-13.8 0-18.1q-7.7-5.1-17-9.8-0.2 0-0.4-0.1z"/><path class="o" d="m586 386.6c-23.4-11.6-51.1-11.6-74.6 0q-0.1 0.1-0.3 0.2-9.3 4.7-17 9.8c-6.5 4.3-6.5 13.8 0 18.1q7.7 5.1 17 9.8 0.2 0 0.3 0.1c23.5 11.7 51.2 11.7 74.6 0q0.2-0.1 0.4-0.1 9.3-4.7 17-9.8c6.4-4.3 6.4-13.8 0-18.1q-7.7-5.1-17-9.8-0.2-0.1-0.4-0.2z"/><path class="p" d="m588.9 385.2c-23.5-11.7-51.1-11.7-74.6 0q-0.2 0.1-0.3 0.2-9.3 4.6-17 9.8c-6.5 4.3-6.5 13.7 0 18q7.7 5.1 17 9.8 0.1 0.1 0.3 0.2c23.5 11.6 51.1 11.6 74.6 0q0.2-0.1 0.3-0.2 9.3-4.7 17-9.8c6.5-4.3 6.5-13.7 0-18q-7.7-5.2-17-9.8-0.1-0.1-0.3-0.2z"/><path class="q" d="m591.8 383.8c-23.5-11.7-51.2-11.7-74.6 0q-0.2 0-0.4 0.1-9.3 4.7-16.9 9.8c-6.5 4.3-6.5 13.8 0 18.1q7.6 5.1 16.9 9.8 0.2 0.1 0.4 0.1c23.4 11.7 51.1 11.7 74.6 0q0.1 0 0.3-0.1 9.3-4.7 17-9.8c6.5-4.3 6.5-13.8 0-18.1q-7.7-5.1-17-9.8-0.2-0.1-0.3-0.1z"/><path class="r" d="m594.6 382.3c-23.4-11.6-51.1-11.6-74.5 0q-0.2 0.1-0.4 0.2-9.3 4.7-17 9.8c-6.4 4.3-6.4 13.7 0 18q7.7 5.2 17 9.8 0.2 0.1 0.4 0.2c23.4 11.7 51.1 11.7 74.5 0q0.2-0.1 0.4-0.2 9.3-4.6 17-9.8c6.4-4.3 6.4-13.7 0-18q-7.7-5.1-17-9.8-0.2-0.1-0.4-0.2z"/><path class="s" d="m597.5 380.9c-23.4-11.7-51.1-11.7-74.5 0q-0.2 0.1-0.4 0.2-9.3 4.6-17 9.7c-6.4 4.3-6.4 13.8 0 18.1q7.7 5.1 17 9.8 0.2 0.1 0.4 0.2c23.4 11.6 51.1 11.6 74.5 0q0.2-0.1 0.4-0.2 9.3-4.7 17-9.8c6.4-4.3 6.4-13.8 0-18.1q-7.7-5.1-17-9.7-0.2-0.1-0.4-0.2z"/><path class="s" d="m600.4 379.4c-23.4-11.6-51.1-11.6-74.6 0q-0.1 0.1-0.3 0.2-9.3 4.7-17 9.8c-6.5 4.3-6.5 13.8 0 18.1q7.7 5.1 17 9.8 0.2 0 0.3 0.1c23.5 11.7 51.2 11.7 74.6 0q0.2-0.1 0.3-0.1 9.4-4.7 17-9.8c6.5-4.3 6.5-13.8 0-18.1q-7.6-5.1-17-9.8-0.1-0.1-0.3-0.2z"/><path class="t" d="m603.3 378c-23.5-11.7-51.1-11.7-74.6 0q-0.2 0.1-0.3 0.2-9.4 4.6-17 9.8c-6.5 4.3-6.5 13.7 0 18q7.7 5.1 17 9.8 0.1 0.1 0.3 0.2c23.5 11.7 51.1 11.7 74.6 0q0.2-0.1 0.3-0.2 9.3-4.7 17-9.8c6.5-4.3 6.5-13.7 0-18q-7.7-5.2-17-9.8-0.1-0.1-0.3-0.2z"/><path class="u" d="m606.2 376.6c-23.5-11.7-51.2-11.7-74.6 0q-0.2 0-0.4 0.1-9.3 4.7-17 9.8c-6.4 4.3-6.4 13.8 0 18.1q7.7 5.1 17 9.8 0.2 0.1 0.4 0.1c23.4 11.7 51.1 11.7 74.6 0q0.1 0 0.3-0.1 9.3-4.7 17-9.8c6.5-4.3 6.5-13.8 0-18.1q-7.7-5.1-17-9.8-0.2-0.1-0.3-0.1z"/><path class="v" d="m609 375.1c-23.4-11.6-51.1-11.6-74.5 0q-0.2 0.1-0.4 0.2-9.3 4.7-17 9.8c-6.4 4.3-6.4 13.8 0 18q7.7 5.2 17 9.8 0.2 0.1 0.4 0.2c23.4 11.7 51.1 11.7 74.5 0q0.2-0.1 0.4-0.2 9.3-4.6 17-9.8c6.4-4.2 6.4-13.7 0-18q-7.7-5.1-17-9.8-0.2-0.1-0.4-0.2z"/><path class="w" d="m611.9 373.7c-23.4-11.7-51.1-11.7-74.6 0q-0.1 0.1-0.3 0.2-9.3 4.6-17 9.7c-6.5 4.3-6.5 13.8 0 18.1q7.7 5.1 17 9.8 0.2 0.1 0.3 0.2c23.5 11.6 51.2 11.6 74.6 0q0.2-0.1 0.4-0.2 9.3-4.7 17-9.8c6.4-4.3 6.4-13.8 0-18.1q-7.7-5.1-17-9.7-0.2-0.1-0.4-0.2z"/><path class="x" d="m614.8 372.2c-23.5-11.6-51.1-11.6-74.6 0q-0.2 0.1-0.3 0.2-9.3 4.7-17 9.8c-6.5 4.3-6.5 13.8 0 18.1q7.7 5.1 17 9.8 0.1 0 0.3 0.1c23.5 11.7 51.1 11.7 74.6 0q0.2-0.1 0.3-0.1 9.3-4.7 17-9.8c6.5-4.3 6.5-13.8 0-18.1q-7.7-5.1-17-9.8-0.1-0.1-0.3-0.2z"/></g><path class="y" d="m576 361.4l-1.4-13.3-41.2 10.2c-5.9 1.5-5.8 12.1 1.4 12.1h34.2c5 0 7.4-5.4 7-9z"/><path class="y" d="m608.9 367.8c-3.3 1.6-4.7 5.8-2.1 10.1l13.1 28.4c1.4 3.2 4.6 5.2 8.3 4 3.7-1.1 5-5.4 4.2-9.9l-4.9-28.9c-0.2-5-3.8-7.7-7.4-7.2z"/><path class="z" d="m565.6 361c-6.5 0-12-5.1-12.4-11.6l-8.5-130.1c-0.5-6.9 4.7-12.9 11.6-13.3 6.9-0.5 12.8 4.7 13.3 11.6l8.5 130.1c0.5 6.9-4.8 12.8-11.6 13.3q-0.4 0-0.9 0z"/><path class="z" d="m616.4 381.9c-5.8 0-11-4.1-12.2-9.9l-28.6-134.2c-1.4-6.7 2.9-13.4 9.6-14.8 6.8-1.4 13.4 2.9 14.8 9.6l28.6 134.2c1.4 6.7-2.9 13.4-9.6 14.8q-1.3 0.3-2.6 0.3z"/><path class="z" d="m543.1 201l3 32.2 53.5 19.3-0.2-41.8z"/><path class="A" d="m534.6 193.4c-4.3 0-8.2-2.6-10.4-7.1-1.6-3.1-0.3-6.8 2.7-8.4 2.9-1.4 6.4-0.4 8.1 2.2 2-2.3 5.6-9.6 6.3-26.6 0.2-3.4 3.1-6.1 6.5-5.9 3.5 0.1 6.1 3 6 6.5-1 22.7-7.2 37-16.9 39q-1.2 0.3-2.3 0.3z"/><path class="A" d="m547.4 147.5c15.5-0.2 31.2 2.2 47.3 7.7 5.1 1.8 9.5 8.9 8.8 13.6-1.9 12.2-4 32.6-4 49 0 10.1-28.7 6.1-56.4-12.7 0-21 0.6-42.7 4.3-57.6z"/><path class="B" d="m566.1 142.7l1.6 15.5 11.4-6.4-1.9-13.9z"/><path class="B" d="m561.1 140.7c0.2 1.8 3.1 4.2 6.3 2.4 1-0.6 9.8-5 9.8-5 0 0 2.7-9.5-1.2-13.3-1.8-1.8-11.4-0.6-13.2 1.2-2.7 2.6-2.2 10.8-1.7 14.7z"/><path class="y" d="m554.3 121.5c3.2 1.7 9.6-2.6 12.7-3.6 7.3-2.4 13.4 1.5 13.4 9.1 0 3.5-3.2 11.1-3.2 11.1 0 0-0.7-5.4-1.1-5.8-0.3-0.5-2.2 1.5-2.2 1.5-0.2-3.3-1.3-5.7 0.3-7.4 0 0-9.6 2.8-13.8 2.8-4.4 0-7.4-3.9-6.1-7.7z"/><path class="C" d="m534.5 196.9l19.2 9.2c1.7 0.8 2.8 0.1 2.5-1.5l-5.9-33.4c-0.3-1.6-1.9-3.6-3.6-4.4l-19.2-9.2c-1.7-0.8-2.8-0.1-2.5 1.5l6 33.4c0.2 1.6 1.8 3.6 3.5 4.4z"/><path class="B" d="m524.2 181.6c-0.3 3.7 3 6 5.8 6.6l-0.5-6.2c0.9-1.3 1.2-2.8 1-4.3l-0.7-5.8-3.2 1.5c-3 1.8-3.6 4.2-2.4 8.2z"/><path class="A" d="m586.5 219.3c-8.5 0-20.3-4.2-34.8-20.1-2.4-2.6-2.2-6.5 0.3-8.8 2.6-2.4 6.5-2.2 8.9 0.4 12.5 13.6 24.9 19.2 31.6 14.2 6.8-5 7.9-21.2-2.2-38.3-1.8-3-0.8-6.8 2.2-8.6 2.9-1.7 6.7-0.8 8.5 2.2 12.8 21.8 12.4 44.8-1.1 54.8-2.1 1.5-6.7 4.2-13.4 4.2z"/><path class="B" d="m553.5 181.4c-0.3-0.5-0.9-0.8-1.5-0.6-0.6 0.3-0.9 0.9-0.7 1.5l1.2 3.7-2.1-2.5-4.3-2.7c-0.5-0.3-1.2-0.2-1.5 0.3-0.3 0.5-0.2 1.2 0.2 1.5l3.4 2.7 0.5 0.8-2.4-1-1.1 7.4 1.4 1.5c0 0 2.6 2.7 4.8 4.6 1.3 1.1 3.2 1 4.4-0.3l3.3-3.6c0.9-1 1.1-2.5 0.3-3.7z"/><path class="D" d="m476.1 275.9l-211.2 105.6v-211.3z"/><g style="mix-blend-mode:multiply"><path class="n" d="m581 378.4c117.9 59 117.9 154.6 0 213.6-117.9 58.9-309.1 58.9-427.1 0-117.9-59-117.9-154.6 0-213.6 118-59 309.2-59 427.1 0z"/><path class="n" d="m586.5 375.6c118 59 118 154.6 0 213.6-117.9 59-309.1 59-427 0-117.9-59-117.9-154.6 0-213.6 117.9-58.9 309.1-58.9 427 0z"/><path class="o" d="m592.1 372.9c117.9 58.9 117.9 154.5 0 213.5-117.9 59-309.1 59-427.1 0-117.9-59-117.9-154.6 0-213.5 118-59 309.2-59 427.1 0z"/><path class="o" d="m597.6 370.1c118 59 118 154.6 0 213.5-117.9 59-309.1 59-427 0-117.9-58.9-117.9-154.5 0-213.5 117.9-59 309.1-59 427 0z"/><path class="p" d="m603.2 367.3c117.9 59 117.9 154.6 0 213.6-117.9 58.9-309.1 58.9-427 0-118-59-118-154.6 0-213.6 117.9-59 309.1-59 427 0z"/><path class="p" d="m608.7 364.5c118 59 118 154.6 0 213.6-117.9 59-309.1 59-427 0-117.9-59-117.9-154.6 0-213.6 117.9-59 309.1-59 427 0z"/><path class="q" d="m614.3 361.7c117.9 59 117.9 154.6 0 213.6-117.9 59-309.1 59-427 0-118-59-118-154.6 0-213.6 117.9-58.9 309.1-58.9 427 0z"/><path class="q" d="m619.9 359c117.9 58.9 117.9 154.6 0 213.5-118 59-309.2 59-427.1 0-117.9-58.9-117.9-154.6 0-213.5 117.9-59 309.1-59 427.1 0z"/><path class="r" d="m625.4 356.2c117.9 59 117.9 154.6 0 213.6-117.9 58.9-309.1 58.9-427 0-118-59-118-154.6 0-213.6 117.9-59 309.1-59 427 0z"/><path class="r" d="m631 353.4c117.9 59 117.9 154.6 0 213.6-118 59-309.2 59-427.1 0-117.9-59-117.9-154.6 0-213.6 117.9-59 309.1-59 427.1 0z"/><path class="s" d="m636.5 350.6c117.9 59 117.9 154.6 0 213.6-117.9 59-309.1 59-427 0-118-59-118-154.6 0-213.6 117.9-58.9 309.1-58.9 427 0z"/><path class="s" d="m642.1 347.9c117.9 58.9 117.9 154.6 0 213.5-118 59-309.2 59-427.1 0-117.9-58.9-117.9-154.6 0-213.5 117.9-59 309.1-59 427.1 0z"/><path class="t" d="m647.6 345.1c117.9 59 117.9 154.6 0 213.6-117.9 58.9-309.1 58.9-427 0-117.9-59-117.9-154.6 0-213.6 117.9-59 309.1-59 427 0z"/><path class="t" d="m653.2 342.3c117.9 59 117.9 154.6 0 213.6-118 58.9-309.1 58.9-427.1 0-117.9-59-117.9-154.6 0-213.6 118-59 309.1-59 427.1 0z"/><path class="u" d="m658.7 339.5c117.9 59 117.9 154.6 0 213.6-117.9 59-309.1 59-427 0-117.9-59-117.9-154.6 0-213.6 117.9-58.9 309.1-58.9 427 0z"/><path class="u" d="m664.3 336.8c117.9 58.9 117.9 154.5 0 213.5-117.9 59-309.1 59-427.1 0-117.9-59-117.9-154.6 0-213.5 118-59 309.2-59 427.1 0z"/><path class="v" d="m669.8 334c118 59 118 154.6 0 213.5-117.9 59-309.1 59-427 0-117.9-58.9-117.9-154.5 0-213.5 117.9-59 309.1-59 427 0z"/><path class="v" d="m675.4 331.2c117.9 59 117.9 154.6 0 213.6-117.9 58.9-309.1 58.9-427.1 0-117.9-59-117.9-154.6 0-213.6 118-59 309.2-59 427.1 0z"/><path class="w" d="m680.9 328.4c118 59 118 154.6 0 213.6-117.9 59-309.1 59-427 0-117.9-59-117.9-154.6 0-213.6 117.9-59 309.1-59 427 0z"/><path class="w" d="m686.5 325.6c117.9 59 117.9 154.6 0 213.6-117.9 59-309.1 59-427.1 0-117.9-59-117.9-154.6 0-213.6 118-58.9 309.2-58.9 427.1 0z"/><path class="E" d="m692 322.9c118 58.9 118 154.6 0 213.5-117.9 59-309.1 59-427 0-117.9-58.9-117.9-154.6 0-213.5 117.9-59 309.1-59 427 0z"/><path class="x" d="m697.6 320.1c117.9 59 117.9 154.6 0 213.6-117.9 58.9-309.1 58.9-427.1 0-117.9-59-117.9-154.6 0-213.6 118-59 309.2-59 427.1 0z"/></g><path class="F" d="m486.9 62.2c0-10.3-8.5-18.6-18.8-18.4-72.4 1.8-143.8 16.5-199.1 44.2-59.4 29.7-88.9 68.6-88.7 107.6v233.7c-0.2-38.9 29.3-77.9 88.7-107.6 55.5-27.7 127.2-42.5 199.9-44.2 10-0.2 18-8.3 18-18.3z"/><path class="G" d="m786 429.3c-0.2 38.6-29.8 77.2-88.7 106.6-118.2 59.2-310 59.2-428.3 0-58.9-29.4-88.4-68-88.7-106.6v-233.7c0.3 38.6 29.8 77.1 88.7 106.6 118.3 59.1 310.1 59.1 428.3 0 58.9-29.5 88.5-68 88.7-106.6z"/><path class="H" d="m486.9 486.8q7 0 13.9-0.2v-47.5q-6.9 0.2-13.9 0.3z"/><path class="I" d="m507.7 486.3q6.9-0.2 13.7-0.7v-71.1q-6.8 0.4-13.7 0.7z"/><path class="J" d="m528.2 485.2q6.8-0.5 13.5-1.2v-59.3q-6.7 0.7-13.5 1.2z"/><path class="H" d="m630.8 467.7q5.9-1.6 11.7-3.4v-59.3q-5.8 1.8-11.7 3.4z"/><path class="I" d="m648.3 462.5q5.7-1.9 11.3-3.9v-83q-5.6 2-11.3 3.8z"/><path class="J" d="m665.1 456.6q5.5-2.1 10.8-4.3v-71.2q-5.3 2.2-10.8 4.3z"/><path class="H" d="m561.7 481.7q6.6-0.9 13-1.9v-35.6q-6.4 1.1-13 1.9z"/><path class="I" d="m581.2 478.8q6.4-1.1 12.7-2.4v-59.3q-6.3 1.3-12.7 2.4z"/><path class="J" d="m600.2 475.2q6.3-1.4 12.4-2.8v-47.5q-6.1 1.5-12.4 2.8z"/><path class="J" d="m486.9 504.8c18.6-0.1 36.9-1.1 54.8-2.8v-3.8c-17.9 1.7-36.2 2.7-54.8 2.8z"/><path class="J" d="m486.9 511.5c18.6-0.1 36.9-1 54.8-2.8v-3.8c-17.9 1.8-36.2 2.7-54.8 2.8z"/><path class="J" d="m486.9 518.3q18.7-0.1 37-1.4v-3.8q-18.3 1.3-37 1.4z"/><path class="J" d="m561.7 499.7c17.5-2.3 34.6-5.4 50.9-9.3v-3.8c-16.3 3.8-33.4 7-50.9 9.3z"/><path class="J" d="m561.7 506.5c17.5-2.4 34.6-5.5 50.9-9.4v-3.8c-16.3 3.9-33.4 7-50.9 9.3z"/><path class="J" d="m561.7 513.2q17.6-2.4 34.6-5.8v-3.8q-17 3.4-34.6 5.8z"/><path class="J" d="m630.8 485.7c15.8-4.4 30.9-9.5 45.1-15.4v-3.8c-14.2 5.8-29.3 11-45.1 15.4z"/><path class="J" d="m630.8 492.5c15.8-4.5 30.9-9.6 45.1-15.5v-3.8c-14.2 5.9-29.3 11-45.1 15.5z"/><path class="J" d="m630.8 499.2q15.9-4.4 30.8-9.9v-3.8q-14.9 5.5-30.8 9.9z"/><path class="K" d="m453.5 425.5c-16.9-3.6-18-27.1-36.3-28.9-21.1-2.2-20.7 30.5-43 26.5-19.3-3.6-18.3-29-36.4-33.8-15.3-4.1-17.4 20-32.9 15.4-0.7-0.2-1.6-0.7-2.2-1-12.6-5.6-15.3-22.2-29.2-26.5-8.3-2.5-15 7.4-23.5 2.9-6.6-3.5-10.7-19.3-14.7-34.6-2.5-9.5-5.5-21.3-9.5-24.3-13.9-10.6-6 41.7-20 31.2v36.8c14.9 16.8 36.1 32.2 62.8 45.6 50.3 25.1 115.1 40.4 184.9 43.7z"/><path class="I" d="m205.8 358.5c2.1 2.2 2.9-0.6 2.9-2.8 0.1-5.4-3.1-11.8-4.9-9.9-1.7 1.8-0.4 10 2 12.7z"/><path class="I" d="m225.6 327.2c2.7 2 4.2-0.7 3.8-4.5-0.7-5.5-4.7-10.3-6.6-7.9-2 2.4-0.3 9.9 2.8 12.4z"/><path class="I" d="m275.7 384.2c4.6 1.9 6.6-2.7 4.6-7.3-2.3-5.2-7.7-7.3-9.3-3.7-1.5 3.4 1 9.2 4.7 11z"/><path class="I" d="m337.8 395.4c5.6 1.3 7.8-4.1 5-8.5-3.2-5-10-5.4-11-0.6-0.8 3.6 2.2 8 6 9.1z"/><path class="I" d="m417.2 402.7c6.5 0.5 8.8-5.7 5.1-9.7-4.1-4.5-11.8-2.9-12 2.5-0.2 3.5 3 6.8 6.9 7.2z"/><path class="I" d="m453.5 431.7c6.7 0 9-6 5.5-9.9-4.2-4.5-12.3-2.5-12.6 3.1-0.1 3.5 3.1 6.6 7.1 6.8z"/><path class="J" d="m205.8 428.1c11.3 12.8 26.2 24.7 44.5 35.6v-3.8c-18.3-10.9-33.2-22.8-44.5-35.6z"/><path class="H" d="m205.8 417.2c11.3 12.7 26.2 24.6 44.5 35.5v-9.5c-18.3-10.9-33.2-22.8-44.5-35.6z"/><path class="J" d="m205.8 435c11.3 12.7 26.2 24.7 44.5 35.5v-3.8c-18.3-10.9-33.2-22.8-44.5-35.5z"/><path class="J" d="m205.8 441.8c11.3 12.7 26.2 24.7 44.5 35.6v-3.8c-18.3-10.9-33.2-22.9-44.5-35.6z"/><path class="J" d="m205.8 448.6c11.3 12.8 26.2 24.7 44.5 35.6v-3.8c-18.3-10.9-33.2-22.9-44.5-35.6z"/><path class="J" d="m205.8 455.4c11.3 12.8 26.2 24.7 44.5 35.6v-3.8c-18.3-10.9-33.2-22.8-44.5-35.6z"/><path class="J" d="m205.8 462.3q7 7.9 15.9 15.4v-3.8q-8.9-7.5-15.9-15.4z"/><path class="J" d="m273.5 476.1c20.6 9.9 43.6 18.2 68.3 24.7v-3.8c-24.7-6.5-47.7-14.8-68.3-24.7z"/><path class="I" d="m273.5 465.1c20.6 9.9 43.6 18.2 68.3 24.7v-9.5c-24.7-6.5-47.7-14.8-68.3-24.7z"/><path class="J" d="m273.5 482.9c20.6 9.9 43.6 18.2 68.3 24.7v-3.8c-24.7-6.5-47.7-14.8-68.3-24.7z"/><path class="J" d="m273.5 489.8c20.6 9.9 43.6 18.1 68.3 24.6v-3.8c-24.7-6.5-47.7-14.7-68.3-24.6z"/><path class="J" d="m273.5 496.6c20.6 9.9 43.6 18.2 68.3 24.7v-3.8c-24.7-6.6-47.7-14.8-68.3-24.7z"/><path class="J" d="m273.5 503.4c20.6 9.9 43.6 18.2 68.3 24.7v-3.8c-24.7-6.5-47.7-14.8-68.3-24.7z"/><path class="J" d="m273.5 510.3q12.8 6.1 26.8 11.4v-3.8q-14-5.3-26.8-11.5z"/><path class="J" d="m372 507.7c25.9 5.1 53.3 8.4 81.5 9.8v-3.8c-28.2-1.4-55.6-4.7-81.5-9.8z"/><path class="J" d="m372 496.7c25.9 5.1 53.3 8.4 81.5 9.8v-9.5c-28.2-1.4-55.6-4.7-81.5-9.8z"/><path class="J" d="m372 514.5c25.9 5.1 53.3 8.4 81.5 9.8v-3.8c-28.2-1.4-55.6-4.7-81.5-9.8z"/><path class="J" d="m372 521.4c25.9 5.1 53.3 8.4 81.5 9.7v-3.8c-28.2-1.3-55.6-4.6-81.5-9.7z"/><path class="J" d="m372 528.2c25.9 5.1 53.3 8.4 81.5 9.7v-3.8c-28.2-1.3-55.6-4.6-81.5-9.7z"/><path class="J" d="m372 535c25.9 5.1 53.3 8.4 81.5 9.8v-3.8c-28.2-1.4-55.6-4.7-81.5-9.8z"/><path class="J" d="m372 541.9q16.1 3.1 32.9 5.4v-3.9q-16.8-2.2-32.9-5.4z"/><path fill-rule="evenodd" class="I" d="m699.8 430.9c-7.7-13.3 9.3-37.8 19.9-34.5 9.6 2.9 6.3 28.2-7.5 37.1-5 2.8-9.9 1.8-12.4-2.6zm11.4-10.6l-4.9-3.6-2.2 3.9 5.3 3.8c1.1 0.7 2.5-0.3 3.3-1.5 0.7-1.1 3.2-6.1 8.7-17l-1.9-1.5c-2.5 4.8-5.8 11.2-8.3 15.9z"/><path class="L" d="m711.2 424.3c0.7-0.4 1.3-1 1.8-1.9 2.5-5 5.9-11.5 8.4-16.5l-1.9-1.5c-2.5 4.8-5.8 11.2-8.3 15.9l-4.9-3.6-2.2 3.9c6 4.3 6 4.3 7.1 3.7z"/><path class="J" d="m740.5 385.6c11.2-8.9 20.5-18.4 27.7-28.2v-3.8c-7.2 9.8-16.5 19.3-27.7 28.2z"/><path class="I" d="m734.6 391.1c2.2-1.7 2.5-6 0.9-6.2-1.9-0.1-3.7 4.7-2.4 6.2 0.4 0.5 0.9 0.5 1.5 0z"/><path class="J" d="m732.7 398c14.8-10.7 26.7-22.1 35.5-34.2v-3.8c-8.8 12.1-20.7 23.5-35.5 34.1z"/><path class="J" d="m732.7 404.4c14.8-10.6 26.7-22.1 35.5-34.1v-3.8c-8.8 12-20.7 23.5-35.5 34.1z"/><path class="J" d="m732.7 410.9c14.8-10.7 26.7-22.1 35.5-34.2v-3.8c-8.8 12.1-20.7 23.5-35.5 34.1z"/><path class="J" d="m732.7 417.3q12.9-9.3 22.9-19.4v-3.8q-10 10.1-22.9 19.4z"/><path fill-rule="evenodd" class="J" d="m699.3 487c-7.7-13.3 9.4-37.8 20-34.5 9.6 2.9 6.3 28.2-7.5 37.1-5 2.8-9.9 1.8-12.5-2.6zm11.5-10.6l-5-3.6-2.2 3.9 5.4 3.8c1 0.7 2.4-0.3 3.3-1.5 0.6-1.1 3.2-6.1 8.7-17l-1.9-1.5c-2.5 4.8-5.8 11.2-8.3 15.9z"/><path class="L" d="m710.8 480.4c0.7-0.4 1.2-1 1.7-1.9 2.6-5 6-11.5 8.5-16.5l-1.9-1.5c-2.5 4.8-5.8 11.2-8.3 15.9l-5-3.6-2.2 3.9c6.1 4.3 6.1 4.3 7.2 3.7z"/><path class="J" d="m740.5 441.5c11.2-9 20.5-18.4 27.7-28.3v-3.8c-7.2 9.9-16.5 19.3-27.7 28.3z"/><path class="I" d="m734.6 447c2.2-1.8 2.5-6.1 0.9-6.2-1.9-0.2-3.7 4.7-2.4 6.2 0.4 0.4 0.9 0.4 1.5 0z"/><path class="J" d="m732.7 453.8c14.8-10.6 26.7-22.1 35.5-34.1v-3.8c-8.8 12-20.7 23.5-35.5 34.1z"/><path class="J" d="m732.7 460.3c14.8-10.7 26.7-22.1 35.5-34.2v-3.8c-8.8 12.1-20.7 23.5-35.5 34.1z"/><path class="J" d="m732.7 466.7c14.8-10.6 26.7-22.1 35.5-34.1v-3.8c-8.8 12-20.7 23.5-35.5 34.1z"/><path class="J" d="m732.7 473.2q12.9-9.3 22.9-19.4v-3.8q-10 10-22.9 19.3z"/><path fill-rule="evenodd" class="H" d="m699.8 375c-7.7-13.2 9.3-37.7 19.9-34.5 9.6 3 6.3 28.2-7.5 37.1-5 2.9-9.9 1.9-12.4-2.6zm11.4-10.5l-4.9-3.6-2.2 3.8 5.3 3.8c1.1 0.7 2.5-0.2 3.3-1.5 0.7-1 3.2-6 8.7-17l-1.9-1.4c-2.5 4.8-5.8 11.1-8.3 15.9z"/><path class="L" d="m711.2 368.5c0.7-0.5 1.3-1.1 1.8-2 2.5-4.9 5.9-11.5 8.4-16.5l-1.9-1.4c-2.5 4.7-5.8 11.1-8.3 15.9l-4.9-3.6-2.2 3.8c6 4.4 6 4.4 7.1 3.8z"/><path class="J" d="m740.5 329.8c11.2-9 20.5-18.4 27.7-28.3v-3.8c-7.2 9.9-16.5 19.3-27.7 28.3z"/><path class="I" d="m734.6 335.3c2.2-1.8 2.5-6 0.9-6.2-1.9-0.2-3.7 4.7-2.4 6.2 0.4 0.4 0.9 0.4 1.5 0z"/><path class="J" d="m732.7 342.1c14.8-10.6 26.7-22.1 35.5-34.1v-3.8c-8.8 12-20.7 23.5-35.5 34.1z"/><path class="J" d="m732.7 348.6c14.8-10.7 26.7-22.1 35.5-34.2v-3.8c-8.8 12.1-20.7 23.5-35.5 34.1z"/><path class="J" d="m732.7 355c14.8-10.6 26.7-22.1 35.5-34.1v-3.8c-8.8 12-20.7 23.5-35.5 34.1z"/><path class="J" d="m732.7 361.5q12.9-9.3 22.9-19.4v-3.8q-10 10-22.9 19.3z"/></svg>