<?xml version="1.0" encoding="UTF-8"?>
<svg xmlns="http://www.w3.org/2000/svg" width="121" height="158" viewBox="0 0 121 158" fill="none">
  <path d="M115.746 157.3L115.407 156.712L120.168 153.983V38.6467L99.0234 26.5293L99.3553 25.9414L120.676 38.1563C120.785 38.2166 120.846 38.329 120.846 38.4503V154.179C120.846 154.301 120.785 154.413 120.676 154.473L115.746 157.3Z" fill="#141414"></path>
  <path d="M62.026 5.49442L55.1381 1.54924L50.3767 4.28006L50.0381 3.69285L54.9688 0.865171C55.0771 0.806247 55.2058 0.805554 55.3074 0.865833L62.3647 4.90721L62.026 5.49442Z" fill="#141414"></path>
  <path d="M50.2964 16.7763H49.6191V3.98576C49.6191 3.86453 49.6869 3.75276 49.7885 3.69181C49.8968 3.6322 50.0255 3.63153 50.1271 3.69181L57.8617 8.1206L57.5231 8.70918L50.2964 4.56959V16.7763Z" fill="#141414"></path>
  <path d="M114.978 157.273C114.923 157.273 114.862 157.258 114.815 157.228L49.7952 119.975C49.6869 119.915 49.6191 119.803 49.6191 119.682V92.6327H50.2964V119.485L114.639 156.35V41.5529L99.2915 32.7562L99.6234 32.1691L115.147 41.0632C115.255 41.1235 115.316 41.2359 115.316 41.3565V156.935C115.316 157.055 115.255 157.167 115.154 157.227C115.099 157.258 115.039 157.273 114.978 157.273Z" fill="#141414"></path>
  <path d="M115.69 41.5502L115.352 40.963L120.289 38.1353L120.628 38.7232L115.69 41.5502Z" fill="#141414"></path>
  <path d="M105.851 60.7558L99.0234 56.8303L99.3621 56.243L106.189 60.1679L105.851 60.7558Z" fill="#141414"></path>
  <path d="M80.9552 46.566L57.1553 32.8834L58.1644 31.1224L81.9644 44.8051L80.9552 46.566Z" fill="#117BDF"></path>
  <path d="M105.606 75.6377L94.8369 69.5503L95.1688 68.9603L105.944 75.0485L105.606 75.6377Z" fill="#141414"></path>
  <path d="M77.3588 59.697L57.1553 48.2772L58.1509 46.5088L78.3612 57.9279L77.3588 59.697Z" fill="#117BDF"></path>
  <path d="M105.11 91.0708L88.5566 81.4262L88.8953 80.8403L105.448 90.4856L105.11 91.0708Z" fill="#141414"></path>
  <path d="M71.1548 71.2323L57.1553 63.075L58.178 61.3195L72.1775 69.4767L71.1548 71.2323Z" fill="#117BDF"></path>
  <path d="M105.792 124.851L68.46 103.355L68.7986 102.768L106.131 124.265L105.792 124.851Z" fill="#141414"></path>
  <path d="M105.591 133.576L58.8311 107.179L59.1629 106.589L105.93 132.985L105.591 133.576Z" fill="#141414"></path>
  <path d="M8.51287 127.592C8.14036 127.592 7.73406 127.543 7.31414 127.445C4.40179 126.767 1.32011 123.886 0.45318 121.025C-0.102199 119.194 0.331234 117.691 1.60454 117.003L1.92285 117.599C0.954322 118.122 0.649568 119.329 1.10335 120.828C1.90933 123.483 4.76073 126.156 7.46312 126.786C9.0683 127.159 10.2739 126.723 10.687 125.621L11.3236 125.86C10.9037 126.976 9.86745 127.592 8.51287 127.592Z" fill="#141414"></path>
  <path d="M12.1074 126.242C11.6265 126.242 11.1118 126.18 10.5767 126.055C6.83809 125.186 2.89627 121.491 1.77874 117.822C1.27754 116.164 1.39267 114.695 2.10382 113.685L29.3715 84.5559L29.8659 85.0192L2.62535 114.111C2.06997 114.911 1.98867 116.171 2.42891 117.625C3.47871 121.089 7.2038 124.574 10.7257 125.396C12.1819 125.734 13.4281 125.563 14.2341 124.912C14.4237 124.744 14.5524 124.606 14.6676 124.454L41.4408 95.8552L41.9352 96.3177L15.1822 124.887C15.0603 125.056 14.891 125.239 14.7082 125.396C14.6879 125.409 14.6743 125.422 14.654 125.434C13.9971 125.971 13.1233 126.242 12.1074 126.242Z" fill="#117BDF"></path>
  <path d="M38.9225 97.5924C38.4348 97.5924 37.9133 97.5287 37.3647 97.4014C33.626 96.5311 29.6842 92.8378 28.5735 89.1676C28.0113 87.3193 28.2281 85.7371 29.1898 84.713C30.1448 83.689 31.7093 83.3666 33.5922 83.8048C34.3779 83.9883 35.1906 84.2986 36.0033 84.7266L35.685 85.3253C34.9264 84.9244 34.1678 84.6345 33.4364 84.4638C31.8041 84.0825 30.4699 84.3358 29.6842 85.1756C28.8986 86.0155 28.7292 87.3639 29.2169 88.9712C30.2667 92.4341 33.9918 95.9202 37.5204 96.7417C39.1527 97.1224 40.487 96.8704 41.2726 96.0306C42.0583 95.1901 42.2276 93.8422 41.7399 92.235C41.5164 91.5124 41.1778 90.7721 40.724 90.0359L41.2998 89.6803C41.7806 90.4666 42.1464 91.2604 42.3834 92.0386C42.9456 93.8863 42.7288 95.4684 41.7671 96.4932C41.0898 97.2185 40.1077 97.5924 38.9225 97.5924Z" fill="#117BDF"></path>
  <path d="M36.9277 93.8332C36.7042 93.8332 36.4603 93.8047 36.2097 93.7465C34.4691 93.3408 32.6946 91.6815 32.1798 89.9693C31.9157 89.0963 32.0173 88.3309 32.4711 87.8141L40.8627 78.8516L41.3572 79.3142L32.9723 88.2699C32.6878 88.5964 32.6336 89.1321 32.8232 89.7722C33.277 91.2494 34.862 92.7373 36.3655 93.0868C37.0428 93.2453 37.5846 93.1363 37.8759 92.78L44.3914 85.8209L44.8858 86.2835L38.3838 93.2277C38.0587 93.6226 37.544 93.8332 36.9277 93.8332Z" fill="#141414"></path>
  <path d="M64.5542 95.6618C62.9626 95.6618 61.3981 95.4356 59.8607 94.9676L54.2256 93.609L54.544 92.2923L60.2196 93.6611C72.5598 97.4242 87.3654 84.3972 94.7072 63.3666C102.95 39.7381 99.2112 14.2523 86.3698 6.55358C85.1981 5.85258 83.918 5.31548 82.5566 4.95787C82.5295 4.9511 82.5092 4.94299 82.4821 4.93419C82.0893 4.81769 78.5064 3.92301 76.1494 3.33918L76.4745 2.02454C76.4745 2.02454 78.0798 2.4221 79.6849 2.82373C81.4594 3.26736 82.4009 3.5024 82.8885 3.68866L82.9021 3.64732C84.3853 4.03812 85.7873 4.62534 87.0673 5.39271C100.43 13.403 104.426 39.6107 95.9873 63.813C89.2956 82.9803 76.4271 95.6618 64.5542 95.6618Z" fill="#141414"></path>
  <path d="M72.8523 2.91181C70.9017 2.91181 68.8834 3.27822 66.8515 4.01579C57.2002 7.51196 47.9687 18.9487 42.7671 33.8612C34.5245 57.4891 38.2631 82.9756 51.1046 90.6736C55.236 93.1532 60.0176 93.525 64.9212 91.7498C74.5726 88.2537 83.7973 76.817 89.0056 61.9044C97.2482 38.2758 93.5096 12.7901 80.6682 5.092C78.2502 3.64124 75.6089 2.91181 72.8523 2.91181ZM58.9069 94.2125C55.9132 94.2125 53.0416 93.4174 50.4069 91.8352C37.044 83.8242 33.0412 57.6172 41.487 33.4149C46.9053 17.8955 56.2113 6.42897 66.3909 2.74249C71.6873 0.823047 76.8686 1.2335 81.3658 3.93047C94.7219 11.9408 98.7247 38.1478 90.2789 62.3507C84.8674 77.8702 75.5547 89.3367 65.3818 93.0238C63.1874 93.817 61.02 94.2125 58.9069 94.2125Z" fill="#141414"></path>
  <path d="M70.9161 14.1113C69.4599 14.1113 67.9631 14.3843 66.446 14.9336C59.2125 17.5534 52.2974 26.1373 48.3894 37.3363C42.2735 54.8632 45.152 74.4958 54.6815 80.208C57.709 82.0225 61.2037 82.2948 64.7934 80.9957C72.0268 78.3739 78.9826 69.7046 82.9379 58.3709C89.1284 40.6252 86.3379 21.4965 76.7204 15.7314C74.9256 14.6539 72.9615 14.1113 70.9161 14.1113ZM60.391 83.1617C58.1356 83.1617 55.9751 82.5623 53.9839 81.3696C43.7703 75.2469 40.6887 55.2933 47.1094 36.8899C51.207 25.1403 58.2643 16.4568 65.9854 13.6596C70.0288 12.1946 73.9842 12.5102 77.418 14.5699C87.557 20.6479 90.6049 40.4972 84.218 58.8172C80.134 70.5255 72.8667 79.5125 65.2539 82.269C63.6081 82.8651 61.9758 83.1617 60.391 83.1617Z" fill="#141414"></path>
</svg>
