<?xml version="1.0" encoding="UTF-8"?>
<svg xmlns="http://www.w3.org/2000/svg" width="170" height="163" viewBox="0 0 170 163" fill="none">
  <path d="M83.6004 162.103C82.2432 162.104 80.9425 161.821 79.9488 161.247L1.65807 116.047C0.583344 115.426 -0.00607844 114.529 4.72711e-05 113.517V109.663H1.36132V113.521C1.35723 114.167 1.89084 114.61 2.3387 114.868L80.6294 160.068C82.3576 161.068 85.5294 160.923 87.5542 159.753L138.954 129.952C139.727 129.504 140.208 128.671 140.211 127.779L140.216 125.316L141.578 125.319L141.572 127.782C141.568 129.157 140.827 130.44 139.637 131.129L88.2362 160.932C86.8933 161.707 85.2081 162.103 83.6004 162.103Z" fill="#141414"></path>
  <path d="M112.153 111.799C111.68 111.799 111.228 111.7 110.882 111.5L74.1059 90.2675C73.7139 90.0409 73.4981 89.7108 73.4981 89.3385C73.4981 88.9158 73.786 88.5067 74.2876 88.2168L76.3881 86.959L76.7373 87.5423L74.6327 88.8035C74.3509 88.9661 74.1787 89.1703 74.1787 89.3385C74.1787 89.4991 74.3462 89.6203 74.4462 89.6781L111.222 110.911C111.767 111.224 112.769 111.177 113.413 110.806L115.513 109.548L115.863 110.132L113.758 111.392C113.292 111.662 112.71 111.799 112.153 111.799Z" fill="#117BDF"></path>
  <path d="M48.4234 116.151C47.9844 116.151 47.5161 116.258 47.1588 116.464L34.9223 123.529C34.6453 123.689 34.4731 123.892 34.4731 124.06C34.4731 124.221 34.6412 124.342 34.7406 124.4L56.6244 137.035C57.1682 137.35 58.1715 137.3 58.8147 136.93L71.0505 129.865C71.3275 129.706 71.5004 129.501 71.5004 129.333C71.5004 129.173 71.3322 129.051 71.2322 128.994L49.3491 116.36C49.1068 116.22 48.7746 116.151 48.4234 116.151ZM57.5562 137.922C57.0838 137.922 56.6305 137.824 56.2841 137.624L34.4003 124.989C34.0082 124.763 33.7925 124.433 33.7925 124.06C33.7925 123.638 34.0804 123.229 34.582 122.939L46.8185 115.875C47.674 115.38 48.9353 115.335 49.6894 115.77L71.5725 128.404C71.9646 128.631 72.181 128.96 72.181 129.333C72.181 129.756 71.8931 130.165 71.3908 130.455L59.155 137.52C58.6922 137.786 58.1116 137.922 57.5562 137.922Z" fill="#117BDF"></path>
  <path d="M56.1751 84.8932C55.7361 84.8932 55.2678 85.0001 54.9105 85.2063L30.6983 99.1852C30.4213 99.3445 30.2491 99.5486 30.2491 99.7161C30.2491 99.8774 30.4165 99.9985 30.5165 100.056L98.9857 139.587C99.5309 139.902 100.533 139.853 101.177 139.482L125.388 125.503C125.665 125.344 125.837 125.14 125.837 124.972C125.837 124.81 125.67 124.69 125.57 124.632L57.1008 85.1015C56.8585 84.9613 56.5263 84.8932 56.1751 84.8932ZM99.9175 140.475C99.4458 140.475 98.9925 140.377 98.6454 140.176L30.1762 100.646C29.7842 100.419 29.5684 100.089 29.5684 99.7161C29.5684 99.2934 29.8563 98.885 30.358 98.5957L54.5702 84.6168C55.4258 84.1227 56.6863 84.0764 57.4411 84.5114L125.91 124.042C126.302 124.269 126.518 124.599 126.518 124.972C126.518 125.394 126.23 125.803 125.729 126.093L101.517 140.072C101.054 140.339 100.473 140.475 99.9175 140.475Z" fill="#141414"></path>
  <path d="M84.8359 106.79C84.7774 106.79 84.7182 106.774 84.6658 106.744L53.3933 88.6889C53.2878 88.6283 53.2231 88.516 53.2231 88.3949C53.2231 88.273 53.2878 88.1607 53.3933 88.0995L55.9178 86.6422L56.2581 87.2317L54.2441 88.3949L84.8359 106.057L87.1896 104.697L87.5299 105.287L85.0061 106.744C84.9537 106.774 84.8945 106.79 84.8359 106.79Z" fill="#141414"></path>
  <path d="M44.9506 94.0365L49.319 96.5583L51.1621 95.4938L46.7945 92.9721L44.9506 94.0365ZM49.319 97.2914C49.2597 97.2914 49.2012 97.2757 49.1488 97.2458L44.0998 94.3313C43.9943 94.27 43.9297 94.1577 43.9297 94.0365C43.9297 93.9147 43.9943 93.8024 44.0998 93.7418L46.6243 92.2839C46.7291 92.224 46.8591 92.224 46.9646 92.2839L52.0129 95.1991C52.1184 95.2603 52.1831 95.3727 52.1831 95.4938C52.1831 95.6157 52.1184 95.728 52.0129 95.7885L49.4891 97.2458C49.4367 97.2757 49.3775 97.2914 49.319 97.2914Z" fill="#141414"></path>
  <path d="M53.3993 99.2109L109.934 131.851L111.777 130.787L55.2424 98.1464L53.3993 99.2109ZM109.934 132.585C109.875 132.585 109.816 132.57 109.763 132.54L52.5485 99.5056C52.443 99.4451 52.3783 99.3328 52.3783 99.2109C52.3783 99.0891 52.443 98.9768 52.5485 98.9162L55.0723 97.459C55.1778 97.3984 55.3078 97.3984 55.4126 97.459L112.628 130.492C112.734 130.554 112.798 130.666 112.798 130.787C112.798 130.909 112.734 131.021 112.628 131.082L110.104 132.54C110.051 132.57 109.993 132.585 109.934 132.585Z" fill="#141414"></path>
  <path d="M96.3526 130.383C96.2933 130.383 96.2348 130.367 96.1824 130.336L38.8613 97.2424L39.2016 96.653L96.3526 129.65L98.1957 128.584L41.3858 95.7852L41.7261 95.1958L99.0465 128.29C99.152 128.35 99.2167 128.463 99.2167 128.584C99.2167 128.706 99.152 128.819 99.0465 128.88L96.5227 130.336C96.4696 130.367 96.4111 130.383 96.3526 130.383Z" fill="#141414"></path>
  <path d="M100.709 132.264L104.866 134.664L106.71 133.6L102.553 131.199L100.709 132.264ZM104.866 135.397C104.808 135.397 104.748 135.382 104.696 135.352L99.858 132.558C99.7531 132.498 99.6878 132.386 99.6878 132.264C99.6878 132.143 99.7531 132.03 99.858 131.969L102.382 130.512C102.487 130.452 102.618 130.452 102.723 130.512L107.561 133.305C107.666 133.366 107.731 133.479 107.731 133.6C107.731 133.722 107.666 133.834 107.561 133.894L105.036 135.352C104.984 135.382 104.925 135.397 104.866 135.397Z" fill="#141414"></path>
  <path d="M34.8134 99.7389L38.7611 102.017L40.6043 100.953L36.6573 98.6737L34.8134 99.7389ZM38.7611 102.751C38.7019 102.751 38.6434 102.735 38.591 102.705L33.9626 100.033C33.8578 99.973 33.7925 99.8607 33.7925 99.7389C33.7925 99.6171 33.8578 99.5047 33.9626 99.4435L36.4871 97.987C36.5919 97.9264 36.7226 97.9264 36.8274 97.987L41.4551 100.658C41.5606 100.719 41.6252 100.831 41.6252 100.953C41.6252 101.075 41.5606 101.187 41.4551 101.248L38.9313 102.705C38.8789 102.735 38.8197 102.751 38.7611 102.751Z" fill="#141414"></path>
  <path d="M45.5189 106.613L45.1786 106.024L47.1919 104.861L43.2449 102.582L40.8913 103.941L40.551 103.351L43.0748 101.894C43.1796 101.834 43.3103 101.834 43.4151 101.894L48.0427 104.566C48.1482 104.627 48.2129 104.739 48.2129 104.861C48.2129 104.982 48.1482 105.095 48.0427 105.155L45.5189 106.613Z" fill="#141414"></path>
  <path d="M49.1752 107.87L85.1829 128.66L87.0267 127.595L51.0184 106.805L49.1752 107.87ZM85.1829 129.393C85.1243 129.393 85.0658 129.377 85.0127 129.347L48.3244 108.164C48.2189 108.104 48.1543 107.992 48.1543 107.87C48.1543 107.749 48.2189 107.636 48.3244 107.575L50.8482 106.118C50.9537 106.058 51.0837 106.058 51.1885 106.118L87.8775 127.301C87.983 127.36 88.0477 127.473 88.0477 127.595C88.0477 127.716 87.983 127.829 87.8775 127.89L85.353 129.347C85.3006 129.377 85.2414 129.393 85.1829 129.393Z" fill="#141414"></path>
  <path d="M88.8819 108.505L102.084 116.127L103.928 115.062L90.7251 107.44L88.8819 108.505ZM102.084 116.86C102.026 116.86 101.966 116.844 101.914 116.814L88.0311 108.799C87.9256 108.738 87.861 108.626 87.861 108.505C87.861 108.383 87.9256 108.27 88.0311 108.21L90.5549 106.752C90.6604 106.691 90.7904 106.691 90.8952 106.752L104.779 114.768C104.884 114.828 104.949 114.941 104.949 115.062C104.949 115.184 104.884 115.297 104.779 115.358L102.254 116.814C102.202 116.844 102.143 116.86 102.084 116.86Z" fill="#141414"></path>
  <path d="M106.622 118.536L119.825 126.159L121.669 125.094L108.466 117.472L106.622 118.536ZM119.825 126.892C119.766 126.892 119.707 126.877 119.655 126.846L105.772 118.831C105.666 118.77 105.601 118.658 105.601 118.536C105.601 118.415 105.666 118.303 105.772 118.241L108.296 116.784C108.401 116.724 108.531 116.724 108.636 116.784L122.519 124.8C122.625 124.86 122.689 124.973 122.689 125.094C122.689 125.216 122.625 125.328 122.519 125.389L119.995 126.846C119.942 126.877 119.884 126.892 119.825 126.892Z" fill="#141414"></path>
  <path d="M102.304 136.716L90.5544 129.932L88.2007 131.291L87.8604 130.702L90.3842 129.245C90.489 129.184 90.6197 129.184 90.7245 129.245L102.644 136.127L102.304 136.716Z" fill="#141414"></path>
  <path d="M114.824 129.645L92.2546 116.614C92.1491 116.553 92.0845 116.44 92.0845 116.318C92.0845 116.197 92.1491 116.085 92.2546 116.024L94.7784 114.566C94.8832 114.506 95.0139 114.506 95.1187 114.566L117.688 127.597L117.348 128.187L94.9486 115.255L93.1054 116.318L115.164 129.054L114.824 129.645Z" fill="#141414"></path>
  <path d="M50.0195 91.2908L89.2268 113.927L91.0707 112.863L51.8634 90.2263L50.0195 91.2908ZM89.2268 114.66C89.1683 114.66 89.1091 114.645 89.0567 114.615L49.1687 91.5855C49.0632 91.5249 48.9986 91.4126 48.9986 91.2908C48.9986 91.1689 49.0632 91.0567 49.1687 90.9961L51.6932 89.5388C51.798 89.4783 51.928 89.4783 52.0335 89.5388L91.9215 112.568C92.027 112.629 92.0916 112.741 92.0916 112.863C92.0916 112.984 92.027 113.096 91.9215 113.158L89.397 114.615C89.3446 114.645 89.286 114.66 89.2268 114.66Z" fill="#141414"></path>
  <path d="M56.3966 77.2327C55.9167 77.2327 55.4369 77.3559 55.0081 77.6037L2.88029 107.72C1.92944 108.268 1.36179 108.975 1.36179 109.61C1.36179 110.231 1.89064 110.668 2.33509 110.924L80.4802 156.041C82.2056 157.038 85.3712 156.894 87.392 155.726L139.873 125.305C139.918 125.279 139.94 125.24 139.94 125.188C139.94 125.135 139.917 125.096 139.872 125.07L59.569 78.6655L57.8164 77.6227C57.3794 77.3627 56.888 77.2327 56.3966 77.2327ZM83.445 158.074C82.0899 158.074 80.7912 157.793 79.7995 157.22L1.65446 112.103C0.587221 111.488 0.000518799 110.602 0.000518799 109.61C0.000518799 108.466 0.801628 107.348 2.19965 106.54L54.3268 76.4255C55.6227 75.6761 57.2263 75.687 58.5127 76.4527L60.2578 77.4907L140.554 123.891C141.022 124.162 141.302 124.646 141.302 125.187C141.302 125.727 141.023 126.212 140.556 126.483C140.556 126.483 88.0733 156.904 88.0733 156.904C86.7318 157.679 85.0493 158.074 83.445 158.074Z" fill="#141414"></path>
  <path d="M143.522 125.937C142.677 125.937 141.838 125.715 141.084 125.277L141.767 124.1C142.691 124.636 143.792 124.724 144.789 124.338C145.786 123.953 146.542 123.147 146.864 122.128L168.119 54.796C168.736 52.8432 169.318 50.9981 164.324 48.609L162.254 47.5023L162.897 46.3024L164.938 47.3948C170.509 50.0581 170.237 52.6098 169.417 55.2064L148.161 122.538C147.715 123.953 146.665 125.072 145.28 125.607C144.71 125.828 144.115 125.937 143.522 125.937Z" fill="#141414"></path>
  <path d="M140.227 124.478C139.472 124.478 138.703 124.269 137.997 123.858L138.681 122.681C139.493 123.153 140.367 123.248 141.145 122.95C141.922 122.65 142.509 121.989 142.797 121.087L164.261 53.0913C164.947 50.92 164.049 48.6065 162.078 47.4672L83.0478 1.77886C82.3311 1.36367 81.4762 1.29696 80.7037 1.59508C79.9305 1.89319 79.3417 2.51599 79.0879 3.30485L57.3674 70.8647C56.6147 73.2061 57.6118 75.8034 59.7381 77.0394L59.0541 78.2162C56.3792 76.661 55.1241 73.3939 56.0715 70.4474L77.7919 2.8883C78.1724 1.70536 79.0552 0.770824 80.2136 0.324328C81.3721 -0.122169 82.6544 -0.0220956 83.7298 0.600005L162.759 46.2883C165.287 47.751 166.439 50.7165 165.559 53.5017L144.094 121.499C143.677 122.804 142.804 123.769 141.634 124.22C141.184 124.393 140.708 124.478 140.227 124.478Z" fill="#141414"></path>
  <path d="M83.4286 6.85477C83.2517 6.85477 83.0733 6.88744 82.9032 6.9521C82.4893 7.11069 82.1715 7.44282 82.0333 7.8655L61.6156 70.1559C61.2923 71.1421 61.7089 72.2365 62.6066 72.7586L138.235 116.724C138.518 116.888 138.856 116.915 139.162 116.797C139.468 116.679 139.701 116.434 139.801 116.122L160.158 52.8664C160.453 51.9489 160.062 50.932 159.227 50.4494L84.1617 7.05213C83.935 6.92077 83.6825 6.85477 83.4286 6.85477ZM138.774 117.55C138.469 117.55 138.166 117.47 137.893 117.312L62.2643 73.3467C61.0908 72.6647 60.5457 71.234 60.969 69.9435L81.3867 7.65313C81.5895 7.03512 82.0537 6.54847 82.6608 6.31637C83.2687 6.08428 83.9391 6.13738 84.502 6.46273L159.568 49.86C160.678 50.5025 161.199 51.8542 160.806 53.0753L140.449 116.33C140.285 116.839 139.905 117.241 139.406 117.433C139.201 117.511 138.987 117.55 138.774 117.55Z" fill="#141414"></path>
  <path d="M76.7257 41.3306C76.2288 40.8392 75.7115 40.4362 75.1888 40.132L75.5305 39.5439C76.1036 39.8768 76.6664 40.3144 77.2041 40.8467L76.7257 41.3306ZM79.082 44.5371C78.7363 43.9225 78.3742 43.3535 78.0073 42.8443L78.5586 42.4462C78.9411 42.9757 79.3168 43.5672 79.6749 44.2029L79.082 44.5371ZM80.7843 48.1975C80.5311 47.5462 80.2663 46.9193 79.9968 46.3346L80.6148 46.0494C80.8905 46.647 81.1607 47.2875 81.4186 47.9518L80.7843 48.1975ZM82.0646 52.0485C81.8896 51.4346 81.6916 50.7812 81.4683 50.1067L82.1142 49.893C82.3409 50.5777 82.5424 51.24 82.7193 51.8621L82.0646 52.0485ZM83.0174 56.001C82.9514 55.6573 82.8051 54.9426 82.5819 54.0142L83.2421 53.8543C83.4708 54.7963 83.6178 55.5225 83.6852 55.8717L83.0174 56.001ZM85.397 59.5185C84.8933 59.038 84.4305 58.5023 84.0228 57.9252L84.5781 57.5318C84.9613 58.0729 85.3949 58.5758 85.8666 59.0264L85.397 59.5185ZM88.9784 61.7129C88.323 61.4958 87.6784 61.1922 87.0631 60.8117L87.4212 60.2325C87.9915 60.5858 88.5878 60.8662 89.1922 61.0669L88.9784 61.7129ZM91.3974 62.1158C91.2879 62.1158 91.1789 62.1131 91.07 62.1083L91.1007 61.4284C91.703 61.4542 92.2986 61.3991 92.8662 61.2582L93.033 61.2187L93.1827 61.8831L93.0296 61.9191C92.5035 62.0491 91.9535 62.1158 91.3974 62.1158ZM96.9997 62.2132C96.3722 61.9777 95.7351 61.8279 95.1062 61.7694L95.1688 61.0915C95.8583 61.1561 96.5553 61.3188 97.2393 61.5768L96.9997 62.2132ZM100.255 64.3715C99.7876 63.8971 99.2778 63.4744 98.7394 63.1136L99.1179 62.548C99.6944 62.9339 100.24 63.3866 100.74 63.8943L100.255 64.3715ZM102.433 67.6453C102.177 67.0375 101.862 66.4522 101.499 65.9049L102.066 65.5278C102.452 66.1105 102.787 66.7339 103.06 67.3805L102.433 67.6453ZM103.943 71.4317L103.188 69.5348L103.82 69.2829L104.575 71.1798L103.943 71.4317ZM105.453 75.2262L104.698 73.3286L105.33 73.0768L106.086 74.9744L105.453 75.2262ZM107.036 79.0283C106.849 78.6757 106.68 78.3075 106.531 77.9331L106.209 77.1231L106.84 76.8713L107.163 77.6813C107.303 78.0325 107.462 78.3789 107.638 78.7104L107.036 79.0283ZM109.653 82.2994C109.122 81.8501 108.628 81.3417 108.187 80.7877L108.719 80.363C109.133 80.8823 109.595 81.3587 110.092 81.7794L109.653 82.2994ZM113.377 84.2487C112.705 84.0833 112.04 83.8267 111.399 83.4857L111.717 82.8847C112.31 83.1992 112.923 83.4361 113.54 83.5885L113.377 84.2487ZM117.524 84.4733L115.482 84.4726V83.792L117.524 83.7927V84.4733ZM121.607 84.474L119.566 84.4733V83.7927L121.607 83.7934V84.474ZM125.636 84.6238C124.972 84.5298 124.303 84.4801 123.647 84.4747L123.652 83.7941C124.338 83.7995 125.037 83.8519 125.731 83.9499L125.636 84.6238ZM129.493 85.6549C128.868 85.4071 128.229 85.1955 127.594 85.0246L127.771 84.3671C128.431 84.5448 129.095 84.7653 129.744 85.0219L129.493 85.6549ZM133.041 87.5151C132.481 87.1441 131.899 86.7997 131.315 86.4928L131.631 85.8904C132.236 86.2082 132.837 86.5642 133.417 86.9474L133.041 87.5151ZM136.166 90.0361C135.682 89.5665 135.176 89.118 134.661 88.7021L135.089 88.1732C135.619 88.6014 136.141 89.0635 136.64 89.5474L136.166 90.0361ZM138.94 93.0241C138.544 92.6266 138.154 92.2067 137.781 91.7745L137.552 91.5077L138.071 91.0687L137.802 91.2769L138.072 91.0694L138.297 91.3294C138.659 91.7493 139.037 92.1577 139.422 92.5436L138.94 93.0241ZM142.119 95.6779C141.556 95.2913 141.001 94.87 140.468 94.4242L140.905 93.9021C141.421 94.3337 141.959 94.7428 142.505 95.1171L142.119 95.6779Z" fill="#117BDF"></path>
  <path d="M143.317 95.5108L142.669 95.3025L146.578 83.158C144.792 81.958 143.257 80.2993 142.129 78.3465L141.952 78.0423C139.695 74.1375 135.764 71.5865 131.936 71.5443L130.496 71.5286C126.363 71.4837 122.165 68.7326 119.802 64.5222L115.682 57.1822C112.739 51.9386 107.078 49.3072 102.513 51.0612C99.7454 52.1244 96.6165 51.7589 93.702 50.0334C89.996 47.8384 87.3258 43.7655 86.735 39.404L86.699 39.142C86.1259 34.9111 83.5653 31.0519 79.9804 28.9739L65.7116 70.0469C65.6503 70.2239 65.4563 70.3191 65.2787 70.2565C65.101 70.1953 65.0071 70.0013 65.0691 69.8236L79.4706 28.3675C79.5033 28.2736 79.5754 28.1987 79.668 28.1619C79.7612 28.1259 79.8647 28.1327 79.9532 28.179C83.9097 30.3059 86.7527 34.4721 87.3735 39.0501L87.4096 39.3121C87.9731 43.4722 90.5173 47.3558 94.0491 49.4481C96.7805 51.0646 99.6998 51.4125 102.268 50.4255C107.147 48.5524 113.168 51.3131 116.275 56.8494L120.396 64.1893C122.642 68.1921 126.609 70.8051 130.504 70.848L131.944 70.8636C136.007 70.9085 140.167 73.5923 142.542 77.702L142.718 78.0062C143.838 79.9447 145.377 81.5782 147.165 82.7298C147.295 82.8135 147.352 82.9735 147.305 83.1205L143.317 95.5108Z" fill="#117BDF"></path>
  <path d="M137.672 112.095C137.612 112.095 137.553 112.078 137.5 112.049L65.2194 70.0411C65.0785 69.9594 65.0152 69.7893 65.069 69.6354L75.559 39.4384L76.2015 39.6616L65.8041 69.5939L137.477 111.248L142.669 95.1143L143.317 95.3226L137.996 111.859C137.964 111.957 137.889 112.035 137.794 112.072C137.754 112.087 137.713 112.095 137.672 112.095Z" fill="#117BDF"></path>
  <path d="M141.126 65.7782C139.998 65.7782 139.084 64.8634 139.084 63.7363C139.084 62.6085 139.998 61.6944 141.126 61.6944C142.253 61.6944 143.168 62.6085 143.168 63.7363C143.168 64.8634 142.253 65.7782 141.126 65.7782ZM141.126 60.3474C139.253 60.3474 137.736 61.8646 137.736 63.7363C137.736 64.8498 138.275 65.8347 139.104 66.452L137.704 70.3807L139.162 70.9007L140.526 67.0701C140.721 67.1041 140.921 67.1259 141.126 67.1259C142.998 67.1259 144.515 65.608 144.515 63.7363C144.515 61.8646 142.998 60.3474 141.126 60.3474Z" fill="#117BDF"></path>
  <path d="M140.621 62.0583C139.684 62.0583 138.92 62.8212 138.92 63.7598C138.92 64.6978 139.684 65.4614 140.621 65.4614C141.56 65.4614 142.323 64.6978 142.323 63.7598C142.323 62.8212 141.56 62.0583 140.621 62.0583ZM140.621 66.1421C139.308 66.1421 138.239 65.0735 138.239 63.7598C138.239 62.4462 139.308 61.3776 140.621 61.3776C141.935 61.3776 143.004 62.4462 143.004 63.7598C143.004 65.0735 141.935 66.1421 140.621 66.1421ZM137.635 70.1973L138.451 70.4886L139.702 66.9793C139.758 66.8221 139.919 66.7288 140.082 66.7581C140.274 66.7921 140.45 66.8091 140.621 66.8091C142.303 66.8091 143.671 65.441 143.671 63.7598C143.671 62.078 142.303 60.7113 140.621 60.7113C138.94 60.7113 137.573 62.078 137.573 63.7598C137.573 64.7297 138.021 65.62 138.803 66.2033C138.923 66.2925 138.971 66.449 138.921 66.5899L137.635 70.1973ZM138.657 71.2639C138.619 71.2639 138.58 71.2571 138.543 71.2441L137.086 70.7248C136.909 70.6615 136.817 70.4668 136.88 70.2899L138.198 66.5899C137.365 65.8794 136.892 64.8618 136.892 63.7598C136.892 61.7036 138.565 60.0306 140.621 60.0306C142.678 60.0306 144.351 61.7036 144.351 63.7598C144.351 65.8167 142.678 67.4898 140.621 67.4898C140.5 67.4898 140.376 67.4829 140.25 67.4693L138.978 71.0379C138.948 71.123 138.884 71.1924 138.803 71.2312C138.757 71.253 138.707 71.2639 138.657 71.2639Z" fill="#117BDF"></path>
  <path d="M115.124 42.8283C113.611 42.8283 112.385 41.6024 112.385 40.0901C112.385 38.5777 113.611 37.3519 115.124 37.3519C116.636 37.3519 117.862 38.5777 117.862 40.0901C117.862 41.6024 116.636 42.8283 115.124 42.8283ZM115.124 34.792C112.197 34.792 109.825 37.1633 109.825 40.0901C109.825 41.9924 110.83 43.6545 112.335 44.5897L110.777 48.9655L112.233 49.4855L113.758 45.205C114.195 45.3207 114.651 45.3888 115.124 45.3888C118.05 45.3888 120.423 43.0168 120.423 40.0901C120.423 37.1633 118.05 34.792 115.124 34.792Z" fill="#117BDF"></path>
  <path d="M114.62 37.7163C113.297 37.7163 112.221 38.7924 112.221 40.1142C112.221 41.4367 113.297 42.5121 114.62 42.5121C115.942 42.5121 117.018 41.4367 117.018 40.1142C117.018 38.7924 115.942 37.7163 114.62 37.7163ZM114.62 43.1927C112.922 43.1927 111.541 41.8117 111.541 40.1142C111.541 38.4167 112.922 37.0357 114.62 37.0357C116.317 37.0357 117.698 38.4167 117.698 40.1142C117.698 41.8117 116.317 43.1927 114.62 43.1927ZM110.707 48.7827L111.523 49.0741L112.933 45.1148C112.993 44.948 113.169 44.8548 113.342 44.8997C116.598 45.7662 119.578 43.2655 119.578 40.1142C119.578 37.3801 117.353 35.1557 114.62 35.1557C111.886 35.1557 109.661 37.3801 109.661 40.1142C109.661 41.8369 110.539 43.4112 112.011 44.3246C112.147 44.409 112.206 44.5771 112.152 44.7275L110.707 48.7827ZM111.729 49.8493C111.691 49.8493 111.652 49.8425 111.615 49.8296L110.158 49.3102C109.981 49.2469 109.889 49.0523 109.952 48.8753L111.421 44.7513C109.887 43.6957 108.981 41.9818 108.981 40.1142C108.981 37.005 111.51 34.4751 114.62 34.4751C117.729 34.4751 120.258 37.005 120.258 40.1142C120.258 43.6004 117.046 46.3835 113.472 45.63L112.05 49.6233C112.02 49.7084 111.956 49.7778 111.875 49.8166C111.829 49.8384 111.78 49.8493 111.729 49.8493Z" fill="#117BDF"></path>
</svg>
