<svg version="1.2" xmlns="http://www.w3.org/2000/svg" viewBox="0 0 661 511" width="661" height="511"><defs><linearGradient id="P" gradientUnits="userSpaceOnUse"/><linearGradient id="g1" x1="43.8" y1="245.8" x2="291.5" y2="245.8" href="#P"><stop stop-color="#d3d7f2"/><stop offset="1" stop-color="#bfcfff"/></linearGradient></defs><style>.a{opacity:0;fill:#a7b1f2}.b{opacity:.1;fill:#a7b1f2}.c{opacity:.2;fill:#a7b1f2}.d{opacity:.3;fill:#a7b1f2}.e{opacity:.4;fill:#a7b1f2}.f{opacity:.5;fill:#a7b1f2}.g{opacity:.6;fill:#a7b1f2}.h{opacity:.7;fill:#a7b1f2}.i{opacity:.8;fill:#a7b1f2}.j{opacity:.9;fill:#a7b1f2}.k{fill:#a7b1f2}.l{fill:#1e4abf}.m{fill:#3176ff}.n{fill:#42c8ff}.o{fill:#f3abc7}.p{fill:#8a96e6}.q{fill:#42dbff}.r{fill:#396fff}.s{fill:#bfcfff}.t{fill:url(#g1)}.u{fill:#fff}</style><g style="opacity:.3;mix-blend-mode:multiply"><path class="a" d="m421.1 314.1c-23.4-11.7-51.1-11.7-74.5 0q-0.2 0.1-0.4 0.1-9.3 4.7-17 9.8c-6.4 4.3-6.4 13.8 0 18.1q7.7 5.1 17 9.8 0.2 0.1 0.4 0.2c23.4 11.6 51.1 11.6 74.5 0q0.2-0.1 0.4-0.2 9.3-4.7 17-9.8c6.4-4.3 6.4-13.8 0-18.1q-7.7-5.1-17-9.8-0.2 0-0.4-0.1z"/><path class="b" d="m424 312.6c-23.4-11.6-51.1-11.6-74.6 0q-0.1 0.1-0.3 0.2-9.3 4.7-17 9.8c-6.5 4.3-6.5 13.8 0 18.1q7.7 5.1 17 9.8 0.2 0 0.3 0.1c23.5 11.7 51.2 11.7 74.6 0q0.2-0.1 0.4-0.1 9.3-4.7 17-9.8c6.4-4.3 6.4-13.8 0-18.1q-7.7-5.1-17-9.8-0.2-0.1-0.4-0.2z"/><path class="c" d="m426.9 311.2c-23.5-11.7-51.1-11.7-74.6 0q-0.2 0.1-0.3 0.2-9.3 4.6-17 9.8c-6.5 4.3-6.5 13.7 0 18q7.7 5.1 17 9.8 0.1 0.1 0.3 0.2c23.5 11.6 51.1 11.6 74.6 0q0.2-0.1 0.3-0.2 9.3-4.7 17-9.8c6.5-4.3 6.5-13.7 0-18q-7.7-5.2-17-9.8-0.1-0.1-0.3-0.2z"/><path class="d" d="m429.8 309.8c-23.5-11.7-51.2-11.7-74.6 0q-0.2 0-0.4 0.1-9.3 4.7-16.9 9.8c-6.5 4.3-6.5 13.8 0 18.1q7.6 5.1 16.9 9.8 0.2 0.1 0.4 0.1c23.4 11.7 51.1 11.7 74.6 0q0.1 0 0.3-0.1 9.3-4.7 17-9.8c6.5-4.3 6.5-13.8 0-18.1q-7.7-5.1-17-9.8-0.2-0.1-0.3-0.1z"/><path class="e" d="m432.6 308.3c-23.4-11.6-51.1-11.6-74.5 0q-0.2 0.1-0.4 0.2-9.3 4.7-17 9.8c-6.4 4.3-6.4 13.7 0 18q7.7 5.2 17 9.8 0.2 0.1 0.4 0.2c23.4 11.7 51.1 11.7 74.5 0q0.2-0.1 0.4-0.2 9.3-4.6 17-9.8c6.4-4.3 6.4-13.7 0-18q-7.7-5.1-17-9.8-0.2-0.1-0.4-0.2z"/><path class="f" d="m435.5 306.9c-23.4-11.7-51.1-11.7-74.5 0q-0.2 0.1-0.4 0.2-9.3 4.6-17 9.7c-6.4 4.3-6.4 13.8 0 18.1q7.7 5.1 17 9.8 0.2 0.1 0.4 0.2c23.4 11.6 51.1 11.6 74.5 0q0.2-0.1 0.4-0.2 9.3-4.7 17-9.8c6.4-4.3 6.4-13.8 0-18.1q-7.7-5.1-17-9.7-0.2-0.1-0.4-0.2z"/><path class="f" d="m438.4 305.4c-23.4-11.6-51.1-11.6-74.6 0q-0.1 0.1-0.3 0.2-9.3 4.7-17 9.8c-6.5 4.3-6.5 13.8 0 18.1q7.7 5.1 17 9.8 0.2 0 0.3 0.1c23.5 11.7 51.2 11.7 74.6 0q0.2-0.1 0.3-0.1 9.4-4.7 17-9.8c6.5-4.3 6.5-13.8 0-18.1q-7.6-5.1-17-9.8-0.1-0.1-0.3-0.2z"/><path class="g" d="m441.3 304c-23.5-11.7-51.1-11.7-74.6 0q-0.2 0.1-0.3 0.2-9.4 4.6-17 9.8c-6.5 4.3-6.5 13.7 0 18q7.7 5.1 17 9.8 0.1 0.1 0.3 0.2c23.5 11.7 51.1 11.7 74.6 0q0.2-0.1 0.3-0.2 9.3-4.7 17-9.8c6.5-4.3 6.5-13.7 0-18q-7.7-5.2-17-9.8-0.1-0.1-0.3-0.2z"/><path class="h" d="m444.2 302.6c-23.5-11.7-51.2-11.7-74.6 0q-0.2 0-0.4 0.1-9.3 4.7-17 9.8c-6.4 4.3-6.4 13.8 0 18.1q7.7 5.1 17 9.8 0.2 0.1 0.4 0.1c23.4 11.7 51.1 11.7 74.6 0q0.1 0 0.3-0.1 9.3-4.7 17-9.8c6.5-4.3 6.5-13.8 0-18.1q-7.7-5.1-17-9.8-0.2-0.1-0.3-0.1z"/><path class="i" d="m447 301.1c-23.4-11.6-51.1-11.6-74.5 0q-0.2 0.1-0.4 0.2-9.3 4.7-17 9.8c-6.4 4.3-6.4 13.8 0 18q7.7 5.2 17 9.8 0.2 0.1 0.4 0.2c23.4 11.7 51.1 11.7 74.5 0q0.2-0.1 0.4-0.2 9.3-4.6 17-9.8c6.4-4.2 6.4-13.7 0-18q-7.7-5.1-17-9.8-0.2-0.1-0.4-0.2z"/><path class="j" d="m449.9 299.7c-23.4-11.7-51.1-11.7-74.6 0q-0.1 0.1-0.3 0.2-9.3 4.6-17 9.7c-6.5 4.3-6.5 13.8 0 18.1q7.7 5.1 17 9.8 0.2 0.1 0.3 0.2c23.5 11.6 51.2 11.6 74.6 0q0.2-0.1 0.4-0.2 9.3-4.7 17-9.8c6.4-4.3 6.4-13.8 0-18.1q-7.7-5.1-17-9.7-0.2-0.1-0.4-0.2z"/><path class="k" d="m452.8 298.2c-23.5-11.6-51.1-11.6-74.6 0q-0.2 0.1-0.3 0.2-9.3 4.7-17 9.8c-6.5 4.3-6.5 13.8 0 18.1q7.7 5.1 17 9.8 0.1 0 0.3 0.1c23.5 11.7 51.1 11.7 74.6 0q0.2-0.1 0.3-0.1 9.3-4.7 17-9.8c6.5-4.3 6.5-13.8 0-18.1q-7.7-5.1-17-9.8-0.1-0.1-0.3-0.2z"/></g><path class="l" d="m414 287.4l-1.4-13.3-41.2 10.2c-5.9 1.5-5.8 12.1 1.4 12.1h34.2c5 0 7.4-5.4 7-9z"/><path class="l" d="m446.9 293.8c-3.3 1.6-4.7 5.8-2.1 10.1l13.1 28.4c1.4 3.2 4.6 5.2 8.3 4 3.7-1.1 5-5.4 4.2-9.9l-4.9-28.9c-0.2-5-3.8-7.7-7.4-7.2z"/><path class="m" d="m403.6 287c-6.5 0-12-5.1-12.4-11.6l-8.5-130.1c-0.5-6.9 4.7-12.9 11.6-13.3 6.9-0.5 12.8 4.7 13.3 11.6l8.5 130.1c0.5 6.9-4.8 12.8-11.6 13.3q-0.4 0-0.9 0z"/><path class="m" d="m454.4 307.9c-5.8 0-11-4.1-12.2-9.9l-28.6-134.2c-1.4-6.7 2.9-13.4 9.6-14.8 6.8-1.4 13.4 2.9 14.8 9.6l28.6 134.2c1.4 6.7-2.9 13.4-9.6 14.8q-1.3 0.3-2.6 0.3z"/><path class="m" d="m381.1 127l3 32.2 53.5 19.3-0.2-41.8z"/><path class="n" d="m372.6 119.4c-4.3 0-8.2-2.6-10.4-7.1-1.6-3.1-0.3-6.8 2.7-8.4 2.9-1.4 6.4-0.4 8.1 2.2 2-2.3 5.6-9.6 6.3-26.6 0.2-3.4 3.1-6.1 6.5-5.9 3.5 0.1 6.1 3 6 6.5-1 22.7-7.2 37-16.9 39q-1.2 0.3-2.3 0.3z"/><path class="n" d="m385.4 73.5c15.5-0.2 31.2 2.2 47.3 7.7 5.1 1.8 9.5 8.9 8.8 13.6-1.9 12.2-4 32.6-4 49 0 10.1-28.7 6.1-56.4-12.7 0-21 0.6-42.7 4.3-57.6z"/><path class="o" d="m404.1 68.7l1.6 15.5 11.4-6.4-1.9-13.9z"/><path class="o" d="m399.1 66.7c0.2 1.8 3.1 4.2 6.3 2.4 1-0.6 9.8-5 9.8-5 0 0 2.7-9.5-1.2-13.3-1.8-1.8-11.4-0.6-13.2 1.2-2.7 2.6-2.2 10.8-1.7 14.7z"/><path class="l" d="m392.3 47.5c3.2 1.7 9.6-2.6 12.7-3.6 7.3-2.4 13.4 1.5 13.4 9.1 0 3.5-3.2 11.1-3.2 11.1 0 0-0.7-5.4-1.1-5.8-0.3-0.5-2.2 1.5-2.2 1.5-0.2-3.3-1.3-5.7 0.3-7.4 0 0-9.6 2.8-13.8 2.8-4.4 0-7.4-3.9-6.1-7.7z"/><path class="p" d="m372.5 122.9l19.2 9.2c1.7 0.8 2.8 0.1 2.5-1.5l-5.9-33.4c-0.3-1.6-1.9-3.6-3.6-4.4l-19.2-9.2c-1.7-0.8-2.8-0.1-2.5 1.5l6 33.4c0.2 1.6 1.8 3.6 3.5 4.4z"/><path class="o" d="m362.2 107.6c-0.3 3.7 3 6 5.8 6.6l-0.5-6.2c0.9-1.3 1.2-2.8 1-4.3l-0.7-5.8-3.2 1.5c-3 1.8-3.6 4.2-2.4 8.2z"/><path class="n" d="m424.5 145.3c-8.5 0-20.3-4.2-34.8-20.1-2.4-2.6-2.2-6.5 0.3-8.8 2.6-2.4 6.5-2.2 8.9 0.4 12.5 13.6 24.9 19.2 31.6 14.2 6.8-5 7.9-21.2-2.2-38.3-1.8-3-0.8-6.8 2.2-8.6 2.9-1.7 6.7-0.8 8.5 2.2 12.8 21.8 12.4 44.8-1.1 54.8-2.1 1.5-6.7 4.2-13.4 4.2z"/><path class="o" d="m391.5 107.4c-0.3-0.5-0.9-0.8-1.5-0.6-0.6 0.3-0.9 0.9-0.7 1.5l1.2 3.7-2.1-2.5-4.3-2.7c-0.5-0.3-1.2-0.2-1.5 0.3-0.3 0.5-0.2 1.2 0.2 1.5l3.4 2.7 0.5 0.8-2.4-1-1.1 7.4 1.4 1.5c0 0 2.6 2.7 4.8 4.6 1.3 1.1 3.2 1 4.4-0.3l3.3-3.6c0.9-1 1.1-2.5 0.3-3.7z"/><path class="q" d="m324.9 412.8q7 0 13.9-0.2v-47.5q-6.9 0.2-13.9 0.3z"/><path class="r" d="m345.7 412.3q6.9-0.2 13.7-0.7v-71.1q-6.8 0.4-13.7 0.7z"/><path class="s" d="m366.2 411.2q6.8-0.5 13.5-1.2v-59.3q-6.7 0.7-13.5 1.2z"/><path class="q" d="m468.8 393.7q5.9-1.6 11.7-3.4v-59.3q-5.8 1.8-11.7 3.4z"/><path class="r" d="m486.3 388.5q5.7-1.9 11.3-3.9v-83q-5.6 2-11.3 3.8z"/><path class="s" d="m503.1 382.6q5.5-2.1 10.8-4.3v-71.2q-5.3 2.2-10.8 4.3z"/><path class="q" d="m399.7 407.7q6.6-0.9 13-1.9v-35.6q-6.4 1.1-13 1.9z"/><path class="r" d="m419.2 404.8q6.4-1.1 12.7-2.4v-59.3q-6.3 1.3-12.7 2.4z"/><path class="s" d="m438.2 401.2q6.3-1.4 12.4-2.8v-47.5q-6.1 1.5-12.4 2.8z"/><path class="s" d="m324.9 430.8c18.6-0.1 36.9-1.1 54.8-2.8v-3.8c-17.9 1.7-36.2 2.7-54.8 2.8z"/><path class="s" d="m324.9 437.5c18.6-0.1 36.9-1 54.8-2.8v-3.8c-17.9 1.8-36.2 2.7-54.8 2.8z"/><path class="s" d="m324.9 444.3q18.7-0.1 37-1.4v-3.8q-18.3 1.3-37 1.4z"/><path class="s" d="m399.7 425.7c17.5-2.3 34.6-5.4 50.9-9.3v-3.8c-16.3 3.8-33.4 7-50.9 9.3z"/><path class="s" d="m399.7 432.5c17.5-2.4 34.6-5.5 50.9-9.4v-3.8c-16.3 3.9-33.4 7-50.9 9.3z"/><path class="s" d="m399.7 439.2q17.6-2.4 34.6-5.8v-3.8q-17 3.4-34.6 5.8z"/><path class="s" d="m468.8 411.7c15.8-4.4 30.9-9.5 45.1-15.4v-3.8c-14.2 5.8-29.3 11-45.1 15.4z"/><path class="s" d="m468.8 418.5c15.8-4.5 30.9-9.6 45.1-15.5v-3.8c-14.2 5.9-29.3 11-45.1 15.5z"/><path class="s" d="m468.8 425.2q15.9-4.4 30.8-9.9v-3.8q-14.9 5.5-30.8 9.9z"/><path class="t" d="m291.5 351.5c-16.9-3.6-18-27.1-36.3-28.9-21.1-2.2-20.7 30.5-43 26.5-19.3-3.6-18.3-29-36.4-33.8-15.3-4.1-17.4 20-32.9 15.4-0.7-0.2-1.6-0.7-2.2-1-12.6-5.6-15.3-22.2-29.2-26.5-8.3-2.5-15 7.4-23.5 2.9-6.6-3.5-10.7-19.3-14.7-34.6-2.5-9.5-5.5-21.3-9.5-24.3-13.9-10.6-6 41.7-20 31.2v36.8c14.9 16.8 36.1 32.2 62.8 45.6 50.3 25.1 115.1 40.4 184.9 43.7z"/><path class="r" d="m43.8 284.5c2.1 2.2 2.9-0.6 2.9-2.8 0.1-5.4-3.1-11.8-4.9-9.9-1.7 1.8-0.4 10 2 12.7z"/><path class="r" d="m63.6 253.2c2.7 2 4.2-0.7 3.8-4.5-0.7-5.5-4.7-10.3-6.6-7.9-2 2.4-0.3 9.9 2.8 12.4z"/><path class="r" d="m113.7 310.2c4.6 1.9 6.6-2.7 4.6-7.3-2.3-5.2-7.7-7.3-9.3-3.7-1.5 3.4 1 9.2 4.7 11z"/><path class="r" d="m175.8 321.4c5.6 1.3 7.8-4.1 5-8.5-3.2-5-10-5.4-11-0.6-0.8 3.6 2.2 8 6 9.1z"/><path class="r" d="m255.2 328.7c6.5 0.5 8.8-5.7 5.1-9.7-4.1-4.5-11.8-2.9-12 2.5-0.2 3.5 3 6.8 6.9 7.2z"/><path class="r" d="m291.5 357.7c6.7 0 9-6 5.5-9.9-4.2-4.5-12.3-2.5-12.6 3.1-0.1 3.5 3.1 6.6 7.1 6.8z"/><path class="s" d="m43.8 354.1c11.3 12.8 26.2 24.7 44.5 35.6v-3.8c-18.3-10.9-33.2-22.8-44.5-35.6z"/><path class="q" d="m43.8 343.2c11.3 12.7 26.2 24.6 44.5 35.5v-9.5c-18.3-10.9-33.2-22.8-44.5-35.6z"/><path class="s" d="m43.8 361c11.3 12.7 26.2 24.7 44.5 35.5v-3.8c-18.3-10.9-33.2-22.8-44.5-35.5z"/><path class="s" d="m43.8 367.8c11.3 12.7 26.2 24.7 44.5 35.6v-3.8c-18.3-10.9-33.2-22.9-44.5-35.6z"/><path class="s" d="m43.8 374.6c11.3 12.8 26.2 24.7 44.5 35.6v-3.8c-18.3-10.9-33.2-22.9-44.5-35.6z"/><path class="s" d="m43.8 381.4c11.3 12.8 26.2 24.7 44.5 35.6v-3.8c-18.3-10.9-33.2-22.8-44.5-35.6z"/><path class="s" d="m43.8 388.3q7 7.9 15.9 15.4v-3.8q-8.9-7.5-15.9-15.4z"/><path class="s" d="m111.5 402.1c20.6 9.9 43.6 18.2 68.3 24.7v-3.8c-24.7-6.5-47.7-14.8-68.3-24.7z"/><path class="r" d="m111.5 391.1c20.6 9.9 43.6 18.2 68.3 24.7v-9.5c-24.7-6.5-47.7-14.8-68.3-24.7z"/><path class="s" d="m111.5 408.9c20.6 9.9 43.6 18.2 68.3 24.7v-3.8c-24.7-6.5-47.7-14.8-68.3-24.7z"/><path class="s" d="m111.5 415.8c20.6 9.9 43.6 18.1 68.3 24.6v-3.8c-24.7-6.5-47.7-14.7-68.3-24.6z"/><path class="s" d="m111.5 422.6c20.6 9.9 43.6 18.2 68.3 24.7v-3.8c-24.7-6.6-47.7-14.8-68.3-24.7z"/><path class="s" d="m111.5 429.4c20.6 9.9 43.6 18.2 68.3 24.7v-3.8c-24.7-6.5-47.7-14.8-68.3-24.7z"/><path class="s" d="m111.5 436.3q12.8 6.1 26.8 11.4v-3.8q-14-5.3-26.8-11.5z"/><path class="s" d="m210 433.7c25.9 5.1 53.3 8.4 81.5 9.8v-3.8c-28.2-1.4-55.6-4.7-81.5-9.8z"/><path class="s" d="m210 422.7c25.9 5.1 53.3 8.4 81.5 9.8v-9.5c-28.2-1.4-55.6-4.7-81.5-9.8z"/><path class="s" d="m210 440.5c25.9 5.1 53.3 8.4 81.5 9.8v-3.8c-28.2-1.4-55.6-4.7-81.5-9.8z"/><path class="s" d="m210 447.4c25.9 5.1 53.3 8.4 81.5 9.7v-3.8c-28.2-1.3-55.6-4.6-81.5-9.7z"/><path class="s" d="m210 454.2c25.9 5.1 53.3 8.4 81.5 9.7v-3.8c-28.2-1.3-55.6-4.6-81.5-9.7z"/><path class="s" d="m210 461c25.9 5.1 53.3 8.4 81.5 9.8v-3.8c-28.2-1.4-55.6-4.7-81.5-9.8z"/><path class="s" d="m210 467.9q16.1 3.1 32.9 5.4v-3.9q-16.8-2.2-32.9-5.4z"/><path fill-rule="evenodd" class="r" d="m537.8 356.9c-7.7-13.3 9.3-37.8 19.9-34.5 9.6 2.9 6.3 28.2-7.5 37.1-5 2.8-9.9 1.8-12.4-2.6zm11.4-10.6l-4.9-3.6-2.2 3.9 5.3 3.8c1.1 0.7 2.5-0.3 3.3-1.5 0.7-1.1 3.2-6.1 8.7-17l-1.9-1.5c-2.5 4.8-5.8 11.2-8.3 15.9z"/><path class="u" d="m549.2 350.3c0.7-0.4 1.3-1 1.8-1.9 2.5-5 5.9-11.5 8.4-16.5l-1.9-1.5c-2.5 4.8-5.8 11.2-8.3 15.9l-4.9-3.6-2.2 3.9c6 4.3 6 4.3 7.1 3.7z"/><path class="s" d="m578.5 311.6c11.2-8.9 20.5-18.4 27.7-28.2v-3.8c-7.2 9.8-16.5 19.3-27.7 28.2z"/><path class="r" d="m572.6 317.1c2.2-1.7 2.5-6 0.9-6.2-1.9-0.1-3.7 4.7-2.4 6.2 0.4 0.5 0.9 0.5 1.5 0z"/><path class="s" d="m570.7 324c14.8-10.7 26.7-22.1 35.5-34.2v-3.8c-8.8 12.1-20.7 23.5-35.5 34.1z"/><path class="s" d="m570.7 330.4c14.8-10.6 26.7-22.1 35.5-34.1v-3.8c-8.8 12-20.7 23.5-35.5 34.1z"/><path class="s" d="m570.7 336.9c14.8-10.7 26.7-22.1 35.5-34.2v-3.8c-8.8 12.1-20.7 23.5-35.5 34.1z"/><path class="s" d="m570.7 343.3q12.9-9.3 22.9-19.4v-3.8q-10 10.1-22.9 19.4z"/><path fill-rule="evenodd" class="s" d="m537.3 413c-7.7-13.3 9.4-37.8 20-34.5 9.6 2.9 6.3 28.2-7.5 37.1-5 2.8-9.9 1.8-12.5-2.6zm11.5-10.6l-5-3.6-2.2 3.9 5.4 3.8c1 0.7 2.4-0.3 3.3-1.5 0.6-1.1 3.2-6.1 8.7-17l-1.9-1.5c-2.5 4.8-5.8 11.2-8.3 15.9z"/><path class="u" d="m548.8 406.4c0.7-0.4 1.2-1 1.7-1.9 2.6-5 6-11.5 8.5-16.5l-1.9-1.5c-2.5 4.8-5.8 11.2-8.3 15.9l-5-3.6-2.2 3.9c6.1 4.3 6.1 4.3 7.2 3.7z"/><path class="s" d="m578.5 367.5c11.2-9 20.5-18.4 27.7-28.3v-3.8c-7.2 9.9-16.5 19.3-27.7 28.3z"/><path class="r" d="m572.6 373c2.2-1.8 2.5-6.1 0.9-6.2-1.9-0.2-3.7 4.7-2.4 6.2 0.4 0.4 0.9 0.4 1.5 0z"/><path class="s" d="m570.7 379.8c14.8-10.6 26.7-22.1 35.5-34.1v-3.8c-8.8 12-20.7 23.5-35.5 34.1z"/><path class="s" d="m570.7 386.3c14.8-10.7 26.7-22.1 35.5-34.2v-3.8c-8.8 12.1-20.7 23.5-35.5 34.1z"/><path class="s" d="m570.7 392.7c14.8-10.6 26.7-22.1 35.5-34.1v-3.8c-8.8 12-20.7 23.5-35.5 34.1z"/><path class="s" d="m570.7 399.2q12.9-9.3 22.9-19.4v-3.8q-10 10-22.9 19.3z"/><path fill-rule="evenodd" class="q" d="m537.8 301c-7.7-13.2 9.3-37.7 19.9-34.5 9.6 3 6.3 28.2-7.5 37.1-5 2.9-9.9 1.9-12.4-2.6zm11.4-10.5l-4.9-3.6-2.2 3.8 5.3 3.8c1.1 0.7 2.5-0.2 3.3-1.5 0.7-1 3.2-6 8.7-17l-1.9-1.4c-2.5 4.8-5.8 11.1-8.3 15.9z"/><path class="u" d="m549.2 294.5c0.7-0.5 1.3-1.1 1.8-2 2.5-4.9 5.9-11.5 8.4-16.5l-1.9-1.4c-2.5 4.7-5.8 11.1-8.3 15.9l-4.9-3.6-2.2 3.8c6 4.4 6 4.4 7.1 3.8z"/><path class="s" d="m578.5 255.8c11.2-9 20.5-18.4 27.7-28.3v-3.8c-7.2 9.9-16.5 19.3-27.7 28.3z"/><path class="r" d="m572.6 261.3c2.2-1.8 2.5-6 0.9-6.2-1.9-0.2-3.7 4.7-2.4 6.2 0.4 0.4 0.9 0.4 1.5 0z"/><path class="s" d="m570.7 268.1c14.8-10.6 26.7-22.1 35.5-34.1v-3.8c-8.8 12-20.7 23.5-35.5 34.1z"/><path class="s" d="m570.7 274.6c14.8-10.7 26.7-22.1 35.5-34.2v-3.8c-8.8 12.1-20.7 23.5-35.5 34.1z"/><path class="s" d="m570.7 281c14.8-10.6 26.7-22.1 35.5-34.1v-3.8c-8.8 12-20.7 23.5-35.5 34.1z"/><path class="s" d="m570.7 287.5q12.9-9.3 22.9-19.4v-3.8q-10 10-22.9 19.3z"/></svg>