<svg version="1.2" xmlns="http://www.w3.org/2000/svg" viewBox="0 0 1215 1193" width="1215" height="1193"><defs><linearGradient id="P" gradientUnits="userSpaceOnUse"/><linearGradient id="g1" x1="512.4" y1="1198" x2="1068.4" y2="1198" href="#P"><stop stop-color="#e1e3f8"/><stop offset=".5" stop-color="#d3d7f2"/><stop offset="1" stop-color="#f2f3ff"/></linearGradient><linearGradient id="g2" x1="506.8" y1="247" x2="1063.8" y2="247" href="#P"><stop stop-color="#e8eafb"/><stop offset="1" stop-color="#fff"/></linearGradient><linearGradient id="g3" x1="512.4" y1="1198" x2="1068.4" y2="1198" href="#P"><stop stop-color="#e1e3f8"/><stop offset=".5" stop-color="#d3d7f2"/><stop offset="1" stop-color="#f2f3ff"/></linearGradient><linearGradient id="g4" x1="607.8" y1="723.9" x2="607.8" y2="607.6" href="#P"><stop stop-color="#b4c1f3"/><stop offset="1" stop-color="#bbc9f8"/></linearGradient><linearGradient id="g5" x1="594.4" y1="722.7" x2="594.4" y2="606.9" href="#P"><stop stop-color="#c3cff7"/><stop offset="1" stop-color="#fff"/></linearGradient><linearGradient id="g6" x1="506.8" y1="247" x2="1063.8" y2="247" href="#P"><stop stop-color="#e8eafb"/><stop offset="1" stop-color="#fff"/></linearGradient><linearGradient id="g7" x1="36.4" y1="1198" x2="592.4" y2="1198" href="#P"><stop stop-color="#e1e3f8"/><stop offset=".5" stop-color="#d3d7f2"/><stop offset="1" stop-color="#f2f3ff"/></linearGradient><linearGradient id="g8" x1="52.5" y1="1055.4" x2="197.8" y2="1055.4" href="#P"><stop stop-color="#d3d7f2"/><stop offset=".58" stop-color="#bbc9f8"/><stop offset=".72" stop-color="#d3d7f2"/><stop offset="1" stop-color="#f2f3ff"/></linearGradient><linearGradient id="g9" x1="51.7" y1="1030.7" x2="198.6" y2="1030.7" href="#P"><stop stop-color="#e8eafb"/><stop offset="1" stop-color="#fff"/></linearGradient><linearGradient id="g10" x1="30.8" y1="638.2" x2="587.8" y2="638.2" href="#P"><stop stop-color="#e8eafb"/><stop offset="1" stop-color="#fff"/></linearGradient><linearGradient id="g11" x1="667.3" y1="1198" x2="1223.4" y2="1198" href="#P"><stop stop-color="#e1e3f8"/><stop offset=".5" stop-color="#d3d7f2"/><stop offset="1" stop-color="#f2f3ff"/></linearGradient><linearGradient id="g12" x1="661.8" y1="859.5" x2="1218.8" y2="859.5" href="#P"><stop stop-color="#e8eafb"/><stop offset="1" stop-color="#fff"/></linearGradient><linearGradient id="g13" x1="445.4" y1="1029.5" x2="625" y2="1029.5" href="#P"><stop stop-color="#d3d7f2"/><stop offset=".45" stop-color="#bbc9f8"/><stop offset=".55" stop-color="#d3d7f2"/><stop offset="1" stop-color="#f2f3ff"/></linearGradient><linearGradient id="g14" x1="436.2" y1="1074.9" x2="535.2" y2="1025.4" href="#P"><stop stop-color="#e8eafb"/><stop offset="1" stop-color="#fff"/></linearGradient><linearGradient id="g15" x1="445.4" y1="984.3" x2="625" y2="984.3" href="#P"><stop stop-color="#d3d7f2"/><stop offset=".45" stop-color="#bbc9f8"/><stop offset=".55" stop-color="#d3d7f2"/><stop offset="1" stop-color="#f2f3ff"/></linearGradient><linearGradient id="g16" x1="436.2" y1="1029.6" x2="535.2" y2="980.2" href="#P"><stop stop-color="#e8eafb"/><stop offset="1" stop-color="#fff"/></linearGradient><linearGradient id="g17" x1="445.4" y1="939" x2="625" y2="939" href="#P"><stop stop-color="#d3d7f2"/><stop offset=".45" stop-color="#bbc9f8"/><stop offset=".55" stop-color="#d3d7f2"/><stop offset="1" stop-color="#f2f3ff"/></linearGradient><linearGradient id="g18" x1="436.2" y1="984.4" x2="535.2" y2="934.9" href="#P"><stop stop-color="#e8eafb"/><stop offset="1" stop-color="#fff"/></linearGradient><linearGradient id="g19" x1="1210.5" y1="934.5" x2="1210.5" y2="858.8" href="#P"><stop stop-color="#fff"/><stop offset="1" stop-color="#22d2fd"/></linearGradient><linearGradient id="g20" x1="1103.6" y1="802.3" x2="1191.7" y2="802.3" href="#P"><stop stop-color="#d3d7f2"/><stop offset=".45" stop-color="#bbc9f8"/><stop offset=".55" stop-color="#d3d7f2"/><stop offset="1" stop-color="#f2f3ff"/></linearGradient><linearGradient id="g21" x1="1099.1" y1="824.5" x2="1147.7" y2="800.2" href="#P"><stop stop-color="#e8eafb"/><stop offset="1" stop-color="#fff"/></linearGradient><linearGradient id="g22" x1="1210.5" y1="759.9" x2="1210.5" y2="835.6" href="#P"><stop stop-color="#fff"/><stop offset="1" stop-color="#22d2fd"/></linearGradient><linearGradient id="g23" x1="508.7" y1="243.2" x2="508.7" y2="167.6" href="#P"><stop stop-color="#fff"/><stop offset="1" stop-color="#22d2fd"/></linearGradient><linearGradient id="g24" x1="401.8" y1="111.1" x2="489.9" y2="111.1" href="#P"><stop stop-color="#d3d7f2"/><stop offset=".45" stop-color="#bbc9f8"/><stop offset=".55" stop-color="#d3d7f2"/><stop offset="1" stop-color="#f2f3ff"/></linearGradient><linearGradient id="g25" x1="397.3" y1="133.3" x2="445.9" y2="109" href="#P"><stop stop-color="#e8eafb"/><stop offset="1" stop-color="#fff"/></linearGradient><linearGradient id="g26" x1="508.7" y1="68.7" x2="508.7" y2="144.4" href="#P"><stop stop-color="#fff"/><stop offset="1" stop-color="#22d2fd"/></linearGradient><linearGradient id="g27" x1="120.2" y1="701.1" x2="120.2" y2="625.5" href="#P"><stop stop-color="#fff"/><stop offset="1" stop-color="#22d2fd"/></linearGradient><linearGradient id="g28" x1="13.3" y1="568.9" x2="101.4" y2="568.9" href="#P"><stop stop-color="#d3d7f2"/><stop offset=".45" stop-color="#bbc9f8"/><stop offset=".55" stop-color="#d3d7f2"/><stop offset="1" stop-color="#f2f3ff"/></linearGradient><linearGradient id="g29" x1="8.8" y1="591.2" x2="57.4" y2="566.9" href="#P"><stop stop-color="#e8eafb"/><stop offset="1" stop-color="#fff"/></linearGradient><linearGradient id="g30" x1="120.2" y1="526.6" x2="120.2" y2="602.2" href="#P"><stop stop-color="#fff"/><stop offset="1" stop-color="#22d2fd"/></linearGradient><linearGradient id="g31" x1="1071.4" y1="469.4" x2="585.7" y2="566.8" href="#P"><stop stop-color="#7023ff"/><stop offset=".63" stop-color="#174dba"/><stop offset="1" stop-color="#8a6eff"/></linearGradient><linearGradient id="g32" x1="1067.9" y1="468.3" x2="600.2" y2="562.1" href="#P"><stop stop-color="#8fb5ff"/><stop offset=".37" stop-color="#1e69ff"/><stop offset="1" stop-color="#7023ff"/></linearGradient><linearGradient id="g33" x1="796.7" y1="-140.2" x2="1158.3" y2="363.2" href="#P"><stop stop-color="#31c9fb"/><stop offset="1" stop-color="#22d2fd"/></linearGradient><linearGradient id="g34" x1="490.6" y1="480.5" x2="490.6" y2="36.5" href="#P"><stop stop-color="#c3cff7"/><stop offset="1" stop-color="#fff"/></linearGradient><linearGradient id="g35" x1="749.1" y1="144.6" x2="827.1" y2="317.8" href="#P"><stop stop-color="#e3e4f8"/><stop offset=".11" stop-color="#f2f3ff"/><stop offset=".6" stop-color="#d3d7f2"/><stop offset=".65" stop-color="#e1e3f8"/><stop offset=".74" stop-color="#f2f3ff"/><stop offset=".92" stop-color="#e1e3f8"/><stop offset="1" stop-color="#e2e7fb"/></linearGradient><linearGradient id="g36" x1="634.8" y1="206.4" x2="772.4" y2="206.4" href="#P"><stop stop-color="#d3d7f2"/><stop offset="1" stop-color="#bbc9f8"/></linearGradient><linearGradient id="g37" x1="547.1" y1="185.1" x2="547.1" y2="90.5" href="#P"><stop stop-color="#c3cff7"/><stop offset="1" stop-color="#fff"/></linearGradient><linearGradient id="g38" x1="-194.7" y1="823.4" x2="-194.7" y2="298.9" href="#P"><stop stop-color="#7023ff"/><stop offset=".63" stop-color="#174dba"/><stop offset="1" stop-color="#8a6eff"/></linearGradient><linearGradient id="g39" x1="-201.4" y1="823.4" x2="-201.4" y2="308.6" href="#P"><stop stop-color="#7023ff"/><stop offset=".63" stop-color="#1e69ff"/><stop offset="1" stop-color="#8fb5ff"/></linearGradient><linearGradient id="g40" x1="-258.1" y1="423.7" x2="121.3" y2="-1.7" href="#P"><stop stop-color="#31c9fb"/><stop offset="1" stop-color="#22d2fd"/></linearGradient><linearGradient id="g41" x1="367" y1="441.6" x2="367" y2="363.2" href="#P"><stop stop-color="#7023ff"/><stop offset=".63" stop-color="#1e69ff"/><stop offset="1" stop-color="#8fb5ff"/></linearGradient><linearGradient id="g42" x1="377" y1="444.2" x2="377" y2="367.7" href="#P"><stop stop-color="#c3cff7"/><stop offset="1" stop-color="#fff"/></linearGradient><linearGradient id="g43" x1="-169.8" y1="825.4" x2="-169.8" y2="315.3" href="#P"><stop stop-color="#c3cff7"/><stop offset="1" stop-color="#fff"/></linearGradient><linearGradient id="g44" x1="271.5" y1="552.1" x2="295.6" y2="552.1" href="#P"><stop stop-color="#d3d7f2"/><stop offset="1" stop-color="#bbc9f8"/></linearGradient><linearGradient id="g45" x1="365.9" y1="509.9" x2="320.3" y2="600.7" href="#P"><stop stop-color="#d3d7f2"/><stop offset="1" stop-color="#bbc9f8"/></linearGradient><linearGradient id="g46" x1="204.4" y1="623.7" x2="204.4" y2="499.1" href="#P"><stop stop-color="#c3cff7"/><stop offset="1" stop-color="#fff"/></linearGradient><linearGradient id="g47" x1="450" y1="596.4" x2="426.3" y2="643.6" href="#P"><stop stop-color="#d3d7f2"/><stop offset="1" stop-color="#bbc9f8"/></linearGradient><linearGradient id="g48" x1="412" y1="625.2" x2="378.5" y2="691.7" href="#P"><stop stop-color="#d3d7f2"/><stop offset="1" stop-color="#bbc9f8"/></linearGradient><linearGradient id="g49" x1="483.4" y1="567.2" x2="434.8" y2="664" href="#P"><stop stop-color="#d3d7f2"/><stop offset="1" stop-color="#bbc9f8"/></linearGradient><linearGradient id="g50" x1="282.4" y1="666.5" x2="282.4" y2="541.8" href="#P"><stop stop-color="#c3cff7"/><stop offset="1" stop-color="#fff"/></linearGradient><linearGradient id="g51" x1="518.8" y1="1020.9" x2="518.8" y2="633.6" href="#P"><stop stop-color="#7023ff"/><stop offset=".63" stop-color="#174dba"/><stop offset="1" stop-color="#8a6eff"/></linearGradient><linearGradient id="g52" x1="1271.9" y1="1148.3" x2="1271.9" y2="836.4" href="#P"><stop stop-color="#7023ff"/><stop offset=".63" stop-color="#1e69ff"/><stop offset="1" stop-color="#8fb5ff"/></linearGradient><linearGradient id="g53" x1="1283.4" y1="931.7" x2="1056.4" y2="563.7" href="#P"><stop stop-color="#31c9fb"/><stop offset="1" stop-color="#22d2fd"/></linearGradient><linearGradient id="g54" x1="470.6" y1="1027.6" x2="470.6" y2="650.9" href="#P"><stop stop-color="#c3cff7"/><stop offset="1" stop-color="#fff"/></linearGradient><linearGradient id="g55" x1="958.8" y1="899.2" x2="958.8" y2="718.6" href="#P"><stop stop-color="#7023ff"/><stop offset=".63" stop-color="#1e69ff"/><stop offset="1" stop-color="#8fb5ff"/></linearGradient><linearGradient id="g56" x1="986.2" y1="908.6" x2="986.2" y2="875.7" href="#P"><stop stop-color="#c3cff7"/><stop offset="1" stop-color="#fff"/></linearGradient><linearGradient id="g57" x1="933.8" y1="888.8" x2="950.1" y2="921.2" href="#P"><stop stop-color="#d3d7f2"/><stop offset="1" stop-color="#bbc9f8"/></linearGradient><linearGradient id="g58" x1="930.8" y1="829.8" x2="930.8" y2="796.9" href="#P"><stop stop-color="#c3cff7"/><stop offset="1" stop-color="#fff"/></linearGradient><linearGradient id="g59" x1="878.4" y1="809.9" x2="894.7" y2="842.4" href="#P"><stop stop-color="#d3d7f2"/><stop offset="1" stop-color="#bbc9f8"/></linearGradient><linearGradient id="g60" x1="879.7" y1="855.3" x2="879.7" y2="822.4" href="#P"><stop stop-color="#c3cff7"/><stop offset="1" stop-color="#fff"/></linearGradient><linearGradient id="g61" x1="827.3" y1="835.5" x2="843.6" y2="868" href="#P"><stop stop-color="#d3d7f2"/><stop offset="1" stop-color="#bbc9f8"/></linearGradient><linearGradient id="g62" x1="800.1" y1="735.8" x2="800.1" y2="702.9" href="#P"><stop stop-color="#c3cff7"/><stop offset="1" stop-color="#fff"/></linearGradient><linearGradient id="g63" x1="747.7" y1="716" x2="763.9" y2="748.5" href="#P"><stop stop-color="#d3d7f2"/><stop offset="1" stop-color="#bbc9f8"/></linearGradient></defs><style>.a{fill:url(#g1)}.b{fill:url(#g2)}.c{fill:url(#g3)}.d{opacity:0;fill:#a7b1f2}.e{opacity:.1;fill:#a7b1f2}.f{opacity:.2;fill:#a7b1f2}.g{opacity:.3;fill:#a7b1f2}.h{opacity:.4;fill:#a7b1f2}.i{opacity:.5;fill:#a7b1f2}.j{opacity:.6;fill:#a7b1f2}.k{opacity:.7;fill:#a7b1f2}.l{opacity:.8;fill:#a7b1f2}.m{opacity:.9;fill:#a7b1f2}.n{opacity:1;fill:#a7b1f2}.o{fill:#a7b1f2}.p{fill:url(#g4)}.q{fill:url(#g5)}.r{fill:#8cd9ff}.s{fill:#b4c1f3}.t{fill:#75a4ff}.u{fill:#fff}.v{fill:url(#g6)}.w{fill:url(#g7)}.x{fill:#194cbc}.y{fill:url(#g8)}.z{fill:#6b92ff}.A{fill:url(#g9)}.B{fill:url(#g10)}.C{fill:url(#g11)}.D{fill:url(#g12)}.E{fill:url(#g13)}.F{fill:url(#g14)}.G{fill:url(#g15)}.H{fill:url(#g16)}.I{fill:url(#g17)}.J{fill:url(#g18)}.K{fill:#d3daf3}.L{mix-blend-mode:multiply;fill:url(#g19)}.M{fill:url(#g20)}.N{fill:url(#g21)}.O{mix-blend-mode:multiply;fill:url(#g22)}.P{mix-blend-mode:multiply;fill:url(#g23)}.Q{fill:url(#g24)}.R{fill:url(#g25)}.S{mix-blend-mode:multiply;fill:url(#g26)}.T{mix-blend-mode:multiply;fill:url(#g27)}.U{fill:url(#g28)}.V{fill:url(#g29)}.W{mix-blend-mode:multiply;fill:url(#g30)}.X{opacity:0;fill:#b4c1f3}.Y{opacity:.1;fill:#b4c1f3}.Z{opacity:.2;fill:#b4c1f3}.a0{opacity:.3;fill:#b4c1f3}.a1{opacity:.4;fill:#b4c1f3}.a2{opacity:.5;fill:#b4c1f3}.a3{opacity:.6;fill:#b4c1f3}.a4{opacity:.7;fill:#b4c1f3}.a5{opacity:.8;fill:#b4c1f3}.a6{opacity:.9;fill:#b4c1f3}.a7{opacity:1;fill:#b4c1f3}.a8{fill:url(#g31)}.a9{fill:url(#g32)}.aa{fill:url(#g33)}.ab{fill:url(#g34)}.ac{fill:url(#g35)}.ad{fill:url(#g36)}.ae{fill:url(#g37)}.af{fill:#3176ff}.ag{fill:url(#g38)}.ah{fill:url(#g39)}.ai{fill:url(#g40)}.aj{fill:url(#g41)}.ak{fill:url(#g42)}.al{fill:url(#g43)}.am{fill:url(#g44)}.an{fill:url(#g45)}.ao{fill:url(#g46)}.ap{fill:url(#g47)}.aq{fill:url(#g48)}.ar{fill:url(#g49)}.as{fill:url(#g50)}.at{fill:url(#g51)}.au{fill:url(#g52)}.av{fill:url(#g53)}.aw{fill:url(#g54)}.ax{fill:url(#g55)}.ay{fill:url(#g56)}.az{fill:url(#g57)}.aA{fill:url(#g58)}.aB{fill:url(#g59)}.aC{fill:url(#g60)}.aD{fill:url(#g61)}.aE{fill:url(#g62)}.aF{fill:url(#g63)}.aG{mix-blend-mode:multiply;fill:#ebf0ff}.aH{fill:#130f40}.aI{fill:#8eaae8}.aJ{fill:#f3abc7}</style><path class="a" d="m506.8 386.3h557v811.7h-557z"/><path class="b" d="m1048.2 405.1l-225.2 112.6c-20.8 10.5-54.5 10.5-75.4 0l-225.2-112.6c-20.8-10.4-20.8-27.3 0-37.7l225.2-112.6c20.9-10.4 54.6-10.4 75.4 0l225.2 112.6c20.8 10.4 20.8 27.3 0 37.7z"/><path class="c" d="m506.8 386.3h557v811.7h-557z"/><g style="mix-blend-mode:multiply"><path class="d" d="m624.3 680.3c0 32.4 26.3 71.8 58.7 88.1 32.4 16.2 58.6 3 58.6-29.4 0-32.4-26.2-71.8-58.6-88-32.4-16.2-58.7-3.1-58.7 29.3z"/><path class="d" d="m624.3 677.6c0 32.4 26.3 71.8 58.7 88 32.4 16.2 58.6 3.1 58.6-29.4 0-32.4-26.2-71.8-58.6-88-32.4-16.2-58.7-3.1-58.7 29.4z"/><path class="e" d="m624.3 674.8c0 32.4 26.3 71.8 58.7 88 32.4 16.2 58.6 3.1 58.6-29.3 0-32.4-26.2-71.8-58.6-88.1-32.4-16.2-58.7-3-58.7 29.4z"/><path class="e" d="m624.3 672c0 32.4 26.3 71.8 58.7 88 32.4 16.2 58.6 3.1 58.6-29.3 0-32.4-26.2-71.8-58.6-88-32.4-16.2-58.7-3.1-58.7 29.3z"/><path class="f" d="m624.3 669.2c0 32.4 26.3 71.9 58.7 88.1 32.4 16.2 58.6 3 58.6-29.4 0-32.4-26.2-71.8-58.6-88-32.4-16.2-58.7-3.1-58.7 29.3z"/><path class="f" d="m624.3 666.5c0 32.4 26.3 71.8 58.7 88 32.4 16.2 58.6 3.1 58.6-29.3 0-32.5-26.2-71.9-58.6-88.1-32.4-16.2-58.7-3-58.7 29.4z"/><path class="g" d="m624.3 663.7c0 32.4 26.3 71.8 58.7 88 32.4 16.2 58.6 3.1 58.6-29.3 0-32.4-26.2-71.8-58.6-88-32.4-16.2-58.7-3.1-58.7 29.3z"/><path class="g" d="m624.3 660.9c0 32.4 26.3 71.8 58.7 88 32.4 16.3 58.6 3.1 58.6-29.3 0-32.4-26.2-71.8-58.6-88-32.4-16.2-58.7-3.1-58.7 29.3z"/><path class="h" d="m624.3 658.1c0 32.5 26.3 71.9 58.7 88.1 32.4 16.2 58.6 3 58.6-29.4 0-32.4-26.2-71.8-58.6-88-32.4-16.2-58.7-3.1-58.7 29.3z"/><path class="h" d="m624.3 655.4c0 32.4 26.3 71.8 58.7 88 32.4 16.2 58.6 3.1 58.6-29.3 0-32.4-26.2-71.8-58.6-88.1-32.4-16.2-58.7-3-58.7 29.4z"/><path class="i" d="m624.3 652.6c0 32.4 26.3 71.8 58.7 88 32.4 16.2 58.6 3.1 58.6-29.3 0-32.4-26.2-71.8-58.6-88-32.4-16.2-58.7-3.1-58.7 29.3z"/><path class="i" d="m624.3 649.8c0 32.4 26.3 71.8 58.7 88.1 32.4 16.2 58.6 3 58.6-29.4 0-32.4-26.2-71.8-58.6-88-32.4-16.2-58.7-3.1-58.7 29.3z"/><path class="j" d="m624.3 647.1c0 32.4 26.3 71.8 58.7 88 32.4 16.2 58.6 3.1 58.6-29.3 0-32.5-26.2-71.9-58.6-88.1-32.4-16.2-58.7-3-58.7 29.4z"/><path class="j" d="m624.3 644.3c0 32.4 26.3 71.8 58.7 88 32.4 16.2 58.6 3.1 58.6-29.3 0-32.4-26.2-71.8-58.6-88-32.4-16.3-58.7-3.1-58.7 29.3z"/><path class="k" d="m624.3 641.5c0 32.4 26.3 71.8 58.7 88 32.4 16.2 58.6 3.1 58.6-29.3 0-32.4-26.2-71.8-58.6-88-32.4-16.2-58.7-3.1-58.7 29.3z"/><path class="k" d="m624.3 638.7c0 32.5 26.3 71.9 58.7 88.1 32.4 16.2 58.6 3 58.6-29.4 0-32.4-26.2-71.8-58.6-88-32.4-16.2-58.7-3.1-58.7 29.3z"/><path class="l" d="m624.3 636c0 32.4 26.3 71.8 58.7 88 32.4 16.2 58.6 3.1 58.6-29.3 0-32.4-26.2-71.9-58.6-88.1-32.4-16.2-58.7-3-58.7 29.4z"/><path class="l" d="m624.3 633.2c0 32.4 26.3 71.8 58.7 88 32.4 16.2 58.6 3.1 58.6-29.3 0-32.4-26.2-71.8-58.6-88-32.4-16.2-58.7-3.1-58.7 29.3z"/><path class="m" d="m624.3 630.4c0 32.4 26.3 71.8 58.7 88.1 32.4 16.2 58.6 3 58.6-29.4 0-32.4-26.2-71.8-58.6-88-32.4-16.2-58.7-3.1-58.7 29.3z"/><path class="m" d="m624.3 627.7c0 32.4 26.3 71.8 58.7 88 32.4 16.2 58.6 3.1 58.6-29.4 0-32.4-26.2-71.8-58.6-88-32.4-16.2-58.7-3.1-58.7 29.4z"/><path class="n" d="m624.3 624.9c0 32.4 26.3 71.8 58.7 88 32.4 16.2 58.6 3.1 58.6-29.3 0-32.4-26.2-71.8-58.6-88.1-32.4-16.2-58.7-3-58.7 29.4z"/><path class="o" d="m624.3 622.1c0 32.4 26.3 71.8 58.7 88 32.4 16.2 58.6 3.1 58.6-29.3 0-32.4-26.2-71.8-58.6-88-32.4-16.2-58.7-3.1-58.7 29.3z"/></g><path class="p" d="m728.5 665.4c-1.1-6.3-3.3-12.7-6.5-19l8.5-7-8.5-12.7-11.3 2.8c-4.6-5.5-9.9-10.4-15.7-14.4l-2-14.9-12-6-19.2 9.7-9.7-12.2-8.5 4.3c0 0-17.2 8.6-17.2 8.6l-8.5 4.2 7.3 13.3-19.3 9.7v12l13.9 8.9c1.1 6.3 3.4 12.8 6.5 19l-8.4 7 8.5 12.7 11.2-2.8c4.7 5.5 10 10.4 15.8 14.4l1.9 14.9 12.1 6 19.2-9.6 9.7 12.1 8.5-4.2 25.7-12.9-7.3-13.3 19.3-9.6v-12z"/><path fill-rule="evenodd" class="q" d="m605.9 643.8v-12l13.9 4.9c1.1-5.1 3.4-9.4 6.5-12.4l-8.4-15.5 8.5-4.2 11.2 14c4.7-0.8 10-0.4 15.8 1.4l1.9-12.9 12.1 6 1.9 14.9c5.8 3.9 11.1 8.9 15.8 14.3l11.2-2.8 8.5 12.8-8.4 7c3.1 6.2 5.4 12.7 6.5 19l13.9 8.9v12l-13.9-5c-1.1 5.2-3.4 9.4-6.5 12.5l8.4 15.5-8.5 4.2-11.2-14c-4.7 0.8-10 0.4-15.8-1.4l-1.9 12.9-12.1-6-1.9-14.9c-5.8-4-11.1-8.9-15.8-14.4l-11.2 2.8-8.5-12.7 8.4-7c-3.1-6.2-5.4-12.7-6.5-19zm55.5 37.2c8.5 4.2 15.4 0.8 15.4-7.7 0-8.6-6.9-18.9-15.4-23.2-8.6-4.3-15.5-0.8-15.5 7.7 0 8.5 6.9 18.9 15.5 23.2z"/><path class="r" d="m863.2 618.9l-15.8 7.8v-15.7l15.8-7.9z"/><path class="s" d="m960.9 562.1c0 4.4-3.5 9.7-7.8 11.8-4.4 2.2-7.9 0.4-7.9-3.9 0-4.4 3.5-9.6 7.9-11.8 4.3-2.2 7.8-0.4 7.8 3.9z"/><path class="r" d="m987.3 548.9c0 4.4-3.5 9.7-7.9 11.8-4.3 2.2-7.9 0.5-7.9-3.9 0-4.3 3.6-9.6 7.9-11.8 4.4-2.2 7.9-0.4 7.9 3.9z"/><path class="t" d="m1013.6 535.8c0 4.3-3.5 9.6-7.8 11.8-4.4 2.1-7.9 0.4-7.9-4 0-4.3 3.5-9.6 7.9-11.8 4.3-2.2 7.8-0.4 7.8 4z"/><path class="s" d="m1040 522.6c0 4.3-3.5 9.6-7.9 11.8-4.3 2.2-7.8 0.4-7.8-4 0-4.3 3.5-9.6 7.8-11.8 4.4-2.1 7.9-0.4 7.9 4z"/><path fill-rule="evenodd" class="u" d="m835.6 644.7v-39.7l216.3-108.2v39.7zm2-38.5v35.3l212.3-106.2v-35.3z"/><path class="s" d="m863.2 668.9l-15.8 7.8v-15.7l15.8-7.9z"/><path class="r" d="m960.9 612.1c0 4.4-3.5 9.7-7.8 11.8-4.4 2.2-7.9 0.4-7.9-3.9 0-4.4 3.5-9.6 7.9-11.8 4.3-2.2 7.8-0.4 7.8 3.9z"/><path class="s" d="m987.3 598.9c0 4.4-3.5 9.7-7.9 11.8-4.3 2.2-7.9 0.5-7.9-3.9 0-4.3 3.6-9.6 7.9-11.8 4.4-2.2 7.9-0.4 7.9 3.9z"/><path class="t" d="m1013.6 585.8c0 4.3-3.5 9.6-7.8 11.8-4.4 2.1-7.9 0.4-7.9-4 0-4.3 3.5-9.6 7.9-11.8 4.3-2.2 7.8-0.4 7.8 4z"/><path class="t" d="m1040 572.6c0 4.3-3.5 9.6-7.9 11.8-4.3 2.2-7.8 0.4-7.8-4 0-4.3 3.5-9.6 7.8-11.8 4.4-2.1 7.9-0.4 7.9 4z"/><path fill-rule="evenodd" class="u" d="m835.6 694.7v-39.7l216.3-108.2v39.7zm2-38.5v35.3l212.3-106.2v-35.3z"/><path class="s" d="m863.2 718.9l-15.8 7.8v-15.7l15.8-7.9z"/><path class="s" d="m960.9 662.1c0 4.4-3.5 9.7-7.8 11.8-4.4 2.2-7.9 0.4-7.9-3.9 0-4.4 3.5-9.6 7.9-11.8 4.3-2.2 7.8-0.4 7.8 3.9z"/><path class="t" d="m987.3 648.9c0 4.4-3.5 9.7-7.9 11.8-4.3 2.2-7.9 0.5-7.9-3.9 0-4.3 3.6-9.6 7.9-11.8 4.4-2.2 7.9-0.4 7.9 3.9z"/><path class="r" d="m1013.6 635.8c0 4.3-3.5 9.6-7.8 11.8-4.4 2.1-7.9 0.4-7.9-4 0-4.3 3.5-9.6 7.9-11.8 4.3-2.2 7.8-0.4 7.8 4z"/><path class="s" d="m1040 622.6c0 4.3-3.5 9.6-7.9 11.8-4.3 2.2-7.8 0.4-7.8-4 0-4.3 3.5-9.6 7.8-11.8 4.4-2.1 7.9-0.4 7.9 4z"/><path fill-rule="evenodd" class="u" d="m835.6 744.7v-39.7l216.3-108.2v39.7zm2-38.5v35.3l212.3-106.2v-35.3z"/><path class="r" d="m1048.2 445.1l-225.2 112.6c-20.8 10.5-54.5 10.5-75.4 0l-225.2-112.6c-10.4-5.2-15.6-12-15.6-18.8v10c0 6.8 5.2 13.6 15.6 18.8l225.2 112.6c20.9 10.5 54.6 10.5 75.4 0l225.2-112.6c10.4-5.2 15.6-12 15.6-18.8v-10c0 6.8-5.2 13.6-15.6 18.8z"/><path class="u" d="m1048.2 455.1l-225.2 112.7c-20.8 10.4-54.5 10.4-75.4 0l-225.2-112.7c-10.4-5.2-15.6-12-15.6-18.8v10c0 6.8 5.2 13.6 15.6 18.8l225.2 112.7c20.9 10.4 54.6 10.4 75.4 0l225.2-112.7c10.4-5.2 15.6-12 15.6-18.8v-10c0 6.8-5.2 13.6-15.6 18.8z"/><path class="v" d="m1048.2 405.1l-225.2 112.6c-20.8 10.5-54.5 10.5-75.4 0l-225.2-112.6c-20.8-10.4-20.8-27.3 0-37.7l225.2-112.6c20.9-10.4 54.6-10.4 75.4 0l225.2 112.6c20.8 10.4 20.8 27.3 0 37.7z"/><path class="w" d="m30.8 777.5h557v420.5h-557z"/><path class="t" d="m206.7 1144.1l-125.7-62.9c-6.2-3.1-11.3-10.7-11.3-16.9v-51.2c0-6.2 5.1-8.7 11.3-5.6l125.7 62.9c6.2 3.1 11.3 10.6 11.3 16.9v51.1c0 6.2-5.1 8.8-11.3 5.7z"/><path class="x" d="m83.4 1068.7v-46.4l120.9 60.5v46.4z"/><path class="y" d="m51.7 1055.4l39.6 7.9 107.3 21v32.6l-32.7 16.3c-9.2 4.7-24.3 4.7-33.6 0l-73.6-36.8c-4.7-2.3-7-5.4-7-8.4z"/><path class="z" d="m122 1121.8l-54.3-27.1c-4.7-2.3-8.5-8-8.5-12.7 0-4.7 3.8-6.6 8.5-4.2l54.3 27.1c4.6 2.3 8.4 8 8.4 12.7 0 4.7-3.8 6.6-8.4 4.2z"/><path class="z" d="m34.7 1198h-5l0.2-59.4c0-5.6 3.2-10.7 8.2-13.2l55.6-27.8 2.3 4.4-55.6 27.8c-3.4 1.7-5.5 5.1-5.5 8.8z"/><path class="z" d="m15.1 1198h-5v-69c0-5.6 3.1-10.7 8.2-13.3l55.9-27.9 2.2 4.5-55.9 27.9c-3.3 1.7-5.4 5.1-5.4 8.8z"/><path class="z" d="m24.9 1198h-5v-64.1c0-5.7 3.1-10.7 8.2-13.3l55.8-27.9 2.3 4.4-55.9 28c-3.4 1.7-5.4 5.1-5.4 8.8z"/><path class="z" d="m44.4 1198h-5v-54.3c0-5.7 3.2-10.8 8.2-13.3l55.9-27.9 2.2 4.4-55.9 28c-3.3 1.7-5.4 5-5.4 8.8z"/><path class="z" d="m54.2 1198h-5v-49.4c0-5.7 3.1-10.8 8.2-13.3l55.9-28 2.2 4.5-55.9 28c-3.3 1.6-5.4 5-5.4 8.8z"/><path class="A" d="m58.7 1047l32.6-16.3 107.3 53.6-32.7 16.3c-9.2 4.7-24.3 4.7-33.6 0l-73.6-36.8c-9.3-4.6-9.3-12.2 0-16.8z"/><path class="r" d="m73.1 930.7l-15.7-7.9v-15.7l15.7 7.8z"/><path class="s" d="m170.8 971.7c0 4.3-3.5 6.1-7.8 3.9-4.4-2.1-7.9-7.4-7.9-11.8 0-4.3 3.5-6.1 7.9-3.9 4.3 2.2 7.8 7.4 7.8 11.8z"/><path class="r" d="m197.2 984.9c0 4.3-3.5 6.1-7.9 3.9-4.3-2.2-7.8-7.4-7.8-11.8 0-4.3 3.5-6.1 7.8-3.9 4.4 2.1 7.9 7.4 7.9 11.8z"/><path class="t" d="m223.6 998.1c0 4.3-3.6 6.1-7.9 3.9-4.4-2.2-7.9-7.5-7.9-11.8 0-4.4 3.5-6.1 7.9-3.9 4.3 2.1 7.9 7.4 7.9 11.8z"/><path class="s" d="m249.9 1011.2c0 4.4-3.5 6.2-7.9 4-4.3-2.2-7.8-7.5-7.8-11.8 0-4.4 3.5-6.1 7.8-4 4.4 2.2 7.9 7.5 7.9 11.8z"/><path fill-rule="evenodd" class="u" d="m261.8 1037l-216.3-108.1v-39.8l216.3 108.2zm-214.3-109.4l212.3 106.2v-35.3l-212.3-106.1z"/><path class="t" d="m73.1 980.7l-15.7-7.9v-15.7l15.7 7.8z"/><path class="r" d="m170.8 1021.7c0 4.3-3.5 6.1-7.8 3.9-4.4-2.1-7.9-7.4-7.9-11.8 0-4.3 3.5-6.1 7.9-3.9 4.3 2.2 7.8 7.4 7.8 11.8z"/><path class="s" d="m197.2 1034.9c0 4.3-3.5 6.1-7.9 3.9-4.3-2.2-7.8-7.4-7.8-11.8 0-4.3 3.5-6.1 7.8-3.9 4.4 2.1 7.9 7.4 7.9 11.8z"/><path class="t" d="m223.6 1048.1c0 4.3-3.6 6.1-7.9 3.9-4.4-2.2-7.9-7.5-7.9-11.8 0-4.4 3.5-6.1 7.9-3.9 4.3 2.1 7.9 7.4 7.9 11.8z"/><path class="t" d="m249.9 1061.2c0 4.4-3.5 6.2-7.9 4-4.3-2.2-7.8-7.5-7.8-11.8 0-4.4 3.5-6.1 7.8-4 4.4 2.2 7.9 7.5 7.9 11.8z"/><path fill-rule="evenodd" class="u" d="m261.8 1087l-216.3-108.1v-39.8l216.3 108.2zm-214.3-109.4l212.3 106.2v-35.3l-212.3-106.1z"/><path class="r" d="m572.2 846.3l-225.2 112.6c-20.8 10.4-54.6 10.4-75.4 0l-225.2-112.6c-10.4-5.2-15.6-12-15.6-18.8v10c0 6.8 5.2 13.6 15.6 18.8l225.2 112.6c20.8 10.4 54.6 10.4 75.4 0l225.2-112.6c10.4-5.2 15.6-12 15.6-18.8v-10c0 6.8-5.2 13.6-15.6 18.8z"/><path class="u" d="m572.2 856.3l-225.2 112.6c-20.8 10.5-54.6 10.5-75.4 0l-225.2-112.6c-10.4-5.2-15.6-12-15.6-18.8v10c0 6.8 5.2 13.6 15.6 18.8l225.2 112.6c20.8 10.5 54.6 10.5 75.4 0l225.2-112.6c10.4-5.2 15.6-12 15.6-18.8v-10c0 6.8-5.2 13.6-15.6 18.8z"/><path class="B" d="m572.2 796.3l-225.2 112.6c-20.8 10.4-54.6 10.4-75.4 0l-225.2-112.6c-20.8-10.4-20.8-27.3 0-37.7l225.2-112.6c20.8-10.4 54.6-10.4 75.4 0l225.2 112.6c20.8 10.4 20.8 27.3 0 37.7z"/><path class="C" d="m661.8 998.7h557v199.3h-557z"/><path class="D" d="m1203.2 1017.6l-225.2 112.6c-20.9 10.4-54.6 10.4-75.4 0l-225.2-112.6c-20.8-10.4-20.8-27.3 0-37.7l225.2-112.6c20.8-10.5 54.5-10.5 75.4 0l225.2 112.6c20.8 10.4 20.8 27.3 0 37.7z"/><path class="E" d="m620.1 1067.9l-70.9-35.5c-7.8-3.8-20.3-3.8-28.1 0l-70.8 35.5c-3.9 1.9-5.9 4.5-5.9 7v29c0 2.5 2 5.1 5.9 7l70.8 35.4c7.8 3.9 20.3 3.9 28.1 0l70.9-35.4c3.8-1.9 5.8-4.5 5.8-7v-29c0-2.5-2-5.1-5.8-7z"/><path class="F" d="m620.1 1081.9l-70.9 35.5c-7.8 3.9-20.3 3.9-28.1 0l-70.8-35.5c-7.8-3.8-7.8-10.1 0-14l70.8-35.5c7.8-3.8 20.3-3.8 28.1 0l70.9 35.5c7.7 3.9 7.7 10.2 0 14z"/><path class="G" d="m620.1 1022.6l-70.9-35.4c-7.8-3.9-20.3-3.9-28.1 0l-70.8 35.4c-3.9 2-5.9 4.5-5.9 7v29c0 2.5 2 5.1 5.9 7l70.8 35.5c7.8 3.8 20.3 3.8 28.1 0l70.9-35.5c3.8-1.9 5.8-4.5 5.8-7v-29c0-2.5-2-5-5.8-7z"/><path class="H" d="m620.1 1036.7l-70.9 35.4c-7.8 3.9-20.3 3.9-28.1 0l-70.8-35.4c-7.8-3.9-7.8-10.2 0-14.1l70.8-35.4c7.8-3.9 20.3-3.9 28.1 0l70.9 35.4c7.7 3.9 7.7 10.2 0 14.1z"/><path class="I" d="m620.1 977.4l-70.9-35.5c-7.8-3.9-20.3-3.9-28.1 0l-70.8 35.5c-3.9 1.9-5.9 4.4-5.9 7v28.9c0 2.6 2 5.1 5.9 7.1l70.8 35.4c7.8 3.9 20.3 3.9 28.1 0l70.9-35.4c3.8-2 5.8-4.5 5.8-7.1v-28.9c0-2.6-2-5.1-5.8-7z"/><path class="J" d="m620.1 991.4l-70.9 35.4c-7.8 3.9-20.3 3.9-28.1 0l-70.8-35.4c-7.8-3.9-7.8-10.2 0-14l70.8-35.5c7.8-3.9 20.3-3.9 28.1 0l70.9 35.5c7.7 3.8 7.7 10.1 0 14z"/><path class="K" d="m578.2 987.9l-35.9 18c-4 2-10.3 2-14.3 0l-35.9-18c-3.9-1.9-3.9-5.1 0-7.1l35.9-17.9c4-2 10.3-2 14.3 0l35.9 17.9c3.9 2 3.9 5.2 0 7.1z"/><path class="s" d="m490.8 987.1q0.5-0.5 1.3-0.8l35.9-18c4-2 10.3-2 14.3 0l35.9 18q0.8 0.3 1.4 0.8c2.5-2 2-4.6-1.4-6.3l-35.9-17.9c-4-2-10.3-2-14.3 0l-35.9 17.9c-3.4 1.7-3.8 4.3-1.3 6.3z"/><path class="u" d="m529.3 981.4c-3.2 1.7-3.2 4.3 0 5.9 3.2 1.6 8.5 1.6 11.7 0 3.3-1.6 3.3-4.2 0-5.9-3.2-1.6-8.5-1.6-11.7 0z"/><path class="u" d="m553.8 1036.2c-1.8 0.9-3.3 3.1-3.3 4.9 0 1.8 1.5 2.6 3.3 1.7 1.8-1 3.3-3.2 3.3-5 0-1.8-1.5-2.5-3.3-1.6zm11-5.6c-1.8 1-3.2 3.2-3.2 5 0 1.8 1.4 2.5 3.2 1.6 1.9-0.9 3.3-3.1 3.3-4.9 0-1.8-1.4-2.6-3.3-1.7zm11.1-5.5c-1.8 0.9-3.3 3.2-3.3 5 0 1.8 1.5 2.5 3.3 1.6 1.8-0.9 3.3-3.1 3.3-4.9 0-1.8-1.5-2.6-3.3-1.7zm11-5.5c-1.8 0.9-3.3 3.1-3.3 5 0 1.8 1.5 2.5 3.3 1.6 1.8-0.9 3.3-3.1 3.3-4.9 0-1.9-1.5-2.6-3.3-1.7z"/><path class="u" d="m553.8 1081.2c-1.8 0.9-3.3 3.2-3.3 5 0 1.8 1.5 2.5 3.3 1.6 1.8-0.9 3.3-3.1 3.3-4.9 0-1.8-1.5-2.6-3.3-1.7zm11-5.5c-1.8 0.9-3.2 3.1-3.2 5 0 1.8 1.4 2.5 3.2 1.6 1.9-0.9 3.3-3.1 3.3-4.9 0-1.9-1.4-2.6-3.3-1.7zm11.1-5.5c-1.8 0.9-3.3 3.1-3.3 4.9 0 1.9 1.5 2.6 3.3 1.7 1.8-0.9 3.3-3.1 3.3-5 0-1.8-1.5-2.5-3.3-1.6zm11-5.5c-1.8 0.9-3.3 3.1-3.3 4.9 0 1.8 1.5 2.6 3.3 1.7 1.8-0.9 3.3-3.2 3.3-5 0-1.8-1.5-2.5-3.3-1.6z"/><path class="u" d="m553.8 1126.3c-1.8 0.9-3.3 3.1-3.3 5 0 1.8 1.5 2.5 3.3 1.6 1.8-0.9 3.3-3.1 3.3-4.9 0-1.9-1.5-2.6-3.3-1.7zm11-5.5c-1.8 0.9-3.2 3.1-3.2 4.9 0 1.9 1.4 2.6 3.2 1.7 1.9-0.9 3.3-3.1 3.3-5 0-1.8-1.4-2.5-3.3-1.6zm11.1-5.5c-1.8 0.9-3.3 3.1-3.3 4.9 0 1.8 1.5 2.6 3.3 1.7 1.8-0.9 3.3-3.2 3.3-5 0-1.8-1.5-2.5-3.3-1.6zm11-5.5c-1.8 0.9-3.3 3.1-3.3 4.9 0 1.8 1.5 2.6 3.3 1.6 1.8-0.9 3.3-3.1 3.3-4.9 0-1.8-1.5-2.6-3.3-1.6z"/><path class="L" d="m1125.1 933.9v-64c0-0.7 0.5-1.3 1.4-1.8l17.7-8.8c1.9-0.9 5-0.9 7 0l17.6 8.8c0.9 0.5 1.4 1.1 1.4 1.8v64z"/><path fill-rule="evenodd" class="r" d="m1147.7 905.5c-3.4 0-6.8-0.6-9.4-2l-42.9-21.4c-4.1-2-4.7-4.7-4.7-6 0-1.4 0.6-4.1 4.7-6.1l42.9-21.4c5.2-2.7 13.5-2.7 18.8 0l42.9 21.4c4 2 4.6 4.7 4.6 6.1 0 1.3-0.6 4-4.6 6l-42.9 21.4c-2.7 1.4-6.1 2-9.4 2zm0-54.9c-2.8 0-5.6 0.5-7.6 1.5l-42.9 21.5c-1.5 0.7-2.5 1.7-2.5 2.5 0 0.7 1 1.7 2.5 2.4l42.9 21.5c4.1 2 11 2 15.2 0l42.9-21.5c1.5-0.7 2.4-1.7 2.4-2.4 0-0.8-0.9-1.8-2.4-2.5l-42.9-21.5c-2.1-1-4.9-1.5-7.6-1.5z"/><path class="M" d="m1189.3 821.1l-34.7-17.4c-3.9-1.9-10-1.9-13.8 0l-34.8 17.4c-1.9 0.9-2.8 2.2-2.8 3.4v44.2c0 1.2 0.9 2.5 2.8 3.4l34.8 17.4c3.8 1.9 9.9 1.9 13.8 0l34.7-17.4c1.9-0.9 2.9-2.2 2.9-3.4v-44.2c0-1.2-1-2.5-2.9-3.4z"/><path class="N" d="m1189.3 828l-34.7 17.4c-3.9 1.9-10 1.9-13.8 0l-34.8-17.4c-3.8-1.9-3.8-5 0-6.9l34.8-17.4c3.8-1.9 9.9-1.9 13.8 0l34.7 17.4c3.8 1.9 3.8 5 0 6.9z"/><path class="K" d="m1168.8 826.3l-17.6 8.8c-2 0.9-5.1 0.9-7 0l-17.7-8.8c-1.9-1-1.9-2.6 0-3.5l17.7-8.8c1.9-1 5-1 7 0l17.6 8.8c1.9 0.9 1.9 2.5 0 3.5z"/><path class="O" d="m1125.1 760.5v64c0 0.7 0.5 1.3 1.4 1.8l17.7 8.8c1.9 0.9 5 0.9 7 0l17.6-8.8c0.9-0.5 1.4-1.1 1.4-1.8v-64z"/><path class="P" d="m423.3 242.7v-64c0-0.7 0.5-1.3 1.5-1.8l17.6-8.8c1.9-1 5-1 7 0l17.6 8.8c1 0.5 1.4 1.1 1.4 1.8v64z"/><path fill-rule="evenodd" class="r" d="m445.9 214.3c-3.4 0-6.8-0.6-9.4-2l-42.9-21.4c-4-2-4.6-4.7-4.6-6.1 0-1.3 0.6-4 4.6-6l42.9-21.4c5.2-2.7 13.5-2.7 18.8 0l42.9 21.4c4 2 4.6 4.7 4.6 6 0 1.4-0.6 4.1-4.6 6.1l-42.9 21.4c-2.7 1.4-6 2-9.4 2zm0-54.9c-2.8 0-5.6 0.5-7.6 1.5l-42.9 21.5c-1.5 0.7-2.4 1.7-2.4 2.4 0 0.8 0.9 1.8 2.4 2.5l42.9 21.5c4.1 2 11.1 2 15.2 0l42.9-21.5c1.5-0.7 2.4-1.7 2.4-2.5 0-0.7-0.9-1.7-2.4-2.4l-42.9-21.5c-2.1-1-4.9-1.5-7.6-1.5z"/><path class="Q" d="m487.5 129.9l-34.7-17.4c-3.8-1.9-10-1.9-13.8 0l-34.8 17.4c-1.9 0.9-2.8 2.2-2.8 3.4v44.2c0 1.2 0.9 2.5 2.8 3.4l34.8 17.4c3.8 1.9 10 1.9 13.8 0l34.7-17.4c1.9-0.9 2.9-2.2 2.9-3.4v-44.2c0-1.2-1-2.5-2.9-3.4z"/><path class="R" d="m487.5 136.8l-34.7 17.3c-3.8 1.9-10 1.9-13.8 0l-34.8-17.3c-3.8-1.9-3.8-5 0-6.9l34.8-17.4c3.8-1.9 10-1.9 13.8 0l34.7 17.4c3.8 1.9 3.8 5 0 6.9z"/><path class="K" d="m467 135.1l-17.6 8.8c-2 0.9-5.1 0.9-7 0l-17.6-8.8c-2-1-2-2.6 0-3.5l17.6-8.8c1.9-1 5-1 7 0l17.6 8.8c1.9 0.9 1.9 2.5 0 3.5z"/><path class="S" d="m423.3 69.3v64c0 0.6 0.5 1.3 1.5 1.8l17.6 8.8c1.9 0.9 5 0.9 7 0l17.6-8.8c1-0.5 1.4-1.2 1.4-1.8v-64z"/><path class="T" d="m34.8 700.6v-64c0-0.7 0.5-1.3 1.4-1.8l17.7-8.8c1.9-1 5-1 6.9 0l17.7 8.8c0.9 0.5 1.4 1.1 1.4 1.8v64z"/><path fill-rule="evenodd" class="r" d="m57.4 672.2c-3.4 0-6.8-0.7-9.4-2l-42.9-21.4c-4.1-2-4.7-4.7-4.7-6.1 0-1.4 0.6-4 4.7-6l42.9-21.5c5.2-2.6 13.5-2.6 18.7 0l42.9 21.5c4.1 2 4.7 4.6 4.7 6 0 1.4-0.6 4.1-4.7 6.1l-42.9 21.4c-2.6 1.3-6 2-9.3 2zm0-54.9c-2.8 0-5.6 0.5-7.7 1.5l-42.9 21.5c-1.4 0.7-2.4 1.7-2.4 2.4 0 0.8 1 1.8 2.4 2.5l42.9 21.4c4.2 2.1 11.1 2.1 15.3 0l42.9-21.4c1.4-0.7 2.4-1.7 2.4-2.5 0-0.7-1-1.7-2.4-2.4l-42.9-21.5c-2.1-1-4.9-1.5-7.6-1.5z"/><path class="U" d="m99 587.8l-34.8-17.4c-3.8-1.9-9.9-1.9-13.7 0l-34.8 17.4c-1.9 0.9-2.9 2.2-2.9 3.4v44.1c0 1.3 1 2.5 2.9 3.5l34.8 17.4c3.8 1.9 9.9 1.9 13.7 0l34.8-17.4c1.9-1 2.9-2.2 2.9-3.5v-44.1c0-1.2-1-2.5-2.9-3.4z"/><path class="V" d="m99 594.6l-34.8 17.4c-3.8 1.9-9.9 1.9-13.7 0l-34.8-17.4c-3.8-1.9-3.8-4.9 0-6.8l34.8-17.4c3.8-1.9 9.9-1.9 13.7 0l34.8 17.4c3.8 1.9 3.8 4.9 0 6.8z"/><path class="K" d="m78.5 592.9l-17.7 8.9c-1.9 0.9-5 0.9-6.9 0l-17.7-8.9c-1.9-0.9-1.9-2.5 0-3.4l17.7-8.9c1.9-0.9 5-0.9 6.9 0l17.7 8.9c1.9 0.9 1.9 2.5 0 3.4z"/><path class="W" d="m34.8 527.2v64c0 0.6 0.5 1.3 1.4 1.7l17.7 8.9c1.9 0.9 5 0.9 6.9 0l17.7-8.9c0.9-0.4 1.4-1.1 1.4-1.7v-64z"/><g style="mix-blend-mode:multiply"><path class="X" d="m542 391.9l236.1 117.8c6.5 3.2 17 3.2 23.5 0l37-18.5c6.5-3.3 6.5-8.5 0-11.8l-236.1-117.8c-6.5-3.2-17-3.2-23.6 0l-36.9 18.5c-6.5 3.3-6.5 8.5 0 11.8z"/><path class="X" d="m545.2 390.4l236 117.7c6.6 3.3 17.1 3.3 23.6 0l37-18.4c6.5-3.3 6.5-8.6 0-11.8l-236.1-117.8c-6.5-3.3-17.1-3.3-23.6 0l-36.9 18.5c-6.6 3.2-6.6 8.5 0 11.8z"/><path class="Y" d="m548.3 388.8l236.1 117.8c6.5 3.2 17.1 3.2 23.6 0l37-18.5c6.5-3.3 6.5-8.5 0-11.8l-236.1-117.8c-6.5-3.2-17.1-3.2-23.6 0l-37 18.5c-6.5 3.3-6.5 8.5 0 11.8z"/><path class="Y" d="m551.5 387.3l236.1 117.7c6.5 3.3 17.1 3.3 23.6 0l36.9-18.4c6.5-3.3 6.5-8.6 0-11.8l-236.1-117.8c-6.5-3.3-17-3.3-23.5 0l-37 18.5c-6.5 3.2-6.5 8.5 0 11.8z"/><path class="Z" d="m554.7 385.7l236.1 117.8c6.5 3.2 17 3.2 23.5 0l37-18.5c6.5-3.3 6.5-8.5 0-11.8l-236.1-117.8c-6.5-3.2-17.1-3.2-23.6 0l-36.9 18.5c-6.5 3.3-6.5 8.5 0 11.8z"/><path class="Z" d="m557.8 384.2l236.1 117.7c6.5 3.3 17.1 3.3 23.6 0l37-18.4c6.5-3.3 6.5-8.6 0-11.8l-236.1-117.8c-6.5-3.3-17.1-3.3-23.6 0l-37 18.5c-6.5 3.2-6.5 8.5 0 11.8z"/><path class="a0" d="m561 382.6l236.1 117.8c6.5 3.2 17.1 3.2 23.6 0l36.9-18.5c6.5-3.3 6.5-8.5 0-11.8l-236-117.8c-6.6-3.2-17.1-3.2-23.6 0l-37 18.5c-6.5 3.3-6.5 8.6 0 11.8z"/><path class="a0" d="m564.2 381.1l236.1 117.7c6.5 3.3 17 3.3 23.5 0l37-18.4c6.5-3.3 6.5-8.6 0-11.8l-236.1-117.8c-6.5-3.3-17-3.3-23.6 0l-36.9 18.5c-6.5 3.2-6.5 8.5 0 11.8z"/><path class="a1" d="m567.4 379.5l236 117.8c6.6 3.2 17.1 3.2 23.6 0l37-18.5c6.5-3.2 6.5-8.5 0-11.8l-236.1-117.8c-6.5-3.2-17.1-3.2-23.6 0l-36.9 18.5c-6.6 3.3-6.6 8.6 0 11.8z"/><path class="a1" d="m570.5 378l236.1 117.7c6.5 3.3 17.1 3.3 23.6 0l37-18.4c6.5-3.3 6.5-8.6 0-11.8l-236.1-117.8c-6.5-3.3-17.1-3.3-23.6 0l-37 18.5c-6.5 3.2-6.5 8.5 0 11.8z"/><path class="a2" d="m573.7 376.4l236.1 117.8c6.5 3.2 17.1 3.2 23.6 0l36.9-18.5c6.5-3.2 6.5-8.5 0-11.8l-236.1-117.8c-6.5-3.2-17-3.2-23.5 0l-37 18.5c-6.5 3.3-6.5 8.6 0 11.8z"/><path class="a2" d="m576.9 374.9l236.1 117.7c6.5 3.3 17 3.3 23.5 0l37-18.4c6.5-3.3 6.5-8.6 0-11.8l-236.1-117.8c-6.5-3.3-17.1-3.3-23.6 0l-36.9 18.5c-6.5 3.2-6.5 8.5 0 11.8z"/><path class="a3" d="m580 373.3l236.1 117.8c6.5 3.3 17.1 3.3 23.6 0l37-18.5c6.5-3.2 6.5-8.5 0-11.8l-236.1-117.8c-6.5-3.2-17.1-3.2-23.6 0l-37 18.5c-6.5 3.3-6.5 8.6 0 11.8z"/><path class="a3" d="m583.2 371.8l236.1 117.7c6.5 3.3 17.1 3.3 23.6 0l36.9-18.4c6.6-3.3 6.6-8.6 0-11.8l-236-117.8c-6.6-3.3-17.1-3.3-23.6 0l-37 18.5c-6.5 3.2-6.5 8.5 0 11.8z"/><path class="a4" d="m586.4 370.2l236.1 117.8c6.5 3.3 17 3.3 23.6 0l36.9-18.5c6.5-3.2 6.5-8.5 0-11.8l-236.1-117.8c-6.5-3.2-17-3.2-23.6 0l-36.9 18.5c-6.5 3.3-6.5 8.6 0 11.8z"/><path class="a4" d="m589.6 368.7l236 117.7c6.6 3.3 17.1 3.3 23.6 0l37-18.4c6.5-3.3 6.5-8.6 0-11.8l-236.1-117.8c-6.5-3.3-17.1-3.3-23.6 0l-36.9 18.5c-6.6 3.2-6.6 8.5 0 11.8z"/><path class="a5" d="m592.7 367.1l236.1 117.8c6.5 3.3 17.1 3.3 23.6 0l37-18.5c6.5-3.2 6.5-8.5 0-11.8l-236.1-117.8c-6.5-3.2-17.1-3.2-23.6 0l-37 18.5c-6.5 3.3-6.5 8.6 0 11.8z"/><path class="a5" d="m595.9 365.6l236.1 117.7c6.5 3.3 17.1 3.3 23.6 0l36.9-18.4c6.5-3.3 6.5-8.6 0-11.8l-236.1-117.8c-6.5-3.3-17-3.3-23.5 0l-37 18.5c-6.5 3.2-6.5 8.5 0 11.8z"/><path class="a6" d="m599.1 364l236.1 117.8c6.5 3.3 17 3.3 23.5 0l37-18.5c6.5-3.2 6.5-8.5 0-11.8l-236.1-117.8c-6.5-3.2-17.1-3.2-23.6 0l-36.9 18.5c-6.5 3.3-6.5 8.6 0 11.8z"/><path class="a6" d="m602.2 362.5l236.1 117.8c6.5 3.2 17.1 3.2 23.6 0l37-18.5c6.5-3.3 6.5-8.6 0-11.8l-236.1-117.8c-6.5-3.3-17.1-3.3-23.6 0l-37 18.5c-6.5 3.2-6.5 8.5 0 11.8z"/><path class="a7" d="m605.4 360.9l236.1 117.8c6.5 3.3 17.1 3.3 23.6 0l36.9-18.5c6.6-3.2 6.6-8.5 0-11.8l-236-117.8c-6.6-3.2-17.1-3.2-23.6 0l-37 18.5c-6.5 3.3-6.5 8.6 0 11.8z"/><path class="s" d="m608.6 359.4l236.1 117.8c6.5 3.2 17 3.2 23.6 0l36.9-18.5c6.5-3.3 6.5-8.6 0-11.8l-236.1-117.8c-6.5-3.3-17-3.3-23.5 0l-37 18.5c-6.5 3.2-6.5 8.5 0 11.8z"/></g><path class="a8" d="m972.1 189.8l-357.5-178.8c-7.7-3.8-14.6-4.2-19.5-1.7l-19.9 10c-5 2.5-8.1 7.8-8.1 15.4v218.3c0 15.2 12.3 33.6 27.5 41.2l357.5 178.8c7.4 3.7 14.1 4.2 19.1 1.9 0 0 0.2-0.1 0.2-0.1q0.1-0.1 0.3-0.2l19.5-9.7c5.2-2.4 8.4-7.8 8.4-15.6v-218.3c0-15.2-12.3-33.6-27.5-41.2z"/><path class="a9" d="m567.1 253v-218.3c0-15.2 12.3-21.3 27.5-13.7l357.5 178.8c15.2 7.6 27.5 26 27.5 41.2v218.3c0 15.2-12.3 21.3-27.5 13.7l-357.5-178.8c-15.2-7.6-27.5-26-27.5-41.2z"/><path class="aa" d="m527.1 273v-218.3c0-15.2 12.3-21.3 27.5-13.7l357.5 178.8c15.2 7.6 27.5 26 27.5 41.2v218.3c0 15.2-12.3 21.3-27.5 13.7l-357.5-178.8c-15.2-7.6-27.5-26-27.5-41.2z"/><path class="ab" d="m932.1 209.8l-357.5-178.8c-7.7-3.8-14.6-4.2-19.5-1.7l-19.9 10c4.9-2.5 11.8-2.1 19.4 1.7l357.5 178.8c15.2 7.6 27.5 26 27.5 41.2v218.3c0 7.5-3 12.8-7.9 15.3l19.5-9.7c5.2-2.4 8.4-7.8 8.4-15.6v-218.3c0-15.2-12.3-33.6-27.5-41.2z"/><g style="mix-blend-mode:multiply"><path class="d" d="m768.6 420.1q0.1 0.1 0.2 0.1c13.4 6.7 24.3 1.3 24.3-12.1 0-13.4-10.9-29.7-24.3-36.4q-1.1-0.6-2.3-1c1.3-3.3 2.1-7.1 2.1-11.5 0-21.5-17.4-47.5-38.8-58.3-21.5-10.7-38.9-2-38.9 19.4q0 1.7 0.2 3.4c-2.5-1.9-5-3.6-7.6-4.9-16.3-8.1-29.4-1.5-29.4 14.7 0 16.2 13.1 35.9 29.4 44z"/><path class="d" d="m768.6 415.3q0.1 0.1 0.2 0.2c13.4 6.7 24.3 1.3 24.3-12.1 0-13.4-10.9-29.7-24.3-36.5q-1.1-0.5-2.3-1c1.3-3.3 2.1-7.1 2.1-11.5 0-21.4-17.4-47.5-38.8-58.2-21.5-10.7-38.9-2.1-38.9 19.4q0 1.6 0.2 3.3c-2.5-1.9-5-3.5-7.6-4.9-16.3-8.1-29.4-1.5-29.4 14.7 0 16.2 13.1 36 29.4 44.1z"/><path class="e" d="m768.6 410.6q0.1 0 0.2 0.1c13.4 6.7 24.3 1.3 24.3-12.1 0-13.4-10.9-29.7-24.3-36.4q-1.1-0.6-2.3-1.1c1.3-3.2 2.1-7.1 2.1-11.5 0-21.4-17.4-47.5-38.8-58.2-21.5-10.7-38.9-2-38.9 19.4q0 1.7 0.2 3.3c-2.5-1.8-5-3.5-7.6-4.8-16.3-8.1-29.4-1.6-29.4 14.7 0 16.2 13.1 35.9 29.4 44z"/><path class="e" d="m768.6 405.8q0.1 0.1 0.2 0.2c13.4 6.7 24.3 1.2 24.3-12.2 0-13.4-10.9-29.7-24.3-36.4q-1.1-0.6-2.3-1c1.3-3.3 2.1-7.1 2.1-11.5 0-21.5-17.4-47.5-38.8-58.2-21.5-10.8-38.9-2.1-38.9 19.4q0 1.6 0.2 3.3c-2.5-1.9-5-3.6-7.6-4.9-16.3-8.1-29.4-1.5-29.4 14.7 0 16.2 13.1 35.9 29.4 44.1z"/><path class="f" d="m768.6 401.1q0.1 0 0.2 0.1c13.4 6.7 24.3 1.3 24.3-12.1 0-13.4-10.9-29.7-24.3-36.4q-1.1-0.6-2.3-1.1c1.3-3.3 2.1-7.1 2.1-11.5 0-21.4-17.4-47.5-38.8-58.2-21.5-10.7-38.9-2-38.9 19.4q0 1.6 0.2 3.3c-2.5-1.9-5-3.5-7.6-4.8-16.3-8.2-29.4-1.6-29.4 14.6 0 16.3 13.1 36 29.4 44.1z"/><path class="f" d="m768.6 396.3q0.1 0.1 0.2 0.1c13.4 6.7 24.3 1.3 24.3-12.1 0-13.4-10.9-29.7-24.3-36.4q-1.1-0.6-2.3-1.1c1.3-3.2 2.1-7.1 2.1-11.4 0-21.5-17.4-47.5-38.8-58.3-21.5-10.7-38.9-2-38.9 19.4q0 1.7 0.2 3.4c-2.5-1.9-5-3.6-7.6-4.9-16.3-8.1-29.4-1.5-29.4 14.7 0 16.2 13.1 35.9 29.4 44z"/><path class="g" d="m768.6 391.5q0.1 0.1 0.2 0.2c13.4 6.7 24.3 1.2 24.3-12.2 0-13.4-10.9-29.7-24.3-36.4q-1.1-0.6-2.3-1c1.3-3.3 2.1-7.1 2.1-11.5 0-21.4-17.4-47.5-38.8-58.2-21.5-10.8-38.9-2.1-38.9 19.4q0 1.6 0.2 3.3c-2.5-1.9-5-3.5-7.6-4.9-16.3-8.1-29.4-1.5-29.4 14.7 0 16.2 13.1 36 29.4 44.1z"/><path class="g" d="m768.6 386.8q0.1 0 0.2 0.1c13.4 6.7 24.3 1.3 24.3-12.1 0-13.4-10.9-29.7-24.3-36.4q-1.1-0.6-2.3-1.1c1.3-3.2 2.1-7.1 2.1-11.5 0-21.4-17.4-47.5-38.8-58.2-21.5-10.7-38.9-2-38.9 19.4q0 1.7 0.2 3.3c-2.5-1.8-5-3.5-7.6-4.8-16.3-8.1-29.4-1.6-29.4 14.7 0 16.2 13.1 35.9 29.4 44z"/><path class="h" d="m768.6 382q0.1 0.1 0.2 0.1c13.4 6.7 24.3 1.3 24.3-12.1 0-13.4-10.9-29.7-24.3-36.4q-1.1-0.6-2.3-1c1.3-3.3 2.1-7.1 2.1-11.5 0-21.5-17.4-47.5-38.8-58.3-21.5-10.7-38.9-2-38.9 19.4q0 1.7 0.2 3.4c-2.5-1.9-5-3.6-7.6-4.9-16.3-8.1-29.4-1.5-29.4 14.7 0 16.2 13.1 35.9 29.4 44z"/><path class="h" d="m768.6 377.3q0.1 0 0.2 0.1c13.4 6.7 24.3 1.3 24.3-12.1 0-13.4-10.9-29.7-24.3-36.4q-1.1-0.6-2.3-1.1c1.3-3.3 2.1-7.1 2.1-11.5 0-21.4-17.4-47.5-38.8-58.2-21.5-10.7-38.9-2.1-38.9 19.4q0 1.6 0.2 3.3c-2.5-1.9-5-3.5-7.6-4.8-16.3-8.2-29.4-1.6-29.4 14.6 0 16.2 13.1 36 29.4 44.1z"/><path class="i" d="m768.6 372.5q0.1 0 0.2 0.1c13.4 6.7 24.3 1.3 24.3-12.1 0-13.4-10.9-29.7-24.3-36.4q-1.1-0.6-2.3-1.1c1.3-3.2 2.1-7.1 2.1-11.4 0-21.5-17.4-47.6-38.8-58.3-21.5-10.7-38.9-2-38.9 19.4q0 1.7 0.2 3.3c-2.5-1.8-5-3.5-7.6-4.8-16.3-8.1-29.4-1.6-29.4 14.7 0 16.2 13.1 35.9 29.4 44z"/><path class="i" d="m768.6 367.7q0.1 0.1 0.2 0.2c13.4 6.7 24.3 1.2 24.3-12.2 0-13.4-10.9-29.7-24.3-36.4q-1.1-0.6-2.3-1c1.3-3.3 2.1-7.1 2.1-11.5 0-21.5-17.4-47.5-38.8-58.2-21.5-10.8-38.9-2.1-38.9 19.4q0 1.6 0.2 3.3c-2.5-1.9-5-3.6-7.6-4.9-16.3-8.1-29.4-1.5-29.4 14.7 0 16.2 13.1 35.9 29.4 44.1z"/><path class="j" d="m768.6 363q0.1 0 0.2 0.1c13.4 6.7 24.3 1.3 24.3-12.1 0-13.4-10.9-29.7-24.3-36.4q-1.1-0.6-2.3-1.1c1.3-3.2 2.1-7.1 2.1-11.5 0-21.4-17.4-47.5-38.8-58.2-21.5-10.7-38.9-2-38.9 19.4q0 1.6 0.2 3.3c-2.5-1.9-5-3.5-7.6-4.8-16.3-8.1-29.4-1.6-29.4 14.6 0 16.3 13.1 36 29.4 44.1z"/><path class="j" d="m768.6 358.2q0.1 0.1 0.2 0.1c13.4 6.7 24.3 1.3 24.3-12.1 0-13.4-10.9-29.7-24.3-36.4q-1.1-0.6-2.3-1.1c1.3-3.2 2.1-7.1 2.1-11.4 0-21.5-17.4-47.5-38.8-58.3-21.5-10.7-38.9-2-38.9 19.4q0 1.7 0.2 3.4c-2.5-1.9-5-3.6-7.6-4.9-16.3-8.1-29.4-1.5-29.4 14.7 0 16.2 13.1 35.9 29.4 44z"/><path class="k" d="m768.6 353.4q0.1 0.1 0.2 0.2c13.4 6.7 24.3 1.2 24.3-12.2 0-13.4-10.9-29.7-24.3-36.4q-1.1-0.5-2.3-1c1.3-3.3 2.1-7.1 2.1-11.5 0-21.4-17.4-47.5-38.8-58.2-21.5-10.8-38.9-2.1-38.9 19.4q0 1.6 0.2 3.3c-2.5-1.9-5-3.5-7.6-4.9-16.3-8.1-29.4-1.5-29.4 14.7 0 16.2 13.1 36 29.4 44.1z"/><path class="k" d="m768.6 348.7q0.1 0 0.2 0.1c13.4 6.7 24.3 1.3 24.3-12.1 0-13.4-10.9-29.7-24.3-36.4q-1.1-0.6-2.3-1.1c1.3-3.2 2.1-7.1 2.1-11.5 0-21.4-17.4-47.5-38.8-58.2-21.5-10.7-38.9-2-38.9 19.4q0 1.7 0.2 3.3c-2.5-1.8-5-3.5-7.6-4.8-16.3-8.1-29.4-1.6-29.4 14.7 0 16.2 13.1 35.9 29.4 44z"/><path class="l" d="m768.6 343.9q0.1 0.1 0.2 0.2c13.4 6.7 24.3 1.2 24.3-12.2 0-13.4-10.9-29.7-24.3-36.4q-1.1-0.6-2.3-1c1.3-3.3 2.1-7.1 2.1-11.5 0-21.5-17.4-47.5-38.8-58.3-21.5-10.7-38.9-2-38.9 19.5q0 1.6 0.2 3.3c-2.5-1.9-5-3.6-7.6-4.9-16.3-8.1-29.4-1.5-29.4 14.7 0 16.2 13.1 35.9 29.4 44z"/><path class="l" d="m768.6 339.2q0.1 0 0.2 0.1c13.4 6.7 24.3 1.3 24.3-12.1 0-13.4-10.9-29.7-24.3-36.4q-1.1-0.6-2.3-1.1c1.3-3.3 2.1-7.1 2.1-11.5 0-21.4-17.4-47.5-38.8-58.2-21.5-10.7-38.9-2-38.9 19.4q0 1.6 0.2 3.3c-2.5-1.9-5-3.5-7.6-4.8-16.3-8.2-29.4-1.6-29.4 14.6 0 16.3 13.1 36 29.4 44.1z"/><path class="m" d="m768.6 334.4q0.1 0.1 0.2 0.1c13.4 6.7 24.3 1.3 24.3-12.1 0-13.4-10.9-29.7-24.3-36.4q-1.1-0.6-2.3-1.1c1.3-3.2 2.1-7.1 2.1-11.4 0-21.5-17.4-47.6-38.8-58.3-21.5-10.7-38.9-2-38.9 19.4q0 1.7 0.2 3.3c-2.5-1.8-5-3.5-7.6-4.8-16.3-8.1-29.4-1.5-29.4 14.7 0 16.2 13.1 35.9 29.4 44z"/><path class="m" d="m768.6 329.6q0.1 0.1 0.2 0.2c13.4 6.7 24.3 1.2 24.3-12.2 0-13.4-10.9-29.7-24.3-36.4q-1.1-0.6-2.3-1c1.3-3.3 2.1-7.1 2.1-11.5 0-21.4-17.4-47.5-38.8-58.2-21.5-10.8-38.9-2.1-38.9 19.4q0 1.6 0.2 3.3c-2.5-1.9-5-3.5-7.6-4.9-16.3-8.1-29.4-1.5-29.4 14.7 0 16.2 13.1 36 29.4 44.1z"/><path class="n" d="m768.6 324.9q0.1 0 0.2 0.1c13.4 6.7 24.3 1.3 24.3-12.1 0-13.4-10.9-29.7-24.3-36.4q-1.1-0.6-2.3-1.1c1.3-3.2 2.1-7.1 2.1-11.5 0-21.4-17.4-47.5-38.8-58.2-21.5-10.7-38.9-2-38.9 19.4q0 1.7 0.2 3.3c-2.5-1.9-5-3.5-7.6-4.8-16.3-8.1-29.4-1.6-29.4 14.7 0 16.2 13.1 35.9 29.4 44z"/><path class="o" d="m768.6 320.1q0.1 0.1 0.2 0.1c13.4 6.7 24.3 1.3 24.3-12.1 0-13.4-10.9-29.7-24.3-36.4q-1.1-0.6-2.3-1c1.3-3.3 2.1-7.1 2.1-11.5 0-21.5-17.4-47.5-38.8-58.3-21.5-10.7-38.9-2-38.9 19.4q0 1.7 0.2 3.4c-2.5-1.9-5-3.6-7.6-4.9-16.3-8.1-29.4-1.5-29.4 14.7 0 16.2 13.1 35.9 29.4 44z"/></g><path class="ac" d="m793.1 308.1c0-13.4-10.9-29.7-24.3-36.4q-1.1-0.6-2.3-1c1.3-3.3 2.1-7.1 2.1-11.5 0-21.5-17.4-47.5-38.8-58.3-9.6-4.7-18.3-5.7-25.1-3.3 0 0-0.1 0-0.1 0q-1.9 0.7-3.5 1.6l-37.4 17.3q-0.6 0.3-1.2 0.6-0.1 0.1-0.3 0.2l-19.4 9.7c-5.4 2.6-8.7 8.3-8.7 16.5 0 16.2 13.1 35.9 29.4 44l85.1 42.6q0.1 0.1 0.2 0.1c6.6 3.3 12.6 3.7 17 1.6 0 0 0.1 0 0.1 0q0.1-0.1 0.2-0.1l20.3-10.2c4.2-2.3 6.7-6.9 6.7-13.4z"/><path class="ad" d="m748.6 330.1q0.1 0.1 0.2 0.1c13.4 6.7 24.3 1.3 24.3-12.1 0-13.4-10.9-29.7-24.3-36.4q-1.1-0.6-2.3-1c1.3-3.3 2.1-7.1 2.1-11.5 0-21.5-17.4-47.5-38.8-58.3-21.5-10.7-38.9-2-38.9 19.4q0 1.7 0.2 3.4c-2.5-1.9-5-3.6-7.6-4.9-16.3-8.1-29.4-1.5-29.4 14.7 0 16.2 13.1 35.9 29.4 44z"/><path class="z" d="m922.4 270.1l-100.6-50.3v-6l100.6 50.3z"/><path class="z" d="m922.4 297.6l-100.6-50.4v-6l100.6 50.4z"/><path class="z" d="m922.4 325l-100.6-50.3v-6l100.6 50.3z"/><path class="u" d="m810.5 211.2l-11.1-16.8-11.2 5.6 11.2 16.8z"/><path class="u" d="m788.2 227.5l11.2 16.7 11.1-5.6-11.1-16.7z"/><path class="u" d="m788.2 254.9l11.2 16.7 11.1-5.5-11.1-16.8z"/><path fill-rule="evenodd" class="ae" d="m602.7 182.8c-24.5-12.2-44.5-42.2-44.5-66.7 0-24.5 20-34.5 44.5-22.2 24.5 12.2 44.5 42.2 44.5 66.7 0 24.5-20 34.5-44.5 22.2zm0-82.9c-21.2-10.6-38.5-2-38.5 19.2 0 21.2 17.3 47.1 38.5 57.7 21.2 10.6 38.5 2 38.5-19.2 0-21.2-17.3-47.1-38.5-57.7z"/><path class="z" d="m602.7 188.8c-27.8-13.9-50.5-47.9-50.5-75.7 0-27.8 22.7-39.2 50.5-25.2v18c-17.9-9-32.5-1.7-32.5 16.2 0 17.9 14.6 39.8 32.5 48.7 17.9 9 32.5 1.7 32.5-16.2l18 9c0 27.8-22.7 39.2-50.5 25.2z"/><path class="af" d="m579.2 126.6l-36-18c0-32.8 26.7-46.1 59.5-29.7v36c-12.9-6.5-23.5-1.2-23.5 11.7z"/><g style="mix-blend-mode:multiply"><path class="X" d="m523.5 765.4l-236 117.8c-6.6 3.2-17.1 3.2-23.6 0l-37-18.5c-6.5-3.2-6.5-8.5 0-11.8l236.1-117.8c6.5-3.2 17.1-3.2 23.6 0l36.9 18.5c6.5 3.3 6.5 8.6 0 11.8z"/><path class="X" d="m520.4 763.9l-236.1 117.7c-6.5 3.3-17.1 3.3-23.6 0l-37-18.4c-6.5-3.3-6.5-8.6 0-11.8l236.1-117.8c6.5-3.3 17.1-3.3 23.6 0l37 18.5c6.5 3.2 6.5 8.5 0 11.8z"/><path class="Y" d="m517.2 762.3l-236.1 117.8c-6.5 3.2-17.1 3.2-23.6 0l-36.9-18.5c-6.5-3.2-6.5-8.5 0-11.8l236.1-117.8c6.5-3.2 17-3.2 23.5 0l37 18.5c6.5 3.3 6.5 8.6 0 11.8z"/><path class="Y" d="m514 760.8l-236.1 117.7c-6.5 3.3-17 3.3-23.5 0l-37-18.4c-6.5-3.3-6.5-8.6 0-11.8l236.1-117.8c6.5-3.3 17.1-3.3 23.6 0l36.9 18.5c6.5 3.2 6.5 8.5 0 11.8z"/><path class="Z" d="m510.9 759.2l-236.1 117.8c-6.5 3.3-17.1 3.3-23.6 0l-37-18.5c-6.5-3.2-6.5-8.5 0-11.8l236.1-117.8c6.5-3.2 17.1-3.2 23.6 0l37 18.5c6.5 3.3 6.5 8.6 0 11.8z"/><path class="Z" d="m507.7 757.7l-236.1 117.7c-6.5 3.3-17.1 3.3-23.6 0l-36.9-18.4c-6.6-3.3-6.6-8.6 0-11.8l236-117.8c6.6-3.3 17.1-3.3 23.6 0l37 18.5c6.5 3.2 6.5 8.5 0 11.8z"/><path class="a0" d="m504.5 756.1l-236.1 117.8c-6.5 3.3-17 3.3-23.6 0l-36.9-18.5c-6.5-3.2-6.5-8.5 0-11.8l236.1-117.8c6.5-3.2 17-3.2 23.5 0l37 18.5c6.5 3.3 6.5 8.6 0 11.8z"/><path class="a0" d="m501.3 754.6l-236 117.7c-6.6 3.3-17.1 3.3-23.6 0l-37-18.4c-6.5-3.3-6.5-8.6 0-11.8l236.1-117.8c6.5-3.3 17.1-3.3 23.6 0l36.9 18.5c6.5 3.2 6.5 8.5 0 11.8z"/><path class="a1" d="m498.2 753l-236.1 117.8c-6.5 3.3-17.1 3.3-23.6 0l-37-18.5c-6.5-3.2-6.5-8.5 0-11.8l236.1-117.8c6.5-3.2 17.1-3.2 23.6 0l37 18.5c6.5 3.3 6.5 8.6 0 11.8z"/><path class="a1" d="m495 751.5l-236.1 117.7c-6.5 3.3-17.1 3.3-23.6 0l-36.9-18.4c-6.5-3.3-6.5-8.6 0-11.8l236.1-117.8c6.5-3.3 17-3.3 23.5 0l37 18.5c6.5 3.2 6.5 8.5 0 11.8z"/><path class="a2" d="m491.8 749.9l-236.1 117.8c-6.5 3.3-17 3.3-23.5 0l-37-18.5c-6.5-3.2-6.5-8.5 0-11.8l236.1-117.8c6.5-3.2 17-3.2 23.6 0l36.9 18.5c6.5 3.3 6.5 8.6 0 11.8z"/><path class="a2" d="m488.6 748.4l-236 117.8c-6.5 3.2-17.1 3.2-23.6 0l-37-18.5c-6.5-3.3-6.5-8.6 0-11.8l236.1-117.8c6.5-3.3 17.1-3.3 23.6 0l36.9 18.5c6.6 3.2 6.6 8.5 0 11.8z"/><path class="a3" d="m485.5 746.8l-236.1 117.8c-6.5 3.3-17.1 3.3-23.6 0l-36.9-18.5c-6.6-3.2-6.6-8.5 0-11.8l236-117.8c6.5-3.2 17.1-3.2 23.6 0l37 18.5c6.5 3.3 6.5 8.6 0 11.8z"/><path class="a3" d="m482.3 745.3l-236.1 117.8c-6.5 3.2-17 3.2-23.6 0l-36.9-18.5c-6.5-3.3-6.5-8.6 0-11.8l236.1-117.8c6.5-3.3 17-3.3 23.5 0l37 18.5c6.5 3.2 6.5 8.5 0 11.8z"/><path class="a4" d="m479.1 743.7l-236.1 117.8c-6.5 3.3-17 3.3-23.5 0l-37-18.5c-6.5-3.2-6.5-8.5 0-11.8l236.1-117.8c6.5-3.2 17.1-3.2 23.6 0l36.9 18.5c6.5 3.3 6.5 8.6 0 11.8z"/><path class="a4" d="m476 742.2l-236.1 117.8c-6.5 3.2-17.1 3.2-23.6 0l-37-18.5c-6.5-3.3-6.5-8.6 0-11.8l236.1-117.8c6.5-3.3 17.1-3.3 23.6 0l37 18.5c6.5 3.2 6.5 8.5 0 11.8z"/><path class="a5" d="m472.8 740.6l-236.1 117.8c-6.5 3.3-17.1 3.3-23.6 0l-36.9-18.5c-6.5-3.2-6.5-8.5 0-11.8l236.1-117.8c6.5-3.2 17-3.2 23.5 0l37 18.5c6.5 3.3 6.5 8.6 0 11.8z"/><path class="a5" d="m469.6 739.1l-236.1 117.8c-6.5 3.2-17 3.2-23.5 0l-37-18.5c-6.5-3.3-6.5-8.6 0-11.8l236.1-117.8c6.5-3.3 17-3.3 23.6 0l36.9 18.5c6.5 3.2 6.5 8.5 0 11.8z"/><path class="a6" d="m466.4 737.5l-236 117.8c-6.5 3.3-17.1 3.3-23.6 0l-37-18.5c-6.5-3.2-6.5-8.5 0-11.8l236.1-117.8c6.5-3.2 17.1-3.2 23.6 0l36.9 18.5c6.6 3.3 6.6 8.6 0 11.8z"/><path class="a6" d="m463.3 736l-236.1 117.8c-6.5 3.2-17.1 3.2-23.6 0l-36.9-18.5c-6.6-3.3-6.6-8.6 0-11.8l236-117.8c6.5-3.3 17.1-3.3 23.6 0l37 18.5c6.5 3.2 6.5 8.5 0 11.8z"/><path class="a7" d="m460.1 734.4l-236.1 117.8c-6.5 3.3-17 3.3-23.6 0l-36.9-18.5c-6.5-3.2-6.5-8.5 0-11.8l236.1-117.8c6.5-3.2 17-3.2 23.5 0l37 18.5c6.5 3.3 6.5 8.6 0 11.8z"/><path class="s" d="m456.9 732.9l-236.1 117.8c-6.5 3.2-17 3.2-23.5 0l-37-18.5c-6.5-3.3-6.5-8.6 0-11.8l236.1-117.8c6.5-3.3 17.1-3.3 23.6 0l36.9 18.5c6.5 3.2 6.5 8.5 0 11.8z"/></g><path class="ag" d="m437.5 296.7c0 0-19.6-9.8-19.6-9.8q-0.2-0.1-0.3-0.1c-5-2.4-11.8-2.1-19.3 1.7l-218.3 109.1c-15.2 7.6-27.5 26.1-27.5 41.3v357.5c0 7.4 2.9 12.7 7.7 15.2q0.4 0.3 0.8 0.4l19.1 9.6c5 2.8 12.1 2.5 19.9-1.4l218.3-109.2c15.2-7.6 27.5-26 27.5-41.2v-357.6c0-7.7-3.2-13-8.3-15.5z"/><path class="ah" d="m418.3 711l-218.3 109.2c-15.2 7.6-27.5 1.4-27.5-13.8v-357.5c0-15.2 12.3-33.7 27.5-41.2l218.3-109.2c15.2-7.6 27.5-1.4 27.5 13.7v357.6c0 15.2-12.3 33.6-27.5 41.2z"/><path class="ai" d="m458.3 731l-218.3 109.2c-15.2 7.6-27.5 1.4-27.5-13.8v-357.5c0-15.2 12.3-33.7 27.5-41.2l218.3-109.2c15.2-7.6 27.5-1.4 27.5 13.7v357.6c0 15.2-12.3 33.6-27.5 41.2z"/><path class="aj" d="m448 383.4c0 19.9-16.2 44-36 54-19.9 9.9-36 1.8-36-18 0-19.9 16.1-44.1 36-54 19.8-9.9 36-1.9 36 18z"/><path class="ak" d="m458 388.4c0 19.9-16.2 44-36 54-19.9 9.9-36 1.8-36-18 0-19.9 16.1-44.1 36-54 19.8-9.9 36-1.9 36 18z"/><path class="z" d="m418.8 426.4c-1.2 0.6-2.4 0.7-3.4 0.2l-15.4-7.7 6.6-9.9 12.2 6 24-36 6.6 3.3-27.3 41c-0.9 1.4-2.1 2.5-3.3 3.1z"/><path class="al" d="m477.5 316.7c0 0-19.6-9.8-19.6-9.8q-0.2-0.1-0.3-0.1c-5-2.4-11.8-2-19.3 1.7l-218.3 109.2c-15.2 7.5-27.5 26-27.5 41.2v357.5c0 7.4 2.9 12.7 7.7 15.2q0.4 0.3 0.8 0.5l19.1 9.5c-4.7-2.6-7.6-7.8-7.6-15.2v-357.5c0-15.2 12.3-33.7 27.5-41.2l218.3-109.2c7.5-3.7 14.2-4.1 19.2-1.8z"/><g style="mix-blend-mode:multiply"><path class="d" d="m292.4 555.2l-37.9 68.3c-2.2 4-0.1 7.1 3.5 5.3l13.4-6.7v61.5c0 2.4 2 3.4 4.4 2.2l33.2-16.7c2.4-1.2 4.4-4.1 4.4-6.5v-61.5l13.4-6.7c3.6-1.8 5.7-7 3.5-8.8z"/><path class="d" d="m292.8 552.2c-0.2-0.2-7.5 12.5-7.7 12.7l-30.6 55.3c-2.2 4-0.1 7.1 3.5 5.3l13.4-6.7v61.5c0 2.4 2 3.3 4.4 2.1l33.2-16.6c2.4-1.2 4.4-4.1 4.4-6.5v-61.5l13.4-6.7c3.6-1.8 5.7-7 3.5-8.8z"/><path class="e" d="m293.2 549.1c-0.4-0.4-7.7 11.8-8 12.2l-30.7 55.5c-2.2 3.9-0.1 7.1 3.5 5.3l13.4-6.8v61.5c0 2.4 2 3.4 4.4 2.2l33.2-16.6c2.4-1.2 4.4-4.2 4.4-6.6v-61.5l13.4-6.7c3.6-1.8 5.7-6.9 3.5-8.7z"/><path class="e" d="m293.6 546c-0.6-0.5-7.9 11.1-8.3 11.8l-30.8 55.6c-2.2 4-0.1 7.1 3.5 5.3l13.4-6.7v61.4c0 2.5 2 3.4 4.4 2.2l33.2-16.6c2.4-1.2 4.4-4.1 4.4-6.5v-61.5l13.4-6.7c3.6-1.8 5.7-7 3.5-8.8z"/><path class="f" d="m294 543c-0.8-0.7-8 10.3-8.6 11.2l-30.9 55.8c-2.2 4-0.1 7.1 3.5 5.3l13.4-6.7v61.5c0 2.4 2 3.4 4.4 2.2l33.2-16.7c2.4-1.2 4.4-4.1 4.4-6.5v-61.5l13.4-6.7c3.6-1.8 5.7-7 3.5-8.8z"/><path class="f" d="m294.4 539.9c-1-0.8-8.2 9.6-8.9 10.8l-31 55.9c-2.2 4-0.1 7.1 3.5 5.3l13.4-6.7v61.5c0 2.4 2 3.4 4.4 2.2l33.2-16.6c2.4-1.3 4.4-4.2 4.4-6.6v-61.5l13.4-6.7c3.6-1.8 5.7-7 3.5-8.7z"/><path class="g" d="m294.8 536.9c-1.2-1-8.4 8.8-9.2 10.3l-31.1 56.1c-2.2 3.9-0.1 7.1 3.5 5.3l13.4-6.8v61.5c0 2.4 2 3.4 4.4 2.2l33.2-16.6c2.4-1.2 4.4-4.2 4.4-6.6v-61.4l13.4-6.8c3.6-1.8 5.7-6.9 3.5-8.7z"/><path class="g" d="m295.3 533.9c-1.5-1.3-8.7 8-9.6 9.7l-31.2 56.3c-2.2 4-0.1 7.1 3.5 5.3l13.4-6.7v61.5c0 2.4 2 3.3 4.4 2.1l33.2-16.6c2.4-1.2 4.4-4.1 4.4-6.5v-61.5l13.4-6.7c3.6-1.8 5.7-7 3.5-8.8z"/><path class="h" d="m295.7 530.8c-1.7-1.4-8.8 7.4-9.9 9.3l-31.3 56.4c-2.2 4-0.1 7.1 3.5 5.3l13.4-6.7v61.5c0 2.4 2 3.4 4.4 2.2l33.2-16.6c2.4-1.3 4.4-4.2 4.4-6.6v-61.5l13.4-6.7c3.6-1.8 5.7-7 3.5-8.7z"/><path class="h" d="m296.1 527.8c-1.9-1.6-9 6.6-10.2 8.7l-31.4 56.7c-2.2 4-0.1 7.1 3.5 5.3l13.4-6.7v61.4c0 2.5 2 3.4 4.4 2.2l33.2-16.6c2.4-1.2 4.4-4.1 4.4-6.5v-61.5l13.4-6.7c3.6-1.9 5.7-7 3.5-8.8z"/><path class="i" d="m296.5 524.8c-2.2-1.8-9.2 5.8-10.5 8.2l-31.5 56.8c-2.2 4-0.1 7.1 3.5 5.3l13.4-6.7v61.5c0 2.4 2 3.4 4.4 2.2l33.2-16.7c2.4-1.2 4.4-4.1 4.4-6.5v-61.5l13.4-6.7c3.6-1.8 5.7-7 3.5-8.7z"/><path class="i" d="m296.9 521.7c-2.4-1.8-9.3 5.2-10.8 7.8l-31.6 57c-2.2 4-0.1 7.1 3.5 5.3l13.4-6.7v61.4c0 2.4 2 3.4 4.4 2.2l33.2-16.6c2.4-1.2 4.4-4.1 4.4-6.6v-61.4l13.4-6.7c3.6-1.9 5.7-7 3.5-8.8z"/><path class="j" d="m297.3 518.7c-2.6-2-9.5 4.4-11.1 7.3l-31.7 57.1c-2.2 4-0.1 7.1 3.5 5.3l13.4-6.7v61.5c0 2.4 2 3.4 4.4 2.2l33.2-16.6c2.4-1.3 4.4-4.2 4.4-6.6v-61.5l13.4-6.7c3.6-1.8 5.7-7 3.5-8.7z"/><path class="j" d="m297.7 515.7c-2.8-2.2-9.7 3.7-11.4 6.8l-31.8 57.3c-2.2 4-0.1 7.1 3.5 5.3l13.4-6.7v61.5c0 2.4 2 3.4 4.4 2.1l33.2-16.6c2.4-1.2 4.4-4.1 4.4-6.5v-61.5l13.4-6.7c3.6-1.8 5.7-7 3.5-8.8z"/><path class="k" d="m298.1 512.7c-3-2.4-9.9 2.9-11.7 6.3l-31.9 57.5c-2.2 4-0.1 7.1 3.5 5.3l13.4-6.7v61.4c0 2.4 2 3.4 4.4 2.2l33.2-16.6c2.4-1.2 4.4-4.1 4.4-6.6v-61.4l13.4-6.7c3.6-1.9 5.7-7 3.5-8.8z"/><path class="k" d="m298.5 509.7c-3.2-2.5-10 2.2-12 5.8l-32 57.7c-2.2 3.9-0.1 7.1 3.5 5.2l13.4-6.7v61.5c0 2.4 2 3.4 4.4 2.2l33.2-16.6c2.4-1.2 4.4-4.2 4.4-6.6v-61.5l13.4-6.7c3.6-1.8 5.7-6.9 3.5-8.7z"/><path class="l" d="m298.9 506.8c-3.4-2.8-10.2 1.4-12.3 5.2l-32.1 57.9c-2.2 3.9-0.1 7.1 3.5 5.2l13.4-6.7v61.5c0 2.4 2 3.4 4.4 2.2l33.2-16.6c2.4-1.2 4.4-4.2 4.4-6.6v-61.5l13.4-6.7c3.6-1.8 5.7-7 3.5-8.7z"/><path class="l" d="m299.3 503.8c-3.6-2.9-10.4 0.7-12.6 4.7l-32.2 58.1c-2.2 3.9-0.1 7.1 3.5 5.2l13.4-6.7v61.5c0 2.4 2 3.4 4.4 2.2l33.2-16.6c2.4-1.2 4.4-4.2 4.4-6.6v-61.5l13.4-6.7c3.6-1.8 5.7-6.9 3.5-8.7z"/><path class="m" d="m299.7 500.8c-3.8-3-10.5 0-12.9 4.3l-32.3 58.2c-2.2 4-0.1 7.1 3.5 5.3l13.4-6.7v61.4c0 2.4 2 3.4 4.4 2.2l33.2-16.6c2.4-1.2 4.4-4.1 4.4-6.6v-61.4l13.4-6.7c3.6-1.9 5.7-7 3.5-8.8z"/><path class="m" d="m300.2 497.9c-4.1-3.3-10.8-0.8-13.3 3.7l-32.4 58.4c-2.2 4-0.1 7.1 3.5 5.3l13.4-6.7v61.5c0 2.4 2 3.4 4.4 2.2l33.2-16.7c2.4-1.2 4.4-4.1 4.4-6.5v-61.5l13.4-6.7c3.6-1.8 5.7-7 3.5-8.8z"/><path class="n" d="m300.6 495c-4.3-3.5-11-1.6-13.6 3.2l-32.5 58.6c-2.2 3.9-0.1 7.1 3.5 5.2l13.4-6.7v61.5c0 2.4 2 3.4 4.4 2.2l33.2-16.6c2.4-1.2 4.4-4.2 4.4-6.6v-61.5l13.4-6.7c3.6-1.8 5.7-6.9 3.5-8.7z"/><path class="o" d="m301 492.1c-4.5-3.6-11.2-2.3-13.9 2.7l-32.6 58.7c-2.2 4-0.1 7.1 3.5 5.3l13.4-6.7v61.5c0 2.4 2 3.4 4.4 2.2l33.2-16.7c2.4-1.2 4.4-4.1 4.4-6.5v-61.5l13.4-6.7c3.6-1.8 5.7-7 3.5-8.8z"/></g><g style="mix-blend-mode:multiply"><path class="d" d="m370.3 729.1l-37.8-30.5c-2.2-1.8-0.2-6.9 3.4-8.8l13.5-6.7v-61.5c0-2.4 1.9-5.3 4.3-6.5l33.3-16.6c2.4-1.2 4.3-0.3 4.3 2.2v61.4l13.5-6.7c3.6-1.8 5.6 1.3 3.4 5.3z"/><path class="d" d="m370.3 725.7l-37.8-30.4c-2.2-1.8-0.2-7 3.4-8.8l13.5-6.7v-61.5c0-2.4 1.9-5.3 4.3-6.5l33.3-16.7c2.4-1.2 4.3-0.2 4.3 2.2v61.5l13.5-6.7c3.6-1.8 5.6 1.3 3.4 5.3z"/><path class="e" d="m370.3 722.4l-37.8-30.5c-2.2-1.7-0.2-6.9 3.4-8.7l13.5-6.7v-61.5c0-2.4 1.9-5.4 4.3-6.6l33.3-16.6c2.4-1.2 4.3-0.2 4.3 2.2v61.5l13.5-6.7c3.6-1.8 5.6 1.3 3.4 5.2z"/><path class="e" d="m370.3 719.1l-37.8-30.5c-2.2-1.8-0.2-6.9 3.4-8.8l13.5-6.7v-61.5c0-2.4 1.9-5.3 4.3-6.5l33.3-16.6c2.4-1.2 4.3-0.3 4.3 2.2v61.4l13.5-6.7c3.6-1.8 5.6 1.3 3.4 5.3z"/><path class="f" d="m370.3 715.7l-37.8-30.4c-2.2-1.8-0.2-7 3.4-8.8l13.5-6.7v-61.5c0-2.4 1.9-5.3 4.3-6.5l33.3-16.7c2.4-1.2 4.3-0.2 4.3 2.2v61.5l13.5-6.7c3.6-1.8 5.6 1.3 3.4 5.3z"/><path class="f" d="m370.3 712.4l-37.8-30.5c-2.2-1.7-0.2-6.9 3.4-8.7l13.5-6.7v-61.5c0-2.4 1.9-5.4 4.3-6.6l33.3-16.6c2.4-1.2 4.3-0.2 4.3 2.2v61.5l13.5-6.7c3.6-1.8 5.6 1.3 3.4 5.2z"/><path class="g" d="m370.3 709.1l-37.8-30.5c-2.2-1.8-0.2-6.9 3.4-8.8l13.5-6.7v-61.5c0-2.4 1.9-5.3 4.3-6.5l33.3-16.6c2.4-1.2 4.3-0.3 4.3 2.2v61.4l13.5-6.7c3.6-1.8 5.6 1.3 3.4 5.3z"/><path class="g" d="m370.3 705.7l-37.8-30.4c-2.2-1.8-0.2-7 3.4-8.8l13.5-6.7v-61.5c0-2.4 1.9-5.3 4.3-6.5l33.3-16.7c2.4-1.2 4.3-0.2 4.3 2.2v61.5l13.5-6.7c3.6-1.8 5.6 1.3 3.4 5.3z"/><path class="h" d="m370.3 702.4l-37.8-30.5c-2.2-1.7-0.2-6.9 3.4-8.7l13.5-6.7v-61.5c0-2.4 1.9-5.4 4.3-6.6l33.3-16.6c2.4-1.2 4.3-0.2 4.3 2.2v61.5l13.5-6.7c3.6-1.8 5.6 1.3 3.4 5.2z"/><path class="h" d="m370.3 699.1l-37.8-30.5c-2.2-1.8-0.2-6.9 3.4-8.8l13.5-6.7v-61.5c0-2.4 1.9-5.3 4.3-6.5l33.3-16.6c2.4-1.2 4.3-0.3 4.3 2.2v61.4l13.5-6.7c3.6-1.8 5.6 1.3 3.4 5.3z"/><path class="i" d="m370.3 695.7l-37.8-30.4c-2.2-1.8-0.2-7 3.4-8.8l13.5-6.7v-61.5c0-2.4 1.9-5.3 4.3-6.5l33.3-16.7c2.4-1.2 4.3-0.2 4.3 2.2v61.5l13.5-6.7c3.6-1.8 5.6 1.3 3.4 5.3z"/><path class="i" d="m370.3 692.4l-37.8-30.5c-2.2-1.7-0.2-6.9 3.4-8.7l13.5-6.7v-61.5c0-2.4 1.9-5.4 4.3-6.6l33.3-16.6c2.4-1.2 4.3-0.2 4.3 2.2v61.5l13.5-6.7c3.6-1.8 5.6 1.3 3.4 5.2z"/><path class="j" d="m370.3 689.1l-37.8-30.5c-2.2-1.8-0.2-6.9 3.4-8.8l13.5-6.7v-61.5c0-2.4 1.9-5.3 4.3-6.5l33.3-16.6c2.4-1.2 4.3-0.3 4.3 2.2v61.4l13.5-6.7c3.6-1.8 5.6 1.3 3.4 5.3z"/><path class="j" d="m370.3 685.7l-37.8-30.4c-2.2-1.8-0.2-7 3.4-8.8l13.5-6.7v-61.5c0-2.4 1.9-5.3 4.3-6.5l33.3-16.7c2.4-1.2 4.3-0.2 4.3 2.2v61.5l13.5-6.7c3.6-1.8 5.6 1.3 3.4 5.3z"/><path class="k" d="m370.3 682.4l-37.8-30.5c-2.2-1.7-0.2-6.9 3.4-8.7l13.5-6.7v-61.5c0-2.4 1.9-5.4 4.3-6.6l33.3-16.6c2.4-1.2 4.3-0.2 4.3 2.2v61.5l13.5-6.7c3.6-1.8 5.6 1.3 3.4 5.2z"/><path class="k" d="m370.3 679.1l-37.8-30.5c-2.2-1.8-0.2-6.9 3.4-8.8l13.5-6.7v-61.5c0-2.4 1.9-5.3 4.3-6.5l33.3-16.6c2.4-1.2 4.3-0.3 4.3 2.2v61.4l13.5-6.7c3.6-1.8 5.6 1.3 3.4 5.3z"/><path class="l" d="m370.3 675.7l-37.8-30.4c-2.2-1.8-0.2-7 3.4-8.8l13.5-6.7v-61.5c0-2.4 1.9-5.3 4.3-6.5l33.3-16.7c2.4-1.2 4.3-0.2 4.3 2.2v61.5l13.5-6.7c3.6-1.8 5.6 1.3 3.4 5.3z"/><path class="l" d="m370.3 672.4l-37.8-30.5c-2.2-1.7-0.2-6.9 3.4-8.7l13.5-6.7v-61.5c0-2.4 1.9-5.4 4.3-6.6l33.3-16.6c2.4-1.2 4.3-0.2 4.3 2.2v61.5l13.5-6.7c3.6-1.8 5.6 1.3 3.4 5.2z"/><path class="m" d="m370.3 669.1l-37.8-30.5c-2.2-1.8-0.2-6.9 3.4-8.8l13.5-6.7v-61.5c0-2.4 1.9-5.3 4.3-6.5l33.3-16.6c2.4-1.2 4.3-0.3 4.3 2.2v61.4l13.5-6.7c3.6-1.8 5.6 1.3 3.4 5.3z"/><path class="m" d="m370.3 665.7l-37.8-30.4c-2.2-1.8-0.2-7 3.4-8.8l13.5-6.7v-61.5c0-2.4 1.9-5.3 4.3-6.5l33.3-16.7c2.4-1.2 4.3-0.2 4.3 2.2v61.5l13.5-6.7c3.6-1.8 5.6 1.3 3.4 5.3z"/><path class="n" d="m370.3 662.4l-37.8-30.5c-2.2-1.7-0.2-6.9 3.4-8.7l13.5-6.7v-61.5c0-2.4 1.9-5.4 4.3-6.6l33.3-16.6c2.4-1.2 4.3-0.2 4.3 2.2v61.5l13.5-6.7c3.6-1.8 5.6 1.3 3.4 5.2z"/><path class="o" d="m370.3 659.1l-37.8-30.5c-2.2-1.8-0.2-6.9 3.4-8.8l13.5-6.7v-61.5c0-2.4 1.9-5.3 4.3-6.5l33.3-16.6c2.4-1.2 4.3-0.3 4.3 2.2v61.4l13.5-6.7c3.6-1.8 5.6 1.3 3.4 5.3z"/></g><path class="am" d="m271.4 552.1v61.5c0 1.2 0.5 2 1.3 2.4 0 0 23 11.5 23 11.5l-1.4-64z"/><path class="an" d="m330.3 515.6l-15.1-19-13.4-6.7c-5.2-2.6-11.7-0.7-14.5 4.5l-32.8 59.1c-1.5 2.7-1 5.1 0.6 5.7l22.6 11.3 35.7-39.4 13.4-6.7c3.6-1.8 5.7-7 3.5-8.8z"/><path class="ao" d="m315.2 496.6l-37.8 68.4c-2.2 3.9-0.2 7 3.4 5.2l13.5-6.7v61.5c0 2.4 1.9 3.4 4.3 2.2l33.3-16.6c2.4-1.2 4.3-4.2 4.3-6.6v-61.5l13.4-6.7c3.7-1.8 5.7-7 3.5-8.7z"/><path class="ap" d="m415.2 627.7l15.8-30.9-23-11.5c-0.8-0.5-1.9-0.6-3.2 0.1l-13.5 6.7z"/><path class="aq" d="m349.4 613.1l-13.5 6.7c-3.6 1.9-5.6 7-3.4 8.8l36.9 29.7q0.9 0.8 2 1.3l21.9 11-20.9-46z"/><path class="ar" d="m413.1 539.8l-23-11.6c-0.8-0.4-1.9-0.3-3.1 0.3l-33.3 16.6c-2.4 1.2-4.3 4.1-4.3 6.5v61.5l23 11.5z"/><path class="as" d="m393.2 670.5l-37.9-30.5c-2.2-1.8-0.1-6.9 3.5-8.7l13.4-6.7v-61.5c0-2.4 2-5.4 4.4-6.6l33.2-16.6c2.4-1.2 4.4-0.2 4.4 2.2v61.5l13.4-6.7c3.6-1.9 5.7 1.3 3.5 5.2z"/><g style="mix-blend-mode:multiply"><path class="X" d="m766.7 1007.9l150.6 75.3c6.5 3.2 17 3.2 23.5 0l37-18.5c6.5-3.3 6.5-8.5 0-11.8l-150.5-75.3c-6.5-3.2-17.1-3.2-23.6 0l-37 18.5c-6.5 3.3-6.5 8.5 0 11.8z"/><path class="X" d="m769.9 1006.4l150.5 75.2c6.5 3.3 17.1 3.3 23.6 0l37-18.4c6.5-3.3 6.5-8.6 0-11.8l-150.6-75.3c-6.5-3.3-17-3.3-23.5 0l-37 18.5c-6.5 3.2-6.5 8.5 0 11.8z"/><path class="Y" d="m773.1 1004.8l150.5 75.3c6.5 3.2 17.1 3.2 23.6 0l36.9-18.5c6.6-3.3 6.6-8.5 0-11.8l-150.5-75.3c-6.5-3.2-17.1-3.2-23.6 0l-36.9 18.5c-6.5 3.3-6.5 8.5 0 11.8z"/><path class="Y" d="m776.2 1003.3l150.6 75.2c6.5 3.3 17 3.3 23.6 0l36.9-18.4c6.5-3.3 6.5-8.6 0-11.8l-150.5-75.3c-6.5-3.3-17.1-3.3-23.6 0l-37 18.5c-6.5 3.2-6.5 8.5 0 11.8z"/><path class="Z" d="m779.4 1001.7l150.5 75.3c6.6 3.2 17.1 3.2 23.6 0l37-18.5c6.5-3.2 6.5-8.5 0-11.8l-150.6-75.3c-6.5-3.2-17-3.2-23.5 0l-37 18.5c-6.5 3.3-6.5 8.5 0 11.8z"/><path class="Z" d="m782.6 1000.2l150.5 75.2c6.5 3.3 17.1 3.3 23.6 0l37-18.4c6.5-3.3 6.5-8.6 0-11.8l-150.6-75.3c-6.5-3.3-17-3.3-23.6 0l-36.9 18.5c-6.5 3.2-6.5 8.5 0 11.8z"/><path class="a0" d="m785.8 998.6l150.5 75.3c6.5 3.2 17.1 3.2 23.6 0l36.9-18.5c6.5-3.2 6.5-8.5 0-11.8l-150.5-75.3c-6.5-3.2-17.1-3.2-23.6 0l-36.9 18.5c-6.6 3.3-6.6 8.6 0 11.8z"/><path class="a0" d="m788.9 997.1l150.6 75.2c6.5 3.3 17 3.3 23.5 0l37-18.4c6.5-3.3 6.5-8.6 0-11.8l-150.5-75.3c-6.5-3.3-17.1-3.3-23.6 0l-37 18.5c-6.5 3.2-6.5 8.5 0 11.8z"/><path class="a1" d="m792.1 995.5l150.5 75.3c6.5 3.3 17.1 3.3 23.6 0l37-18.5c6.5-3.2 6.5-8.5 0-11.8l-150.6-75.3c-6.5-3.2-17-3.2-23.5 0l-37 18.5c-6.5 3.3-6.5 8.6 0 11.8z"/><path class="a1" d="m795.3 994l150.5 75.2c6.5 3.3 17.1 3.3 23.6 0l36.9-18.4c6.6-3.3 6.6-8.6 0-11.8l-150.5-75.3c-6.5-3.3-17.1-3.3-23.6 0l-36.9 18.5c-6.5 3.2-6.5 8.5 0 11.8z"/><path class="a2" d="m798.4 992.4l150.6 75.3c6.5 3.3 17 3.3 23.6 0l36.9-18.5c6.5-3.2 6.5-8.5 0-11.8l-150.5-75.3c-6.5-3.2-17.1-3.2-23.6 0l-37 18.5c-6.5 3.3-6.5 8.6 0 11.8z"/><path class="a2" d="m801.6 990.9l150.5 75.2c6.6 3.3 17.1 3.3 23.6 0l37-18.4c6.5-3.3 6.5-8.6 0-11.8l-150.5-75.3c-6.6-3.3-17.1-3.3-23.6 0l-37 18.5c-6.5 3.2-6.5 8.5 0 11.8z"/><path class="a3" d="m804.8 989.3l150.5 75.3c6.5 3.3 17.1 3.3 23.6 0l37-18.5c6.5-3.2 6.5-8.5 0-11.8l-150.6-75.3c-6.5-3.2-17-3.2-23.6 0l-36.9 18.5c-6.5 3.3-6.5 8.6 0 11.8z"/><path class="a3" d="m808 987.8l150.5 75.2c6.5 3.3 17.1 3.3 23.6 0l36.9-18.4c6.5-3.3 6.5-8.6 0-11.8l-150.5-75.3c-6.5-3.3-17.1-3.3-23.6 0l-36.9 18.5c-6.6 3.2-6.6 8.5 0 11.8z"/><path class="a4" d="m811.1 986.2l150.6 75.3c6.5 3.3 17 3.3 23.5 0l37-18.5c6.5-3.2 6.5-8.5 0-11.8l-150.5-75.3c-6.5-3.2-17.1-3.2-23.6 0l-37 18.5c-6.5 3.3-6.5 8.6 0 11.8z"/><path class="a4" d="m814.3 984.7l150.5 75.3c6.5 3.2 17.1 3.2 23.6 0l37-18.5c6.5-3.3 6.5-8.6 0-11.8l-150.6-75.3c-6.5-3.3-17-3.3-23.5 0l-37 18.5c-6.5 3.2-6.5 8.5 0 11.8z"/><path class="a5" d="m817.5 983.1l150.5 75.3c6.5 3.3 17.1 3.3 23.6 0l36.9-18.5c6.6-3.2 6.6-8.5 0-11.8l-150.5-75.3c-6.5-3.2-17.1-3.2-23.6 0l-36.9 18.5c-6.5 3.3-6.5 8.6 0 11.8z"/><path class="a5" d="m820.6 981.6l150.6 75.3c6.5 3.2 17 3.2 23.6 0l36.9-18.5c6.5-3.3 6.5-8.6 0-11.8l-150.5-75.3c-6.5-3.3-17.1-3.3-23.6 0l-37 18.5c-6.5 3.2-6.5 8.5 0 11.8z"/><path class="a6" d="m823.8 980l150.6 75.3c6.5 3.3 17 3.3 23.5 0l37-18.5c6.5-3.2 6.5-8.5 0-11.8l-150.5-75.3c-6.6-3.2-17.1-3.2-23.6 0l-37 18.5c-6.5 3.3-6.5 8.6 0 11.8z"/><path class="a6" d="m827 978.5l150.5 75.3c6.5 3.2 17.1 3.2 23.6 0l37-18.5c6.5-3.3 6.5-8.6 0-11.8l-150.6-75.3c-6.5-3.3-17-3.3-23.6 0l-36.9 18.5c-6.5 3.2-6.5 8.5 0 11.8z"/><path class="a7" d="m830.2 976.9l150.5 75.3c6.5 3.3 17.1 3.3 23.6 0l36.9-18.5c6.5-3.2 6.5-8.5 0-11.8l-150.5-75.3c-6.5-3.2-17.1-3.2-23.6 0l-36.9 18.5c-6.6 3.3-6.6 8.6 0 11.8z"/><path class="s" d="m833.3 975.4l150.6 75.3c6.5 3.2 17 3.2 23.5 0l37-18.5c6.5-3.3 6.5-8.6 0-11.8l-150.5-75.3c-6.5-3.3-17.1-3.3-23.6 0l-37 18.5c-6.5 3.2-6.5 8.5 0 11.8z"/></g><path class="at" d="m1033.3 688.9l-127-63.5c-4.9-2.4-9.2-2.4-12.2-0.5 0 0-18.3 9.2-18.3 9.2q-0.8 0.3-1.6 0.8c-2.4 1.6-3.9 4.5-3.9 8.5v288.1c0 8.8 7.2 19.5 16 24l127 63.5c4.8 2.4 9.1 2.4 12 0.5 0 0.1 18.8-9.4 18.8-9.4q0.5-0.2 0.9-0.4l0.3-0.1c2.5-1.6 4-4.6 4-8.6v-288.1c0-8.8-7.2-19.6-16-24z"/><path class="au" d="m886.3 955.5l127 63.5c8.8 4.4 16 0.8 16-8v-288.1c0-8.8-7.2-19.6-16-24l-127-63.5c-8.8-4.4-16-0.8-16 8v288.1c0 8.8 7.2 19.5 16 24z"/><path class="av" d="m846.3 975.5l127 63.5c8.8 4.4 16 0.8 16-8v-288.1c0-8.8-7.2-19.5-16-24l-127-63.5c-8.8-4.4-16-0.8-16 8v288.1c0 8.8 7.2 19.5 16 24z"/><path class="aw" d="m993.3 708.9l-127-63.5c-4.9-2.4-9.2-2.4-12.2-0.5 0 0-18.3 9.2-18.3 9.2 2.8-1 6.5-0.7 10.5 1.3l127 63.5c8.8 4.5 16 15.2 16 24v288.1c0 4-1.5 7-4 8.5 0 0.1 18.8-9.4 18.8-9.4q0.5-0.2 0.9-0.4l0.3-0.1c2.5-1.6 4-4.6 4-8.6v-288.1c0-8.8-7.2-19.6-16-24z"/><g style="mix-blend-mode:multiply"><path class="d" d="m852.1 860c0 7.3 5.9 16.3 13.3 20 7.3 3.6 13.3 0.7 13.3-6.7 0-7.3-6-16.3-13.3-20-7.4-3.6-13.3-0.7-13.3 6.7z"/><path class="d" d="m852.1 858.6c0 7.3 5.9 16.3 13.3 19.9 7.3 3.7 13.3 0.7 13.3-6.6 0-7.4-6-16.3-13.3-20-7.4-3.7-13.3-0.7-13.3 6.7z"/><path class="e" d="m852.1 857.1c0 7.4 5.9 16.3 13.3 20 7.3 3.7 13.3 0.7 13.3-6.6 0-7.4-6-16.3-13.3-20-7.4-3.7-13.3-0.7-13.3 6.6z"/><path class="e" d="m852.1 855.7c0 7.4 5.9 16.3 13.3 20 7.3 3.7 13.3 0.7 13.3-6.7 0-7.3-6-16.3-13.3-20-7.4-3.6-13.3-0.7-13.3 6.7z"/><path class="f" d="m852.1 854.3c0 7.3 5.9 16.3 13.3 20 7.3 3.6 13.3 0.6 13.3-6.7 0-7.4-6-16.3-13.3-20-7.4-3.7-13.3-0.7-13.3 6.7z"/><path class="f" d="m852.1 852.8c0 7.4 5.9 16.3 13.3 20 7.3 3.7 13.3 0.7 13.3-6.6 0-7.4-6-16.3-13.3-20-7.4-3.7-13.3-0.7-13.3 6.6z"/><path class="g" d="m852.1 851.4c0 7.4 5.9 16.3 13.3 20 7.3 3.7 13.3 0.7 13.3-6.7 0-7.3-6-16.3-13.3-19.9-7.4-3.7-13.3-0.7-13.3 6.6z"/><path class="g" d="m852.1 850c0 7.3 5.9 16.3 13.3 20 7.3 3.6 13.3 0.7 13.3-6.7 0-7.3-6-16.3-13.3-20-7.4-3.6-13.3-0.7-13.3 6.7z"/><path class="h" d="m852.1 848.6c0 7.3 5.9 16.3 13.3 19.9 7.3 3.7 13.3 0.7 13.3-6.6 0-7.4-6-16.3-13.3-20-7.4-3.7-13.3-0.7-13.3 6.7z"/><path class="h" d="m852.1 847.1c0 7.4 5.9 16.3 13.3 20 7.3 3.7 13.3 0.7 13.3-6.6 0-7.4-6-16.3-13.3-20-7.4-3.7-13.3-0.7-13.3 6.6z"/><path class="i" d="m852.1 845.7c0 7.4 5.9 16.3 13.3 20 7.3 3.7 13.3 0.7 13.3-6.7 0-7.3-6-16.3-13.3-20-7.4-3.6-13.3-0.7-13.3 6.7z"/><path class="i" d="m852.1 844.3c0 7.3 5.9 16.3 13.3 20 7.3 3.6 13.3 0.6 13.3-6.7 0-7.4-6-16.3-13.3-20-7.4-3.7-13.3-0.7-13.3 6.7z"/><path class="j" d="m852.1 842.8c0 7.4 5.9 16.3 13.3 20 7.3 3.7 13.3 0.7 13.3-6.6 0-7.4-6-16.3-13.3-20-7.4-3.7-13.3-0.7-13.3 6.6z"/><path class="j" d="m852.1 841.4c0 7.4 5.9 16.3 13.3 20 7.3 3.7 13.3 0.7 13.3-6.7 0-7.3-6-16.3-13.3-19.9-7.4-3.7-13.3-0.7-13.3 6.6z"/><path class="k" d="m852.1 840c0 7.3 5.9 16.3 13.3 20 7.3 3.6 13.3 0.7 13.3-6.7 0-7.3-6-16.3-13.3-20-7.4-3.6-13.3-0.7-13.3 6.7z"/><path class="k" d="m852.1 838.6c0 7.3 5.9 16.3 13.3 19.9 7.3 3.7 13.3 0.7 13.3-6.6 0-7.4-6-16.3-13.3-20-7.4-3.7-13.3-0.7-13.3 6.7z"/><path class="l" d="m852.1 837.1c0 7.4 5.9 16.3 13.3 20 7.3 3.7 13.3 0.7 13.3-6.6 0-7.4-6-16.3-13.3-20-7.4-3.7-13.3-0.7-13.3 6.6z"/><path class="l" d="m852.1 835.7c0 7.4 5.9 16.3 13.3 20 7.3 3.7 13.3 0.7 13.3-6.7 0-7.3-6-16.3-13.3-20-7.4-3.6-13.3-0.7-13.3 6.7z"/><path class="m" d="m852.1 834.3c0 7.3 5.9 16.3 13.3 20 7.3 3.6 13.3 0.6 13.3-6.7 0-7.4-6-16.3-13.3-20-7.4-3.7-13.3-0.7-13.3 6.7z"/><path class="m" d="m852.1 832.8c0 7.4 5.9 16.3 13.3 20 7.3 3.7 13.3 0.7 13.3-6.6 0-7.4-6-16.3-13.3-20-7.4-3.7-13.3-0.7-13.3 6.6z"/><path class="n" d="m852.1 831.4c0 7.4 5.9 16.3 13.3 20 7.3 3.7 13.3 0.7 13.3-6.7 0-7.3-6-16.3-13.3-19.9-7.4-3.7-13.3-0.7-13.3 6.6z"/><path class="o" d="m852.1 830c0 7.3 5.9 16.3 13.3 20 7.3 3.6 13.3 0.7 13.3-6.7 0-7.3-6-16.3-13.3-20-7.4-3.6-13.3-0.7-13.3 6.7z"/></g><g style="mix-blend-mode:multiply"><path class="d" d="m903.2 834.4c0 7.4 5.9 16.3 13.3 20 7.4 3.7 13.3 0.7 13.3-6.6 0-7.4-5.9-16.3-13.3-20-7.4-3.7-13.3-0.7-13.3 6.6z"/><path class="d" d="m903.2 833c0 7.4 5.9 16.3 13.3 20 7.4 3.7 13.3 0.7 13.3-6.7 0-7.3-5.9-16.3-13.3-19.9-7.4-3.7-13.3-0.7-13.3 6.6z"/><path class="e" d="m903.2 831.6c0 7.3 5.9 16.3 13.3 20 7.4 3.6 13.3 0.7 13.3-6.7 0-7.4-5.9-16.3-13.3-20-7.4-3.7-13.3-0.7-13.3 6.7z"/><path class="e" d="m903.2 830.2c0 7.3 5.9 16.3 13.3 19.9 7.4 3.7 13.3 0.7 13.3-6.6 0-7.4-5.9-16.3-13.3-20-7.4-3.7-13.3-0.7-13.3 6.7z"/><path class="f" d="m903.2 828.7c0 7.4 5.9 16.3 13.3 20 7.4 3.7 13.3 0.7 13.3-6.7 0-7.3-5.9-16.3-13.3-19.9-7.4-3.7-13.3-0.7-13.3 6.6z"/><path class="f" d="m903.2 827.3c0 7.4 5.9 16.3 13.3 20 7.4 3.7 13.3 0.7 13.3-6.7 0-7.3-5.9-16.3-13.3-20-7.4-3.6-13.3-0.7-13.3 6.7z"/><path class="g" d="m903.2 825.9c0 7.3 5.9 16.3 13.3 19.9 7.4 3.7 13.3 0.7 13.3-6.6 0-7.4-5.9-16.3-13.3-20-7.4-3.7-13.3-0.7-13.3 6.7z"/><path class="g" d="m903.2 824.4c0 7.4 5.9 16.3 13.3 20 7.4 3.7 13.3 0.7 13.3-6.6 0-7.4-5.9-16.3-13.3-20-7.4-3.7-13.3-0.7-13.3 6.6z"/><path class="h" d="m903.2 823c0 7.4 5.9 16.3 13.3 20 7.4 3.7 13.3 0.7 13.3-6.7 0-7.3-5.9-16.3-13.3-19.9-7.4-3.7-13.3-0.7-13.3 6.6z"/><path class="h" d="m903.2 821.6c0 7.3 5.9 16.3 13.3 20 7.4 3.6 13.3 0.7 13.3-6.7 0-7.4-5.9-16.3-13.3-20-7.4-3.7-13.3-0.7-13.3 6.7z"/><path class="i" d="m903.2 820.2c0 7.3 5.9 16.3 13.3 19.9 7.4 3.7 13.3 0.7 13.3-6.6 0-7.4-5.9-16.3-13.3-20-7.4-3.7-13.3-0.7-13.3 6.7z"/><path class="i" d="m903.2 818.7c0 7.4 5.9 16.3 13.3 20 7.4 3.7 13.3 0.7 13.3-6.7 0-7.3-5.9-16.3-13.3-19.9-7.4-3.7-13.3-0.7-13.3 6.6z"/><path class="j" d="m903.2 817.3c0 7.4 5.9 16.3 13.3 20 7.4 3.7 13.3 0.7 13.3-6.7 0-7.3-5.9-16.3-13.3-20-7.4-3.6-13.3-0.7-13.3 6.7z"/><path class="j" d="m903.2 815.9c0 7.3 5.9 16.3 13.3 19.9 7.4 3.7 13.3 0.7 13.3-6.6 0-7.4-5.9-16.3-13.3-20-7.4-3.7-13.3-0.7-13.3 6.7z"/><path class="k" d="m903.2 814.4c0 7.4 5.9 16.3 13.3 20 7.4 3.7 13.3 0.7 13.3-6.6 0-7.4-5.9-16.3-13.3-20-7.4-3.7-13.3-0.7-13.3 6.6z"/><path class="k" d="m903.2 813c0 7.4 5.9 16.3 13.3 20 7.4 3.7 13.3 0.7 13.3-6.7 0-7.3-5.9-16.3-13.3-19.9-7.4-3.7-13.3-0.7-13.3 6.6z"/><path class="l" d="m903.2 811.6c0 7.3 5.9 16.3 13.3 20 7.4 3.6 13.3 0.7 13.3-6.7 0-7.4-5.9-16.3-13.3-20-7.4-3.7-13.3-0.7-13.3 6.7z"/><path class="l" d="m903.2 810.2c0 7.3 5.9 16.3 13.3 19.9 7.4 3.7 13.3 0.7 13.3-6.6 0-7.4-5.9-16.3-13.3-20-7.4-3.7-13.3-0.7-13.3 6.7z"/><path class="m" d="m903.2 808.7c0 7.4 5.9 16.3 13.3 20 7.4 3.7 13.3 0.7 13.3-6.7 0-7.3-5.9-16.3-13.3-19.9-7.4-3.7-13.3-0.7-13.3 6.6z"/><path class="m" d="m903.2 807.3c0 7.4 5.9 16.3 13.3 20 7.4 3.7 13.3 0.7 13.3-6.7 0-7.3-5.9-16.3-13.3-20-7.4-3.6-13.3-0.7-13.3 6.7z"/><path class="n" d="m903.2 805.9c0 7.3 5.9 16.3 13.3 19.9 7.4 3.7 13.3 0.7 13.3-6.6 0-7.4-5.9-16.3-13.3-20-7.4-3.7-13.3-0.7-13.3 6.7z"/><path class="o" d="m903.2 804.4c0 7.4 5.9 16.3 13.3 20 7.4 3.7 13.3 0.7 13.3-6.6 0-7.4-5.9-16.3-13.3-20-7.4-3.7-13.3-0.7-13.3 6.6z"/></g><g style="mix-blend-mode:multiply"><path class="d" d="m958.3 913.3c0 7.3 5.9 16.3 13.3 19.9 7.3 3.7 13.3 0.7 13.3-6.6 0-7.4-6-16.3-13.3-20-7.4-3.7-13.3-0.7-13.3 6.7z"/><path class="d" d="m958.3 911.8c0 7.4 5.9 16.3 13.3 20 7.3 3.7 13.3 0.7 13.3-6.7 0-7.3-6-16.3-13.3-19.9-7.4-3.7-13.3-0.7-13.3 6.6z"/><path class="e" d="m958.3 910.4c0 7.4 5.9 16.3 13.3 20 7.3 3.7 13.3 0.7 13.3-6.7 0-7.3-6-16.3-13.3-20-7.4-3.6-13.3-0.7-13.3 6.7z"/><path class="e" d="m958.3 909c0 7.3 5.9 16.3 13.3 19.9 7.3 3.7 13.3 0.7 13.3-6.6 0-7.4-6-16.3-13.3-20-7.4-3.7-13.3-0.7-13.3 6.7z"/><path class="f" d="m958.3 907.5c0 7.4 5.9 16.3 13.3 20 7.3 3.7 13.3 0.7 13.3-6.6 0-7.4-6-16.3-13.3-20-7.4-3.7-13.3-0.7-13.3 6.6z"/><path class="f" d="m958.3 906.1c0 7.4 5.9 16.3 13.3 20 7.3 3.7 13.3 0.7 13.3-6.7 0-7.3-6-16.3-13.3-19.9-7.4-3.7-13.3-0.7-13.3 6.6z"/><path class="g" d="m958.3 904.7c0 7.3 5.9 16.3 13.3 20 7.3 3.6 13.3 0.7 13.3-6.7 0-7.4-6-16.3-13.3-20-7.4-3.7-13.3-0.7-13.3 6.7z"/><path class="g" d="m958.3 903.3c0 7.3 5.9 16.3 13.3 19.9 7.3 3.7 13.3 0.7 13.3-6.6 0-7.4-6-16.3-13.3-20-7.4-3.7-13.3-0.7-13.3 6.7z"/><path class="h" d="m958.3 901.8c0 7.4 5.9 16.3 13.3 20 7.3 3.7 13.3 0.7 13.3-6.7 0-7.3-6-16.3-13.3-19.9-7.4-3.7-13.3-0.7-13.3 6.6z"/><path class="h" d="m958.3 900.4c0 7.4 5.9 16.3 13.3 20 7.3 3.7 13.3 0.7 13.3-6.7 0-7.3-6-16.3-13.3-20-7.4-3.6-13.3-0.7-13.3 6.7z"/><path class="i" d="m958.3 899c0 7.3 5.9 16.3 13.3 19.9 7.3 3.7 13.3 0.7 13.3-6.6 0-7.4-6-16.3-13.3-20-7.4-3.7-13.3-0.7-13.3 6.7z"/><path class="i" d="m958.3 897.5c0 7.4 5.9 16.3 13.3 20 7.3 3.7 13.3 0.7 13.3-6.6 0-7.4-6-16.3-13.3-20-7.4-3.7-13.3-0.7-13.3 6.6z"/><path class="j" d="m958.3 896.1c0 7.4 5.9 16.3 13.3 20 7.3 3.7 13.3 0.7 13.3-6.7 0-7.3-6-16.3-13.3-19.9-7.4-3.7-13.3-0.7-13.3 6.6z"/><path class="j" d="m958.3 894.7c0 7.3 5.9 16.3 13.3 20 7.3 3.6 13.3 0.7 13.3-6.7 0-7.4-6-16.3-13.3-20-7.4-3.7-13.3-0.7-13.3 6.7z"/><path class="k" d="m958.3 893.3c0 7.3 5.9 16.3 13.3 19.9 7.3 3.7 13.3 0.7 13.3-6.6 0-7.4-6-16.3-13.3-20-7.4-3.7-13.3-0.7-13.3 6.7z"/><path class="k" d="m958.3 891.8c0 7.4 5.9 16.3 13.3 20 7.3 3.7 13.3 0.7 13.3-6.7 0-7.3-6-16.3-13.3-19.9-7.4-3.7-13.3-0.7-13.3 6.6z"/><path class="l" d="m958.3 890.4c0 7.4 5.9 16.3 13.3 20 7.3 3.7 13.3 0.7 13.3-6.7 0-7.3-6-16.3-13.3-20-7.4-3.6-13.3-0.7-13.3 6.7z"/><path class="l" d="m958.3 889c0 7.3 5.9 16.3 13.3 19.9 7.3 3.7 13.3 0.7 13.3-6.6 0-7.4-6-16.3-13.3-20-7.4-3.7-13.3-0.7-13.3 6.7z"/><path class="m" d="m958.3 887.5c0 7.4 5.9 16.3 13.3 20 7.3 3.7 13.3 0.7 13.3-6.6 0-7.4-6-16.3-13.3-20-7.4-3.7-13.3-0.7-13.3 6.6z"/><path class="m" d="m958.3 886.1c0 7.4 5.9 16.3 13.3 20 7.3 3.7 13.3 0.7 13.3-6.7 0-7.3-6-16.3-13.3-19.9-7.4-3.7-13.3-0.7-13.3 6.6z"/><path class="n" d="m958.3 884.7c0 7.3 5.9 16.3 13.3 20 7.3 3.6 13.3 0.7 13.3-6.7 0-7.4-6-16.3-13.3-20-7.4-3.7-13.3-0.7-13.3 6.7z"/><path class="o" d="m958.3 883.3c0 7.3 5.9 16.3 13.3 19.9 7.3 3.7 13.3 0.7 13.3-6.6 0-7.4-6-16.3-13.3-20-7.4-3.7-13.3-0.7-13.3 6.7z"/></g><path class="ax" d="m965.5 899.2c1.1 0 2.3-0.3 3.4-1 2.8-1.9 3.5-5.7 1.7-8.5l-53.3-79.8c-1.7-2.6-5-3.5-7.8-2.1l-48.7 23.8-76.7-115c-1.8-2.8-5.6-3.6-8.4-1.7-2.8 1.9-3.6 5.6-1.7 8.4l79.6 119.5c1.7 2.6 5 3.5 7.8 2.1l48.7-23.8 50.3 75.4c1.2 1.8 3.1 2.7 5.1 2.7z"/><path class="ay" d="m958.8 886l-7.2-4.8 10.7-5.3q0.2-0.1 0.4-0.2c2.4-1.1 5.6-0.9 9.2 0.9 7.3 3.7 13.3 12.6 13.3 20 0 3.7-1.5 6.3-4 7.5 0 0-11.1 5.5-11.1 5.5l0.5-7.1c-5.9-3.5-10.6-10.3-11.8-16.5z"/><path class="az" d="m947.9 888.6c0 7.4 5.9 16.3 13.3 20 7.4 3.7 13.3 0.7 13.3-6.7 0-7.3-5.9-16.3-13.3-20-7.4-3.6-13.3-0.7-13.3 6.7z"/><path class="aA" d="m903.4 807.2l-7.2-4.8 10.7-5.3q0.2-0.1 0.4-0.2c2.4-1.1 5.7-0.9 9.2 0.9 7.4 3.7 13.3 12.6 13.3 20 0 3.7-1.5 6.3-4 7.5 0 0-11.1 5.5-11.1 5.5l0.5-7.1c-5.9-3.5-10.6-10.3-11.8-16.5z"/><path class="aB" d="m892.5 809.8c0 7.3 6 16.3 13.3 20 7.4 3.6 13.3 0.7 13.3-6.7 0-7.3-5.9-16.3-13.3-20-7.3-3.6-13.3-0.7-13.3 6.7z"/><path class="aC" d="m852.3 832.7l-7.2-4.8 10.7-5.3q0.2-0.1 0.4-0.2c2.4-1.1 5.6-0.8 9.2 0.9 7.3 3.7 13.3 12.7 13.3 20 0 3.7-1.5 6.3-4 7.5 0 0-11.1 5.6-11.1 5.6l0.4-7.2c-5.8-3.5-10.5-10.2-11.7-16.5z"/><path class="aD" d="m841.4 835.3c0 7.4 5.9 16.3 13.3 20 7.3 3.7 13.3 0.7 13.3-6.6 0-7.4-6-16.3-13.3-20-7.4-3.7-13.3-0.7-13.3 6.6z"/><path class="aE" d="m772.7 713.2l-7.3-4.7 10.7-5.4q0.2-0.1 0.4-0.2c2.5-1 5.7-0.8 9.2 0.9 7.4 3.7 13.4 12.7 13.4 20 0 3.8-1.6 6.4-4.1 7.5 0 0-11.1 5.6-11.1 5.6l0.5-7.2c-5.9-3.5-10.6-10.2-11.7-16.5z"/><path class="aF" d="m761.7 715.9c0 7.3 6 16.3 13.3 19.9 7.4 3.7 13.4 0.7 13.4-6.6 0-7.4-6-16.3-13.4-20-7.3-3.7-13.3-0.7-13.3 6.7z"/><path class="aG" d="m785.4 1002.7c-18.1-9.1-39.6-9.1-57.8 0q-0.1 0-0.2 0.1-7.2 3.6-13.2 7.6c-5 3.3-5 10.7 0 14q6 4 13.2 7.6 0.1 0 0.2 0.1c18.2 9.1 39.7 9.1 57.8 0q0.2-0.1 0.3-0.1 7.2-3.6 13.2-7.6c5-3.3 5-10.7 0-14q-6-4-13.2-7.6-0.1-0.1-0.3-0.1z"/><path class="aH" d="m749.6 1026.9c3.9 2.9 12 7.8 15.9 9.1 4 1.3 6-1.9 3.6-4.8l-14.2-16.3-5 5.4c-1.8 1.9-2.8 4.7-0.3 6.6z"/><path class="aH" d="m741 1015.7c4.3-1.4 11.2-5.7 14.1-8.4 3-2.7 0.9-5.9-2.9-5.3l-16.5 2.1v8c0 2.5 2.3 4.6 5.3 3.6z"/><path class="aI" d="m775.5 882.6c3.3 11.4 5.5 23.1 6.5 34.9 1 11.7 0.8 23.6-0.4 35.1-1.3 11.6-3.7 22.9-6.6 33.9-3 11-6.7 21.7-10.7 32.1-1.3 3.4-5 5.1-8.4 3.8-3.1-1.2-4.8-4.6-3.9-7.8 5.7-21 9.9-42.3 10.1-63.2 0.2-10.5-0.7-20.8-2.6-31-1.9-10.1-4.8-19.9-8.6-29.5-2.6-6.7 0.7-14.2 7.3-16.8 6.7-2.7 14.2 0.6 16.9 7.3q0.2 0.5 0.4 1.1z"/><path class="aI" d="m754.7 875.7l-6.5 126.3c-0.2 3.6-3.2 6.3-6.8 6.2-3.3-0.2-6-2.9-6.2-6.2l-6.4-126.3c-0.4-7.1 5.1-13.2 12.3-13.6 7.1-0.4 13.2 5.1 13.6 12.3q0 0.7 0 1.3z"/><path class="aJ" d="m724.3 885.4l-1.1 8c-0.1 0.5-0.6 0.9-1.1 0.9-0.6 0-1-0.4-1-1l-0.3-6.4z"/><path class="aJ" d="m720.2 890.5l0.5 5.4c0 0.7-0.2 1.4-0.7 1.9l-2.3 2.4 1.4-8.8z"/><path class="aJ" d="m718.8 893.7l-1 6.5c-0.1 0.5-0.6 0.9-1.1 0.8-0.5-0.1-0.8-0.4-0.9-0.8l-1.1-7 1.3-8.6c0.3-2 2.3-3.5 4.3-3.2l0.8 0.1c1.9 0.3 3.3 1.9 3.2 3.9z"/><path class="af" d="m740.6 835.7c-3.2 2-6.2 4.7-8.7 7.9-2.4 3.1-4.4 6.7-5.8 10.6-1.4 3.9-2.2 8.1-2.4 12.3-0.2 4.2 0.3 8.5 1.4 12.7 0.7 2.9-1 5.9-3.9 6.6-2.9 0.8-5.9-1-6.7-3.9q0-0.2 0-0.4c-1-5-1.5-10.1-1.5-15.2 0-5.1 0.5-10.3 1.7-15.4 1.3-5.1 3.2-10.1 5.8-14.7 2.6-4.7 5.9-9.1 9.8-13.1l0.3-0.2c3.2-3.2 8.4-3.1 11.5 0.1 3.2 3.2 3.2 8.3 0 11.5-0.4 0.5-0.9 0.9-1.5 1.2z"/><path class="aI" d="m743.6 892.2l17.3 4.9c8.3 2.3 15-2.6 15-10.9 0-8.3-6.7-16.9-15-19.2l-17.3-4.8c-8.3-2.3-15.1 2.5-15.1 10.8 0 8.3 6.8 16.9 15.1 19.2z"/><path class="aJ" d="m761.2 812.8c-0.4 6.4-9.1 1.1-10 0.3-2.8-2.6-7.7-11.2-1.2-14.8 2.2-1.2 7.1-1.4 8.9 0.2 2.7 2.4 2.7 10.4 2.3 14.3z"/><path class="aJ" d="m758.8 815.9l-12-11.7-0.6 23.6 10.9-0.5-1.6-10.9z"/><path class="af" d="m730.8 865.7c6-10.8-1.6-32.3-0.2-41.1 0.3-1.8 1.7-3.3 3.6-3.6 8.7-1.4 27.4 4 34 13.8 3.3 10.9 2.5 29.9 6.4 44.8-18.8 6.1-43.8-7.2-43.8-13.9z"/><path class="aJ" d="m809.2 788.1c0.6 0.1 0.9 0.6 0.9 1.2l-0.4 3.4 1.5-2.5 3.3-3c0.4-0.4 1-0.4 1.4 0 0.4 0.4 0.4 1 0 1.4l-2.5 2.9-0.4 0.8 3.2-1.1c0.5-0.4 1.2-0.2 1.5 0.4l1.5 2.7c0.2 0.4 0.1 0.9-0.2 1.2l-1.5 1.6-1.3 2-2.8 4.1c-0.8 1.2-2.4 1.4-3.7 0.6l-2.3-1.7-0.7-0.4c-1.6-1.2-2-2.7-1.2-5.1l2.5-7.8c0.1-0.5 0.7-0.8 1.2-0.7z"/><path class="af" d="m761.8 828.4c4.6-0.4 9.2-0.9 13.5-1.9 4.4-1.1 8.5-2.5 12.2-4.6 1.9-1 3.6-2.2 5.2-3.5 0.8-0.6 1.5-1.4 2.3-2.1 0.7-0.8 1.4-1.5 2-2.4 2.5-3.3 4.3-7.2 5.4-11.6 0.7-2.9 3.7-4.6 6.6-3.8 2.9 0.7 4.7 3.7 3.9 6.6q0 0.2-0.1 0.4c-1.7 5-3.9 10.1-7.1 14.7-3.1 4.7-7.3 8.6-11.9 11.8-4.5 3.1-9.4 5.5-14.3 7.4-5 2-9.9 3.5-14.9 4.9-4.4 1.3-8.9-1.2-10.2-5.5-1.2-4.4 1.3-8.9 5.6-10.1q0.8-0.3 1.7-0.3z"/><path class="aH" d="m711.5 820.8c2.1-1.8 5-2.3 7.7-2.4 2.8-0.1 5.5 0.2 8.3-0.3 2.7-0.4 5.4-1.9 6.5-4.4 1-2.3 0.5-4.9 1.3-7.2 1-2.9 3.9-4.8 6.9-5.4q0.5-0.1 0.9-0.1c0.3-1.7 0.9-3.3 2.1-4.5 4.1-4.6 9.3-5.9 14.7-6.1 8.2-0.3 13.9 5.1-0.6 11.1l-3.2 0.6c3.9 7.7-7.7 5.8-7.9 10.3-0.2 4.8 19.6 11.3 15.5 23.4-4 12.3-28.6 13.4-35.9 11.6-7.2-1.9-14.1-6.3-17.5-13-1.2-2.2-1.9-4.6-1.8-7.1 0.1-2.4 1.1-4.9 3-6.5z"/><path class="aG" d="m499.5 768.4c18.2-9 39.7-9 57.8 0q0.2 0.1 0.3 0.2 7.2 3.6 13.2 7.5c5 3.4 5 10.7 0 14q-6 4-13.2 7.6-0.1 0.1-0.3 0.2c-18.1 9-39.6 9-57.8 0q-0.1-0.1-0.2-0.2-7.2-3.6-13.2-7.6c-5-3.3-5-10.6 0-14q6-3.9 13.2-7.5 0.1-0.1 0.2-0.2z"/><path class="aH" d="m541.5 781.4c-5.2-1.7-13.6-7-17.2-10.2-3.6-3.3-1-7.1 3.6-6.4l20 2.5v9.7c0 3-2.8 5.6-6.4 4.4z"/><path class="aI" d="m557 645.6l-8.4 119.9c-0.4 4.3-4.1 7.6-8.4 7.3-3.9-0.3-6.9-3.4-7.2-7.3l-8.4-119.9c-0.7-9 6.1-16.7 15-17.4 9-0.6 16.8 6.1 17.4 15.1 0 0.7 0 1.6 0 2.3z"/><path class="aH" d="m533.5 789.4l-0.8-8.2-25.5 6.3c-3.7 0.9-3.7 7.5 0.8 7.5h21.2c3.1 0 4.6-3.3 4.3-5.6z"/><path class="aI" d="m517.5 783.5l-12.9-33.7-3.3-8.5-1.6-4.2-0.8-2.1q-0.5-1.3-0.9-2.5c-2.2-6.8-3.4-14-3.5-21.2q0-5.5 0.8-10.9 0.3-2.7 1-5.4l1-4.7q2.2-8.9 4.6-17.9c3.3-12 6.9-23.9 11.9-36.1v-0.1c3.4-8.3 12.9-12.2 21.2-8.8 8.3 3.4 12.3 12.9 8.9 21.2-0.2 0.5-0.5 1.2-0.8 1.7-5.4 9.6-10.1 20.2-14.4 31q-3.3 8.2-6.3 16.5l-1.5 4q-0.6 1.7-1.1 3.4-0.9 3.4-1.3 7c-0.5 4.8-0.3 9.7 0.6 14.5q0.2 0.9 0.4 1.8l0.5 2.1 1.2 4.4 2.2 8.8 9 35c1 4.1-1.5 8.4-5.7 9.4-3.8 1-7.8-1.1-9.2-4.7z"/><path class="aJ" d="m531.5 569.1l-1.5 11.9 13.5-0.7v-14.5z"/><path class="aJ" d="m526.7 566.4c-0.1 1.9 2.5 4.7 6 3.3 1.2-0.4 8.9-3.9 8.9-3.9 0 0-0.2-12.8-1.7-13.9-2.1-1.6-7.3-1.9-9.4-0.4-3.1 2.3-3.8 10.8-3.8 14.9z"/><path class="aH" d="m530.7 555.5c1.9 1.2 0.9 4.8 0.7 6.2-0.3 2.6 6.6 8 12.1 7.9 0-5.4 8.5-15.8 1.3-15.8-2.6-8-14.2-3.6-16.9-4.9-1.6 1.6-0.6 4.5 2.8 6.6z"/><path class="aH" d="m532.3 558.5l-1.6 4c-0.3 0.9-1.3 1.3-2.1 1.1l-0.9-0.2c-0.8-0.2-1.7 0.2-2.1 1l-2.1 4.1c-0.4 0.8-0.2 1.9 0.6 2.4l0.4 0.2q0.5 0.3 1.1 0.3l5-0.2c0.8 0 1.4-0.5 1.7-1.2l2.4-7.4z"/><path class="aH" d="m512.7 588.7c10.8-8.5 29.7-14.1 42.6-15.6 7.2-0.8 12.8 4.6 12.3 11.7-1.3 19.5-6.7 57.1-6.7 57.1-1.8 7.8-55.5 20.6-58.3 12.4l4.5-55.6c0.3-3.8 2.4-7.5 5.6-10z"/><path class="aJ" d="m479.4 576.8c1-0.9 2.6-0.8 3.5 0.2l-0.1-0.7-1.4-3.5c-0.2-0.5 0-1 0.4-1.3 0.5-0.2 1.1 0 1.3 0.4l2.1 3.9 0.6 2.8 0.6-3.3c0.2-0.6 0.7-0.9 1.2-0.8 0.5 0 0.9 0.5 0.9 1l-0.1 7.9c0 2.5-0.9 3.7-2.7 4.2l-0.7 0.2-2.6 0.8c-1.4 0.4-2.8-0.4-3.2-1.8l-1.3-4.6-0.8-3.2z"/><path class="aH" d="m489 592.2c-0.7 3.1-1.3 6.1-1.8 9.1-0.5 3-0.8 6-0.9 8.9 0 1.4 0 2.8 0.2 4.1 0.1 1.3 0.3 2.5 0.6 3.3 0.2 0.4 0.4 0.7 0.5 0.9 0.1 0.1 0.2 0.1 0.1 0-0.2-0.2-0.6-0.2-0.1-0.4 0.4-0.1 1.4-0.6 2.3-1.4 0.9-0.7 1.9-1.6 2.9-2.5 1.9-2 3.9-4.3 5.7-6.7 3.7-4.7 7.3-9.9 10.8-15.1 2.4-3.8 7.5-4.8 11.2-2.4 3.8 2.5 4.8 7.6 2.4 11.3-0.3 0.4-0.6 0.8-0.9 1.1-4.4 4.7-8.7 9.4-13.3 14.2-2.4 2.3-4.8 4.7-7.5 6.9-1.4 1.2-2.9 2.3-4.5 3.3-1.7 1.1-3.6 2.1-6.2 2.7-1.3 0.3-2.9 0.5-4.5 0.3-1.7-0.3-3.3-0.9-4.7-1.9-1.4-1-2.5-2.2-3.2-3.4-0.7-1.2-1.2-2.4-1.5-3.4-0.7-2.2-0.9-4.2-1-6-0.1-1.9 0-3.7 0.1-5.4 0.1-3.4 0.6-6.7 1.1-10 0.4-3.2 1-6.5 1.5-9.5 0.5-3 3.2-5 6.2-4.6 3 0.5 5 3.2 4.6 6.2q-0.1 0.2-0.1 0.4z"/></svg>